ply
format ascii 1.0
element vertex 988
property float x
property float y
property float z
property uchar red
property uchar green
property uchar blue
element face 1972
property list uchar int vertex_indices
end_header
0.4390 0.2900 0.2900 214 38 41
0.4400 0.2900 0.2880 214 38 41
0.4400 0.2884 0.2900 214 38 41
0.4400 0.2879 0.3100 214 38 41
0.4386 0.2900 0.3100 214 38 41
0.4400 0.2900 0.3144 214 38 41
0.4339 0.3100 0.2900 214 38 41
0.4400 0.3100 0.2782 214 38 41
0.4319 0.3100 0.3100 214 38 41
0.4400 0.2986 0.3300 214 38 41
0.4340 0.3100 0.3300 214 38 41
0.4400 0.2987 0.3500 214 38 41
0.4353 0.3100 0.3500 214 38 41
0.4400 0.3062 0.3700 214 38 41
0.4389 0.3100 0.3700 214 38 41
0.4400 0.3100 0.3721 214 38 41
0.4341 0.3300 0.2900 214 38 41
0.4400 0.3300 0.2789 214 38 41
0.4315 0.3300 0.3100 214 38 41
0.4321 0.3300 0.3300 214 38 41
0.4357 0.3300 0.3500 214 38 41
0.4400 0.3300 0.3595 214 38 41
0.4400 0.3138 0.3700 214 38 41
0.4400 0.3407 0.2900 214 38 41
0.4400 0.3494 0.3100 214 38 41
0.4400 0.3469 0.3300 214 38 41
0.4400 0.3372 0.3500 214 38 41
0.4561 0.2700 0.2700 214 38 41
0.4600 0.2700 0.2605 214 38 41
0.4600 0.2640 0.2700 214 38 41
0.4600 0.2590 0.2900 214 38 41
0.4516 0.2700 0.2900 214 38 41
0.4600 0.2593 0.3100 214 38 41
0.4522 0.2700 0.3100 214 38 41
0.4600 0.2590 0.3300 214 38 41
0.4547 0.2700 0.3300 214 38 41
0.4600 0.2541 0.3500 214 38 41
0.4539 0.2700 0.3500 214 38 41
0.4600 0.2700 0.3697 214 38 41
0.4594 0.2900 0.2300 214 38 41
0.4600 0.2900 0.2291 214 38 41
0.4600 0.2889 0.2300 214 38 41
0.4600 0.2774 0.2500 214 38 41
0.4536 0.2900 0.2500 214 38 41
0.4481 0.2900 0.2700 214 38 41
0.4472 0.2900 0.3300 214 38 41
0.4479 0.2900 0.3500 214 38 41
0.4600 0.2900 0.3675 214 38 41
0.4600 0.2948 0.2300 214 38 41
0.4542 0.3100 0.2500 214 38 41
0.4600 0.3100 0.2348 214 38 41
0.4451 0.3100 0.2700 214 38 41
0.4600 0.3100 0.3659 214 38 41
0.4458 0.3100 0.3700 214 38 41
0.4600 0.3175 0.2500 214 38 41
0.4505 0.3300 0.2700 214 38 41
0.4600 0.3300 0.2635 214 38 41
0.4567 0.3300 0.3500 214 38 41
0.4600 0.3285 0.3500 214 38 41
0.4600 0.3300 0.3489 214 38 41
0.4600 0.3348 0.2700 214 38 41
0.4600 0.3452 0.2900 214 38 41
0.4427 0.3500 0.3100 214 38 41
0.4600 0.3500 0.3040 214 38 41
0.4600 0.3500 0.3157 214 38 41
0.4600 0.3439 0.3300 214 38 41
0.4600 0.3520 0.3100 214 38 41
0.4776 0.2300 0.2700 214 38 41
0.4800 0.2300 0.2651 214 38 41
0.4800 0.2269 0.2700 214 38 41
0.4800 0.2223 0.2900 214 38 41
0.4744 0.2300 0.2900 214 38 41
0.4800 0.2212 0.3100 214 38 41
0.4739 0.2300 0.3100 214 38 41
0.4800 0.2180 0.3300 214 38 41
0.4725 0.2300 0.3300 214 38 41
0.4800 0.2208 0.3500 214 38 41
0.4742 0.2300 0.3500 214 38 41
0.4800 0.2300 0.3576 214 38 41
0.4746 0.2500 0.2500 214 38 41
0.4800 0.2500 0.2387 214 38 41
0.4800 0.2414 0.2500 214 38 41
0.4682 0.2500 0.2700 214 38 41
0.4662 0.2500 0.2900 214 38 41
0.4659 0.2500 0.3100 214 38 41
0.4640 0.2500 0.3300 214 38 41
0.4616 0.2500 0.3500 214 38 41
0.4800 0.2401 0.3700 214 38 41
0.4697 0.2500 0.3700 214 38 41
0.4800 0.2500 0.3886 214 38 41
0.4704 0.2700 0.2300 214 38 41
0.4800 0.2700 0.2118 214 38 41
0.4800 0.2561 0.2300 214 38 41
0.4643 0.2700 0.2500 214 38 41
0.4601 0.2700 0.3700 214 38 41
0.4800 0.2526 0.3900 214 38 41
0.4747 0.2700 0.3900 214 38 41
0.4800 0.2700 0.3975 214 38 41
0.4745 0.2900 0.2100 214 38 41
0.4800 0.2900 0.2057 214 38 41
0.4800 0.2734 0.2100 214 38 41
0.4612 0.2900 0.3700 214 38 41
0.4800 0.2900 0.3859 214 38 41
0.4800 0.2820 0.3900 214 38 41
0.4796 0.3100 0.2100 214 38 41
0.4800 0.3100 0.2097 214 38 41
0.4626 0.3100 0.2300 214 38 41
0.4657 0.3100 0.3700 214 38 41
0.4800 0.3100 0.3767 214 38 41
0.4800 0.3104 0.2100 214 38 41
0.4800 0.3224 0.2300 214 38 41
0.4800 0.3279 0.2500 214 38 41
0.4800 0.3300 0.2538 214 38 41
0.4800 0.3295 0.3500 214 38 41
0.4800 0.3300 0.3494 214 38 41
0.4800 0.3181 0.3700 214 38 41
0.4800 0.3372 0.2700 214 38 41
0.4800 0.3437 0.2900 214 38 41
0.4800 0.3500 0.3099 214 38 41
0.4800 0.3412 0.3300 214 38 41
0.4800 0.3500 0.3101 214 38 41
0.4800 0.3500 0.3100 214 38 41
0.4994 0.1900 0.3300 214 38 41
0.5000 0.1900 0.3279 214 38 41
0.5000 0.1891 0.3300 214 38 41
0.5000 0.1900 0.3321 214 38 41
0.4960 0.2100 0.2700 214 38 41
0.5000 0.2100 0.2627 214 38 41
0.5000 0.2065 0.2700 214 38 41
0.5000 0.2009 0.2900 214 38 41
0.4908 0.2100 0.2900 214 38 41
0.5000 0.1957 0.3100 214 38 41
0.4889 0.2100 0.3100 214 38 41
0.4859 0.2100 0.3300 214 38 41
0.5000 0.1983 0.3500 214 38 41
0.4901 0.2100 0.3500 214 38 41
0.5000 0.2100 0.3565 214 38 41
0.4966 0.2300 0.2300 214 38 41
0.5000 0.2300 0.2250 214 38 41
0.5000 0.2260 0.2300 214 38 41
0.5000 0.2167 0.2500 214 38 41
0.4878 0.2300 0.2500 214 38 41
0.5000 0.2300 0.3659 214 38 41
0.4971 0.2500 0.2100 214 38 41
0.5000 0.2500 0.2078 214 38 41
0.5000 0.2463 0.2100 214 38 41
0.4844 0.2500 0.2300 214 38 41
0.5000 0.2339 0.3700 214 38 41
0.5000 0.2412 0.3900 214 38 41
0.4812 0.2500 0.3900 214 38 41
0.5000 0.2440 0.4100 214 38 41
0.4915 0.2500 0.4100 214 38 41
0.5000 0.2478 0.4300 214 38 41
0.4968 0.2500 0.4300 214 38 41
0.5000 0.2500 0.4332 214 38 41
0.4818 0.2700 0.2100 214 38 41
0.5000 0.2700 0.2019 214 38 41
0.4869 0.2700 0.4100 214 38 41
0.4940 0.2700 0.4300 214 38 41
0.5000 0.2700 0.4363 214 38 41
0.5000 0.2900 0.2006 214 38 41
0.4833 0.2900 0.3900 214 38 41
0.4938 0.2900 0.4100 214 38 41
0.5000 0.2900 0.4245 214 38 41
0.5000 0.2841 0.4300 214 38 41
0.5000 0.3100 0.2020 214 38 41
0.4964 0.3100 0.3900 214 38 41
0.5000 0.3100 0.3933 214 38 41
0.5000 0.2969 0.4100 214 38 41
0.5000 0.3268 0.2100 214 38 41
0.4912 0.3300 0.2300 214 38 41
0.5000 0.3300 0.2148 214 38 41
0.4839 0.3300 0.2500 214 38 41
0.4811 0.3300 0.3500 214 38 41
0.5000 0.3300 0.3638 214 38 41
0.5000 0.3268 0.3700 214 38 41
0.5000 0.3127 0.3900 214 38 41
0.5000 0.3353 0.2300 214 38 41
0.5000 0.3369 0.2500 214 38 41
0.5000 0.3394 0.2700 214 38 41
0.5000 0.3437 0.2900 214 38 41
0.5000 0.3500 0.3099 214 38 41
0.5000 0.3431 0.3300 214 38 41
0.5000 0.3500 0.3101 214 38 41
0.5000 0.3359 0.3500 214 38 41
0.5000 0.3500 0.3100 214 38 41
0.5163 0.1500 0.3500 214 38 41
0.5200 0.1500 0.3416 214 38 41
0.5200 0.1454 0.3500 214 38 41
0.5200 0.1500 0.3547 214 38 41
0.5167 0.1700 0.3100 214 38 41
0.5200 0.1700 0.3047 214 38 41
0.5200 0.1660 0.3100 214 38 41
0.5200 0.1554 0.3300 214 38 41
0.5105 0.1700 0.3300 214 38 41
0.5095 0.1700 0.3500 214 38 41
0.5200 0.1626 0.3700 214 38 41
0.5148 0.1700 0.3700 214 38 41
0.5200 0.1700 0.3805 214 38 41
0.5118 0.1900 0.2900 214 38 41
0.5200 0.1900 0.2765 214 38 41
0.5200 0.1810 0.2900 214 38 41
0.5045 0.1900 0.3100 214 38 41
0.5047 0.1900 0.3500 214 38 41
0.5142 0.1900 0.3700 214 38 41
0.5200 0.1900 0.3810 214 38 41
0.5161 0.2100 0.2300 214 38 41
0.5200 0.2100 0.2249 214 38 41
0.5200 0.2068 0.2300 214 38 41
0.5200 0.2001 0.2500 214 38 41
0.5073 0.2100 0.2500 214 38 41
0.5200 0.1935 0.2700 214 38 41
0.5200 0.1996 0.3700 214 38 41
0.5200 0.2100 0.3641 214 38 41
0.5130 0.2300 0.2100 214 38 41
0.5200 0.2300 0.2046 214 38 41
0.5200 0.2228 0.2100 214 38 41
0.5200 0.2300 0.3670 214 38 41
0.5200 0.2500 0.2004 214 38 41
0.5200 0.2331 0.3700 214 38 41
0.5200 0.2399 0.3900 214 38 41
0.5200 0.2410 0.4100 214 38 41
0.5200 0.2463 0.4300 214 38 41
0.5200 0.2500 0.4343 214 38 41
0.5200 0.2700 0.2000 214 38 41
0.5200 0.2700 0.4409 214 38 41
0.5200 0.2900 0.2000 214 38 41
0.5061 0.2900 0.4300 214 38 41
0.5200 0.2900 0.4368 214 38 41
0.5200 0.3100 0.2006 214 38 41
0.5200 0.3032 0.4100 214 38 41
0.5200 0.3100 0.4007 214 38 41
0.5200 0.2952 0.4300 214 38 41
0.5079 0.3300 0.2100 214 38 41
0.5200 0.3300 0.2071 214 38 41
0.5091 0.3300 0.3700 214 38 41
0.5200 0.3300 0.3747 214 38 41
0.5200 0.3185 0.3900 214 38 41
0.5200 0.3329 0.2100 214 38 41
0.5200 0.3392 0.2300 214 38 41
0.5200 0.3398 0.2500 214 38 41
0.5200 0.3402 0.2700 214 38 41
0.5200 0.3438 0.2900 214 38 41
0.5200 0.3500 0.3072 214 38 41
0.5200 0.3470 0.3300 214 38 41
0.5200 0.3500 0.3156 214 38 41
0.5200 0.3417 0.3500 214 38 41
0.5200 0.3335 0.3700 214 38 41
0.5200 0.3512 0.3100 214 38 41
0.5375 0.1500 0.3100 214 38 41
0.5400 0.1500 0.3074 214 38 41
0.5400 0.1480 0.3100 214 38 41
0.5400 0.1365 0.3300 214 38 41
0.5249 0.1500 0.3300 214 38 41
0.5400 0.1331 0.3500 214 38 41
0.5400 0.1500 0.3642 214 38 41
0.5317 0.1700 0.2900 214 38 41
0.5400 0.1700 0.2806 214 38 41
0.5400 0.1632 0.2900 214 38 41
0.5400 0.1550 0.3700 214 38 41
0.5400 0.1677 0.3900 214 38 41
0.5338 0.1700 0.3900 214 38 41
0.5400 0.1700 0.3921 214 38 41
0.5343 0.1900 0.2500 214 38 41
0.5400 0.1900 0.2416 214 38 41
0.5400 0.1858 0.2500 214 38 41
0.5400 0.1774 0.2700 214 38 41
0.5245 0.1900 0.2700 214 38 41
0.5337 0.1900 0.3900 214 38 41
0.5400 0.1900 0.3922 214 38 41
0.5333 0.2100 0.2100 214 38 41
0.5400 0.2100 0.2035 214 38 41
0.5400 0.2054 0.2100 214 38 41
0.5400 0.1956 0.2300 214 38 41
0.5400 0.2063 0.3700 214 38 41
0.5400 0.2100 0.3668 214 38 41
0.5400 0.1924 0.3900 214 38 41
0.5398 0.2300 0.1900 214 38 41
0.5400 0.2300 0.1898 214 38 41
0.5400 0.2297 0.1900 214 38 41
0.5400 0.2300 0.3653 214 38 41
0.5400 0.2306 0.1900 214 38 41
0.5400 0.2500 0.1944 214 38 41
0.5400 0.2369 0.3700 214 38 41
0.5400 0.2457 0.3900 214 38 41
0.5400 0.2472 0.4100 214 38 41
0.5296 0.2500 0.4300 214 38 41
0.5400 0.2500 0.4180 214 38 41
0.5400 0.2700 0.1989 214 38 41
0.5400 0.2620 0.4300 214 38 41
0.5400 0.2700 0.4330 214 38 41
0.5400 0.2900 0.2002 214 38 41
0.5337 0.2900 0.4300 214 38 41
0.5400 0.2805 0.4300 214 38 41
0.5400 0.2900 0.4251 214 38 41
0.5400 0.3100 0.2008 214 38 41
0.5400 0.2990 0.4100 214 38 41
0.5400 0.3100 0.3992 214 38 41
0.5400 0.3300 0.2071 214 38 41
0.5400 0.3182 0.3900 214 38 41
0.5400 0.3300 0.3755 214 38 41
0.5400 0.3329 0.2100 214 38 41
0.5400 0.3394 0.2300 214 38 41
0.5400 0.3400 0.2500 214 38 41
0.5400 0.3403 0.2700 214 38 41
0.5400 0.3430 0.2900 214 38 41
0.5400 0.3500 0.3091 214 38 41
0.5342 0.3500 0.3300 214 38 41
0.5400 0.3500 0.3346 214 38 41
0.5400 0.3459 0.3500 214 38 41
0.5400 0.3345 0.3700 214 38 41
0.5400 0.3504 0.3100 214 38 41
0.5400 0.3512 0.3300 214 38 41
0.5509 0.1300 0.3300 214 38 41
0.5600 0.1300 0.3234 214 38 41
0.5600 0.1244 0.3300 214 38 41
0.5600 0.1275 0.3500 214 38 41
0.5497 0.1300 0.3500 214 38 41
0.5600 0.1300 0.3524 214 38 41
0.5600 0.1500 0.2958 214 38 41
0.5600 0.1396 0.3100 214 38 41
0.5600 0.1500 0.3654 214 38 41
0.5510 0.1700 0.2700 214 38 41
0.5600 0.1700 0.2586 214 38 41
0.5600 0.1645 0.2700 214 38 41
0.5600 0.1542 0.2900 214 38 41
0.5600 0.1544 0.3700 214 38 41
0.5600 0.1671 0.3900 214 38 41
0.5600 0.1700 0.3927 214 38 41
0.5489 0.1900 0.2300 214 38 41
0.5600 0.1900 0.2183 214 38 41
0.5600 0.1825 0.2300 214 38 41
0.5600 0.1743 0.2500 214 38 41
0.5600 0.1900 0.3928 214 38 41
0.5538 0.2100 0.1900 214 38 41
0.5600 0.2100 0.1839 214 38 41
0.5600 0.2057 0.1900 214 38 41
0.5600 0.1951 0.2100 214 38 41
0.5600 0.2063 0.3700 214 38 41
0.5600 0.2100 0.3666 214 38 41
0.5600 0.1930 0.3900 214 38 41
0.5600 0.2300 0.1727 214 38 41
0.5600 0.2300 0.3619 214 38 41
0.5495 0.2500 0.1900 214 38 41
0.5600 0.2500 0.1840 214 38 41
0.5529 0.2500 0.3700 214 38 41
0.5600 0.2500 0.3652 214 38 41
0.5442 0.2500 0.3900 214 38 41
0.5428 0.2500 0.4100 214 38 41
0.5600 0.2575 0.1900 214 38 41
0.5600 0.2700 0.1978 214 38 41
0.5600 0.2615 0.3700 214 38 41
0.5600 0.2700 0.3781 214 38 41
0.5546 0.2700 0.3900 214 38 41
0.5501 0.2700 0.4100 214 38 41
0.5428 0.2700 0.4300 214 38 41
0.5600 0.2900 0.2029 214 38 41
0.5600 0.2784 0.3900 214 38 41
0.5600 0.2900 0.3992 214 38 41
0.5491 0.2900 0.4100 214 38 41
0.5600 0.3100 0.2047 214 38 41
0.5600 0.3100 0.3944 214 38 41
0.5600 0.3256 0.2100 214 38 41
0.5524 0.3300 0.2100 214 38 41
0.5600 0.3300 0.2129 214 38 41
0.5516 0.3300 0.3700 214 38 41
0.5600 0.3268 0.3700 214 38 41
0.5600 0.3300 0.3656 214 38 41
0.5600 0.3144 0.3900 214 38 41
0.5600 0.3383 0.2300 214 38 41
0.5600 0.3399 0.2500 214 38 41
0.5600 0.3401 0.2700 214 38 41
0.5600 0.3419 0.2900 214 38 41
0.5418 0.3500 0.3100 214 38 41
0.5600 0.3464 0.3100 214 38 41
0.5460 0.3500 0.3300 214 38 41
0.5600 0.3471 0.3300 214 38 41
0.5600 0.3405 0.3500 214 38 41
0.5800 0.1300 0.3266 214 38 41
0.5800 0.1285 0.3300 214 38 41
0.5677 0.1300 0.3500 214 38 41
0.5800 0.1300 0.3353 214 38 41
0.5685 0.1500 0.2900 214 38 41
0.5800 0.1500 0.2799 214 38 41
0.5800 0.1446 0.2900 214 38 41
0.5800 0.1362 0.3100 214 38 41
0.5800 0.1358 0.3500 214 38 41
0.5800 0.1500 0.3614 214 38 41
0.5766 0.1700 0.2300 214 38 41
0.5800 0.1700 0.2259 214 38 41
0.5800 0.1675 0.2300 214 38 41
0.5800 0.1621 0.2500 214 38 41
0.5665 0.1700 0.2500 214 38 41
0.5800 0.1553 0.2700 214 38 41
0.5800 0.1562 0.3700 214 38 41
0.5800 0.1672 0.3900 214 38 41
0.5800 0.1700 0.3927 214 38 41
0.5683 0.1900 0.2100 214 38 41
0.5800 0.1900 0.2006 214 38 41
0.5800 0.1815 0.2100 214 38 41
0.5800 0.1900 0.3928 214 38 41
0.5748 0.2100 0.1700 214 38 41
0.5800 0.2100 0.1652 214 38 41
0.5800 0.2066 0.1700 214 38 41
0.5800 0.1974 0.1900 214 38 41
0.5800 0.2061 0.3700 214 38 41
0.5800 0.2100 0.3665 214 38 41
0.5800 0.1929 0.3900 214 38 41
0.5635 0.2300 0.1700 214 38 41
0.5800 0.2300 0.1567 214 38 41
0.5800 0.2300 0.3606 214 38 41
0.5800 0.2439 0.1700 214 38 41
0.5800 0.2500 0.1763 214 38 41
0.5800 0.2500 0.3608 214 38 41
0.5800 0.2602 0.1900 214 38 41
0.5800 0.2700 0.2009 214 38 41
0.5710 0.2700 0.3700 214 38 41
0.5800 0.2700 0.3669 214 38 41
0.5800 0.2847 0.2100 214 38 41
0.5748 0.2900 0.2100 214 38 41
0.5800 0.2900 0.2128 214 38 41
0.5800 0.2736 0.3700 214 38 41
0.5800 0.2884 0.3900 214 38 41
0.5800 0.2900 0.3914 214 38 41
0.5694 0.3100 0.2100 214 38 41
0.5800 0.3100 0.2162 214 38 41
0.5767 0.3100 0.3900 214 38 41
0.5800 0.3022 0.3900 214 38 41
0.5800 0.3100 0.3887 214 38 41
0.5800 0.3300 0.2239 214 38 41
0.5800 0.3216 0.3700 214 38 41
0.5800 0.3300 0.3579 214 38 41
0.5800 0.3348 0.2300 214 38 41
0.5800 0.3393 0.2500 214 38 41
0.5800 0.3399 0.2700 214 38 41
0.5800 0.3420 0.2900 214 38 41
0.5800 0.3481 0.3100 214 38 41
0.5800 0.3489 0.3300 214 38 41
0.5800 0.3362 0.3500 214 38 41
0.5821 0.1300 0.3300 214 38 41
0.5899 0.1500 0.2700 214 38 41
0.6000 0.1500 0.2577 214 38 41
0.6000 0.1446 0.2700 214 38 41
0.6000 0.1368 0.2900 214 38 41
0.6000 0.1338 0.3100 214 38 41
0.6000 0.1464 0.3300 214 38 41
0.5922 0.1500 0.3500 214 38 41
0.6000 0.1500 0.3360 214 38 41
0.5973 0.1700 0.2100 214 38 41
0.6000 0.1700 0.2082 214 38 41
0.6000 0.1683 0.2100 214 38 41
0.6000 0.1583 0.2300 214 38 41
0.6000 0.1534 0.2500 214 38 41
0.6000 0.1552 0.3500 214 38 41
0.6000 0.1595 0.3700 214 38 41
0.6000 0.1674 0.3900 214 38 41
0.6000 0.1700 0.3926 214 38 41
0.5989 0.1900 0.1900 214 38 41
0.6000 0.1900 0.1888 214 38 41
0.6000 0.1894 0.1900 214 38 41
0.6000 0.1900 0.3929 214 38 41
0.5974 0.2100 0.1500 214 38 41
0.6000 0.2100 0.1484 214 38 41
0.6000 0.2079 0.1500 214 38 41
0.6000 0.1971 0.1700 214 38 41
0.6000 0.2067 0.3700 214 38 41
0.6000 0.2100 0.3670 214 38 41
0.6000 0.1932 0.3900 214 38 41
0.5906 0.2300 0.1500 214 38 41
0.6000 0.2300 0.1457 214 38 41
0.6000 0.2300 0.3609 214 38 41
0.6000 0.2370 0.1500 214 38 41
0.5902 0.2500 0.1700 214 38 41
0.6000 0.2500 0.1631 214 38 41
0.6000 0.2500 0.3609 214 38 41
0.6000 0.2541 0.1700 214 38 41
0.6000 0.2602 0.1900 214 38 41
0.6000 0.2700 0.2098 214 38 41
0.6000 0.2700 0.3661 214 38 41
0.6000 0.2702 0.2100 214 38 41
0.6000 0.2900 0.2185 214 38 41
0.6000 0.2758 0.3700 214 38 41
0.5837 0.2900 0.3900 214 38 41
0.6000 0.2900 0.3826 214 38 41
0.6000 0.3100 0.2213 214 38 41
0.6000 0.3100 0.3754 214 38 41
0.6000 0.3275 0.2300 214 38 41
0.5954 0.3300 0.2300 214 38 41
0.6000 0.3300 0.2340 214 38 41
0.5943 0.3300 0.3500 214 38 41
0.6000 0.3274 0.3500 214 38 41
0.6000 0.3300 0.3470 214 38 41
0.6000 0.3141 0.3700 214 38 41
0.6000 0.3354 0.2500 214 38 41
0.6000 0.3369 0.2700 214 38 41
0.6000 0.3399 0.2900 214 38 41
0.6000 0.3444 0.3100 214 38 41
0.6000 0.3448 0.3300 214 38 41
0.6176 0.1500 0.2300 214 38 41
0.6200 0.1500 0.2280 214 38 41
0.6200 0.1487 0.2300 214 38 41
0.6200 0.1425 0.2500 214 38 41
0.6059 0.1500 0.2500 214 38 41
0.6200 0.1377 0.2700 214 38 41
0.6200 0.1340 0.2900 214 38 41
0.6200 0.1383 0.3100 214 38 41
0.6060 0.1500 0.3300 214 38 41
0.6200 0.1500 0.3217 214 38 41
0.6200 0.1700 0.2004 214 38 41
0.6200 0.1619 0.2100 214 38 41
0.6200 0.1551 0.3300 214 38 41
0.6200 0.1594 0.3500 214 38 41
0.6200 0.1606 0.3700 214 38 41
0.6200 0.1673 0.3900 214 38 41
0.6200 0.1700 0.3927 214 38 41
0.6106 0.1900 0.1700 214 38 41
0.6200 0.1900 0.1504 214 38 41
0.6200 0.1841 0.1700 214 38 41
0.6200 0.1786 0.1900 214 38 41
0.6200 0.1900 0.3948 214 38 41
0.6200 0.2100 0.1411 214 38 41
0.6200 0.1903 0.1500 214 38 41
0.6089 0.2100 0.3700 214 38 41
0.6200 0.2100 0.3760 214 38 41
0.6200 0.1975 0.3900 214 38 41
0.6200 0.2300 0.1415 214 38 41
0.6200 0.2211 0.3700 214 38 41
0.6200 0.2300 0.3670 214 38 41
0.6200 0.2496 0.1500 214 38 41
0.6200 0.2500 0.1504 214 38 41
0.6200 0.2500 0.3669 214 38 41
0.6200 0.2585 0.1700 214 38 41
0.6200 0.2604 0.1900 214 38 41
0.6008 0.2700 0.2100 214 38 41
0.6200 0.2670 0.2100 214 38 41
0.6200 0.2700 0.2130 214 38 41
0.6200 0.2658 0.3700 214 38 41
0.6165 0.2700 0.3700 214 38 41
0.6200 0.2700 0.3711 214 38 41
0.6200 0.2900 0.2199 214 38 41
0.6200 0.2900 0.3752 214 38 41
0.6200 0.3100 0.2250 214 38 41
0.6068 0.3100 0.3700 214 38 41
0.6200 0.2976 0.3700 214 38 41
0.6200 0.3100 0.3602 214 38 41
0.6200 0.3162 0.2300 214 38 41
0.6093 0.3300 0.2500 214 38 41
0.6200 0.3238 0.2500 214 38 41
0.6142 0.3300 0.2700 214 38 41
0.6200 0.3268 0.2700 214 38 41
0.6200 0.3300 0.2781 214 38 41
0.6200 0.3189 0.3500 214 38 41
0.6200 0.3300 0.3386 214 38 41
0.6200 0.3345 0.2900 214 38 41
0.6200 0.3393 0.3100 214 38 41
0.6200 0.3371 0.3300 214 38 41
0.6400 0.1500 0.2250 214 38 41
0.6400 0.1464 0.2300 214 38 41
0.6400 0.1365 0.2500 214 38 41
0.6400 0.1333 0.2700 214 38 41
0.6400 0.1464 0.2900 214 38 41
0.6317 0.1500 0.3100 214 38 41
0.6400 0.1500 0.2961 214 38 41
0.6400 0.1700 0.1953 214 38 41
0.6400 0.1602 0.2100 214 38 41
0.6400 0.1552 0.3100 214 38 41
0.6400 0.1590 0.3300 214 38 41
0.6400 0.1604 0.3500 214 38 41
0.6400 0.1610 0.3700 214 38 41
0.6400 0.1675 0.3900 214 38 41
0.6400 0.1700 0.3925 214 38 41
0.6203 0.1900 0.1500 214 38 41
0.6400 0.1900 0.1376 214 38 41
0.6400 0.1809 0.1500 214 38 41
0.6400 0.1788 0.1700 214 38 41
0.6400 0.1736 0.1900 214 38 41
0.6400 0.1900 0.3978 214 38 41
0.6400 0.2100 0.1381 214 38 41
0.6319 0.2100 0.3900 214 38 41
0.6400 0.2100 0.3953 214 38 41
0.6400 0.2300 0.1407 214 38 41
0.6231 0.2300 0.3700 214 38 41
0.6360 0.2300 0.3900 214 38 41
0.6400 0.2300 0.3937 214 38 41
0.6215 0.2500 0.1500 214 38 41
0.6400 0.2500 0.1474 214 38 41
0.6233 0.2500 0.3700 214 38 41
0.6366 0.2500 0.3900 214 38 41
0.6400 0.2500 0.3932 214 38 41
0.6400 0.2526 0.1500 214 38 41
0.6400 0.2594 0.1700 214 38 41
0.6400 0.2604 0.1900 214 38 41
0.6400 0.2666 0.2100 214 38 41
0.6400 0.2700 0.2134 214 38 41
0.6400 0.2663 0.3900 214 38 41
0.6400 0.2700 0.3890 214 38 41
0.6400 0.2900 0.2211 214 38 41
0.6400 0.2900 0.3760 214 38 41
0.6400 0.3095 0.2300 214 38 41
0.6391 0.3100 0.2300 214 38 41
0.6400 0.3100 0.2305 214 38 41
0.6391 0.3100 0.3500 214 38 41
0.6400 0.3096 0.3500 214 38 41
0.6400 0.3100 0.3496 214 38 41
0.6400 0.2954 0.3700 214 38 41
0.6400 0.3179 0.2500 214 38 41
0.6400 0.3192 0.2700 214 38 41
0.6295 0.3300 0.2900 214 38 41
0.6400 0.3249 0.2900 214 38 41
0.6400 0.3300 0.3016 214 38 41
0.6400 0.3300 0.3327 214 38 41
0.6400 0.3337 0.3100 214 38 41
0.6400 0.3323 0.3300 214 38 41
0.6540 0.1300 0.2700 214 38 41
0.6600 0.1300 0.2508 214 38 41
0.6600 0.1288 0.2700 214 38 41
0.6600 0.1300 0.2714 214 38 41
0.6551 0.1500 0.2300 214 38 41
0.6600 0.1500 0.2314 214 38 41
0.6600 0.1301 0.2500 214 38 41
0.6600 0.1500 0.2864 214 38 41
0.6486 0.1500 0.2900 214 38 41
0.6600 0.1700 0.1933 214 38 41
0.6600 0.1613 0.2100 214 38 41
0.6600 0.1512 0.2300 214 38 41
0.6600 0.1532 0.2900 214 38 41
0.6600 0.1605 0.3100 214 38 41
0.6600 0.1644 0.3300 214 38 41
0.6600 0.1663 0.3500 214 38 41
0.6600 0.1671 0.3700 214 38 41
0.6475 0.1700 0.3900 214 38 41
0.6600 0.1700 0.3784 214 38 41
0.6600 0.1900 0.1395 214 38 41
0.6600 0.1812 0.1500 214 38 41
0.6600 0.1803 0.1700 214 38 41
0.6600 0.1724 0.1900 214 38 41
0.6600 0.1790 0.3900 214 38 41
0.6600 0.1900 0.3947 214 38 41
0.6600 0.2100 0.1422 214 38 41
0.6600 0.2100 0.3983 214 38 41
0.6600 0.2300 0.1446 214 38 41
0.6600 0.2300 0.3994 214 38 41
0.6600 0.2455 0.1500 214 38 41
0.6519 0.2500 0.1500 214 38 41
0.6600 0.2500 0.1529 214 38 41
0.6600 0.2500 0.3993 214 38 41
0.6600 0.2583 0.1700 214 38 41
0.6600 0.2604 0.1900 214 38 41
0.6600 0.2662 0.2100 214 38 41
0.6600 0.2700 0.2142 214 38 41
0.6421 0.2700 0.3900 214 38 41
0.6600 0.2700 0.3957 214 38 41
0.6600 0.2900 0.2261 214 38 41
0.6600 0.2785 0.3900 214 38 41
0.6600 0.2900 0.3776 214 38 41
0.6600 0.2957 0.2300 214 38 41
0.6586 0.3100 0.2500 214 38 41
0.6600 0.3092 0.2500 214 38 41
0.6600 0.3100 0.2571 214 38 41
0.6600 0.3080 0.3500 214 38 41
0.6600 0.3100 0.3477 214 38 41
0.6600 0.2952 0.3700 214 38 41
0.6600 0.3113 0.2700 214 38 41
0.6600 0.3182 0.2900 214 38 41
0.6481 0.3300 0.3100 214 38 41
0.6600 0.3247 0.3100 214 38 41
0.6470 0.3300 0.3300 214 38 41
0.6600 0.3253 0.3300 214 38 41
0.6605 0.1300 0.2500 214 38 41
0.6800 0.1300 0.2480 214 38 41
0.6800 0.1281 0.2500 214 38 41
0.6800 0.1280 0.2700 214 38 41
0.6800 0.1300 0.2721 214 38 41
0.6800 0.1500 0.2345 214 38 41
0.6800 0.1500 0.2853 214 38 41
0.6800 0.1700 0.2032 214 38 41
0.6800 0.1647 0.2100 214 38 41
0.6800 0.1543 0.2300 214 38 41
0.6800 0.1544 0.2900 214 38 41
0.6800 0.1644 0.3100 214 38 41
0.6686 0.1700 0.3300 214 38 41
0.6800 0.1700 0.3184 214 38 41
0.6641 0.1700 0.3500 214 38 41
0.6631 0.1700 0.3700 214 38 41
0.6660 0.1900 0.1500 214 38 41
0.6709 0.1900 0.1700 214 38 41
0.6800 0.1900 0.1854 214 38 41
0.6800 0.1865 0.1900 214 38 41
0.6800 0.1832 0.3300 214 38 41
0.6800 0.1900 0.3428 214 38 41
0.6774 0.1900 0.3500 214 38 41
0.6758 0.1900 0.3700 214 38 41
0.6669 0.1900 0.3900 214 38 41
0.6693 0.2100 0.1500 214 38 41
0.6800 0.2100 0.1602 214 38 41
0.6800 0.1994 0.1700 214 38 41
0.6800 0.1924 0.3500 214 38 41
0.6800 0.1939 0.3700 214 38 41
0.6800 0.2024 0.3900 214 38 41
0.6800 0.2100 0.3954 214 38 41
0.6689 0.2300 0.1500 214 38 41
0.6800 0.2300 0.1570 214 38 41
0.6800 0.2300 0.3996 214 38 41
0.6800 0.2500 0.1641 214 38 41
0.6800 0.2500 0.3997 214 38 41
0.6800 0.2548 0.1700 214 38 41
0.6800 0.2606 0.1900 214 38 41
0.6800 0.2676 0.2100 214 38 41
0.6800 0.2700 0.2132 214 38 41
0.6800 0.2700 0.3965 214 38 41
0.6800 0.2844 0.2300 214 38 41
0.6689 0.2900 0.2300 214 38 41
0.6800 0.2900 0.2369 214 38 41
0.6800 0.2799 0.3900 214 38 41
0.6800 0.2900 0.3745 214 38 41
0.6800 0.2988 0.2500 214 38 41
0.6633 0.3100 0.2700 214 38 41
0.6800 0.3040 0.2700 214 38 41
0.6800 0.3100 0.2830 214 38 41
0.6693 0.3100 0.3500 214 38 41
0.6800 0.3100 0.3526 214 38 41
0.6800 0.2927 0.3700 214 38 41
0.6800 0.3135 0.2900 214 38 41
0.6800 0.3198 0.3100 214 38 41
0.6800 0.3208 0.3300 214 38 41
0.6800 0.3122 0.3500 214 38 41
0.6856 0.1300 0.2500 214 38 41
0.6859 0.1300 0.2700 214 38 41
0.7000 0.1500 0.2436 214 38 41
0.7000 0.1402 0.2500 214 38 41
0.7000 0.1402 0.2700 214 38 41
0.7000 0.1500 0.2764 214 38 41
0.6924 0.1700 0.2100 214 38 41
0.7000 0.1700 0.2176 214 38 41
0.7000 0.1628 0.2300 214 38 41
0.7000 0.1625 0.2900 214 38 41
0.6976 0.1700 0.3100 214 38 41
0.7000 0.1700 0.3075 214 38 41
0.6843 0.1900 0.1900 214 38 41
0.7000 0.1900 0.2002 214 38 41
0.7000 0.1760 0.2100 214 38 41
0.7000 0.1714 0.3100 214 38 41
0.7000 0.1872 0.3300 214 38 41
0.7000 0.1900 0.3353 214 38 41
0.6943 0.2100 0.1700 214 38 41
0.7000 0.2100 0.1759 214 38 41
0.7000 0.2002 0.1900 214 38 41
0.7000 0.1945 0.3500 214 38 41
0.7000 0.1986 0.3700 214 38 41
0.7000 0.2063 0.3900 214 38 41
0.7000 0.2100 0.3936 214 38 41
0.7000 0.2300 0.1673 214 38 41
0.7000 0.2213 0.1700 214 38 41
0.7000 0.2300 0.3995 214 38 41
0.7000 0.2383 0.1700 214 38 41
0.6916 0.2500 0.1700 214 38 41
0.7000 0.2500 0.1765 214 38 41
0.7000 0.2500 0.3997 214 38 41
0.7000 0.2581 0.1900 214 38 41
0.6894 0.2700 0.2100 214 38 41
0.7000 0.2700 0.2060 214 38 41
0.7000 0.2700 0.3953 214 38 41
0.7000 0.2727 0.2100 214 38 41
0.7000 0.2821 0.2300 214 38 41
0.7000 0.2900 0.2463 214 38 41
0.7000 0.2771 0.3900 214 38 41
0.7000 0.2900 0.3738 214 38 41
0.7000 0.2920 0.2500 214 38 41
0.7000 0.2979 0.2700 214 38 41
0.6894 0.3100 0.2900 214 38 41
0.7000 0.3059 0.2900 214 38 41
0.7000 0.3100 0.2966 214 38 41
0.7000 0.2938 0.3700 214 38 41
0.7000 0.3100 0.3574 214 38 41
0.7000 0.3174 0.3100 214 38 41
0.7000 0.3212 0.3300 214 38 41
0.7000 0.3160 0.3500 214 38 41
0.7043 0.1500 0.2500 214 38 41
0.7043 0.1500 0.2700 214 38 41
0.7053 0.1700 0.2300 214 38 41
0.7090 0.1700 0.2500 214 38 41
0.7091 0.1700 0.2700 214 38 41
0.7058 0.1700 0.2900 214 38 41
0.7095 0.1900 0.2100 214 38 41
0.7157 0.1900 0.2300 214 38 41
0.7165 0.1900 0.2500 214 38 41
0.7168 0.1900 0.2700 214 38 41
0.7173 0.1900 0.2900 214 38 41
0.7200 0.1869 0.3100 214 38 41
0.7200 0.1900 0.3013 214 38 41
0.7200 0.1728 0.3300 214 38 41
0.7200 0.1767 0.3500 214 38 41
0.7074 0.1900 0.3500 214 38 41
0.7200 0.1900 0.3612 214 38 41
0.7095 0.2100 0.1900 214 38 41
0.7200 0.2100 0.2007 214 38 41
0.7200 0.2007 0.2100 214 38 41
0.7200 0.1943 0.2300 214 38 41
0.7200 0.1935 0.2500 214 38 41
0.7200 0.1932 0.2700 214 38 41
0.7200 0.1925 0.2900 214 38 41
0.7200 0.1959 0.3700 214 38 41
0.7200 0.2064 0.3900 214 38 41
0.7200 0.2100 0.3935 214 38 41
0.7027 0.2300 0.1700 214 38 41
0.7152 0.2300 0.1900 214 38 41
0.7200 0.2300 0.1947 214 38 41
0.7200 0.2300 0.3995 214 38 41
0.7106 0.2500 0.1900 214 38 41
0.7200 0.2500 0.1965 214 38 41
0.7200 0.2500 0.3996 214 38 41
0.7200 0.2700 0.2064 214 38 41
0.7200 0.2700 0.3953 214 38 41
0.7200 0.2732 0.2100 214 38 41
0.7200 0.2801 0.2300 214 38 41
0.7041 0.2900 0.2500 214 38 41
0.7200 0.2832 0.2500 214 38 41
0.7169 0.2900 0.2700 214 38 41
0.7200 0.2884 0.2700 214 38 41
0.7200 0.2900 0.2727 214 38 41
0.7200 0.2777 0.3900 214 38 41
0.7200 0.2900 0.3799 214 38 41
0.7200 0.3002 0.2900 214 38 41
0.7200 0.3100 0.3038 214 38 41
0.7200 0.3039 0.3700 214 38 41
0.7200 0.3100 0.3642 214 38 41
0.7200 0.3147 0.3100 214 38 41
0.7200 0.3228 0.3300 214 38 41
0.7200 0.3191 0.3500 214 38 41
0.7253 0.1700 0.3300 214 38 41
0.7400 0.1700 0.3227 214 38 41
0.7400 0.1655 0.3300 214 38 41
0.7400 0.1676 0.3500 214 38 41
0.7328 0.1700 0.3500 214 38 41
0.7400 0.1700 0.3525 214 38 41
0.7400 0.1900 0.3008 214 38 41
0.7400 0.1836 0.3100 214 38 41
0.7400 0.1900 0.3656 214 38 41
0.7337 0.2100 0.2100 214 38 41
0.7400 0.2100 0.2179 214 38 41
0.7400 0.2047 0.2300 214 38 41
0.7400 0.2008 0.2500 214 38 41
0.7400 0.1983 0.2700 214 38 41
0.7400 0.1944 0.2900 214 38 41
0.7400 0.1942 0.3700 214 38 41
0.7400 0.2063 0.3900 214 38 41
0.7400 0.2100 0.3935 214 38 41
0.7400 0.2300 0.2067 214 38 41
0.7400 0.2205 0.2100 214 38 41
0.7400 0.2300 0.3995 214 38 41
0.7400 0.2500 0.2068 214 38 41
0.7400 0.2500 0.3996 214 38 41
0.7400 0.2588 0.2100 214 38 41
0.7290 0.2700 0.2100 214 38 41
0.7400 0.2700 0.2186 214 38 41
0.7400 0.2700 0.3956 214 38 41
0.7400 0.2749 0.2300 214 38 41
0.7400 0.2791 0.2500 214 38 41
0.7400 0.2834 0.2700 214 38 41
0.7400 0.2900 0.2829 214 38 41
0.7400 0.2786 0.3900 214 38 41
0.7400 0.2900 0.3817 214 38 41
0.7400 0.2943 0.2900 214 38 41
0.7308 0.3100 0.3100 214 38 41
0.7400 0.3060 0.3100 214 38 41
0.7400 0.3100 0.3162 214 38 41
0.7400 0.3055 0.3700 214 38 41
0.7400 0.3100 0.3645 214 38 41
0.7400 0.3181 0.3300 214 38 41
0.7400 0.3180 0.3500 214 38 41
0.7530 0.1700 0.3100 214 38 41
0.7600 0.1700 0.2996 214 38 41
0.7600 0.1657 0.3100 214 38 41
0.7600 0.1624 0.3300 214 38 41
0.7600 0.1673 0.3500 214 38 41
0.7600 0.1700 0.3529 214 38 41
0.7474 0.1900 0.2900 214 38 41
0.7600 0.1900 0.2793 214 38 41
0.7600 0.1770 0.2900 214 38 41
0.7600 0.1900 0.3654 214 38 41
0.7472 0.2100 0.2300 214 38 41
0.7600 0.2100 0.2428 214 38 41
0.7600 0.2048 0.2500 214 38 41
0.7600 0.1964 0.2700 214 38 41
0.7600 0.1946 0.3700 214 38 41
0.7600 0.2069 0.3900 214 38 41
0.7600 0.2100 0.3929 214 38 41
0.7433 0.2300 0.2100 214 38 41
0.7554 0.2300 0.2300 214 38 41
0.7600 0.2300 0.2346 214 38 41
0.7600 0.2300 0.3991 214 38 41
0.7433 0.2500 0.2100 214 38 41
0.7554 0.2500 0.2300 214 38 41
0.7600 0.2500 0.2346 214 38 41
0.7600 0.2500 0.3992 214 38 41
0.7470 0.2700 0.2300 214 38 41
0.7600 0.2700 0.2430 214 38 41
0.7600 0.2700 0.3952 214 38 41
0.7600 0.2749 0.2500 214 38 41
0.7600 0.2803 0.2700 214 38 41
0.7494 0.2900 0.2900 214 38 41
0.7600 0.2854 0.2900 214 38 41
0.7600 0.2900 0.2983 214 38 41
0.7600 0.2786 0.3900 214 38 41
0.7600 0.2900 0.3826 214 38 41
0.7600 0.2974 0.3100 214 38 41
0.7600 0.3100 0.3268 214 38 41
0.7600 0.3098 0.3700 214 38 41
0.7600 0.3100 0.3698 214 38 41
0.7600 0.3122 0.3300 214 38 41
0.7600 0.3171 0.3500 214 38 41
0.7800 0.1700 0.3040 214 38 41
0.7800 0.1679 0.3100 214 38 41
0.7800 0.1675 0.3300 214 38 41
0.7680 0.1700 0.3500 214 38 41
0.7800 0.1700 0.3375 214 38 41
0.7800 0.1900 0.2837 214 38 41
0.7800 0.1802 0.2900 214 38 41
0.7800 0.1788 0.3500 214 38 41
0.7800 0.1900 0.3569 214 38 41
0.7717 0.2100 0.2500 214 38 41
0.7800 0.2100 0.2586 214 38 41
0.7800 0.2032 0.2700 214 38 41
0.7800 0.2030 0.3700 214 38 41
0.7684 0.2100 0.3900 214 38 41
0.7800 0.2100 0.3812 214 38 41
0.7800 0.2300 0.2469 214 38 41
0.7800 0.2213 0.2500 214 38 41
0.7800 0.2221 0.3900 214 38 41
0.7800 0.2300 0.3927 214 38 41
0.7800 0.2500 0.2469 214 38 41
0.7800 0.2500 0.3929 214 38 41
0.7800 0.2584 0.2500 214 38 41
0.7713 0.2700 0.2500 214 38 41
0.7800 0.2700 0.2618 214 38 41
0.7770 0.2700 0.3900 214 38 41
0.7800 0.2647 0.3900 214 38 41
0.7800 0.2700 0.3884 214 38 41
0.7800 0.2729 0.2700 214 38 41
0.7800 0.2746 0.2900 214 38 41
0.7698 0.2900 0.3100 214 38 41
0.7800 0.2801 0.3100 214 38 41
0.7800 0.2900 0.3216 214 38 41
0.7800 0.2900 0.3793 214 38 41
0.7639 0.3100 0.3300 214 38 41
0.7800 0.2971 0.3300 214 38 41
0.7800 0.3100 0.3482 214 38 41
0.7800 0.3055 0.3700 214 38 41
0.7800 0.3100 0.3552 214 38 41
0.7800 0.3109 0.3500 214 38 41
0.7821 0.1700 0.3100 214 38 41
0.7825 0.1700 0.3300 214 38 41
0.7844 0.1900 0.2900 214 38 41
0.7889 0.1900 0.3100 214 38 41
0.7891 0.1900 0.3300 214 38 41
0.7848 0.1900 0.3500 214 38 41
0.7848 0.2100 0.2700 214 38 41
0.7885 0.2100 0.2900 214 38 41
0.7898 0.2100 0.3100 214 38 41
0.7898 0.2100 0.3300 214 38 41
0.7886 0.2100 0.3500 214 38 41
0.7848 0.2100 0.3700 214 38 41
0.7829 0.2300 0.2500 214 38 41
0.7892 0.2300 0.2700 214 38 41
0.7899 0.2300 0.2900 214 38 41
0.7900 0.2300 0.3100 214 38 41
0.7900 0.2300 0.3300 214 38 41
0.7899 0.2300 0.3500 214 38 41
0.7892 0.2300 0.3700 214 38 41
0.7827 0.2300 0.3900 214 38 41
0.7829 0.2500 0.2500 214 38 41
0.7891 0.2500 0.2700 214 38 41
0.7896 0.2500 0.2900 214 38 41
0.7897 0.2500 0.3100 214 38 41
0.7900 0.2500 0.3300 214 38 41
0.7902 0.2500 0.3500 214 38 41
0.7897 0.2500 0.3700 214 38 41
0.7830 0.2500 0.3900 214 38 41
0.7828 0.2700 0.2700 214 38 41
0.7841 0.2700 0.2900 214 38 41
0.7864 0.2700 0.3100 214 38 41
0.7897 0.2700 0.3300 214 38 41
0.7924 0.2700 0.3500 214 38 41
0.7910 0.2700 0.3700 214 38 41
0.7854 0.2900 0.3300 214 38 41
0.7948 0.2900 0.3500 214 38 41
0.7916 0.2900 0.3700 214 38 41
0.7812 0.3100 0.3500 214 38 41
3 0 1 2
3 0 3 4
3 2 3 0
3 3 5 4
3 6 1 0
3 7 1 6
3 4 8 0
3 8 6 0
3 9 4 5
3 9 10 4
3 10 8 4
3 10 11 12
3 9 11 10
3 12 13 14
3 11 13 12
3 13 15 14
3 16 7 6
3 17 7 16
3 8 18 6
3 18 16 6
3 10 19 8
3 19 18 8
3 12 20 10
3 20 19 10
3 21 14 22
3 21 20 14
3 20 12 14
3 15 22 14
3 16 23 17
3 18 23 16
3 24 23 18
3 19 24 18
3 25 24 19
3 20 25 19
3 26 25 20
3 21 26 20
3 27 28 29
3 27 30 31
3 29 30 27
3 31 32 33
3 30 32 31
3 33 34 35
3 32 34 33
3 35 36 37
3 34 36 35
3 36 38 37
3 39 40 41
3 39 42 43
3 41 42 39
3 28 43 42
3 28 27 43
3 27 44 43
3 2 1 44
3 2 44 31
3 31 44 27
3 3 2 31
3 33 3 31
3 5 3 33
3 5 33 45
3 45 33 35
3 37 46 35
3 46 45 35
3 47 37 38
3 46 37 47
3 39 48 40
3 48 49 50
3 48 39 49
3 39 43 49
3 44 51 43
3 51 49 43
3 1 7 51
3 44 1 51
3 5 45 9
3 11 9 45
3 46 11 45
3 46 13 11
3 46 52 13
3 46 47 52
3 52 53 13
3 13 53 15
3 49 54 50
3 54 55 56
3 54 49 55
3 49 51 55
3 7 17 55
3 51 7 55
3 57 58 59
3 52 58 57
3 53 52 57
3 53 57 21
3 53 21 22
3 15 53 22
3 55 60 56
3 17 60 55
3 17 23 60
3 23 61 60
3 62 63 61
3 62 61 24
3 24 61 23
3 64 62 24
3 64 24 65
3 65 24 25
3 59 26 57
3 59 65 26
3 65 25 26
3 21 57 26
3 62 66 63
3 64 66 62
3 67 68 69
3 67 70 71
3 69 70 67
3 71 72 73
3 70 72 71
3 73 74 75
3 72 74 73
3 75 76 77
3 74 76 75
3 76 78 77
3 79 80 81
3 68 79 81
3 68 67 79
3 67 82 79
3 71 83 67
3 83 82 67
3 73 84 71
3 84 83 71
3 75 85 73
3 85 84 73
3 77 86 75
3 86 85 75
3 87 77 78
3 87 88 77
3 88 86 77
3 87 89 88
3 90 91 92
3 80 90 92
3 80 79 90
3 79 93 90
3 29 28 93
3 29 93 82
3 82 93 79
3 30 29 82
3 83 30 82
3 32 30 83
3 84 32 83
3 34 32 84
3 85 34 84
3 36 34 85
3 86 36 85
3 38 36 86
3 38 86 94
3 94 86 88
3 95 88 89
3 95 96 88
3 96 94 88
3 95 97 96
3 98 99 100
3 91 98 100
3 90 98 91
3 90 40 98
3 90 41 40
3 42 41 90
3 93 42 90
3 28 42 93
3 94 101 47
3 38 94 47
3 102 96 103
3 102 101 96
3 101 94 96
3 97 103 96
3 104 99 98
3 105 99 104
3 40 48 106
3 40 106 98
3 98 106 104
3 48 50 106
3 101 107 52
3 47 101 52
3 108 101 102
3 107 101 108
3 104 109 105
3 106 109 104
3 110 109 106
3 50 110 106
3 50 54 110
3 54 111 110
3 111 54 56
3 112 111 56
3 58 113 114
3 59 58 114
3 107 58 52
3 107 115 58
3 115 113 58
3 108 115 107
3 56 116 112
3 60 116 56
3 61 117 60
3 60 117 116
3 117 61 63
3 118 117 63
3 65 119 120
3 64 65 120
3 114 65 59
3 119 65 114
3 63 121 118
3 66 121 63
3 120 66 64
3 121 66 120
3 122 123 124
3 124 125 122
3 126 127 128
3 126 129 130
3 128 129 126
3 130 131 132
3 129 131 130
3 123 132 131
3 123 122 132
3 122 133 132
3 134 122 125
3 134 135 122
3 135 133 122
3 134 136 135
3 137 138 139
3 137 140 141
3 139 140 137
3 127 141 140
3 126 141 127
3 126 68 141
3 126 69 68
3 70 69 126
3 130 70 126
3 72 70 130
3 132 72 130
3 74 72 132
3 133 74 132
3 76 74 133
3 135 76 133
3 135 78 76
3 135 136 78
3 136 142 78
3 143 144 145
3 138 143 145
3 138 137 143
3 137 146 143
3 81 80 146
3 81 146 141
3 141 146 137
3 68 81 141
3 78 142 147
3 87 78 147
3 89 148 149
3 89 87 148
3 87 147 148
3 149 150 151
3 148 150 149
3 151 152 153
3 150 152 151
3 152 154 153
3 155 144 143
3 156 144 155
3 92 91 155
3 92 155 146
3 146 155 143
3 80 92 146
3 89 149 95
3 97 95 149
3 97 149 157
3 157 149 151
3 153 158 151
3 158 157 151
3 159 153 154
3 158 153 159
3 100 156 155
3 100 99 156
3 99 160 156
3 91 100 155
3 103 161 102
3 103 97 157
3 103 157 161
3 161 157 162
3 163 158 164
3 163 162 158
3 162 157 158
3 159 164 158
3 99 105 160
3 160 105 165
3 161 166 108
3 102 161 108
3 167 162 168
3 167 166 162
3 166 161 162
3 163 168 162
3 105 169 165
3 109 169 105
3 170 171 169
3 170 169 110
3 110 169 109
3 110 111 172
3 170 110 172
3 111 112 172
3 113 173 114
3 174 173 113
3 174 113 175
3 175 113 115
3 166 115 108
3 166 176 115
3 176 175 115
3 167 176 166
3 170 177 171
3 172 177 170
3 178 177 172
3 112 178 172
3 112 116 178
3 116 179 178
3 117 180 116
3 116 180 179
3 180 117 118
3 181 180 118
3 119 182 183
3 120 119 183
3 173 119 114
3 173 184 119
3 184 182 119
3 174 184 173
3 118 185 181
3 121 185 118
3 183 121 120
3 185 121 183
3 186 187 188
3 188 189 186
3 190 191 192
3 190 193 194
3 192 193 190
3 187 194 193
3 187 186 194
3 186 195 194
3 196 186 189
3 196 197 186
3 197 195 186
3 196 198 197
3 199 200 201
3 191 199 201
3 191 190 199
3 190 202 199
3 124 123 202
3 124 202 194
3 194 202 190
3 125 124 194
3 125 194 203
3 203 194 195
3 197 204 195
3 204 203 195
3 205 197 198
3 204 197 205
3 206 207 208
3 206 209 210
3 208 209 206
3 210 128 127
3 210 209 128
3 209 211 128
3 200 199 129
3 200 129 211
3 211 129 128
3 131 129 199
3 202 131 199
3 123 131 202
3 125 203 134
3 212 203 204
3 212 136 203
3 212 213 136
3 134 203 136
3 205 212 204
3 214 215 216
3 207 214 216
3 206 214 207
3 206 138 214
3 206 139 138
3 140 139 206
3 210 140 206
3 127 140 210
3 136 213 142
3 213 217 142
3 145 215 214
3 145 144 215
3 144 218 215
3 138 145 214
3 142 217 219
3 147 142 219
3 148 147 220
3 147 219 220
3 150 148 221
3 148 220 221
3 152 150 222
3 150 221 222
3 222 154 152
3 223 154 222
3 144 156 218
3 218 156 224
3 154 223 159
3 223 225 159
3 156 160 224
3 224 160 226
3 164 227 163
3 164 228 227
3 164 159 228
3 159 225 228
3 160 165 226
3 226 165 229
3 168 230 231
3 167 168 231
3 227 168 163
3 227 232 168
3 232 230 168
3 228 232 227
3 233 165 169
3 233 234 165
3 234 229 165
3 169 171 233
3 175 235 174
3 236 235 175
3 236 175 237
3 237 175 176
3 231 176 167
3 237 176 231
3 233 238 234
3 171 238 233
3 171 177 238
3 177 239 238
3 178 240 177
3 177 240 239
3 179 241 178
3 178 241 240
3 180 242 179
3 179 242 241
3 242 180 181
3 243 242 181
3 182 244 245
3 183 182 245
3 184 246 182
3 182 246 244
3 235 184 174
3 235 247 184
3 247 246 184
3 236 247 235
3 181 248 243
3 185 248 181
3 245 185 183
3 248 185 245
3 249 250 251
3 249 252 253
3 251 252 249
3 253 188 187
3 253 252 188
3 252 254 188
3 254 189 188
3 255 189 254
3 256 257 258
3 250 256 258
3 249 256 250
3 249 191 256
3 249 192 191
3 193 192 249
3 253 193 249
3 187 193 253
3 189 255 259
3 196 189 259
3 198 260 261
3 198 196 260
3 196 259 260
3 260 262 261
3 263 264 265
3 263 266 267
3 265 266 263
3 257 267 266
3 256 267 257
3 256 200 267
3 256 201 200
3 191 201 256
3 261 268 205
3 198 261 205
3 269 261 262
3 268 261 269
3 270 271 272
3 270 208 207
3 270 272 208
3 272 273 208
3 264 263 209
3 264 209 273
3 273 209 208
3 211 209 263
3 267 211 263
3 200 211 267
3 212 274 275
3 213 212 275
3 268 212 205
3 268 276 212
3 276 274 212
3 269 276 268
3 277 278 279
3 271 277 279
3 270 277 271
3 270 215 277
3 270 216 215
3 207 216 270
3 213 275 217
3 275 280 217
3 277 281 278
3 281 277 215
3 281 215 282
3 282 215 218
3 217 280 283
3 219 217 283
3 220 219 284
3 219 283 284
3 221 220 285
3 220 284 285
3 286 285 287
3 286 222 285
3 222 221 285
3 222 286 223
3 218 224 282
3 282 224 288
3 286 287 289
3 289 223 286
3 289 290 223
3 290 225 223
3 224 226 288
3 288 226 291
3 292 293 294
3 292 290 293
3 292 228 290
3 228 225 290
3 226 229 291
3 291 229 295
3 230 296 297
3 231 230 297
3 294 232 292
3 294 296 232
3 296 230 232
3 228 292 232
3 229 234 295
3 295 234 298
3 237 299 300
3 236 237 300
3 297 237 231
3 299 237 297
3 234 301 298
3 238 301 234
3 239 302 238
3 238 302 301
3 240 303 239
3 239 303 302
3 241 304 240
3 240 304 303
3 242 305 241
3 241 305 304
3 305 242 243
3 306 305 243
3 244 307 245
3 308 307 244
3 308 244 309
3 309 244 246
3 247 310 246
3 246 310 309
3 300 247 236
3 310 247 300
3 243 311 306
3 248 311 243
3 307 248 245
3 307 312 248
3 312 311 248
3 308 312 307
3 313 314 315
3 313 316 317
3 315 316 313
3 316 318 317
3 251 319 320
3 250 319 251
3 314 313 252
3 314 252 320
3 320 252 251
3 254 252 313
3 317 254 313
3 317 255 254
3 317 318 255
3 318 321 255
3 322 323 324
3 322 258 257
3 322 324 258
3 324 325 258
3 319 250 258
3 325 319 258
3 255 321 326
3 259 255 326
3 260 259 327
3 259 326 327
3 327 262 260
3 328 262 327
3 329 330 331
3 329 265 264
3 329 331 265
3 331 332 265
3 323 322 266
3 323 266 332
3 332 266 265
3 257 266 322
3 262 328 269
3 328 333 269
3 334 335 336
3 334 272 271
3 334 336 272
3 336 337 272
3 330 329 273
3 330 273 337
3 337 273 272
3 264 273 329
3 274 338 339
3 275 274 339
3 276 340 274
3 274 340 338
3 333 276 269
3 340 276 333
3 279 335 334
3 279 278 335
3 278 341 335
3 271 279 334
3 275 339 280
3 339 342 280
3 343 278 281
3 343 344 278
3 344 341 278
3 281 282 343
3 345 283 280
3 345 280 346
3 346 280 342
3 283 347 284
3 345 347 283
3 284 348 285
3 347 348 284
3 285 348 287
3 343 349 344
3 349 343 282
3 349 282 350
3 350 282 288
3 345 346 351
3 351 352 353
3 351 353 345
3 345 353 347
3 348 347 354
3 354 347 353
3 287 355 289
3 287 348 355
3 348 354 355
3 289 355 290
3 288 291 350
3 350 291 356
3 353 352 357
3 357 358 359
3 357 359 353
3 353 359 354
3 293 359 294
3 293 355 359
3 355 354 359
3 290 355 293
3 291 295 356
3 356 295 360
3 296 359 358
3 296 358 297
3 297 358 361
3 294 359 296
3 362 298 363
3 362 360 298
3 360 295 298
3 362 363 364
3 365 366 367
3 365 300 299
3 365 299 366
3 366 299 368
3 361 299 297
3 368 299 361
3 298 301 363
3 363 369 364
3 363 301 369
3 301 302 369
3 303 370 302
3 302 370 369
3 304 371 303
3 303 371 370
3 305 372 304
3 304 372 371
3 306 373 374
3 306 374 305
3 305 374 372
3 373 375 376
3 374 373 376
3 375 308 309
3 375 309 376
3 376 309 377
3 367 310 365
3 367 377 310
3 377 309 310
3 300 365 310
3 306 311 373
3 312 373 311
3 375 373 312
3 308 375 312
3 315 378 379
3 314 378 315
3 380 379 381
3 380 316 379
3 316 315 379
3 316 380 318
3 382 383 384
3 382 320 319
3 382 384 320
3 384 385 320
3 378 314 320
3 385 378 320
3 380 381 386
3 386 318 380
3 386 387 318
3 387 321 318
3 388 389 390
3 388 391 392
3 390 391 388
3 392 324 323
3 392 391 324
3 391 393 324
3 383 382 325
3 383 325 393
3 393 325 324
3 319 325 382
3 321 387 394
3 326 321 394
3 327 326 395
3 326 394 395
3 395 328 327
3 396 328 395
3 397 398 399
3 389 397 399
3 388 397 389
3 388 330 397
3 388 331 330
3 332 331 388
3 392 332 388
3 323 332 392
3 328 396 333
3 396 400 333
3 401 402 403
3 401 336 335
3 401 403 336
3 403 404 336
3 398 397 337
3 398 337 404
3 404 337 336
3 330 337 397
3 338 405 406
3 339 338 406
3 340 407 338
3 338 407 405
3 400 340 333
3 407 340 400
3 408 402 401
3 409 402 408
3 335 341 408
3 401 335 408
3 339 406 342
3 406 410 342
3 408 411 409
3 411 408 341
3 411 341 412
3 412 341 344
3 342 410 346
3 410 413 346
3 344 414 412
3 349 414 344
3 414 349 350
3 415 414 350
3 416 351 346
3 416 346 417
3 417 346 413
3 351 416 352
3 418 356 419
3 418 415 356
3 415 350 356
3 418 419 420
3 416 417 421
3 352 416 421
3 352 421 357
3 357 421 422
3 422 358 357
3 423 358 422
3 419 360 424
3 356 360 419
3 425 420 419
3 424 425 419
3 426 427 428
3 426 423 427
3 426 361 423
3 361 358 423
3 360 362 424
3 424 362 364
3 424 364 425
3 425 364 429
3 366 430 431
3 367 366 431
3 428 368 426
3 428 430 368
3 430 366 368
3 361 426 368
3 364 432 429
3 369 432 364
3 370 433 369
3 369 433 432
3 371 434 370
3 370 434 433
3 372 435 371
3 371 435 434
3 374 436 372
3 372 436 435
3 376 437 374
3 374 437 436
3 377 438 376
3 376 438 437
3 431 377 367
3 438 377 431
3 379 378 439
3 379 439 381
3 440 441 442
3 440 384 383
3 440 442 384
3 442 443 384
3 385 384 444
3 384 443 444
3 439 378 385
3 439 385 445
3 445 385 444
3 446 445 447
3 386 445 446
3 386 439 445
3 386 381 439
3 386 446 387
3 448 449 450
3 448 390 389
3 448 450 390
3 450 451 390
3 391 390 452
3 390 451 452
3 441 440 393
3 441 393 452
3 452 393 391
3 383 393 440
3 446 447 453
3 387 446 453
3 387 453 394
3 394 453 454
3 395 394 455
3 394 454 455
3 455 396 395
3 456 396 455
3 457 458 459
3 449 457 459
3 448 457 449
3 448 398 457
3 448 399 398
3 389 399 448
3 396 456 400
3 456 460 400
3 461 462 463
3 461 403 402
3 461 463 403
3 463 464 403
3 458 457 404
3 458 404 464
3 464 404 403
3 398 404 457
3 405 465 466
3 406 405 466
3 407 467 405
3 405 467 465
3 460 407 400
3 467 407 460
3 468 462 461
3 469 462 468
3 402 409 468
3 461 402 468
3 406 466 410
3 466 470 410
3 468 471 469
3 472 473 471
3 411 472 471
3 411 471 468
3 411 468 409
3 411 412 472
3 410 470 413
3 470 474 413
3 472 475 473
3 412 475 472
3 412 414 475
3 414 476 475
3 476 414 415
3 477 476 415
3 413 474 417
3 474 478 417
3 415 479 477
3 418 479 415
3 479 418 420
3 480 479 420
3 417 478 481
3 421 417 481
3 482 481 483
3 482 422 481
3 422 421 481
3 422 482 423
3 420 425 480
3 480 425 484
3 427 482 483
3 427 483 428
3 428 483 485
3 423 482 427
3 486 429 487
3 486 484 429
3 484 425 429
3 486 487 488
3 489 490 491
3 489 431 430
3 489 430 490
3 490 430 492
3 485 430 428
3 492 430 485
3 429 432 487
3 487 493 488
3 487 432 493
3 432 433 493
3 434 494 433
3 433 494 493
3 435 495 434
3 434 495 494
3 436 496 435
3 435 496 495
3 437 497 436
3 436 497 496
3 491 438 489
3 491 497 438
3 497 437 438
3 431 489 438
3 498 499 500
3 498 501 502
3 500 501 498
3 502 442 441
3 502 501 442
3 501 503 442
3 443 442 504
3 442 503 504
3 444 443 505
3 443 504 505
3 506 505 507
3 506 445 505
3 445 444 505
3 445 506 447
3 450 508 509
3 449 508 450
3 499 498 451
3 499 451 509
3 509 451 450
3 452 451 498
3 502 452 498
3 441 452 502
3 506 507 510
3 447 506 510
3 447 510 453
3 453 510 511
3 454 453 512
3 453 511 512
3 455 454 513
3 454 512 513
3 513 456 455
3 514 456 513
3 515 516 517
3 515 459 458
3 515 517 459
3 517 518 459
3 508 449 459
3 518 508 459
3 456 514 460
3 514 519 460
3 463 520 521
3 462 520 463
3 516 515 464
3 516 464 521
3 521 464 463
3 458 464 515
3 465 522 466
3 523 522 465
3 523 465 524
3 524 465 467
3 519 467 460
3 524 467 519
3 462 469 520
3 520 469 525
3 522 526 527
3 522 527 466
3 466 527 470
3 523 526 522
3 469 528 525
3 471 528 469
3 528 471 473
3 529 528 473
3 470 527 474
3 527 530 474
3 473 531 529
3 475 531 473
3 476 532 475
3 475 532 531
3 477 533 534
3 477 534 476
3 476 534 532
3 534 533 535
3 536 537 478
3 536 478 530
3 530 478 474
3 536 538 537
3 477 479 533
3 533 479 480
3 533 480 535
3 535 480 539
3 478 537 481
3 537 483 481
3 537 538 483
3 538 540 483
3 480 484 539
3 539 484 541
3 542 543 544
3 542 540 543
3 542 485 540
3 485 483 540
3 484 545 541
3 486 545 484
3 488 546 547
3 488 547 486
3 486 547 545
3 546 548 549
3 547 546 549
3 549 548 550
3 490 551 552
3 491 490 552
3 544 492 542
3 544 551 492
3 551 490 492
3 485 542 492
3 488 493 546
3 494 546 493
3 548 546 494
3 548 553 550
3 548 494 553
3 494 495 553
3 496 554 495
3 495 554 553
3 497 555 496
3 496 555 554
3 552 497 491
3 555 497 552
3 500 556 557
3 499 556 500
3 501 500 558
3 500 557 558
3 503 501 559
3 501 558 559
3 504 503 560
3 503 559 560
3 561 560 562
3 561 505 560
3 505 504 560
3 505 561 507
3 509 563 564
3 508 563 509
3 556 499 509
3 564 556 509
3 561 562 565
3 507 561 565
3 507 565 510
3 510 565 566
3 511 510 567
3 510 566 567
3 512 511 568
3 511 567 568
3 513 512 569
3 512 568 569
3 569 514 513
3 570 514 569
3 571 572 573
3 571 517 516
3 571 573 517
3 573 574 517
3 518 517 575
3 517 574 575
3 563 508 518
3 575 563 518
3 514 570 519
3 570 576 519
3 521 572 571
3 521 520 572
3 520 577 572
3 516 521 571
3 524 578 523
3 524 579 578
3 524 519 579
3 519 576 579
3 520 525 577
3 577 525 580
3 526 581 527
3 526 523 578
3 526 578 581
3 581 578 582
3 583 578 579
3 582 578 583
3 584 525 528
3 584 585 525
3 585 580 525
3 528 529 584
3 581 586 530
3 527 581 530
3 582 587 581
3 587 586 581
3 588 582 583
3 587 582 588
3 584 589 585
3 529 589 584
3 529 531 589
3 531 590 589
3 532 591 531
3 531 591 590
3 534 592 532
3 532 592 591
3 592 534 535
3 593 592 535
3 530 586 536
3 594 586 587
3 594 538 586
3 594 595 538
3 536 586 538
3 588 594 587
3 535 539 593
3 593 539 596
3 538 595 540
3 595 597 540
3 598 541 599
3 598 596 541
3 596 539 541
3 598 599 600
3 601 602 603
3 601 544 543
3 601 543 602
3 602 543 604
3 597 543 540
3 604 543 597
3 541 545 599
3 599 605 600
3 599 545 605
3 545 547 605
3 549 606 547
3 547 606 605
3 550 607 608
3 550 608 549
3 549 608 606
3 608 607 609
3 551 601 603
3 551 603 552
3 552 603 610
3 544 601 551
3 550 553 607
3 607 611 609
3 607 553 611
3 553 554 611
3 555 612 554
3 554 612 611
3 610 555 552
3 612 555 610
3 613 614 615
3 615 616 613
3 557 556 617
3 618 557 617
3 618 619 557
3 619 558 557
3 614 613 559
3 614 559 619
3 619 559 558
3 613 560 559
3 613 620 560
3 613 616 620
3 620 621 560
3 560 621 562
3 564 622 623
3 563 622 564
3 617 556 564
3 617 564 624
3 624 564 623
3 618 617 624
3 621 620 625
3 562 621 625
3 562 625 565
3 565 625 626
3 566 565 627
3 565 626 627
3 567 566 628
3 566 627 628
3 568 567 629
3 567 628 629
3 630 629 631
3 630 569 629
3 569 568 629
3 569 630 570
3 573 632 633
3 572 632 573
3 574 573 634
3 573 633 634
3 575 574 635
3 574 634 635
3 622 563 575
3 635 622 575
3 630 631 636
3 636 570 630
3 636 637 570
3 637 576 570
3 572 577 632
3 632 577 638
3 576 637 579
3 637 639 579
3 577 580 638
3 638 580 640
3 579 639 583
3 639 641 583
3 642 585 643
3 642 640 585
3 640 580 585
3 642 643 644
3 583 641 588
3 641 645 588
3 585 589 643
3 643 646 644
3 643 589 646
3 589 590 646
3 591 647 590
3 590 647 646
3 592 648 591
3 591 648 647
3 648 592 593
3 649 648 593
3 594 650 595
3 594 651 650
3 594 588 651
3 588 645 651
3 593 596 649
3 649 596 652
3 650 653 654
3 650 654 595
3 595 654 597
3 651 653 650
3 596 655 652
3 598 655 596
3 600 656 657
3 600 657 598
3 598 657 655
3 657 656 658
3 602 659 660
3 603 602 660
3 604 661 602
3 602 661 659
3 654 604 597
3 661 604 654
3 600 605 656
3 656 662 658
3 656 605 662
3 605 606 662
3 608 663 606
3 606 663 662
3 609 664 665
3 609 665 608
3 608 665 663
3 664 666 667
3 665 664 667
3 666 660 667
3 666 610 660
3 610 603 660
3 609 611 664
3 612 664 611
3 666 664 612
3 610 666 612
3 668 669 670
3 668 615 614
3 668 670 615
3 670 671 615
3 671 616 615
3 672 616 671
3 619 669 668
3 619 618 669
3 618 673 669
3 614 619 668
3 616 672 620
3 672 674 620
3 623 675 676
3 622 675 623
3 624 623 677
3 623 676 677
3 673 618 624
3 677 673 624
3 620 674 678
3 625 620 678
3 626 625 679
3 625 678 679
3 680 679 681
3 680 627 679
3 627 626 679
3 627 682 628
3 680 682 627
3 628 683 629
3 682 683 628
3 629 683 631
3 633 632 684
3 633 685 634
3 684 685 633
3 686 634 685
3 686 687 634
3 687 635 634
3 675 622 635
3 687 675 635
3 680 681 688
3 688 689 690
3 688 690 680
3 680 690 682
3 683 682 691
3 691 682 690
3 631 692 636
3 631 683 692
3 683 691 692
3 636 692 637
3 684 638 693
3 632 638 684
3 694 695 685
3 694 685 693
3 693 685 684
3 686 685 695
3 690 689 696
3 691 690 696
3 697 691 696
3 692 691 697
3 698 692 697
3 698 637 692
3 698 699 637
3 699 639 637
3 693 640 700
3 638 640 693
3 701 694 693
3 700 701 693
3 639 699 641
3 699 702 641
3 640 642 700
3 700 642 644
3 700 644 701
3 701 644 703
3 641 702 645
3 702 704 645
3 644 705 703
3 646 705 644
3 647 706 646
3 646 706 705
3 648 707 647
3 647 707 706
3 707 648 649
3 708 707 649
3 645 704 651
3 704 709 651
3 710 652 711
3 710 708 652
3 708 649 652
3 710 711 712
3 653 713 714
3 654 653 714
3 709 653 651
3 713 653 709
3 652 655 711
3 711 715 712
3 711 655 715
3 655 657 715
3 658 716 717
3 658 717 657
3 657 717 715
3 717 716 718
3 659 719 660
3 720 719 659
3 720 659 721
3 721 659 661
3 714 661 654
3 721 661 714
3 658 662 716
3 716 722 718
3 716 662 722
3 662 663 722
3 665 723 663
3 663 723 722
3 667 724 665
3 665 724 723
3 719 667 660
3 719 725 667
3 725 724 667
3 720 725 719
3 670 669 726
3 670 727 671
3 726 727 670
3 671 727 672
3 726 728 729
3 726 669 728
3 669 673 728
3 727 726 729
3 730 727 729
3 730 672 727
3 730 731 672
3 731 674 672
3 676 675 732
3 733 676 732
3 733 734 676
3 734 677 676
3 728 673 677
3 734 728 677
3 674 731 735
3 678 674 735
3 736 735 737
3 736 679 735
3 679 678 735
3 679 736 681
3 687 686 738
3 687 738 739
3 675 687 739
3 675 739 740
3 675 740 732
3 733 732 740
3 736 737 741
3 681 736 741
3 681 741 688
3 688 741 742
3 742 689 688
3 743 689 742
3 695 694 744
3 695 744 745
3 686 695 745
3 686 745 746
3 686 746 738
3 739 738 746
3 689 743 747
3 696 689 747
3 697 696 748
3 696 747 748
3 698 697 749
3 697 748 749
3 749 699 698
3 750 699 749
3 744 751 752
3 744 694 751
3 694 701 751
3 745 744 752
3 699 750 702
3 750 753 702
3 754 703 755
3 754 751 703
3 751 701 703
3 754 755 756
3 702 753 704
3 753 757 704
3 703 705 755
3 755 758 756
3 755 705 758
3 705 706 758
3 759 760 758
3 759 758 707
3 707 758 706
3 707 708 759
3 704 757 709
3 757 761 709
3 759 762 760
3 708 762 759
3 708 710 762
3 710 763 762
3 763 710 712
3 764 763 712
3 713 765 766
3 714 713 766
3 761 713 709
3 765 713 761
3 712 767 764
3 715 767 712
3 717 768 715
3 715 768 767
3 718 769 770
3 718 770 717
3 717 770 768
3 770 769 771
3 721 772 773
3 720 721 773
3 766 721 714
3 772 721 766
3 718 722 769
3 769 774 771
3 769 722 774
3 722 723 774
3 724 775 723
3 723 775 774
3 725 776 724
3 724 776 775
3 773 725 720
3 776 725 773
3 729 728 777
3 729 778 730
3 777 778 729
3 730 778 731
3 734 733 779
3 734 777 728
3 734 779 777
3 779 780 777
3 778 777 781
3 781 777 780
3 731 782 735
3 731 778 782
3 778 781 782
3 735 782 737
3 740 739 783
3 740 779 733
3 740 783 779
3 783 784 779
3 780 779 785
3 785 779 784
3 781 780 786
3 786 780 785
3 782 781 787
3 787 781 786
3 737 782 787
3 737 787 788
3 737 788 741
3 788 787 789
3 742 741 790
3 741 788 790
3 743 791 792
3 743 742 791
3 742 790 791
3 791 793 792
3 746 745 794
3 746 794 795
3 739 746 795
3 739 795 796
3 739 796 783
3 784 783 796
3 797 784 796
3 785 784 797
3 798 785 797
3 786 785 798
3 799 786 798
3 787 786 799
3 800 787 799
3 789 787 800
3 743 792 747
3 792 793 801
3 792 801 747
3 747 801 748
3 749 748 802
3 748 801 802
3 802 750 749
3 803 750 802
3 752 751 804
3 752 794 745
3 752 804 794
3 804 805 794
3 806 795 794
3 805 806 794
3 750 803 753
3 803 807 753
3 751 754 804
3 756 804 754
3 756 808 804
3 808 805 804
3 809 806 805
3 808 809 805
3 753 807 757
3 807 810 757
3 756 758 808
3 808 758 760
3 808 760 809
3 809 760 811
3 757 810 761
3 810 812 761
3 760 813 811
3 762 813 760
3 763 814 762
3 762 814 813
3 764 815 816
3 764 816 763
3 763 816 814
3 815 817 818
3 816 815 818
3 818 817 819
3 765 820 821
3 766 765 821
3 812 765 761
3 820 765 812
3 764 767 815
3 768 815 767
3 817 815 768
3 817 822 819
3 817 768 822
3 768 770 822
3 822 770 771
3 823 822 771
3 772 824 825
3 773 772 825
3 821 772 766
3 824 772 821
3 771 826 823
3 774 826 771
3 775 827 774
3 774 827 826
3 776 828 775
3 775 828 827
3 825 776 773
3 828 776 825
3 829 830 831
3 829 832 833
3 831 832 829
3 832 834 833
3 788 835 836
3 789 835 788
3 830 829 790
3 830 790 836
3 836 790 788
3 791 790 829
3 833 791 829
3 833 793 791
3 833 834 793
3 834 837 793
3 796 795 838
3 839 796 838
3 839 840 796
3 840 797 796
3 798 797 841
3 797 840 841
3 799 798 842
3 798 841 842
3 800 799 843
3 799 842 843
3 835 789 800
3 843 835 800
3 793 837 844
3 801 793 844
3 802 801 845
3 801 844 845
3 845 803 802
3 846 803 845
3 838 847 848
3 838 795 847
3 795 806 847
3 839 838 848
3 803 846 807
3 846 849 807
3 806 809 847
3 847 809 850
3 807 849 810
3 849 851 810
3 852 811 853
3 852 850 811
3 850 809 811
3 852 853 854
3 810 851 812
3 851 855 812
3 811 813 853
3 853 856 854
3 853 813 856
3 813 814 856
3 816 857 814
3 814 857 856
3 818 858 816
3 816 858 857
3 858 818 819
3 859 858 819
3 820 860 861
3 821 820 861
3 855 820 812
3 860 820 855
3 819 862 859
3 822 862 819
3 823 863 864
3 823 864 822
3 822 864 862
3 864 863 865
3 824 866 867
3 825 824 867
3 861 824 821
3 866 824 861
3 823 826 863
3 863 868 865
3 863 826 868
3 826 827 868
3 828 869 827
3 827 869 868
3 867 828 825
3 869 828 867
3 870 871 872
3 870 831 830
3 870 872 831
3 872 873 831
3 832 831 874
3 831 873 874
3 874 834 832
3 875 834 874
3 876 877 878
3 871 876 878
3 870 876 871
3 870 835 876
3 870 836 835
3 830 836 870
3 834 875 837
3 875 879 837
3 840 839 880
3 881 840 880
3 881 882 840
3 882 841 840
3 842 841 883
3 841 882 883
3 877 876 843
3 877 843 883
3 883 843 842
3 835 843 876
3 837 879 884
3 844 837 884
3 845 844 885
3 844 884 885
3 885 846 845
3 886 846 885
3 848 847 887
3 848 880 839
3 848 887 880
3 887 888 880
3 889 881 880
3 888 889 880
3 846 886 849
3 886 890 849
3 887 850 891
3 847 850 887
3 888 887 892
3 892 887 891
3 893 889 888
3 892 893 888
3 849 890 851
3 890 894 851
3 850 852 891
3 854 891 852
3 854 895 891
3 895 892 891
3 896 893 892
3 895 896 892
3 851 894 855
3 894 897 855
3 854 856 895
3 895 898 896
3 895 856 898
3 856 857 898
3 858 899 857
3 857 899 898
3 859 900 901
3 859 901 858
3 858 901 899
3 901 900 902
3 860 903 904
3 861 860 904
3 897 860 855
3 903 860 897
3 859 862 900
3 900 905 902
3 900 862 905
3 862 864 905
3 905 864 865
3 906 905 865
3 866 907 908
3 867 866 908
3 904 866 861
3 907 866 904
3 865 909 906
3 868 909 865
3 869 910 868
3 868 910 909
3 908 869 867
3 910 869 908
3 872 911 912
3 871 911 872
3 873 872 913
3 872 912 913
3 914 913 915
3 914 874 913
3 874 873 913
3 874 914 875
3 878 916 917
3 877 916 878
3 911 871 878
3 917 911 878
3 914 915 918
3 918 875 914
3 918 919 875
3 919 879 875
3 882 881 920
3 921 882 920
3 921 922 882
3 922 883 882
3 916 877 883
3 922 916 883
3 879 919 923
3 884 879 923
3 924 923 925
3 924 885 923
3 885 884 923
3 885 924 886
3 920 926 927
3 920 881 926
3 881 889 926
3 921 920 927
3 924 925 928
3 928 886 924
3 928 929 886
3 929 890 886
3 889 893 926
3 926 893 930
3 890 929 894
3 929 931 894
3 932 896 933
3 932 930 896
3 930 893 896
3 932 933 934
3 935 936 937
3 935 931 936
3 935 897 931
3 897 894 931
3 896 898 933
3 933 938 934
3 933 898 938
3 898 899 938
3 901 939 899
3 899 939 938
3 902 940 941
3 902 941 901
3 901 941 939
3 941 940 942
3 903 935 937
3 903 937 904
3 904 937 943
3 897 935 903
3 902 905 940
3 906 944 945
3 905 906 945
3 905 945 942
3 905 942 940
3 945 944 946
3 907 947 948
3 908 907 948
3 943 907 904
3 947 907 943
3 906 909 944
3 944 949 946
3 944 909 949
3 909 910 949
3 948 910 908
3 949 910 948
3 912 911 950
3 912 951 913
3 950 951 912
3 913 951 915
3 917 916 952
3 917 950 911
3 917 952 950
3 952 953 950
3 951 950 954
3 954 950 953
3 915 955 918
3 915 951 955
3 951 954 955
3 918 955 919
3 922 921 956
3 922 952 916
3 922 956 952
3 956 957 952
3 953 952 958
3 958 952 957
3 954 953 959
3 959 953 958
3 955 954 960
3 960 954 959
3 919 961 923
3 919 955 961
3 955 960 961
3 923 961 925
3 927 926 962
3 927 956 921
3 927 962 956
3 962 963 956
3 957 956 964
3 964 956 963
3 958 957 965
3 965 957 964
3 959 958 966
3 966 958 965
3 960 959 967
3 967 959 966
3 961 960 968
3 968 960 967
3 925 969 928
3 925 961 969
3 961 968 969
3 928 969 929
3 962 930 970
3 926 930 962
3 963 962 971
3 971 962 970
3 964 963 972
3 972 963 971
3 965 964 973
3 973 964 972
3 966 965 974
3 974 965 973
3 967 966 975
3 975 966 974
3 968 967 976
3 976 967 975
3 969 968 977
3 977 968 976
3 929 977 931
3 969 977 929
3 930 932 970
3 934 970 932
3 934 978 970
3 978 971 970
3 972 971 979
3 979 971 978
3 973 972 980
3 980 972 979
3 974 973 981
3 981 973 980
3 975 974 982
3 982 974 981
3 976 975 983
3 983 975 982
3 936 983 937
3 936 977 983
3 977 976 983
3 931 977 936
3 934 938 978
3 939 978 938
3 979 978 939
3 941 979 939
3 980 979 941
3 942 980 941
3 942 984 980
3 984 981 980
3 982 981 985
3 985 981 984
3 983 982 986
3 986 982 985
3 937 986 943
3 983 986 937
3 942 945 984
3 946 984 945
3 946 987 984
3 987 985 984
3 947 987 948
3 947 986 987
3 986 985 987
3 943 986 947
3 946 949 987
3 948 987 949
