ply
format ascii 1.0
element vertex 1486
property float x
property float y
property float z
property uchar red
property uchar green
property uchar blue
element face 2968
property list uchar int vertex_indices
end_header
-0.2892 -0.1700 0.1700 43 161 43
-0.2800 -0.1700 0.1594 43 161 43
-0.2800 -0.1863 0.1700 43 161 43
-0.2800 -0.1823 0.1900 43 161 43
-0.2844 -0.1700 0.1900 43 161 43
-0.2800 -0.1700 0.1939 43 161 43
-0.2874 -0.1500 0.1700 43 161 43
-0.2800 -0.1500 0.1546 43 161 43
-0.2844 -0.1500 0.1900 43 161 43
-0.2800 -0.1500 0.1937 43 161 43
-0.2800 -0.1342 0.1700 43 161 43
-0.2839 -0.1300 0.1900 43 161 43
-0.2800 -0.1300 0.1794 43 161 43
-0.2800 -0.1300 0.1925 43 161 43
-0.2812 -0.1100 0.1900 43 161 43
-0.2800 -0.1100 0.1890 43 161 43
-0.2800 -0.1100 0.1906 43 161 43
-0.2813 -0.0900 0.1300 43 161 43
-0.2800 -0.0900 0.1291 43 161 43
-0.2800 -0.0946 0.1300 43 161 43
-0.2800 -0.0900 0.1317 43 161 43
-0.2800 -0.0949 0.1900 43 161 43
-0.2805 -0.0700 0.1300 43 161 43
-0.2800 -0.0700 0.1297 43 161 43
-0.2800 -0.0700 0.1306 43 161 43
-0.2819 -0.0700 0.1900 43 161 43
-0.2800 -0.0700 0.1886 43 161 43
-0.2800 -0.0867 0.1900 43 161 43
-0.2800 -0.0700 0.1910 43 161 43
-0.2800 -0.0684 0.1300 43 161 43
-0.2868 -0.0500 0.1900 43 161 43
-0.2800 -0.0500 0.1813 43 161 43
-0.2800 -0.0500 0.1974 43 161 43
-0.2802 -0.0300 0.1700 43 161 43
-0.2800 -0.0300 0.1697 43 161 43
-0.2800 -0.0305 0.1700 43 161 43
-0.2885 -0.0300 0.1900 43 161 43
-0.2800 -0.0382 0.2100 43 161 43
-0.2850 -0.0300 0.2100 43 161 43
-0.2800 -0.0300 0.2207 43 161 43
-0.2800 -0.0294 0.1700 43 161 43
-0.2825 -0.0100 0.1900 43 161 43
-0.2800 -0.0100 0.1828 43 161 43
-0.2823 -0.0100 0.2100 43 161 43
-0.2800 -0.0100 0.2165 43 161 43
-0.2800 -0.0075 0.1900 43 161 43
-0.2800 -0.0076 0.2100 43 161 43
-0.2756 -0.1900 0.1700 43 161 43
-0.2600 -0.1900 0.1626 43 161 43
-0.2600 -0.1971 0.1700 43 161 43
-0.2600 -0.2021 0.1900 43 161 43
-0.2758 -0.1900 0.1900 43 161 43
-0.2600 -0.1900 0.2015 43 161 43
-0.2655 -0.1700 0.1500 43 161 43
-0.2600 -0.1700 0.1473 43 161 43
-0.2600 -0.1739 0.1500 43 161 43
-0.2600 -0.1700 0.2038 43 161 43
-0.2768 -0.1500 0.1500 43 161 43
-0.2600 -0.1500 0.1388 43 161 43
-0.2600 -0.1500 0.2005 43 161 43
-0.2666 -0.1300 0.1300 43 161 43
-0.2600 -0.1300 0.1267 43 161 43
-0.2600 -0.1355 0.1300 43 161 43
-0.2741 -0.1300 0.1500 43 161 43
-0.2774 -0.1300 0.1700 43 161 43
-0.2600 -0.1300 0.1976 43 161 43
-0.2756 -0.1100 0.1300 43 161 43
-0.2600 -0.1100 0.1225 43 161 43
-0.2705 -0.1100 0.1500 43 161 43
-0.2627 -0.1100 0.1700 43 161 43
-0.2600 -0.1100 0.1939 43 161 43
-0.2600 -0.0900 0.1220 43 161 43
-0.2694 -0.0900 0.1500 43 161 43
-0.2600 -0.0900 0.1637 43 161 43
-0.2600 -0.1038 0.1700 43 161 43
-0.2788 -0.0900 0.1900 43 161 43
-0.2600 -0.0900 0.1817 43 161 43
-0.2600 -0.0900 0.1931 43 161 43
-0.2600 -0.0700 0.1229 43 161 43
-0.2672 -0.0700 0.1500 43 161 43
-0.2600 -0.0700 0.1643 43 161 43
-0.2600 -0.0700 0.1755 43 161 43
-0.2600 -0.0700 0.1988 43 161 43
-0.2710 -0.0500 0.1300 43 161 43
-0.2600 -0.0500 0.1259 43 161 43
-0.2604 -0.0500 0.1500 43 161 43
-0.2600 -0.0617 0.1700 43 161 43
-0.2666 -0.0500 0.1700 43 161 43
-0.2600 -0.0556 0.2100 43 161 43
-0.2651 -0.0500 0.2100 43 161 43
-0.2600 -0.0500 0.2144 43 161 43
-0.2600 -0.0390 0.1300 43 161 43
-0.2600 -0.0492 0.1500 43 161 43
-0.2600 -0.0300 0.1580 43 161 43
-0.2600 -0.0369 0.2300 43 161 43
-0.2703 -0.0300 0.2300 43 161 43
-0.2600 -0.0300 0.2345 43 161 43
-0.2662 -0.0100 0.1700 43 161 43
-0.2600 -0.0100 0.1671 43 161 43
-0.2698 -0.0100 0.2300 43 161 43
-0.2600 -0.0100 0.2343 43 161 43
-0.2600 -0.0078 0.1700 43 161 43
-0.2600 0.0001 0.1900 43 161 43
-0.2600 0.0032 0.2100 43 161 43
-0.2600 -0.0038 0.2300 43 161 43
-0.2451 -0.2100 0.1900 43 161 43
-0.2400 -0.2100 0.1855 43 161 43
-0.2400 -0.2120 0.1900 43 161 43
-0.2400 -0.2100 0.2002 43 161 43
-0.2400 -0.1900 0.1592 43 161 43
-0.2400 -0.2020 0.1700 43 161 43
-0.2400 -0.2070 0.2100 43 161 43
-0.2524 -0.1900 0.2100 43 161 43
-0.2400 -0.1983 0.2300 43 161 43
-0.2442 -0.1900 0.2300 43 161 43
-0.2400 -0.1900 0.2362 43 161 43
-0.2400 -0.1700 0.1441 43 161 43
-0.2400 -0.1785 0.1500 43 161 43
-0.2515 -0.1700 0.2100 43 161 43
-0.2415 -0.1700 0.2300 43 161 43
-0.2400 -0.1700 0.2329 43 161 43
-0.2400 -0.1500 0.1361 43 161 43
-0.2400 -0.1581 0.2100 43 161 43
-0.2400 -0.1500 0.2045 43 161 43
-0.2400 -0.1685 0.2300 43 161 43
-0.2400 -0.1300 0.1244 43 161 43
-0.2400 -0.1397 0.1300 43 161 43
-0.2400 -0.1300 0.1993 43 161 43
-0.2400 -0.1100 0.1199 43 161 43
-0.2400 -0.1100 0.1966 43 161 43
-0.2400 -0.0900 0.1186 43 161 43
-0.2518 -0.0900 0.1700 43 161 43
-0.2400 -0.0900 0.1992 43 161 43
-0.2400 -0.0700 0.1197 43 161 43
-0.2507 -0.0700 0.1700 43 161 43
-0.2400 -0.0799 0.2100 43 161 43
-0.2505 -0.0700 0.2100 43 161 43
-0.2400 -0.0700 0.2226 43 161 43
-0.2400 -0.0500 0.1210 43 161 43
-0.2400 -0.0606 0.2300 43 161 43
-0.2469 -0.0500 0.2300 43 161 43
-0.2400 -0.0500 0.2345 43 161 43
-0.2534 -0.0300 0.1300 43 161 43
-0.2400 -0.0300 0.1222 43 161 43
-0.2476 -0.0300 0.1500 43 161 43
-0.2400 -0.0300 0.2384 43 161 43
-0.2443 -0.0100 0.1300 43 161 43
-0.2400 -0.0100 0.1230 43 161 43
-0.2400 -0.0100 0.1472 43 161 43
-0.2400 -0.0134 0.1500 43 161 43
-0.2400 -0.0100 0.1523 43 161 43
-0.2400 -0.0100 0.2384 43 161 43
-0.2455 0.0100 0.1300 43 161 43
-0.2400 0.0100 0.1109 43 161 43
-0.2400 0.0100 0.1432 43 161 43
-0.2400 -0.0036 0.1700 43 161 43
-0.2400 0.0049 0.1900 43 161 43
-0.2508 0.0100 0.2100 43 161 43
-0.2400 0.0100 0.1975 43 161 43
-0.2463 0.0100 0.2300 43 161 43
-0.2400 0.0100 0.2344 43 161 43
-0.2449 0.0300 0.1100 43 161 43
-0.2400 0.0300 0.1057 43 161 43
-0.2400 0.0113 0.1100 43 161 43
-0.2491 0.0300 0.1300 43 161 43
-0.2400 0.0201 0.1500 43 161 43
-0.2430 0.0300 0.1500 43 161 43
-0.2400 0.0300 0.1552 43 161 43
-0.2400 0.0270 0.2100 43 161 43
-0.2400 0.0204 0.2300 43 161 43
-0.2504 0.0500 0.1100 43 161 43
-0.2400 0.0500 0.1031 43 161 43
-0.2520 0.0500 0.1300 43 161 43
-0.2487 0.0500 0.1500 43 161 43
-0.2400 0.0423 0.1700 43 161 43
-0.2451 0.0500 0.1700 43 161 43
-0.2400 0.0500 0.1868 43 161 43
-0.2505 0.0700 0.1100 43 161 43
-0.2400 0.0700 0.1031 43 161 43
-0.2522 0.0700 0.1300 43 161 43
-0.2501 0.0700 0.1500 43 161 43
-0.2492 0.0700 0.1700 43 161 43
-0.2400 0.0550 0.1900 43 161 43
-0.2432 0.0700 0.1900 43 161 43
-0.2400 0.0700 0.1934 43 161 43
-0.2453 0.0900 0.1100 43 161 43
-0.2400 0.0900 0.1053 43 161 43
-0.2504 0.0900 0.1300 43 161 43
-0.2501 0.0900 0.1500 43 161 43
-0.2495 0.0900 0.1700 43 161 43
-0.2435 0.0900 0.1900 43 161 43
-0.2400 0.0900 0.1937 43 161 43
-0.2433 0.1100 0.1100 43 161 43
-0.2400 0.1100 0.1067 43 161 43
-0.2495 0.1100 0.1300 43 161 43
-0.2500 0.1100 0.1500 43 161 43
-0.2495 0.1100 0.1700 43 161 43
-0.2435 0.1100 0.1900 43 161 43
-0.2400 0.1100 0.1937 43 161 43
-0.2400 0.1282 0.1100 43 161 43
-0.2482 0.1300 0.1300 43 161 43
-0.2400 0.1300 0.1106 43 161 43
-0.2495 0.1300 0.1500 43 161 43
-0.2491 0.1300 0.1700 43 161 43
-0.2429 0.1300 0.1900 43 161 43
-0.2400 0.1300 0.1931 43 161 43
-0.2400 0.1497 0.1300 43 161 43
-0.2432 0.1500 0.1500 43 161 43
-0.2400 0.1500 0.1308 43 161 43
-0.2428 0.1500 0.1700 43 161 43
-0.2400 0.1500 0.1781 43 161 43
-0.2400 0.1384 0.1900 43 161 43
-0.2400 0.1533 0.1500 43 161 43
-0.2400 0.1528 0.1700 43 161 43
-0.2221 -0.2100 0.1700 43 161 43
-0.2200 -0.2100 0.1690 43 161 43
-0.2200 -0.2109 0.1700 43 161 43
-0.2200 -0.2180 0.1900 43 161 43
-0.2200 -0.2184 0.2100 43 161 43
-0.2366 -0.2100 0.2100 43 161 43
-0.2200 -0.2149 0.2300 43 161 43
-0.2285 -0.2100 0.2300 43 161 43
-0.2200 -0.2100 0.2352 43 161 43
-0.2200 -0.1900 0.1543 43 161 43
-0.2200 -0.1900 0.2482 43 161 43
-0.2200 -0.1700 0.1420 43 161 43
-0.2200 -0.1836 0.1500 43 161 43
-0.2200 -0.1700 0.2484 43 161 43
-0.2200 -0.1500 0.1334 43 161 43
-0.2200 -0.1537 0.2100 43 161 43
-0.2200 -0.1500 0.2065 43 161 43
-0.2200 -0.1613 0.2300 43 161 43
-0.2200 -0.1300 0.1230 43 161 43
-0.2200 -0.1440 0.1300 43 161 43
-0.2200 -0.1300 0.2001 43 161 43
-0.2200 -0.1100 0.1184 43 161 43
-0.2200 -0.1100 0.1993 43 161 43
-0.2200 -0.0900 0.1144 43 161 43
-0.2200 -0.0900 0.2026 43 161 43
-0.2200 -0.0700 0.1146 43 161 43
-0.2200 -0.0805 0.2100 43 161 43
-0.2200 -0.0700 0.2228 43 161 43
-0.2200 -0.0500 0.1133 43 161 43
-0.2200 -0.0607 0.2300 43 161 43
-0.2200 -0.0500 0.2345 43 161 43
-0.2250 -0.0300 0.1100 43 161 43
-0.2200 -0.0300 0.1070 43 161 43
-0.2200 -0.0398 0.1100 43 161 43
-0.2200 -0.0300 0.2385 43 161 43
-0.2306 -0.0100 0.1100 43 161 43
-0.2200 -0.0100 0.1036 43 161 43
-0.2393 -0.0100 0.1500 43 161 43
-0.2200 -0.0100 0.2397 43 161 43
-0.2395 0.0100 0.1100 43 161 43
-0.2200 0.0100 0.1014 43 161 43
-0.2364 0.0100 0.1500 43 161 43
-0.2247 0.0100 0.1700 43 161 43
-0.2300 0.0100 0.1900 43 161 43
-0.2200 0.0100 0.2390 43 161 43
-0.2200 0.0300 0.1004 43 161 43
-0.2264 0.0300 0.1700 43 161 43
-0.2241 0.0300 0.1900 43 161 43
-0.2376 0.0300 0.2100 43 161 43
-0.2306 0.0300 0.2300 43 161 43
-0.2200 0.0300 0.2346 43 161 43
-0.2200 0.0500 0.1000 43 161 43
-0.2383 0.0500 0.1900 43 161 43
-0.2213 0.0500 0.2100 43 161 43
-0.2200 0.0500 0.2116 43 161 43
-0.2200 0.0369 0.2300 43 161 43
-0.2200 0.0700 0.0998 43 161 43
-0.2200 0.0536 0.2100 43 161 43
-0.2200 0.0700 0.2063 43 161 43
-0.2200 0.0900 0.0992 43 161 43
-0.2200 0.0900 0.2061 43 161 43
-0.2200 0.1100 0.0984 43 161 43
-0.2200 0.1100 0.2060 43 161 43
-0.2394 0.1300 0.1100 43 161 43
-0.2200 0.1300 0.1006 43 161 43
-0.2200 0.1300 0.2054 43 161 43
-0.2235 0.1500 0.1100 43 161 43
-0.2200 0.1500 0.1077 43 161 43
-0.2398 0.1500 0.1300 43 161 43
-0.2313 0.1500 0.1900 43 161 43
-0.2200 0.1500 0.1970 43 161 43
-0.2200 0.1534 0.1100 43 161 43
-0.2200 0.1644 0.1300 43 161 43
-0.2200 0.1640 0.1500 43 161 43
-0.2200 0.1605 0.1700 43 161 43
-0.2200 0.1550 0.1900 43 161 43
-0.2000 -0.2100 0.1631 43 161 43
-0.2000 -0.2158 0.1700 43 161 43
-0.2000 -0.2227 0.1900 43 161 43
-0.2000 -0.2257 0.2100 43 161 43
-0.2000 -0.2227 0.2300 43 161 43
-0.2000 -0.2100 0.2384 43 161 43
-0.2085 -0.1900 0.1500 43 161 43
-0.2000 -0.1900 0.1469 43 161 43
-0.2000 -0.1943 0.1500 43 161 43
-0.2000 -0.1900 0.2456 43 161 43
-0.2000 -0.1700 0.1381 43 161 43
-0.2000 -0.1700 0.2467 43 161 43
-0.2096 -0.1500 0.1300 43 161 43
-0.2000 -0.1500 0.1269 43 161 43
-0.2000 -0.1552 0.1300 43 161 43
-0.2000 -0.1534 0.2100 43 161 43
-0.2000 -0.1500 0.2067 43 161 43
-0.2000 -0.1611 0.2300 43 161 43
-0.2000 -0.1300 0.1210 43 161 43
-0.2000 -0.1300 0.2004 43 161 43
-0.2000 -0.1100 0.1179 43 161 43
-0.2000 -0.1100 0.2000 43 161 43
-0.2000 -0.0900 0.1118 43 161 43
-0.2000 -0.0900 0.2009 43 161 43
-0.2098 -0.0700 0.1100 43 161 43
-0.2000 -0.0700 0.1057 43 161 43
-0.2000 -0.0844 0.1100 43 161 43
-0.2087 -0.0700 0.2100 43 161 43
-0.2000 -0.0700 0.2042 43 161 43
-0.2142 -0.0500 0.1100 43 161 43
-0.2000 -0.0500 0.1033 43 161 43
-0.2000 -0.0570 0.2100 43 161 43
-0.2131 -0.0500 0.2300 43 161 43
-0.2000 -0.0500 0.2151 43 161 43
-0.2000 -0.0300 0.1012 43 161 43
-0.2000 -0.0375 0.2300 43 161 43
-0.2000 -0.0300 0.2350 43 161 43
-0.2000 -0.0100 0.1003 43 161 43
-0.2000 -0.0100 0.2393 43 161 43
-0.2000 0.0100 0.0999 43 161 43
-0.2000 0.0100 0.2397 43 161 43
-0.2000 0.0300 0.0989 43 161 43
-0.2000 0.0300 0.2387 43 161 43
-0.2000 0.0500 0.0969 43 161 43
-0.2082 0.0500 0.2300 43 161 43
-0.2000 0.0500 0.2358 43 161 43
-0.2000 0.0700 0.0957 43 161 43
-0.2164 0.0700 0.2100 43 161 43
-0.2042 0.0700 0.2300 43 161 43
-0.2000 0.0700 0.2341 43 161 43
-0.2000 0.0900 0.0934 43 161 43
-0.2161 0.0900 0.2100 43 161 43
-0.2040 0.0900 0.2300 43 161 43
-0.2000 0.0900 0.2339 43 161 43
-0.2000 0.1100 0.0902 43 161 43
-0.2160 0.1100 0.2100 43 161 43
-0.2039 0.1100 0.2300 43 161 43
-0.2000 0.1100 0.2339 43 161 43
-0.2000 0.1300 0.0949 43 161 43
-0.2154 0.1300 0.2100 43 161 43
-0.2033 0.1300 0.2300 43 161 43
-0.2000 0.1300 0.2333 43 161 43
-0.2000 0.1500 0.1004 43 161 43
-0.2072 0.1500 0.2100 43 161 43
-0.2000 0.1500 0.2221 43 161 43
-0.2000 0.1395 0.2300 43 161 43
-0.2063 0.1700 0.1100 43 161 43
-0.2000 0.1700 0.1052 43 161 43
-0.2146 0.1700 0.1300 43 161 43
-0.2115 0.1700 0.1500 43 161 43
-0.2000 0.1700 0.1623 43 161 43
-0.2000 0.1649 0.1700 43 161 43
-0.2000 0.1594 0.1900 43 161 43
-0.2000 0.1553 0.2100 43 161 43
-0.2000 0.1812 0.1100 43 161 43
-0.2027 0.1900 0.1300 43 161 43
-0.2000 0.1900 0.1223 43 161 43
-0.2000 0.1900 0.1387 43 161 43
-0.2000 0.1846 0.1500 43 161 43
-0.2000 0.1926 0.1300 43 161 43
-0.1830 -0.2300 0.1900 43 161 43
-0.1800 -0.2300 0.1877 43 161 43
-0.1800 -0.2315 0.1900 43 161 43
-0.1800 -0.2348 0.2100 43 161 43
-0.1909 -0.2300 0.2100 43 161 43
-0.1800 -0.2300 0.2245 43 161 43
-0.1800 -0.2100 0.1606 43 161 43
-0.1800 -0.2188 0.1700 43 161 43
-0.1800 -0.2267 0.2300 43 161 43
-0.1800 -0.2100 0.2386 43 161 43
-0.1800 -0.1900 0.1443 43 161 43
-0.1800 -0.1978 0.1500 43 161 43
-0.1800 -0.1900 0.2435 43 161 43
-0.1800 -0.1700 0.1363 43 161 43
-0.1800 -0.1700 0.2450 43 161 43
-0.1800 -0.1500 0.1244 43 161 43
-0.1800 -0.1595 0.1300 43 161 43
-0.1800 -0.1534 0.2100 43 161 43
-0.1800 -0.1500 0.2067 43 161 43
-0.1800 -0.1614 0.2300 43 161 43
-0.1800 -0.1300 0.1193 43 161 43
-0.1800 -0.1300 0.2005 43 161 43
-0.1800 -0.1100 0.1143 43 161 43
-0.1800 -0.1100 0.2000 43 161 43
-0.1947 -0.0900 0.1100 43 161 43
-0.1800 -0.0900 0.1054 43 161 43
-0.1800 -0.1003 0.1100 43 161 43
-0.1800 -0.0900 0.2001 43 161 43
-0.1800 -0.0700 0.1011 43 161 43
-0.1800 -0.0700 0.2006 43 161 43
-0.1800 -0.0500 0.1000 43 161 43
-0.1928 -0.0500 0.2100 43 161 43
-0.1800 -0.0500 0.2049 43 161 43
-0.1800 -0.0300 0.0998 43 161 43
-0.1800 -0.0424 0.2100 43 161 43
-0.1876 -0.0300 0.2300 43 161 43
-0.1800 -0.0300 0.2246 43 161 43
-0.1800 -0.0100 0.0996 43 161 43
-0.1800 -0.0224 0.2300 43 161 43
-0.1800 -0.0100 0.2350 43 161 43
-0.1800 0.0100 0.0986 43 161 43
-0.1800 0.0100 0.2388 43 161 43
-0.1800 0.0300 0.0944 43 161 43
-0.1800 0.0300 0.2411 43 161 43
-0.1856 0.0500 0.0900 43 161 43
-0.1800 0.0500 0.0870 43 161 43
-0.1800 0.0421 0.0900 43 161 43
-0.1800 0.0500 0.2442 43 161 43
-0.1900 0.0700 0.0900 43 161 43
-0.1800 0.0700 0.0844 43 161 43
-0.1800 0.0700 0.2459 43 161 43
-0.1938 0.0900 0.0900 43 161 43
-0.1800 0.0900 0.0833 43 161 43
-0.1800 0.0900 0.2461 43 161 43
-0.1996 0.1100 0.0900 43 161 43
-0.1800 0.1100 0.0824 43 161 43
-0.1800 0.1100 0.2460 43 161 43
-0.1871 0.1300 0.0900 43 161 43
-0.1800 0.1300 0.0871 43 161 43
-0.1800 0.1300 0.2455 43 161 43
-0.1800 0.1353 0.0900 43 161 43
-0.1800 0.1500 0.0970 43 161 43
-0.1936 0.1500 0.2300 43 161 43
-0.1800 0.1500 0.2393 43 161 43
-0.1800 0.1700 0.1005 43 161 43
-0.1882 0.1700 0.1700 43 161 43
-0.1800 0.1700 0.1814 43 161 43
-0.1800 0.1671 0.1900 43 161 43
-0.1800 0.1657 0.2100 43 161 43
-0.1800 0.1593 0.2300 43 161 43
-0.1893 0.1900 0.1100 43 161 43
-0.1800 0.1900 0.1066 43 161 43
-0.1946 0.1900 0.1500 43 161 43
-0.1800 0.1900 0.1623 43 161 43
-0.1800 0.1782 0.1700 43 161 43
-0.1800 0.1939 0.1100 43 161 43
-0.1800 0.2033 0.1300 43 161 43
-0.1800 0.2014 0.1500 43 161 43
-0.1600 -0.2300 0.1797 43 161 43
-0.1600 -0.2361 0.1900 43 161 43
-0.1600 -0.2360 0.2100 43 161 43
-0.1600 -0.2300 0.2201 43 161 43
-0.1600 -0.2100 0.1591 43 161 43
-0.1600 -0.2225 0.1700 43 161 43
-0.1600 -0.2208 0.2300 43 161 43
-0.1600 -0.2100 0.2369 43 161 43
-0.1600 -0.1900 0.1440 43 161 43
-0.1600 -0.1985 0.1500 43 161 43
-0.1600 -0.1900 0.2431 43 161 43
-0.1600 -0.1700 0.1361 43 161 43
-0.1600 -0.1700 0.2448 43 161 43
-0.1600 -0.1500 0.1240 43 161 43
-0.1600 -0.1599 0.1300 43 161 43
-0.1600 -0.1534 0.2100 43 161 43
-0.1600 -0.1500 0.2067 43 161 43
-0.1600 -0.1615 0.2300 43 161 43
-0.1600 -0.1300 0.1172 43 161 43
-0.1600 -0.1300 0.2005 43 161 43
-0.1681 -0.1100 0.1100 43 161 43
-0.1600 -0.1100 0.1069 43 161 43
-0.1600 -0.1155 0.1100 43 161 43
-0.1600 -0.1100 0.2000 43 161 43
-0.1600 -0.0900 0.1005 43 161 43
-0.1600 -0.0900 0.2000 43 161 43
-0.1600 -0.0700 0.0973 43 161 43
-0.1600 -0.0700 0.2001 43 161 43
-0.1600 -0.0500 0.0960 43 161 43
-0.1600 -0.0500 0.2013 43 161 43
-0.1600 -0.0300 0.0958 43 161 43
-0.1675 -0.0300 0.2100 43 161 43
-0.1600 -0.0300 0.2050 43 161 43
-0.1600 -0.0100 0.0956 43 161 43
-0.1600 -0.0179 0.2100 43 161 43
-0.1724 -0.0100 0.2300 43 161 43
-0.1600 -0.0100 0.2157 43 161 43
-0.1600 0.0100 0.0930 43 161 43
-0.1600 0.0016 0.2300 43 161 43
-0.1600 0.0100 0.2358 43 161 43
-0.1700 0.0300 0.0900 43 161 43
-0.1600 0.0300 0.0856 43 161 43
-0.1600 0.0179 0.0900 43 161 43
-0.1600 0.0300 0.2442 43 161 43
-0.1600 0.0500 0.0814 43 161 43
-0.1600 0.0385 0.2500 43 161 43
-0.1715 0.0500 0.2500 43 161 43
-0.1600 0.0500 0.2639 43 161 43
-0.1600 0.0700 0.0804 43 161 43
-0.1757 0.0700 0.2500 43 161 43
-0.1600 0.0612 0.2700 43 161 43
-0.1631 0.0700 0.2700 43 161 43
-0.1600 0.0700 0.2730 43 161 43
-0.1600 0.0900 0.0803 43 161 43
-0.1760 0.0900 0.2500 43 161 43
-0.1637 0.0900 0.2700 43 161 43
-0.1600 0.0900 0.2735 43 161 43
-0.1600 0.1100 0.0806 43 161 43
-0.1760 0.1100 0.2500 43 161 43
-0.1635 0.1100 0.2700 43 161 43
-0.1600 0.1100 0.2733 43 161 43
-0.1600 0.1300 0.0847 43 161 43
-0.1753 0.1300 0.2500 43 161 43
-0.1625 0.1300 0.2700 43 161 43
-0.1600 0.1300 0.2723 43 161 43
-0.1600 0.1393 0.0900 43 161 43
-0.1600 0.1500 0.0960 43 161 43
-0.1687 0.1500 0.2500 43 161 43
-0.1600 0.1500 0.2620 43 161 43
-0.1600 0.1368 0.2700 43 161 43
-0.1600 0.1700 0.1001 43 161 43
-0.1769 0.1700 0.1900 43 161 43
-0.1755 0.1700 0.2100 43 161 43
-0.1687 0.1700 0.2300 43 161 43
-0.1600 0.1700 0.2384 43 161 43
-0.1600 0.1584 0.2500 43 161 43
-0.1600 0.1900 0.1048 43 161 43
-0.1746 0.1900 0.1700 43 161 43
-0.1689 0.1900 0.1900 43 161 43
-0.1646 0.1900 0.2100 43 161 43
-0.1600 0.1900 0.2203 43 161 43
-0.1600 0.1823 0.2300 43 161 43
-0.1600 0.1975 0.1100 43 161 43
-0.1704 0.2100 0.1300 43 161 43
-0.1600 0.2100 0.1213 43 161 43
-0.1734 0.2100 0.1500 43 161 43
-0.1701 0.2100 0.1700 43 161 43
-0.1642 0.2100 0.1900 43 161 43
-0.1600 0.2100 0.1959 43 161 43
-0.1600 0.1962 0.2100 43 161 43
-0.1600 0.2226 0.1300 43 161 43
-0.1622 0.2300 0.1500 43 161 43
-0.1600 0.2300 0.1438 43 161 43
-0.1620 0.2300 0.1700 43 161 43
-0.1600 0.2300 0.1756 43 161 43
-0.1600 0.2195 0.1900 43 161 43
-0.1600 0.2321 0.1500 43 161 43
-0.1600 0.2319 0.1700 43 161 43
-0.1408 -0.2300 0.1700 43 161 43
-0.1400 -0.2300 0.1697 43 161 43
-0.1400 -0.2303 0.1700 43 161 43
-0.1400 -0.2385 0.1900 43 161 43
-0.1400 -0.2358 0.2100 43 161 43
-0.1400 -0.2300 0.2181 43 161 43
-0.1400 -0.2100 0.1571 43 161 43
-0.1400 -0.2182 0.2300 43 161 43
-0.1400 -0.2100 0.2360 43 161 43
-0.1400 -0.1900 0.1440 43 161 43
-0.1400 -0.1995 0.1500 43 161 43
-0.1400 -0.1900 0.2430 43 161 43
-0.1400 -0.1700 0.1361 43 161 43
-0.1400 -0.1700 0.2444 43 161 43
-0.1400 -0.1500 0.1239 43 161 43
-0.1400 -0.1600 0.1300 43 161 43
-0.1400 -0.1534 0.2100 43 161 43
-0.1400 -0.1500 0.2067 43 161 43
-0.1400 -0.1616 0.2300 43 161 43
-0.1400 -0.1300 0.1162 43 161 43
-0.1400 -0.1300 0.2005 43 161 43
-0.1400 -0.1100 0.1043 43 161 43
-0.1400 -0.1196 0.1100 43 161 43
-0.1400 -0.1100 0.2000 43 161 43
-0.1400 -0.0900 0.0984 43 161 43
-0.1400 -0.0900 0.2000 43 161 43
-0.1400 -0.0700 0.0917 43 161 43
-0.1400 -0.0700 0.2000 43 161 43
-0.1480 -0.0500 0.0900 43 161 43
-0.1400 -0.0500 0.0857 43 161 43
-0.1400 -0.0647 0.0900 43 161 43
-0.1400 -0.0500 0.2001 43 161 43
-0.1499 -0.0300 0.0900 43 161 43
-0.1400 -0.0300 0.0843 43 161 43
-0.1400 -0.0300 0.2008 43 161 43
-0.1503 -0.0100 0.0900 43 161 43
-0.1400 -0.0100 0.0841 43 161 43
-0.1492 -0.0100 0.2100 43 161 43
-0.1400 -0.0100 0.2070 43 161 43
-0.1544 0.0100 0.0900 43 161 43
-0.1400 0.0100 0.0831 43 161 43
-0.1400 -0.0069 0.2100 43 161 43
-0.1400 0.0057 0.2300 43 161 43
-0.1400 0.0100 0.2341 43 161 43
-0.1400 0.0300 0.0811 43 161 43
-0.1400 0.0300 0.2459 43 161 43
-0.1400 0.0500 0.0802 43 161 43
-0.1400 0.0343 0.2500 43 161 43
-0.1400 0.0469 0.2700 43 161 43
-0.1488 0.0500 0.2700 43 161 43
-0.1400 0.0500 0.2730 43 161 43
-0.1400 0.0700 0.0800 43 161 43
-0.1400 0.0700 0.2791 43 161 43
-0.1400 0.0900 0.0801 43 161 43
-0.1400 0.0900 0.2794 43 161 43
-0.1400 0.1100 0.0812 43 161 43
-0.1400 0.1100 0.2781 43 161 43
-0.1400 0.1300 0.0869 43 161 43
-0.1400 0.1300 0.2742 43 161 43
-0.1400 0.1358 0.0900 43 161 43
-0.1400 0.1500 0.0969 43 161 43
-0.1400 0.1398 0.2700 43 161 43
-0.1400 0.1500 0.2603 43 161 43
-0.1400 0.1700 0.1001 43 161 43
-0.1400 0.1564 0.2500 43 161 43
-0.1400 0.1700 0.2362 43 161 43
-0.1400 0.1900 0.1048 43 161 43
-0.1400 0.1801 0.2300 43 161 43
-0.1400 0.1900 0.2198 43 161 43
-0.1400 0.1975 0.1100 43 161 43
-0.1400 0.2100 0.1213 43 161 43
-0.1400 0.1960 0.2100 43 161 43
-0.1400 0.2100 0.1959 43 161 43
-0.1400 0.2226 0.1300 43 161 43
-0.1400 0.2300 0.1438 43 161 43
-0.1400 0.2195 0.1900 43 161 43
-0.1400 0.2300 0.1756 43 161 43
-0.1400 0.2321 0.1500 43 161 43
-0.1400 0.2319 0.1700 43 161 43
-0.1200 -0.2300 0.1660 43 161 43
-0.1200 -0.2342 0.1700 43 161 43
-0.1200 -0.2421 0.1900 43 161 43
-0.1200 -0.2385 0.2100 43 161 43
-0.1200 -0.2300 0.2196 43 161 43
-0.1200 -0.2100 0.1562 43 161 43
-0.1200 -0.2183 0.2300 43 161 43
-0.1200 -0.2100 0.2358 43 161 43
-0.1200 -0.1900 0.1439 43 161 43
-0.1200 -0.1999 0.1500 43 161 43
-0.1200 -0.1900 0.2420 43 161 43
-0.1200 -0.1700 0.1361 43 161 43
-0.1200 -0.1700 0.2409 43 161 43
-0.1200 -0.1500 0.1239 43 161 43
-0.1200 -0.1600 0.1300 43 161 43
-0.1200 -0.1535 0.2100 43 161 43
-0.1200 -0.1500 0.2066 43 161 43
-0.1200 -0.1625 0.2300 43 161 43
-0.1200 -0.1300 0.1161 43 161 43
-0.1200 -0.1300 0.2005 43 161 43
-0.1200 -0.1100 0.1042 43 161 43
-0.1200 -0.1198 0.1100 43 161 43
-0.1200 -0.1100 0.2000 43 161 43
-0.1200 -0.0900 0.0992 43 161 43
-0.1200 -0.0900 0.2000 43 161 43
-0.1200 -0.0700 0.0935 43 161 43
-0.1200 -0.0700 0.2000 43 161 43
-0.1200 -0.0500 0.0836 43 161 43
-0.1200 -0.0634 0.0900 43 161 43
-0.1200 -0.0500 0.2000 43 161 43
-0.1200 -0.0300 0.0806 43 161 43
-0.1200 -0.0300 0.2005 43 161 43
-0.1200 -0.0100 0.0803 43 161 43
-0.1200 -0.0100 0.2065 43 161 43
-0.1200 0.0100 0.0802 43 161 43
-0.1200 -0.0063 0.2100 43 161 43
-0.1200 0.0060 0.2300 43 161 43
-0.1200 0.0100 0.2339 43 161 43
-0.1200 0.0300 0.0801 43 161 43
-0.1200 0.0300 0.2461 43 161 43
-0.1200 0.0500 0.0800 43 161 43
-0.1200 0.0340 0.2500 43 161 43
-0.1200 0.0463 0.2700 43 161 43
-0.1200 0.0500 0.2735 43 161 43
-0.1200 0.0700 0.0800 43 161 43
-0.1200 0.0700 0.2794 43 161 43
-0.1200 0.0900 0.0803 43 161 43
-0.1200 0.0900 0.2793 43 161 43
-0.1200 0.1100 0.0834 43 161 43
-0.1200 0.1100 0.2748 43 161 43
-0.1200 0.1239 0.0900 43 161 43
-0.1302 0.1300 0.0900 43 161 43
-0.1200 0.1300 0.0932 43 161 43
-0.1231 0.1300 0.2300 43 161 43
-0.1200 0.1268 0.2300 43 161 43
-0.1200 0.1300 0.2208 43 161 43
-0.1247 0.1300 0.2500 43 161 43
-0.1200 0.1255 0.2500 43 161 43
-0.1338 0.1300 0.2700 43 161 43
-0.1200 0.1170 0.2700 43 161 43
-0.1200 0.1500 0.0988 43 161 43
-0.1252 0.1500 0.2100 43 161 43
-0.1200 0.1379 0.2100 43 161 43
-0.1200 0.1500 0.2024 43 161 43
-0.1308 0.1500 0.2300 43 161 43
-0.1353 0.1500 0.2500 43 161 43
-0.1200 0.1700 0.1003 43 161 43
-0.1254 0.1700 0.1900 43 161 43
-0.1200 0.1624 0.1900 43 161 43
-0.1200 0.1700 0.1779 43 161 43
-0.1297 0.1700 0.2100 43 161 43
-0.1356 0.1700 0.2300 43 161 43
-0.1200 0.1900 0.1060 43 161 43
-0.1252 0.1900 0.1700 43 161 43
-0.1200 0.1780 0.1700 43 161 43
-0.1200 0.1900 0.1627 43 161 43
-0.1312 0.1900 0.1900 43 161 43
-0.1357 0.1900 0.2100 43 161 43
-0.1200 0.1945 0.1100 43 161 43
-0.1294 0.2100 0.1300 43 161 43
-0.1200 0.2037 0.1300 43 161 43
-0.1264 0.2100 0.1500 43 161 43
-0.1200 0.2019 0.1500 43 161 43
-0.1299 0.2100 0.1700 43 161 43
-0.1358 0.2100 0.1900 43 161 43
-0.1378 0.2300 0.1500 43 161 43
-0.1380 0.2300 0.1700 43 161 43
-0.1013 -0.2500 0.1900 43 161 43
-0.1000 -0.2500 0.1890 43 161 43
-0.1000 -0.2506 0.1900 43 161 43
-0.1000 -0.2500 0.1949 43 161 43
-0.1000 -0.2300 0.1646 43 161 43
-0.1000 -0.2367 0.1700 43 161 43
-0.1000 -0.2474 0.2100 43 161 43
-0.1000 -0.2300 0.2224 43 161 43
-0.1000 -0.2100 0.1561 43 161 43
-0.1000 -0.2189 0.2300 43 161 43
-0.1000 -0.2100 0.2356 43 161 43
-0.1000 -0.1900 0.1439 43 161 43
-0.1000 -0.2000 0.1500 43 161 43
-0.1000 -0.1900 0.2400 43 161 43
-0.1000 -0.1700 0.1361 43 161 43
-0.1000 -0.1700 0.2355 43 161 43
-0.1000 -0.1500 0.1239 43 161 43
-0.1000 -0.1600 0.1300 43 161 43
-0.1000 -0.1536 0.2100 43 161 43
-0.1000 -0.1500 0.2065 43 161 43
-0.1000 -0.1650 0.2300 43 161 43
-0.1000 -0.1300 0.1161 43 161 43
-0.1000 -0.1300 0.2004 43 161 43
-0.1000 -0.1100 0.1042 43 161 43
-0.1000 -0.1198 0.1100 43 161 43
-0.1000 -0.1100 0.2000 43 161 43
-0.1000 -0.0900 0.0999 43 161 43
-0.1000 -0.0900 0.2000 43 161 43
-0.1000 -0.0700 0.0956 43 161 43
-0.1000 -0.0700 0.2000 43 161 43
-0.1000 -0.0500 0.0841 43 161 43
-0.1000 -0.0603 0.0900 43 161 43
-0.1000 -0.0500 0.2000 43 161 43
-0.1000 -0.0300 0.0803 43 161 43
-0.1000 -0.0300 0.2004 43 161 43
-0.1000 -0.0100 0.0800 43 161 43
-0.1000 -0.0100 0.2065 43 161 43
-0.1000 0.0100 0.0800 43 161 43
-0.1000 -0.0063 0.2100 43 161 43
-0.1000 0.0060 0.2300 43 161 43
-0.1000 0.0100 0.2339 43 161 43
-0.1000 0.0300 0.0800 43 161 43
-0.1000 0.0300 0.2460 43 161 43
-0.1000 0.0500 0.0800 43 161 43
-0.1000 0.0340 0.2500 43 161 43
-0.1000 0.0465 0.2700 43 161 43
-0.1000 0.0500 0.2733 43 161 43
-0.1000 0.0700 0.0801 43 161 43
-0.1000 0.0700 0.2781 43 161 43
-0.1000 0.0900 0.0812 43 161 43
-0.1000 0.0900 0.2748 43 161 43
-0.1000 0.1100 0.0868 43 161 43
-0.1085 0.1100 0.2700 43 161 43
-0.1000 0.1015 0.2700 43 161 43
-0.1000 0.1100 0.2592 43 161 43
-0.1000 0.1161 0.0900 43 161 43
-0.1000 0.1300 0.0966 43 161 43
-0.1138 0.1300 0.2100 43 161 43
-0.1000 0.1205 0.2100 43 161 43
-0.1000 0.1300 0.2002 43 161 43
-0.1000 0.1144 0.2300 43 161 43
-0.1000 0.1133 0.2500 43 161 43
-0.1000 0.1500 0.0997 43 161 43
-0.1047 0.1500 0.1900 43 161 43
-0.1000 0.1449 0.1900 43 161 43
-0.1000 0.1500 0.1853 43 161 43
-0.1000 0.1700 0.1005 43 161 43
-0.1123 0.1700 0.1700 43 161 43
-0.1000 0.1623 0.1700 43 161 43
-0.1000 0.1700 0.1646 43 161 43
-0.1000 0.1900 0.1067 43 161 43
-0.1000 0.1900 0.1542 43 161 43
-0.1000 0.1934 0.1100 43 161 43
-0.1000 0.1994 0.1300 43 161 43
-0.1000 0.1940 0.1500 43 161 43
-0.0800 -0.2500 0.1835 43 161 43
-0.0800 -0.2545 0.1900 43 161 43
-0.0800 -0.2522 0.2100 43 161 43
-0.0906 -0.2500 0.2100 43 161 43
-0.0800 -0.2500 0.2123 43 161 43
-0.0800 -0.2300 0.1642 43 161 43
-0.0800 -0.2378 0.1700 43 161 43
-0.0800 -0.2300 0.2224 43 161 43
-0.0800 -0.2100 0.1561 43 161 43
-0.0800 -0.2155 0.2300 43 161 43
-0.0800 -0.2100 0.2331 43 161 43
-0.0800 -0.1900 0.1439 43 161 43
-0.0800 -0.2000 0.1500 43 161 43
-0.0800 -0.1900 0.2384 43 161 43
-0.0800 -0.1700 0.1361 43 161 43
-0.0800 -0.1700 0.2336 43 161 43
-0.0800 -0.1500 0.1239 43 161 43
-0.0800 -0.1600 0.1300 43 161 43
-0.0800 -0.1537 0.2100 43 161 43
-0.0800 -0.1500 0.2065 43 161 43
-0.0800 -0.1663 0.2300 43 161 43
-0.0800 -0.1300 0.1161 43 161 43
-0.0800 -0.1300 0.2004 43 161 43
-0.0800 -0.1100 0.1042 43 161 43
-0.0800 -0.1198 0.1100 43 161 43
-0.0800 -0.1100 0.2000 43 161 43
-0.0800 -0.0900 0.1000 43 161 43
-0.0800 -0.0900 0.2000 43 161 43
-0.0800 -0.0700 0.0958 43 161 43
-0.0800 -0.0700 0.2000 43 161 43
-0.0800 -0.0500 0.0842 43 161 43
-0.0800 -0.0600 0.0900 43 161 43
-0.0800 -0.0500 0.2000 43 161 43
-0.0800 -0.0300 0.0803 43 161 43
-0.0800 -0.0300 0.2004 43 161 43
-0.0800 -0.0100 0.0800 43 161 43
-0.0800 -0.0100 0.2065 43 161 43
-0.0800 0.0100 0.0800 43 161 43
-0.0800 -0.0063 0.2100 43 161 43
-0.0800 0.0061 0.2300 43 161 43
-0.0800 0.0100 0.2339 43 161 43
-0.0800 0.0300 0.0800 43 161 43
-0.0800 0.0300 0.2457 43 161 43
-0.0800 0.0500 0.0800 43 161 43
-0.0800 0.0346 0.2500 43 161 43
-0.0800 0.0475 0.2700 43 161 43
-0.0800 0.0500 0.2723 43 161 43
-0.0800 0.0700 0.0802 43 161 43
-0.0800 0.0700 0.2741 43 161 43
-0.0800 0.0900 0.0832 43 161 43
-0.0834 0.0900 0.2300 43 161 43
-0.0800 0.0866 0.2300 43 161 43
-0.0800 0.0900 0.2201 43 161 43
-0.0846 0.0900 0.2500 43 161 43
-0.0800 0.0852 0.2500 43 161 43
-0.0930 0.0900 0.2700 43 161 43
-0.0800 0.0762 0.2700 43 161 43
-0.0800 0.1042 0.0900 43 161 43
-0.0898 0.1100 0.0900 43 161 43
-0.0800 0.1100 0.0931 43 161 43
-0.0895 0.1100 0.2100 43 161 43
-0.0800 0.0960 0.2100 43 161 43
-0.0800 0.1100 0.2002 43 161 43
-0.0956 0.1100 0.2300 43 161 43
-0.0967 0.1100 0.2500 43 161 43
-0.0800 0.1300 0.0988 43 161 43
-0.0900 0.1300 0.1900 43 161 43
-0.0800 0.1200 0.1900 43 161 43
-0.0800 0.1300 0.1759 43 161 43
-0.0800 0.1500 0.1000 43 161 43
-0.0876 0.1500 0.1700 43 161 43
-0.0800 0.1376 0.1700 43 161 43
-0.0800 0.1500 0.1649 43 161 43
-0.0800 0.1700 0.1008 43 161 43
-0.0800 0.1700 0.1605 43 161 43
-0.0800 0.1900 0.1073 43 161 43
-0.0800 0.1900 0.1528 43 161 43
-0.0800 0.1927 0.1100 43 161 43
-0.0800 0.1986 0.1300 43 161 43
-0.0800 0.1928 0.1500 43 161 43
-0.0600 -0.2500 0.1844 43 161 43
-0.0600 -0.2537 0.1900 43 161 43
-0.0642 -0.2500 0.2100 43 161 43
-0.0600 -0.2500 0.2074 43 161 43
-0.0600 -0.2300 0.1642 43 161 43
-0.0600 -0.2378 0.1700 43 161 43
-0.0600 -0.2490 0.2100 43 161 43
-0.0600 -0.2300 0.2197 43 161 43
-0.0600 -0.2100 0.1561 43 161 43
-0.0702 -0.2100 0.2300 43 161 43
-0.0600 -0.2100 0.2268 43 161 43
-0.0600 -0.1900 0.1439 43 161 43
-0.0600 -0.2000 0.1500 43 161 43
-0.0600 -0.2036 0.2300 43 161 43
-0.0600 -0.1900 0.2363 43 161 43
-0.0600 -0.1700 0.1361 43 161 43
-0.0600 -0.1700 0.2331 43 161 43
-0.0600 -0.1500 0.1239 43 161 43
-0.0600 -0.1600 0.1300 43 161 43
-0.0600 -0.1537 0.2100 43 161 43
-0.0600 -0.1500 0.2065 43 161 43
-0.0600 -0.1667 0.2300 43 161 43
-0.0600 -0.1300 0.1161 43 161 43
-0.0600 -0.1300 0.2004 43 161 43
-0.0600 -0.1100 0.1042 43 161 43
-0.0600 -0.1198 0.1100 43 161 43
-0.0600 -0.1100 0.2000 43 161 43
-0.0600 -0.0900 0.1000 43 161 43
-0.0600 -0.0900 0.2000 43 161 43
-0.0600 -0.0700 0.0959 43 161 43
-0.0600 -0.0700 0.2000 43 161 43
-0.0600 -0.0500 0.0844 43 161 43
-0.0600 -0.0597 0.0900 43 161 43
-0.0600 -0.0500 0.2000 43 161 43
-0.0600 -0.0300 0.0804 43 161 43
-0.0600 -0.0300 0.2004 43 161 43
-0.0600 -0.0100 0.0800 43 161 43
-0.0600 -0.0100 0.2065 43 161 43
-0.0600 0.0100 0.0800 43 161 43
-0.0600 -0.0063 0.2100 43 161 43
-0.0600 0.0063 0.2300 43 161 43
-0.0600 0.0100 0.2336 43 161 43
-0.0600 0.0300 0.0800 43 161 43
-0.0600 0.0300 0.2427 43 161 43
-0.0600 0.0500 0.0800 43 161 43
-0.0600 0.0417 0.2500 43 161 43
-0.0734 0.0500 0.2700 43 161 43
-0.0600 0.0500 0.2606 43 161 43
-0.0600 0.0700 0.0803 43 161 43
-0.0704 0.0700 0.2700 43 161 43
-0.0600 0.0700 0.2567 43 161 43
-0.0600 0.0900 0.0841 43 161 43
-0.0740 0.0900 0.2100 43 161 43
-0.0600 0.0805 0.2100 43 161 43
-0.0600 0.0900 0.2002 43 161 43
-0.0600 0.0742 0.2300 43 161 43
-0.0600 0.0725 0.2500 43 161 43
-0.0600 0.1003 0.0900 43 161 43
-0.0600 0.1100 0.0956 43 161 43
-0.0652 0.1100 0.1900 43 161 43
-0.0600 0.1048 0.1900 43 161 43
-0.0600 0.1100 0.1852 43 161 43
-0.0600 0.1300 0.0997 43 161 43
-0.0724 0.1300 0.1700 43 161 43
-0.0600 0.1224 0.1700 43 161 43
-0.0600 0.1300 0.1649 43 161 43
-0.0600 0.1500 0.1014 43 161 43
-0.0600 0.1500 0.1593 43 161 43
-0.0600 0.1700 0.1052 43 161 43
-0.0600 0.1700 0.1549 43 161 43
-0.0600 0.1812 0.1100 43 161 43
-0.0721 0.1900 0.1100 43 161 43
-0.0600 0.1900 0.1229 43 161 43
-0.0720 0.1900 0.1500 43 161 43
-0.0600 0.1813 0.1500 43 161 43
-0.0600 0.1900 0.1371 43 161 43
-0.0600 0.1923 0.1300 43 161 43
-0.0400 -0.2500 0.1885 43 161 43
-0.0400 -0.2508 0.1900 43 161 43
-0.0400 -0.2500 0.1921 43 161 43
-0.0400 -0.2300 0.1645 43 161 43
-0.0400 -0.2373 0.1700 43 161 43
-0.0400 -0.2404 0.2100 43 161 43
-0.0400 -0.2300 0.2169 43 161 43
-0.0400 -0.2100 0.1563 43 161 43
-0.0400 -0.2100 0.2241 43 161 43
-0.0400 -0.1900 0.1441 43 161 43
-0.0400 -0.1996 0.1500 43 161 43
-0.0400 -0.1991 0.2300 43 161 43
-0.0400 -0.1900 0.2350 43 161 43
-0.0400 -0.1700 0.1362 43 161 43
-0.0400 -0.1700 0.2329 43 161 43
-0.0400 -0.1500 0.1239 43 161 43
-0.0400 -0.1599 0.1300 43 161 43
-0.0400 -0.1538 0.2100 43 161 43
-0.0400 -0.1500 0.2064 43 161 43
-0.0400 -0.1669 0.2300 43 161 43
-0.0400 -0.1300 0.1162 43 161 43
-0.0400 -0.1300 0.2004 43 161 43
-0.0400 -0.1100 0.1044 43 161 43
-0.0400 -0.1195 0.1100 43 161 43
-0.0400 -0.1100 0.2000 43 161 43
-0.0400 -0.0900 0.1002 43 161 43
-0.0400 -0.0900 0.2000 43 161 43
-0.0400 -0.0700 0.0968 43 161 43
-0.0400 -0.0700 0.2000 43 161 43
-0.0400 -0.0500 0.0866 43 161 43
-0.0400 -0.0562 0.0900 43 161 43
-0.0400 -0.0500 0.2000 43 161 43
-0.0400 -0.0300 0.0811 43 161 43
-0.0400 -0.0300 0.2004 43 161 43
-0.0400 -0.0100 0.0801 43 161 43
-0.0400 -0.0100 0.2064 43 161 43
-0.0400 0.0100 0.0800 43 161 43
-0.0400 -0.0062 0.2100 43 161 43
-0.0400 0.0068 0.2300 43 161 43
-0.0400 0.0100 0.2331 43 161 43
-0.0400 0.0300 0.0800 43 161 43
-0.0400 0.0300 0.2361 43 161 43
-0.0400 0.0500 0.0800 43 161 43
-0.0466 0.0500 0.2300 43 161 43
-0.0400 0.0397 0.2300 43 161 43
-0.0400 0.0500 0.2171 43 161 43
-0.0546 0.0500 0.2500 43 161 43
-0.0400 0.0700 0.0804 43 161 43
-0.0493 0.0700 0.2100 43 161 43
-0.0400 0.0562 0.2100 43 161 43
-0.0400 0.0700 0.2007 43 161 43
-0.0559 0.0700 0.2300 43 161 43
-0.0576 0.0700 0.2500 43 161 43
-0.0400 0.0900 0.0845 43 161 43
-0.0498 0.0900 0.1900 43 161 43
-0.0400 0.0805 0.1900 43 161 43
-0.0400 0.0900 0.1760 43 161 43
-0.0400 0.0996 0.0900 43 161 43
-0.0400 0.1100 0.0960 43 161 43
-0.0477 0.1100 0.1700 43 161 43
-0.0400 0.0974 0.1700 43 161 43
-0.0400 0.1100 0.1646 43 161 43
-0.0400 0.1300 0.1002 43 161 43
-0.0400 0.1300 0.1605 43 161 43
-0.0400 0.1500 0.1050 43 161 43
-0.0400 0.1500 0.1549 43 161 43
-0.0400 0.1571 0.1100 43 161 43
-0.0531 0.1700 0.1100 43 161 43
-0.0452 0.1700 0.1300 43 161 43
-0.0400 0.1648 0.1300 43 161 43
-0.0530 0.1700 0.1500 43 161 43
-0.0400 0.1570 0.1500 43 161 43
-0.0576 0.1900 0.1300 43 161 43
-0.0318 -0.2500 0.1900 43 161 43
-0.0200 -0.2300 0.1671 43 161 43
-0.0200 -0.2339 0.1700 43 161 43
-0.0200 -0.2486 0.1900 43 161 43
-0.0200 -0.2375 0.2100 43 161 43
-0.0200 -0.2300 0.2156 43 161 43
-0.0200 -0.2100 0.1581 43 161 43
-0.0200 -0.2100 0.2228 43 161 43
-0.0200 -0.1900 0.1466 43 161 43
-0.0200 -0.1955 0.1500 43 161 43
-0.0200 -0.1945 0.2300 43 161 43
-0.0200 -0.1900 0.2324 43 161 43
-0.0200 -0.1700 0.1371 43 161 43
-0.0200 -0.1700 0.2315 43 161 43
-0.0200 -0.1500 0.1243 43 161 43
-0.0200 -0.1591 0.1300 43 161 43
-0.0200 -0.1540 0.2100 43 161 43
-0.0200 -0.1500 0.2064 43 161 43
-0.0200 -0.1683 0.2300 43 161 43
-0.0200 -0.1300 0.1173 43 161 43
-0.0200 -0.1300 0.2005 43 161 43
-0.0200 -0.1100 0.1069 43 161 43
-0.0200 -0.1156 0.1100 43 161 43
-0.0200 -0.1100 0.2000 43 161 43
-0.0200 -0.0900 0.1011 43 161 43
-0.0200 -0.0900 0.2000 43 161 43
-0.0200 -0.0700 0.0980 43 161 43
-0.0200 -0.0700 0.2000 43 161 43
-0.0214 -0.0500 0.0900 43 161 43
-0.0200 -0.0500 0.0903 43 161 43
-0.0200 -0.0500 0.2000 43 161 43
-0.0200 -0.0300 0.0822 43 161 43
-0.0200 -0.0494 0.0900 43 161 43
-0.0200 -0.0300 0.2005 43 161 43
-0.0200 -0.0100 0.0802 43 161 43
-0.0200 -0.0100 0.2065 43 161 43
-0.0200 0.0100 0.0800 43 161 43
-0.0200 -0.0061 0.2100 43 161 43
-0.0200 0.0070 0.2300 43 161 43
-0.0200 0.0100 0.2328 43 161 43
-0.0200 0.0300 0.0800 43 161 43
-0.0200 0.0300 0.2330 43 161 43
-0.0200 0.0500 0.0802 43 161 43
-0.0297 0.0500 0.2100 43 161 43
-0.0200 0.0465 0.2100 43 161 43
-0.0200 0.0500 0.2066 43 161 43
-0.0200 0.0333 0.2300 43 161 43
-0.0200 0.0700 0.0814 43 161 43
-0.0200 0.0700 0.1944 43 161 43
-0.0200 0.0900 0.0872 43 161 43
-0.0324 0.0900 0.1700 43 161 43
-0.0200 0.0847 0.1700 43 161 43
-0.0200 0.0900 0.1627 43 161 43
-0.0200 0.0743 0.1900 43 161 43
-0.0200 0.0951 0.0900 43 161 43
-0.0200 0.1100 0.0982 43 161 43
-0.0200 0.1100 0.1544 43 161 43
-0.0200 0.1300 0.1029 43 161 43
-0.0200 0.1300 0.1530 43 161 43
-0.0200 0.1454 0.1100 43 161 43
-0.0262 0.1500 0.1100 43 161 43
-0.0200 0.1500 0.1188 43 161 43
-0.0286 0.1500 0.1500 43 161 43
-0.0200 0.1385 0.1500 43 161 43
-0.0200 0.1500 0.1386 43 161 43
-0.0200 0.1531 0.1300 43 161 43
-0.0114 -0.2300 0.1700 43 161 43
0.0000 -0.2300 0.1747 43 161 43
0.0000 -0.2461 0.1900 43 161 43
0.0000 -0.2364 0.2100 43 161 43
0.0000 -0.2300 0.2148 43 161 43
0.0000 -0.2100 0.1620 43 161 43
0.0000 -0.2240 0.1700 43 161 43
0.0000 -0.2100 0.2205 43 161 43
-0.0097 -0.1900 0.1500 43 161 43
0.0000 -0.1900 0.1532 43 161 43
-0.0128 -0.1900 0.2300 43 161 43
0.0000 -0.1900 0.2259 43 161 43
0.0000 -0.1700 0.1400 43 161 43
0.0000 -0.1852 0.1500 43 161 43
-0.0106 -0.1700 0.2300 43 161 43
0.0000 -0.1700 0.2278 43 161 43
0.0000 -0.1500 0.1270 43 161 43
0.0000 -0.1546 0.1300 43 161 43
0.0000 -0.1538 0.2100 43 161 43
0.0000 -0.1500 0.2068 43 161 43
0.0000 -0.1300 0.1200 43 161 43
0.0000 -0.1300 0.2009 43 161 43
-0.0101 -0.1100 0.1100 43 161 43
0.0000 -0.1100 0.1132 43 161 43
0.0000 -0.1100 0.2004 43 161 43
0.0000 -0.0900 0.1030 43 161 43
0.0000 -0.1042 0.1100 43 161 43
0.0000 -0.0900 0.2003 43 161 43
0.0000 -0.0700 0.0980 43 161 43
0.0000 -0.0700 0.2001 43 161 43
-0.0098 -0.0500 0.0900 43 161 43
0.0000 -0.0500 0.0897 43 161 43
0.0000 -0.0505 0.0900 43 161 43
0.0000 -0.0500 0.2001 43 161 43
0.0000 -0.0300 0.0821 43 161 43
0.0000 -0.0300 0.2008 43 161 43
0.0000 -0.0100 0.0802 43 161 43
0.0000 -0.0100 0.2068 43 161 43
0.0000 0.0100 0.0800 43 161 43
0.0000 -0.0064 0.2100 43 161 43
0.0000 0.0074 0.2300 43 161 43
0.0000 0.0100 0.2324 43 161 43
0.0000 0.0300 0.0802 43 161 43
0.0000 0.0300 0.2322 43 161 43
0.0000 0.0500 0.0813 43 161 43
0.0000 0.0455 0.2100 43 161 43
0.0000 0.0500 0.2059 43 161 43
0.0000 0.0323 0.2300 43 161 43
0.0000 0.0700 0.0859 43 161 43
0.0000 0.0700 0.1938 43 161 43
0.0000 0.0790 0.0900 43 161 43
-0.0130 0.0900 0.0900 43 161 43
0.0000 0.0900 0.0973 43 161 43
-0.0070 0.0900 0.1500 43 161 43
0.0000 0.0851 0.1500 43 161 43
0.0000 0.0900 0.1376 43 161 43
0.0000 0.0809 0.1700 43 161 43
0.0000 0.0736 0.1900 43 161 43
0.0000 0.1100 0.1052 43 161 43
-0.0044 0.1100 0.1300 43 161 43
0.0000 0.0986 0.1300 43 161 43
0.0000 0.1100 0.1197 43 161 43
-0.0155 0.1100 0.1500 43 161 43
0.0000 0.1236 0.1100 43 161 43
-0.0039 0.1300 0.1100 43 161 43
-0.0072 0.1300 0.1300 43 161 43
-0.0169 0.1300 0.1500 43 161 43
-0.0166 0.1500 0.1300 43 161 43
0.0200 -0.2300 0.1804 43 161 43
0.0200 -0.2400 0.1900 43 161 43
0.0192 -0.2300 0.2100 43 161 43
0.0200 -0.2300 0.2094 43 161 43
0.0200 -0.2100 0.1642 43 161 43
0.0200 -0.2188 0.1700 43 161 43
0.0200 -0.2294 0.2100 43 161 43
0.0200 -0.2100 0.2166 43 161 43
0.0200 -0.1900 0.1560 43 161 43
0.0200 -0.1900 0.2216 43 161 43
0.0200 -0.1700 0.1432 43 161 43
0.0200 -0.1805 0.1500 43 161 43
0.0200 -0.1700 0.2254 43 161 43
0.0093 -0.1500 0.1300 43 161 43
0.0200 -0.1500 0.1335 43 161 43
0.0108 -0.1500 0.2100 43 161 43
0.0200 -0.1500 0.2141 43 161 43
0.0200 -0.1300 0.1228 43 161 43
0.0200 -0.1440 0.1300 43 161 43
0.0200 -0.1405 0.2100 43 161 43
0.0200 -0.1300 0.2070 43 161 43
0.0200 -0.1100 0.1158 43 161 43
0.0200 -0.1100 0.2063 43 161 43
0.0200 -0.0900 0.1041 43 161 43
0.0200 -0.1002 0.1100 43 161 43
0.0200 -0.0900 0.2045 43 161 43
0.0200 -0.0700 0.0992 43 161 43
0.0200 -0.0700 0.2014 43 161 43
0.0014 -0.0500 0.0900 43 161 43
0.0200 -0.0500 0.0935 43 161 43
0.0200 -0.0500 0.2014 43 161 43
0.0200 -0.0300 0.0835 43 161 43
0.0200 -0.0434 0.0900 43 161 43
0.0200 -0.0300 0.2048 43 161 43
0.0200 -0.0100 0.0805 43 161 43
0.0200 -0.0131 0.2100 43 161 43
0.0151 -0.0100 0.2100 43 161 43
0.0200 -0.0100 0.2117 43 161 43
0.0200 0.0100 0.0803 43 161 43
0.0200 0.0100 0.2268 43 161 43
0.0109 0.0100 0.2300 43 161 43
0.0200 0.0300 0.0813 43 161 43
0.0067 0.0300 0.2300 43 161 43
0.0200 0.0300 0.2232 43 161 43
0.0200 0.0500 0.0857 43 161 43
0.0200 0.0412 0.2100 43 161 43
0.0200 0.0500 0.2040 43 161 43
0.0200 0.0597 0.0900 43 161 43
0.0094 0.0700 0.0900 43 161 43
0.0200 0.0700 0.0953 43 161 43
0.0200 0.0700 0.1936 43 161 43
0.0200 0.0900 0.1045 43 161 43
0.0092 0.0900 0.1300 43 161 43
0.0200 0.0862 0.1300 43 161 43
0.0200 0.0900 0.1209 43 161 43
0.0200 0.0808 0.1500 43 161 43
0.0200 0.0797 0.1700 43 161 43
0.0200 0.0735 0.1900 43 161 43
0.0200 0.1097 0.1100 43 161 43
0.0196 0.1100 0.1100 43 161 43
0.0332 -0.2300 0.1900 43 161 43
0.0400 -0.2100 0.1683 43 161 43
0.0400 -0.2122 0.1700 43 161 43
0.0400 -0.2243 0.1900 43 161 43
0.0322 -0.2100 0.2100 43 161 43
0.0400 -0.2100 0.2035 43 161 43
0.0400 -0.1900 0.1584 43 161 43
0.0400 -0.2006 0.2100 43 161 43
0.0400 -0.1900 0.2152 43 161 43
0.0400 -0.1700 0.1467 43 161 43
0.0400 -0.1753 0.1500 43 161 43
0.0400 -0.1700 0.2230 43 161 43
0.0400 -0.1500 0.1370 43 161 43
0.0400 -0.1502 0.2300 43 161 43
0.0398 -0.1500 0.2300 43 161 43
0.0400 -0.1500 0.2301 43 161 43
0.0400 -0.1300 0.1241 43 161 43
0.0400 -0.1393 0.1300 43 161 43
0.0234 -0.1300 0.2100 43 161 43
0.0372 -0.1300 0.2300 43 161 43
0.0400 -0.1300 0.2325 43 161 43
0.0400 -0.1100 0.1163 43 161 43
0.0242 -0.1100 0.2100 43 161 43
0.0377 -0.1100 0.2300 43 161 43
0.0400 -0.1100 0.2322 43 161 43
0.0400 -0.0900 0.1044 43 161 43
0.0400 -0.0994 0.1100 43 161 43
0.0286 -0.0900 0.2100 43 161 43
0.0400 -0.0900 0.2232 43 161 43
0.0400 -0.1033 0.2300 43 161 43
0.0400 -0.0700 0.1001 43 161 43
0.0400 -0.0776 0.2100 43 161 43
0.0400 -0.0700 0.2053 43 161 43
0.0400 -0.0500 0.0968 43 161 43
0.0400 -0.0500 0.2053 43 161 43
0.0400 -0.0300 0.0881 43 161 43
0.0400 -0.0338 0.0900 43 161 43
0.0400 -0.0421 0.2100 43 161 43
0.0285 -0.0300 0.2100 43 161 43
0.0400 -0.0300 0.2225 43 161 43
0.0400 -0.0100 0.0835 43 161 43
0.0400 -0.0100 0.2258 43 161 43
0.0400 0.0100 0.0824 43 161 43
0.0400 0.0100 0.2110 43 161 43
0.0400 0.0300 0.0858 43 161 43
0.0316 0.0300 0.2100 43 161 43
0.0400 0.0119 0.2100 43 161 43
0.0400 0.0300 0.2045 43 161 43
0.0400 0.0398 0.0900 43 161 43
0.0299 0.0500 0.0900 43 161 43
0.0400 0.0500 0.0944 43 161 43
0.0400 0.0500 0.2007 43 161 43
0.0400 0.0700 0.1003 43 161 43
0.0400 0.0700 0.1934 43 161 43
0.0400 0.0900 0.1067 43 161 43
0.0400 0.0853 0.1300 43 161 43
0.0400 0.0900 0.1175 43 161 43
0.0400 0.0804 0.1500 43 161 43
0.0400 0.0795 0.1700 43 161 43
0.0400 0.0733 0.1900 43 161 43
0.0400 0.1010 0.1100 43 161 43
0.0428 -0.2100 0.1700 43 161 43
0.0545 -0.2100 0.1900 43 161 43
0.0600 -0.1900 0.1662 43 161 43
0.0600 -0.1954 0.1700 43 161 43
0.0600 -0.2045 0.1900 43 161 43
0.0493 -0.1900 0.2100 43 161 43
0.0600 -0.1900 0.2023 43 161 43
0.0473 -0.1700 0.1500 43 161 43
0.0600 -0.1700 0.1559 43 161 43
0.0600 -0.1789 0.2100 43 161 43
0.0600 -0.1700 0.2155 43 161 43
0.0600 -0.1500 0.1429 43 161 43
0.0600 -0.1607 0.1500 43 161 43
0.0408 -0.1500 0.2300 43 161 43
0.0600 -0.1500 0.2271 43 161 43
0.0600 -0.1300 0.1277 43 161 43
0.0600 -0.1332 0.1300 43 161 43
0.0600 -0.1404 0.2300 43 161 43
0.0600 -0.1300 0.2323 43 161 43
0.0600 -0.1100 0.1183 43 161 43
0.0600 -0.1100 0.2324 43 161 43
0.0600 -0.0900 0.1071 43 161 43
0.0600 -0.0949 0.1100 43 161 43
0.0600 -0.0991 0.2300 43 161 43
0.0600 -0.0900 0.2269 43 161 43
0.0600 -0.0700 0.1013 43 161 43
0.0555 -0.0700 0.2100 43 161 43
0.0600 -0.0700 0.2124 43 161 43
0.0600 -0.0500 0.0992 43 161 43
0.0555 -0.0500 0.2100 43 161 43
0.0600 -0.0500 0.2124 43 161 43
0.0438 -0.0300 0.0900 43 161 43
0.0600 -0.0300 0.0968 43 161 43
0.0600 -0.0300 0.2258 43 161 43
0.0534 -0.0100 0.0900 43 161 43
0.0600 -0.0100 0.0935 43 161 43
0.0600 -0.0100 0.2219 43 161 43
0.0597 0.0100 0.0900 43 161 43
0.0600 0.0100 0.0902 43 161 43
0.0414 0.0100 0.2100 43 161 43
0.0600 -0.0008 0.2100 43 161 43
0.0600 0.0100 0.2005 43 161 43
0.0494 0.0300 0.0900 43 161 43
0.0600 0.0300 0.0947 43 161 43
0.0600 0.0300 0.1963 43 161 43
0.0600 0.0500 0.0990 43 161 43
0.0600 0.0500 0.1983 43 161 43
0.0600 0.0700 0.1027 43 161 43
0.0600 0.0700 0.1931 43 161 43
0.0600 0.0858 0.1100 43 161 43
0.0514 0.0900 0.1100 43 161 43
0.0600 0.0835 0.1300 43 161 43
0.0600 0.0803 0.1500 43 161 43
0.0600 0.0794 0.1700 43 161 43
0.0600 0.0731 0.1900 43 161 43
0.0652 -0.1900 0.1700 43 161 43
0.0729 -0.1900 0.1900 43 161 43
0.0800 -0.1700 0.1698 43 161 43
0.0800 -0.1702 0.1700 43 161 43
0.0800 -0.1774 0.1900 43 161 43
0.0662 -0.1700 0.2100 43 161 43
0.0800 -0.1700 0.1945 43 161 43
0.0696 -0.1500 0.1500 43 161 43
0.0800 -0.1500 0.1600 43 161 43
0.0727 -0.1500 0.2100 43 161 43
0.0800 -0.1500 0.2002 43 161 43
0.0641 -0.1300 0.1300 43 161 43
0.0800 -0.1300 0.1419 43 161 43
0.0800 -0.1392 0.1500 43 161 43
0.0750 -0.1300 0.2100 43 161 43
0.0800 -0.1300 0.2042 43 161 43
0.0625 -0.1300 0.2300 43 161 43
0.0800 -0.1100 0.1256 43 161 43
0.0800 -0.1166 0.1300 43 161 43
0.0761 -0.1100 0.2100 43 161 43
0.0800 -0.1100 0.2062 43 161 43
0.0626 -0.1100 0.2300 43 161 43
0.0667 -0.0900 0.1100 43 161 43
0.0800 -0.0900 0.1159 43 161 43
0.0800 -0.0939 0.2100 43 161 43
0.0800 -0.0900 0.2114 43 161 43
0.0800 -0.0700 0.1059 43 161 43
0.0800 -0.0785 0.1100 43 161 43
0.0800 -0.0700 0.2261 43 161 43
0.0800 -0.0500 0.1013 43 161 43
0.0800 -0.0500 0.2260 43 161 43
0.0800 -0.0300 0.1001 43 161 43
0.0800 -0.0300 0.2105 43 161 43
0.0800 -0.0100 0.0992 43 161 43
0.0690 -0.0100 0.2100 43 161 43
0.0800 -0.0293 0.2100 43 161 43
0.0800 -0.0100 0.1998 43 161 43
0.0800 0.0100 0.0982 43 161 43
0.0710 0.0100 0.1900 43 161 43
0.0800 0.0005 0.1900 43 161 43
0.0800 0.0100 0.1773 43 161 43
0.0800 0.0300 0.0994 43 161 43
0.0691 0.0300 0.1900 43 161 43
0.0800 0.0300 0.1767 43 161 43
0.0800 0.0500 0.1014 43 161 43
0.0800 0.0428 0.1900 43 161 43
0.0800 0.0500 0.1943 43 161 43
0.0800 0.0700 0.1086 43 161 43
0.0800 0.0700 0.1921 43 161 43
0.0800 0.0718 0.1100 43 161 43
0.0800 0.0795 0.1300 43 161 43
0.0800 0.0795 0.1500 43 161 43
0.0800 0.0788 0.1700 43 161 43
0.0800 0.0721 0.1900 43 161 43
0.0801 -0.1700 0.1700 43 161 43
0.0831 -0.1700 0.1900 43 161 43
0.0868 -0.1500 0.1700 43 161 43
0.0872 -0.1500 0.1900 43 161 43
0.0868 -0.1300 0.1500 43 161 43
0.0950 -0.1300 0.1700 43 161 43
0.0943 -0.1300 0.1900 43 161 43
0.0862 -0.1100 0.1300 43 161 43
0.1000 -0.1100 0.1463 43 161 43
0.1000 -0.1131 0.1500 43 161 43
0.1000 -0.1220 0.1700 43 161 43
0.1000 -0.1181 0.1900 43 161 43
0.1000 -0.1100 0.1935 43 161 43
0.1000 -0.0900 0.1289 43 161 43
0.1000 -0.0917 0.1300 43 161 43
0.0820 -0.0900 0.2100 43 161 43
0.1000 -0.0900 0.2008 43 161 43
0.0873 -0.0700 0.1100 43 161 43
0.1000 -0.0700 0.1191 43 161 43
0.1000 -0.0777 0.2100 43 161 43
0.1000 -0.0700 0.2197 43 161 43
0.1000 -0.0500 0.1079 43 161 43
0.1000 -0.0543 0.1100 43 161 43
0.1000 -0.0500 0.2190 43 161 43
0.1000 -0.0300 0.1047 43 161 43
0.0806 -0.0300 0.2100 43 161 43
0.1000 -0.0438 0.2100 43 161 43
0.1000 -0.0300 0.1975 43 161 43
0.1000 -0.0100 0.1044 43 161 43
0.0945 -0.0100 0.1900 43 161 43
0.1000 -0.0171 0.1900 43 161 43
0.1000 -0.0100 0.1847 43 161 43
0.1000 0.0100 0.1043 43 161 43
0.0890 0.0100 0.1700 43 161 43
0.1000 0.0025 0.1700 43 161 43
0.1000 0.0100 0.1649 43 161 43
0.1000 0.0300 0.1047 43 161 43
0.0882 0.0300 0.1700 43 161 43
0.1000 0.0300 0.1640 43 161 43
0.1000 0.0500 0.1082 43 161 43
0.1000 0.0403 0.1700 43 161 43
0.0901 0.0500 0.1900 43 161 43
0.1000 0.0500 0.1810 43 161 43
0.1000 0.0530 0.1100 43 161 43
0.0823 0.0700 0.1100 43 161 43
0.1000 0.0700 0.1278 43 161 43
0.0858 0.0700 0.1900 43 161 43
0.1000 0.0700 0.1761 43 161 43
0.1000 0.0713 0.1300 43 161 43
0.1000 0.0735 0.1500 43 161 43
0.1000 0.0722 0.1700 43 161 43
0.1022 -0.1100 0.1500 43 161 43
0.1068 -0.1100 0.1700 43 161 43
0.1036 -0.1100 0.1900 43 161 43
0.1010 -0.0900 0.1300 43 161 43
0.1088 -0.0900 0.1500 43 161 43
0.1112 -0.0900 0.1700 43 161 43
0.1098 -0.0900 0.1900 43 161 43
0.1090 -0.0700 0.1300 43 161 43
0.1127 -0.0700 0.1500 43 161 43
0.1116 -0.0700 0.1700 43 161 43
0.1104 -0.0700 0.1900 43 161 43
0.1048 -0.0700 0.2100 43 161 43
0.1027 -0.0500 0.1100 43 161 43
0.1200 -0.0500 0.1297 43 161 43
0.1200 -0.0503 0.1300 43 161 43
0.1200 -0.0523 0.1500 43 161 43
0.1200 -0.0500 0.1524 43 161 43
0.1130 -0.0500 0.1700 43 161 43
0.1089 -0.0500 0.1900 43 161 43
0.1041 -0.0500 0.2100 43 161 43
0.1073 -0.0300 0.1100 43 161 43
0.1200 -0.0300 0.1232 43 161 43
0.1135 -0.0300 0.1700 43 161 43
0.1200 -0.0300 0.1587 43 161 43
0.1053 -0.0300 0.1900 43 161 43
0.1078 -0.0100 0.1100 43 161 43
0.1200 -0.0100 0.1228 43 161 43
0.1095 -0.0100 0.1700 43 161 43
0.1200 -0.0100 0.1571 43 161 43
0.1078 0.0100 0.1100 43 161 43
0.1200 0.0100 0.1230 43 161 43
0.1200 0.0100 0.1538 43 161 43
0.1073 0.0300 0.1100 43 161 43
0.1200 0.0300 0.1248 43 161 43
0.1200 0.0300 0.1502 43 161 43
0.1023 0.0500 0.1100 43 161 43
0.1200 0.0407 0.1300 43 161 43
0.1166 0.0500 0.1300 43 161 43
0.1134 0.0500 0.1500 43 161 43
0.1200 0.0304 0.1500 43 161 43
0.1054 0.0500 0.1700 43 161 43
0.1015 0.0700 0.1300 43 161 43
0.1038 0.0700 0.1500 43 161 43
0.1022 0.0700 0.1700 43 161 43
0.1202 -0.0500 0.1300 43 161 43
0.1211 -0.0500 0.1500 43 161 43
0.1247 -0.0300 0.1300 43 161 43
0.1249 -0.0300 0.1500 43 161 43
0.1251 -0.0100 0.1300 43 161 43
0.1247 -0.0100 0.1500 43 161 43
0.1249 0.0100 0.1300 43 161 43
0.1233 0.0100 0.1500 43 161 43
0.1234 0.0300 0.1300 43 161 43
0.1201 0.0300 0.1500 43 161 43
3 0 1 2
3 0 3 4
3 2 3 0
3 3 5 4
3 6 1 0
3 7 1 6
3 4 8 0
3 8 6 0
3 9 4 5
3 8 4 9
3 6 10 7
3 10 11 12
3 10 6 11
3 6 8 11
3 13 8 9
3 11 8 13
3 14 12 11
3 15 12 14
3 16 11 13
3 14 11 16
3 17 18 19
3 19 20 17
3 14 21 15
3 16 21 14
3 22 18 17
3 23 18 22
3 24 17 20
3 22 17 24
3 25 26 27
3 27 28 25
3 22 29 23
3 24 29 22
3 30 26 25
3 31 26 30
3 32 25 28
3 30 25 32
3 33 34 35
3 31 33 35
3 31 30 33
3 30 36 33
3 37 30 32
3 37 38 30
3 38 36 30
3 37 39 38
3 33 40 34
3 40 41 42
3 40 33 41
3 33 36 41
3 38 43 36
3 43 41 36
3 44 38 39
3 43 38 44
3 41 45 42
3 43 45 41
3 46 45 43
3 44 46 43
3 47 48 49
3 47 50 51
3 49 50 47
3 50 52 51
3 53 54 55
3 48 53 55
3 47 53 48
3 47 1 53
3 47 2 1
3 3 2 47
3 51 3 47
3 51 5 3
3 51 52 5
3 52 56 5
3 57 54 53
3 58 54 57
3 1 7 57
3 53 1 57
3 5 56 9
3 56 59 9
3 60 61 62
3 58 60 62
3 58 57 60
3 57 63 60
3 7 10 64
3 7 64 57
3 57 64 63
3 10 12 64
3 9 59 13
3 59 65 13
3 66 61 60
3 67 61 66
3 63 68 60
3 68 66 60
3 64 69 63
3 69 68 63
3 12 15 69
3 64 12 69
3 13 65 16
3 65 70 16
3 19 67 66
3 19 18 67
3 18 71 67
3 20 19 66
3 20 66 72
3 72 66 68
3 73 69 74
3 73 72 69
3 72 68 69
3 75 76 74
3 21 75 74
3 21 74 69
3 21 69 15
3 21 77 75
3 21 16 77
3 16 70 77
3 18 23 71
3 71 23 78
3 72 79 24
3 20 72 24
3 80 72 73
3 79 72 80
3 27 76 75
3 27 26 76
3 26 81 76
3 75 28 27
3 75 77 28
3 77 82 28
3 83 23 29
3 83 84 23
3 84 78 23
3 29 24 79
3 29 79 83
3 83 79 85
3 86 79 80
3 86 87 79
3 87 85 79
3 87 86 81
3 87 81 31
3 31 81 26
3 88 89 32
3 88 32 82
3 82 32 28
3 88 90 89
3 83 91 84
3 85 91 83
3 92 91 85
3 35 34 93
3 35 93 85
3 35 85 87
3 85 93 92
3 31 35 87
3 32 89 37
3 39 94 95
3 37 94 39
3 37 90 94
3 37 89 90
3 94 96 95
3 97 34 40
3 97 98 34
3 98 93 34
3 40 42 97
3 95 99 44
3 39 95 44
3 100 95 96
3 99 95 100
3 97 101 98
3 42 101 97
3 42 45 101
3 45 102 101
3 46 103 45
3 45 103 102
3 99 46 44
3 99 104 46
3 104 103 46
3 100 104 99
3 105 106 107
3 107 108 105
3 49 109 110
3 48 109 49
3 106 105 50
3 106 50 110
3 110 50 49
3 52 111 112
3 50 111 52
3 50 108 111
3 50 105 108
3 112 113 114
3 111 113 112
3 113 115 114
3 55 116 117
3 54 116 55
3 109 48 55
3 117 109 55
3 112 118 56
3 52 112 56
3 114 119 112
3 119 118 112
3 120 114 115
3 119 114 120
3 54 58 116
3 116 58 121
3 118 122 123
3 118 123 56
3 56 123 59
3 119 122 118
3 124 122 119
3 120 124 119
3 62 125 126
3 61 125 62
3 121 58 62
3 126 121 62
3 59 123 65
3 123 127 65
3 61 67 125
3 125 67 128
3 65 127 70
3 127 129 70
3 67 71 128
3 128 71 130
3 74 131 73
3 74 76 131
3 70 129 77
3 129 132 77
3 71 78 130
3 130 78 133
3 131 134 80
3 73 131 80
3 76 81 134
3 131 76 134
3 135 136 82
3 135 82 132
3 132 82 77
3 135 137 136
3 78 84 133
3 133 84 138
3 80 134 86
3 81 86 134
3 82 136 88
3 90 139 140
3 88 139 90
3 88 137 139
3 88 136 137
3 139 141 140
3 142 84 91
3 142 143 84
3 143 138 84
3 91 92 144
3 142 91 144
3 92 93 144
3 90 140 94
3 140 96 94
3 140 141 96
3 141 145 96
3 146 143 142
3 147 143 146
3 148 144 149
3 148 146 144
3 146 142 144
3 149 144 93
3 149 93 150
3 150 93 98
3 96 145 100
3 145 151 100
3 152 147 146
3 153 147 152
3 154 146 148
3 152 146 154
3 98 155 150
3 101 155 98
3 102 156 101
3 101 156 155
3 157 158 156
3 157 156 103
3 103 156 102
3 103 104 159
3 157 103 159
3 104 160 159
3 104 100 160
3 100 151 160
3 161 162 163
3 153 161 163
3 153 152 161
3 152 164 161
3 165 152 154
3 165 166 152
3 166 164 152
3 165 167 166
3 157 168 158
3 159 168 157
3 169 168 159
3 160 169 159
3 170 162 161
3 171 162 170
3 164 172 161
3 172 170 161
3 166 173 164
3 173 172 164
3 174 166 167
3 174 175 166
3 175 173 166
3 174 176 175
3 177 171 170
3 178 171 177
3 172 179 170
3 179 177 170
3 173 180 172
3 180 179 172
3 175 181 173
3 181 180 173
3 182 175 176
3 182 183 175
3 183 181 175
3 182 184 183
3 185 178 177
3 186 178 185
3 179 187 177
3 187 185 177
3 180 188 179
3 188 187 179
3 181 189 180
3 189 188 180
3 183 190 181
3 190 189 181
3 191 183 184
3 190 183 191
3 192 186 185
3 193 186 192
3 187 194 185
3 194 192 185
3 188 195 187
3 195 194 187
3 189 196 188
3 196 195 188
3 190 197 189
3 197 196 189
3 198 190 191
3 197 190 198
3 192 199 193
3 199 200 201
3 199 192 200
3 192 194 200
3 195 202 194
3 202 200 194
3 196 203 195
3 203 202 195
3 197 204 196
3 204 203 196
3 205 197 198
3 204 197 205
3 200 206 201
3 206 207 208
3 206 200 207
3 200 202 207
3 203 209 202
3 209 207 202
3 210 204 211
3 210 209 204
3 209 203 204
3 205 211 204
3 207 212 208
3 209 212 207
3 213 212 209
3 210 213 209
3 214 215 216
3 214 107 106
3 214 216 107
3 216 217 107
3 108 218 219
3 108 107 218
3 107 217 218
3 219 220 221
3 218 220 219
3 220 222 221
3 110 215 214
3 110 109 215
3 109 223 215
3 106 110 214
3 108 219 111
3 113 111 219
3 221 113 219
3 221 115 113
3 221 222 115
3 222 224 115
3 117 225 226
3 116 225 117
3 223 109 117
3 226 223 117
3 115 224 120
3 224 227 120
3 116 121 225
3 225 121 228
3 122 229 230
3 123 122 230
3 124 231 122
3 122 231 229
3 227 124 120
3 231 124 227
3 126 232 233
3 125 232 126
3 228 121 126
3 233 228 126
3 123 230 127
3 230 234 127
3 125 128 232
3 232 128 235
3 127 234 129
3 234 236 129
3 128 130 235
3 235 130 237
3 129 236 132
3 236 238 132
3 130 133 237
3 237 133 239
3 132 238 240
3 135 132 240
3 240 137 135
3 241 137 240
3 133 138 239
3 239 138 242
3 137 241 243
3 139 137 243
3 243 141 139
3 244 141 243
3 245 246 247
3 245 247 242
3 245 242 143
3 143 242 138
3 141 244 145
3 244 248 145
3 249 246 245
3 250 246 249
3 143 147 249
3 245 143 249
3 149 251 148
3 149 150 251
3 145 248 151
3 248 252 151
3 253 250 249
3 254 250 253
3 147 153 253
3 249 147 253
3 251 255 154
3 148 251 154
3 150 155 256
3 150 256 251
3 251 256 255
3 155 156 257
3 256 155 257
3 156 158 257
3 151 252 160
3 252 258 160
3 163 254 253
3 163 162 254
3 162 259 254
3 153 163 253
3 154 255 165
3 167 165 255
3 167 255 260
3 260 255 256
3 257 261 256
3 261 260 256
3 158 168 262
3 158 262 257
3 257 262 261
3 168 169 263
3 262 168 263
3 169 264 263
3 169 160 264
3 160 258 264
3 162 171 259
3 259 171 265
3 167 260 174
3 176 174 260
3 176 260 266
3 266 260 261
3 262 267 261
3 267 266 261
3 268 263 269
3 268 267 263
3 267 262 263
3 264 269 263
3 171 178 265
3 265 178 270
3 176 266 182
3 271 266 267
3 271 184 266
3 271 272 184
3 182 266 184
3 268 271 267
3 178 186 270
3 270 186 273
3 184 272 191
3 272 274 191
3 186 193 273
3 273 193 275
3 191 274 198
3 274 276 198
3 277 193 199
3 277 278 193
3 278 275 193
3 199 201 277
3 198 276 205
3 276 279 205
3 280 278 277
3 281 278 280
3 201 206 282
3 201 282 277
3 277 282 280
3 206 208 282
3 211 283 210
3 211 284 283
3 211 205 284
3 205 279 284
3 280 285 281
3 282 285 280
3 286 285 282
3 208 286 282
3 208 212 286
3 212 287 286
3 213 288 212
3 212 288 287
3 283 213 210
3 283 289 213
3 289 288 213
3 284 289 283
3 216 290 291
3 215 290 216
3 217 216 292
3 216 291 292
3 218 217 293
3 217 292 293
3 220 218 294
3 218 293 294
3 294 222 220
3 295 222 294
3 296 297 298
3 296 298 290
3 296 290 223
3 223 290 215
3 222 295 224
3 295 299 224
3 226 297 296
3 226 225 297
3 225 300 297
3 223 226 296
3 224 299 227
3 299 301 227
3 302 303 304
3 302 304 300
3 302 300 228
3 228 300 225
3 229 305 306
3 230 229 306
3 231 307 229
3 229 307 305
3 301 231 227
3 307 231 301
3 233 303 302
3 233 232 303
3 232 308 303
3 228 233 302
3 230 306 234
3 306 309 234
3 232 235 308
3 308 235 310
3 234 309 236
3 309 311 236
3 235 237 310
3 310 237 312
3 236 311 238
3 311 313 238
3 314 315 316
3 314 316 312
3 314 312 239
3 239 312 237
3 317 240 238
3 317 238 318
3 318 238 313
3 240 317 241
3 319 315 314
3 320 315 319
3 239 242 319
3 314 239 319
3 317 318 321
3 322 321 323
3 243 321 322
3 243 317 321
3 243 241 317
3 243 322 244
3 247 320 319
3 247 246 320
3 246 324 320
3 242 247 319
3 322 323 325
3 325 244 322
3 325 326 244
3 326 248 244
3 246 250 324
3 324 250 327
3 248 326 252
3 326 328 252
3 250 254 327
3 327 254 329
3 252 328 258
3 328 330 258
3 254 259 329
3 329 259 331
3 258 330 264
3 330 332 264
3 259 265 331
3 331 265 333
3 269 334 268
3 269 335 334
3 269 264 335
3 264 332 335
3 265 270 333
3 333 270 336
3 271 337 272
3 271 268 334
3 271 334 337
3 337 334 338
3 339 334 335
3 338 334 339
3 270 273 336
3 336 273 340
3 337 341 274
3 272 337 274
3 338 342 337
3 342 341 337
3 343 338 339
3 342 338 343
3 273 275 340
3 340 275 344
3 341 345 276
3 274 341 276
3 342 346 341
3 346 345 341
3 347 342 343
3 346 342 347
3 275 278 344
3 344 278 348
3 345 349 279
3 276 345 279
3 346 350 345
3 350 349 345
3 351 346 347
3 350 346 351
3 278 281 348
3 348 281 352
3 349 353 284
3 279 349 284
3 354 350 355
3 354 353 350
3 353 349 350
3 351 355 350
3 356 281 285
3 356 357 281
3 357 352 281
3 285 286 358
3 356 285 358
3 286 287 359
3 358 286 359
3 360 359 287
3 360 287 361
3 361 287 288
3 289 362 288
3 288 362 361
3 353 289 284
3 353 363 289
3 363 362 289
3 354 363 353
3 356 364 357
3 364 365 366
3 364 356 365
3 356 358 365
3 367 359 368
3 367 365 359
3 365 358 359
3 360 368 359
3 365 369 366
3 367 369 365
3 370 371 372
3 370 373 374
3 372 373 370
3 373 375 374
3 291 376 377
3 290 376 291
3 371 370 292
3 371 292 377
3 377 292 291
3 293 292 370
3 374 293 370
3 374 375 378
3 374 378 293
3 293 378 294
3 378 295 294
3 379 295 378
3 298 380 381
3 297 380 298
3 376 290 298
3 381 376 298
3 295 379 299
3 379 382 299
3 297 300 380
3 380 300 383
3 299 382 301
3 382 384 301
3 304 385 386
3 303 385 304
3 383 300 304
3 386 383 304
3 305 387 388
3 306 305 388
3 307 389 305
3 305 389 387
3 384 307 301
3 389 307 384
3 303 308 385
3 385 308 390
3 306 388 309
3 388 391 309
3 308 310 390
3 390 310 392
3 309 391 311
3 391 393 311
3 394 395 396
3 394 396 392
3 394 392 312
3 312 392 310
3 311 393 313
3 393 397 313
3 316 395 394
3 316 315 395
3 315 398 395
3 312 316 394
3 313 397 318
3 397 399 318
3 315 320 398
3 398 320 400
3 401 321 318
3 401 318 402
3 402 318 399
3 321 401 323
3 320 324 400
3 400 324 403
3 401 402 404
3 405 404 406
3 325 404 405
3 325 401 404
3 325 323 401
3 325 405 326
3 324 327 403
3 403 327 407
3 405 406 408
3 408 326 405
3 408 409 326
3 409 328 326
3 327 329 407
3 407 329 410
3 328 409 330
3 409 411 330
3 329 331 410
3 410 331 412
3 330 411 332
3 411 413 332
3 414 415 416
3 414 416 412
3 414 412 333
3 333 412 331
3 332 413 335
3 413 417 335
3 418 415 414
3 419 415 418
3 333 336 418
3 414 333 418
3 335 417 339
3 417 420 339
3 421 419 418
3 422 419 421
3 336 340 421
3 418 336 421
3 339 420 343
3 420 423 343
3 424 422 421
3 425 422 424
3 340 344 424
3 421 340 424
3 343 423 347
3 423 426 347
3 427 425 424
3 428 425 427
3 344 348 427
3 424 344 427
3 347 426 351
3 426 429 351
3 427 430 428
3 430 427 348
3 430 348 431
3 431 348 352
3 355 432 354
3 355 433 432
3 355 351 433
3 351 429 433
3 352 357 431
3 431 357 434
3 361 435 360
3 436 435 361
3 436 361 437
3 437 361 362
3 363 438 362
3 362 438 437
3 432 363 354
3 432 439 363
3 439 438 363
3 433 439 432
3 440 357 364
3 440 441 357
3 441 434 357
3 364 366 440
3 368 442 367
3 368 443 442
3 360 443 368
3 360 444 443
3 360 435 444
3 436 444 435
3 440 445 441
3 366 445 440
3 366 369 445
3 369 446 445
3 442 369 367
3 442 447 369
3 447 446 369
3 443 447 442
3 372 448 449
3 371 448 372
3 373 372 450
3 372 449 450
3 450 375 373
3 451 375 450
3 377 452 453
3 376 452 377
3 448 371 377
3 453 448 377
3 375 451 454
3 378 375 454
3 454 379 378
3 455 379 454
3 381 456 457
3 380 456 381
3 452 376 381
3 457 452 381
3 379 455 382
3 455 458 382
3 380 383 456
3 456 383 459
3 382 458 384
3 458 460 384
3 386 461 462
3 385 461 386
3 459 383 386
3 462 459 386
3 387 463 464
3 388 387 464
3 389 465 387
3 387 465 463
3 460 389 384
3 465 389 460
3 385 390 461
3 461 390 466
3 388 464 391
3 464 467 391
3 468 469 470
3 468 470 466
3 468 466 392
3 392 466 390
3 391 467 393
3 467 471 393
3 396 469 468
3 396 395 469
3 395 472 469
3 392 396 468
3 393 471 397
3 471 473 397
3 395 398 472
3 472 398 474
3 397 473 399
3 473 475 399
3 398 400 474
3 474 400 476
3 399 475 402
3 475 477 402
3 400 403 476
3 476 403 478
3 479 404 402
3 479 402 480
3 480 402 477
3 404 479 406
3 403 407 478
3 478 407 481
3 479 480 482
3 483 482 484
3 408 482 483
3 408 479 482
3 408 406 479
3 408 483 409
3 407 410 481
3 481 410 485
3 483 484 486
3 486 409 483
3 486 487 409
3 487 411 409
3 488 489 490
3 488 490 485
3 488 485 412
3 412 485 410
3 411 487 413
3 487 491 413
3 416 489 488
3 416 415 489
3 415 492 489
3 412 416 488
3 493 494 417
3 493 417 491
3 491 417 413
3 493 495 494
3 415 419 492
3 492 419 496
3 494 497 420
3 417 494 420
3 498 494 495
3 498 499 494
3 499 497 494
3 498 500 499
3 419 422 496
3 496 422 501
3 497 502 423
3 420 497 423
3 499 503 497
3 503 502 497
3 504 499 500
3 503 499 504
3 422 425 501
3 501 425 505
3 502 506 426
3 423 502 426
3 503 507 502
3 507 506 502
3 508 503 504
3 507 503 508
3 425 428 505
3 505 428 509
3 506 510 429
3 426 506 429
3 507 511 506
3 511 510 506
3 512 507 508
3 511 507 512
3 428 513 509
3 430 513 428
3 513 430 431
3 514 513 431
3 510 515 433
3 429 510 433
3 516 511 517
3 516 515 511
3 515 510 511
3 512 517 511
3 431 434 514
3 514 434 518
3 437 519 436
3 437 438 520
3 519 437 520
3 438 439 521
3 520 438 521
3 439 522 521
3 433 522 439
3 433 523 522
3 433 515 523
3 516 523 515
3 434 441 518
3 518 441 524
3 444 525 443
3 444 436 519
3 444 519 525
3 525 519 526
3 520 527 519
3 527 526 519
3 528 521 529
3 528 527 521
3 527 520 521
3 522 529 521
3 441 530 524
3 445 530 441
3 531 532 530
3 531 530 446
3 446 530 445
3 446 447 533
3 531 446 533
3 447 443 525
3 447 525 533
3 533 525 534
3 526 535 525
3 535 534 525
3 536 527 537
3 536 535 527
3 535 526 527
3 528 537 527
3 531 538 532
3 538 539 540
3 538 531 539
3 531 533 539
3 534 541 533
3 541 539 533
3 542 535 543
3 542 541 535
3 541 534 535
3 536 543 535
3 539 544 540
3 541 544 539
3 545 544 541
3 542 545 541
3 546 547 548
3 546 449 448
3 546 548 449
3 548 549 449
3 450 449 550
3 449 549 550
3 550 451 450
3 551 451 550
3 453 547 546
3 453 452 547
3 452 552 547
3 448 453 546
3 451 551 553
3 454 451 553
3 553 455 454
3 554 455 553
3 457 555 556
3 456 555 457
3 552 452 457
3 556 552 457
3 455 554 458
3 554 557 458
3 456 459 555
3 555 459 558
3 458 557 460
3 557 559 460
3 462 560 561
3 461 560 462
3 558 459 462
3 561 558 462
3 463 562 563
3 464 463 563
3 465 564 463
3 463 564 562
3 559 465 460
3 564 465 559
3 461 466 560
3 560 466 565
3 464 563 467
3 563 566 467
3 470 567 568
3 469 567 470
3 565 466 470
3 568 565 470
3 467 566 471
3 566 569 471
3 469 472 567
3 567 472 570
3 471 569 473
3 569 571 473
3 472 474 570
3 570 474 572
3 473 571 475
3 571 573 475
3 574 575 576
3 574 576 572
3 574 572 476
3 476 572 474
3 475 573 477
3 573 577 477
3 578 575 574
3 579 575 578
3 476 478 578
3 574 476 578
3 477 577 480
3 577 580 480
3 581 579 578
3 582 579 581
3 478 481 581
3 578 478 581
3 583 482 480
3 583 480 584
3 584 480 580
3 482 583 484
3 585 582 581
3 586 582 585
3 481 485 585
3 581 481 585
3 583 584 587
3 484 583 587
3 484 587 486
3 486 587 588
3 588 487 486
3 589 487 588
3 490 586 585
3 490 489 586
3 489 590 586
3 485 490 585
3 487 589 491
3 589 591 491
3 489 492 590
3 590 492 592
3 491 591 593
3 493 491 593
3 495 594 595
3 495 493 594
3 493 593 594
3 594 596 595
3 492 496 592
3 592 496 597
3 495 595 498
3 595 500 498
3 595 596 500
3 596 598 500
3 496 501 597
3 597 501 599
3 500 598 504
3 598 600 504
3 501 505 599
3 599 505 601
3 504 600 508
3 600 602 508
3 505 509 601
3 601 509 603
3 508 602 512
3 602 604 512
3 509 605 603
3 513 605 509
3 605 513 514
3 606 605 514
3 517 607 608
3 516 517 608
3 604 517 512
3 607 517 604
3 514 518 606
3 606 518 609
3 523 610 611
3 522 523 611
3 608 523 516
3 610 523 608
3 518 524 609
3 609 524 612
3 529 613 614
3 528 529 614
3 611 529 522
3 613 529 611
3 524 615 612
3 530 615 524
3 615 530 532
3 616 615 532
3 537 617 618
3 536 537 618
3 614 537 528
3 617 537 614
3 532 619 616
3 538 619 532
3 619 538 540
3 620 619 540
3 543 621 622
3 542 543 622
3 618 543 536
3 621 543 618
3 540 623 620
3 544 623 540
3 545 624 544
3 544 624 623
3 622 545 542
3 624 545 622
3 548 625 626
3 547 625 548
3 549 548 627
3 548 626 627
3 550 549 628
3 549 627 628
3 628 551 550
3 629 551 628
3 547 552 625
3 625 552 630
3 551 629 631
3 553 551 631
3 631 554 553
3 632 554 631
3 556 633 634
3 555 633 556
3 630 552 556
3 634 630 556
3 554 632 557
3 632 635 557
3 555 558 633
3 633 558 636
3 557 635 559
3 635 637 559
3 561 638 639
3 560 638 561
3 636 558 561
3 639 636 561
3 562 640 641
3 563 562 641
3 564 642 562
3 562 642 640
3 637 564 559
3 642 564 637
3 560 565 638
3 638 565 643
3 563 641 566
3 641 644 566
3 568 645 646
3 567 645 568
3 643 565 568
3 646 643 568
3 566 644 569
3 644 647 569
3 567 570 645
3 645 570 648
3 569 647 571
3 647 649 571
3 570 572 648
3 648 572 650
3 571 649 573
3 649 651 573
3 576 652 653
3 575 652 576
3 650 572 576
3 653 650 576
3 573 651 577
3 651 654 577
3 575 579 652
3 652 579 655
3 577 654 580
3 654 656 580
3 579 582 655
3 655 582 657
3 580 656 584
3 656 658 584
3 582 586 657
3 657 586 659
3 584 658 660
3 587 584 660
3 588 587 661
3 587 660 661
3 661 589 588
3 662 589 661
3 586 590 659
3 659 590 663
3 589 662 591
3 662 664 591
3 590 592 663
3 663 592 665
3 591 664 666
3 593 591 666
3 594 593 667
3 593 666 667
3 667 596 594
3 668 596 667
3 592 597 665
3 665 597 669
3 596 668 598
3 668 670 598
3 597 599 669
3 669 599 671
3 598 670 600
3 670 672 600
3 599 601 671
3 671 601 673
3 600 672 602
3 672 674 602
3 675 603 676
3 675 673 603
3 673 601 603
3 675 676 677
3 678 679 680
3 678 681 682
3 679 678 682
3 681 683 684
3 682 681 684
3 683 674 684
3 683 604 674
3 604 602 674
3 603 605 676
3 676 605 606
3 676 606 677
3 677 606 685
3 686 687 688
3 680 687 686
3 680 686 678
3 678 686 689
3 681 678 690
3 690 678 689
3 607 690 608
3 607 683 690
3 683 681 690
3 604 683 607
3 606 609 685
3 685 609 691
3 692 693 694
3 688 693 692
3 688 692 686
3 686 692 695
3 689 686 696
3 696 686 695
3 610 696 611
3 610 690 696
3 690 689 696
3 608 690 610
3 609 612 691
3 691 612 697
3 698 699 700
3 694 699 698
3 694 698 692
3 692 698 701
3 695 692 702
3 702 692 701
3 613 702 614
3 613 696 702
3 696 695 702
3 611 696 613
3 612 703 697
3 615 703 612
3 616 704 705
3 616 705 615
3 615 705 703
3 704 706 707
3 705 704 707
3 700 707 706
3 700 706 698
3 698 706 708
3 701 698 709
3 709 698 708
3 617 709 618
3 617 702 709
3 702 701 709
3 614 702 617
3 616 619 704
3 620 704 619
3 620 710 704
3 710 706 704
3 708 706 711
3 711 706 710
3 621 711 622
3 621 709 711
3 709 708 711
3 618 709 621
3 620 623 710
3 624 710 623
3 711 710 624
3 622 711 624
3 712 713 714
3 714 715 712
3 626 716 717
3 625 716 626
3 713 712 627
3 713 627 717
3 717 627 626
3 712 715 718
3 712 718 627
3 627 718 628
3 718 629 628
3 719 629 718
3 625 630 716
3 716 630 720
3 629 719 721
3 631 629 721
3 721 632 631
3 722 632 721
3 634 723 724
3 633 723 634
3 720 630 634
3 724 720 634
3 632 722 635
3 722 725 635
3 633 636 723
3 723 636 726
3 635 725 637
3 725 727 637
3 639 728 729
3 638 728 639
3 726 636 639
3 729 726 639
3 640 730 731
3 641 640 731
3 642 732 640
3 640 732 730
3 727 642 637
3 732 642 727
3 638 643 728
3 728 643 733
3 641 731 644
3 731 734 644
3 646 735 736
3 645 735 646
3 733 643 646
3 736 733 646
3 644 734 647
3 734 737 647
3 645 648 735
3 735 648 738
3 647 737 649
3 737 739 649
3 648 650 738
3 738 650 740
3 649 739 651
3 739 741 651
3 653 742 743
3 652 742 653
3 740 650 653
3 743 740 653
3 651 741 654
3 741 744 654
3 652 655 742
3 742 655 745
3 654 744 656
3 744 746 656
3 655 657 745
3 745 657 747
3 656 746 658
3 746 748 658
3 657 659 747
3 747 659 749
3 658 748 750
3 660 658 750
3 661 660 751
3 660 750 751
3 751 662 661
3 752 662 751
3 659 663 749
3 749 663 753
3 662 752 664
3 752 754 664
3 663 665 753
3 753 665 755
3 664 754 756
3 666 664 756
3 667 666 757
3 666 756 757
3 757 668 667
3 758 668 757
3 665 669 755
3 755 669 759
3 668 758 670
3 758 760 670
3 669 671 759
3 759 671 761
3 670 760 672
3 760 762 672
3 671 673 761
3 761 673 763
3 764 765 766
3 764 762 765
3 764 674 762
3 674 672 762
3 673 767 763
3 675 767 673
3 767 675 677
3 768 767 677
3 769 770 771
3 769 680 679
3 769 679 770
3 770 679 772
3 682 773 679
3 679 773 772
3 766 684 764
3 766 773 684
3 773 682 684
3 674 764 684
3 677 685 768
3 768 685 774
3 775 776 777
3 771 776 775
3 769 771 775
3 769 775 688
3 769 688 687
3 680 769 687
3 685 691 774
3 774 691 778
3 779 780 781
3 777 780 779
3 775 777 779
3 775 779 694
3 775 694 693
3 688 775 693
3 691 697 778
3 778 697 782
3 699 779 781
3 699 781 700
3 700 781 783
3 694 779 699
3 697 784 782
3 703 784 697
3 705 785 703
3 703 785 784
3 707 786 705
3 705 786 785
3 783 707 700
3 786 707 783
3 714 787 788
3 713 787 714
3 715 789 790
3 715 714 789
3 714 788 789
3 789 791 790
3 717 792 793
3 716 792 717
3 787 713 717
3 793 787 717
3 715 790 718
3 790 719 718
3 790 791 719
3 791 794 719
3 716 720 792
3 792 720 795
3 719 794 796
3 721 719 796
3 796 722 721
3 797 722 796
3 724 798 799
3 723 798 724
3 795 720 724
3 799 795 724
3 722 797 725
3 797 800 725
3 723 726 798
3 798 726 801
3 725 800 727
3 800 802 727
3 729 803 804
3 728 803 729
3 801 726 729
3 804 801 729
3 730 805 806
3 731 730 806
3 732 807 730
3 730 807 805
3 802 732 727
3 807 732 802
3 728 733 803
3 803 733 808
3 731 806 734
3 806 809 734
3 736 810 811
3 735 810 736
3 808 733 736
3 811 808 736
3 734 809 737
3 809 812 737
3 735 738 810
3 810 738 813
3 737 812 739
3 812 814 739
3 738 740 813
3 813 740 815
3 739 814 741
3 814 816 741
3 743 817 818
3 742 817 743
3 815 740 743
3 818 815 743
3 741 816 744
3 816 819 744
3 742 745 817
3 817 745 820
3 744 819 746
3 819 821 746
3 745 747 820
3 820 747 822
3 746 821 748
3 821 823 748
3 747 749 822
3 822 749 824
3 748 823 825
3 750 748 825
3 751 750 826
3 750 825 826
3 826 752 751
3 827 752 826
3 749 753 824
3 824 753 828
3 752 827 754
3 827 829 754
3 753 755 828
3 828 755 830
3 754 829 831
3 756 754 831
3 757 756 832
3 756 831 832
3 832 758 757
3 833 758 832
3 755 759 830
3 830 759 834
3 758 833 760
3 833 835 760
3 759 761 834
3 834 761 836
3 837 838 839
3 837 840 841
3 838 837 841
3 840 842 843
3 841 840 843
3 842 835 843
3 842 762 835
3 762 760 835
3 844 763 845
3 844 836 763
3 836 761 763
3 844 845 846
3 847 848 849
3 839 848 847
3 839 847 837
3 837 847 850
3 840 837 851
3 851 837 850
3 765 851 766
3 765 842 851
3 842 840 851
3 762 842 765
3 763 767 845
3 845 767 768
3 845 768 846
3 846 768 852
3 853 854 855
3 849 854 853
3 847 849 853
3 847 853 771
3 847 771 770
3 772 847 770
3 850 847 772
3 773 850 772
3 851 850 773
3 766 851 773
3 768 774 852
3 852 774 856
3 857 858 859
3 855 858 857
3 853 855 857
3 853 857 777
3 853 777 776
3 771 853 776
3 774 778 856
3 856 778 860
3 780 857 859
3 780 859 781
3 781 859 861
3 777 857 780
3 778 782 860
3 860 782 862
3 781 861 783
3 861 863 783
3 782 864 862
3 784 864 782
3 785 865 784
3 784 865 864
3 786 866 785
3 785 866 865
3 863 786 783
3 866 786 863
3 788 867 868
3 787 867 788
3 869 868 870
3 869 789 868
3 789 788 868
3 789 869 791
3 793 871 872
3 792 871 793
3 867 787 793
3 872 867 793
3 869 870 873
3 873 791 869
3 873 874 791
3 874 794 791
3 792 795 871
3 871 795 875
3 876 796 794
3 876 794 877
3 877 794 874
3 796 876 797
3 799 878 879
3 798 878 799
3 875 795 799
3 879 875 799
3 876 877 880
3 880 797 876
3 880 881 797
3 881 800 797
3 798 801 878
3 878 801 882
3 800 881 802
3 881 883 802
3 804 884 885
3 803 884 804
3 882 801 804
3 885 882 804
3 805 886 887
3 806 805 887
3 807 888 805
3 805 888 886
3 883 807 802
3 888 807 883
3 803 808 884
3 884 808 889
3 806 887 809
3 887 890 809
3 811 891 892
3 810 891 811
3 889 808 811
3 892 889 811
3 809 890 812
3 890 893 812
3 810 813 891
3 891 813 894
3 812 893 814
3 893 895 814
3 813 815 894
3 894 815 896
3 814 895 816
3 895 897 816
3 818 898 899
3 817 898 818
3 896 815 818
3 899 896 818
3 816 897 819
3 897 900 819
3 817 820 898
3 898 820 901
3 819 900 821
3 900 902 821
3 820 822 901
3 901 822 903
3 821 902 823
3 902 904 823
3 822 824 903
3 903 824 905
3 823 904 906
3 825 823 906
3 826 825 907
3 825 906 907
3 907 827 826
3 908 827 907
3 824 828 905
3 905 828 909
3 827 908 829
3 908 910 829
3 828 830 909
3 909 830 911
3 829 910 912
3 831 829 912
3 913 912 914
3 913 832 912
3 832 831 912
3 832 913 833
3 830 834 911
3 911 834 915
3 916 913 914
3 917 916 914
3 833 916 835
3 913 916 833
3 834 836 915
3 915 836 918
3 919 920 921
3 919 839 838
3 919 838 920
3 920 838 922
3 841 923 838
3 838 923 922
3 917 843 916
3 917 923 843
3 923 841 843
3 835 916 843
3 836 924 918
3 844 924 836
3 924 844 846
3 925 924 846
3 926 927 928
3 921 927 926
3 919 921 926
3 919 926 849
3 919 849 848
3 839 919 848
3 846 852 925
3 925 852 929
3 930 931 932
3 928 931 930
3 926 928 930
3 926 930 855
3 926 855 854
3 849 926 854
3 852 856 929
3 929 856 933
3 858 930 932
3 858 932 859
3 859 932 934
3 855 930 858
3 856 860 933
3 933 860 935
3 859 934 861
3 934 936 861
3 937 862 938
3 937 935 862
3 935 860 862
3 937 938 939
3 940 941 942
3 940 936 941
3 940 863 936
3 863 861 936
3 862 864 938
3 938 943 939
3 938 864 943
3 864 865 943
3 942 866 940
3 942 943 866
3 943 865 866
3 863 940 866
3 868 944 945
3 867 944 868
3 945 870 868
3 946 870 945
3 872 947 948
3 871 947 872
3 944 867 872
3 948 944 872
3 870 946 949
3 873 870 949
3 949 874 873
3 950 874 949
3 871 875 947
3 947 875 951
3 874 950 877
3 950 952 877
3 879 953 954
3 878 953 879
3 951 875 879
3 954 951 879
3 877 952 955
3 880 877 955
3 955 881 880
3 956 881 955
3 878 882 953
3 953 882 957
3 881 956 883
3 956 958 883
3 885 959 960
3 884 959 885
3 957 882 885
3 960 957 885
3 886 961 962
3 887 886 962
3 888 963 886
3 886 963 961
3 958 888 883
3 963 888 958
3 884 889 959
3 959 889 964
3 887 962 890
3 962 965 890
3 892 966 967
3 891 966 892
3 964 889 892
3 967 964 892
3 890 965 893
3 965 968 893
3 891 894 966
3 966 894 969
3 893 968 895
3 968 970 895
3 894 896 969
3 969 896 971
3 895 970 897
3 970 972 897
3 899 973 974
3 898 973 899
3 971 896 899
3 974 971 899
3 897 972 900
3 972 975 900
3 898 901 973
3 973 901 976
3 900 975 902
3 975 977 902
3 901 903 976
3 976 903 978
3 902 977 904
3 977 979 904
3 903 905 978
3 978 905 980
3 904 979 981
3 906 904 981
3 907 906 982
3 906 981 982
3 982 908 907
3 983 908 982
3 905 909 980
3 980 909 984
3 908 983 910
3 983 985 910
3 909 911 984
3 984 911 986
3 987 988 989
3 912 987 990
3 912 985 987
3 912 910 985
3 988 987 985
3 912 990 914
3 911 915 986
3 986 915 991
3 992 993 994
3 989 993 992
3 989 992 987
3 987 992 995
3 990 987 996
3 996 987 995
3 914 996 917
3 990 996 914
3 915 918 991
3 991 918 997
3 998 999 1000
3 994 999 998
3 992 994 998
3 992 998 921
3 992 921 920
3 922 992 920
3 995 992 922
3 923 995 922
3 996 995 923
3 917 996 923
3 918 1001 997
3 924 1001 918
3 1001 924 925
3 1002 1001 925
3 1003 1004 1005
3 1000 1004 1003
3 998 1000 1003
3 998 1003 928
3 998 928 927
3 921 998 927
3 925 929 1002
3 1002 929 1006
3 931 1003 1005
3 931 1005 932
3 932 1005 1007
3 928 1003 931
3 929 933 1006
3 1006 933 1008
3 932 1007 934
3 1007 1009 934
3 1010 935 1011
3 1010 1008 935
3 1008 933 935
3 1011 1012 1013
3 1010 1011 1013
3 1012 1014 1015
3 1013 1012 1015
3 1014 1009 1015
3 1014 936 1009
3 936 934 1009
3 935 937 1011
3 939 1011 937
3 939 1016 1011
3 1016 1012 1011
3 941 1016 942
3 941 1014 1016
3 1014 1012 1016
3 936 1014 941
3 939 943 1016
3 942 1016 943
3 945 944 1017
3 945 1017 946
3 948 1018 1019
3 947 1018 948
3 1017 944 948
3 1017 948 1020
3 1020 948 1019
3 946 1017 1020
3 946 1020 949
3 949 1020 1021
3 1021 950 949
3 1022 950 1021
3 947 951 1018
3 1018 951 1023
3 950 1022 952
3 1022 1024 952
3 954 1025 1026
3 953 1025 954
3 1023 951 954
3 1026 1023 954
3 952 1024 1027
3 955 952 1027
3 1027 956 955
3 1028 956 1027
3 953 957 1025
3 1025 957 1029
3 956 1028 958
3 1028 1030 958
3 960 1031 1032
3 959 1031 960
3 1029 957 960
3 1032 1029 960
3 961 1033 1034
3 962 961 1034
3 963 1035 961
3 961 1035 1033
3 1030 963 958
3 1035 963 1030
3 959 964 1031
3 1031 964 1036
3 962 1034 965
3 1034 1037 965
3 967 1038 1039
3 966 1038 967
3 1036 964 967
3 1039 1036 967
3 965 1037 968
3 1037 1040 968
3 966 969 1038
3 1038 969 1041
3 968 1040 970
3 1040 1042 970
3 969 971 1041
3 1041 971 1043
3 970 1042 972
3 1042 1044 972
3 974 973 1045
3 974 1045 1046
3 974 1046 971
3 971 1046 1043
3 972 1044 975
3 1044 1047 975
3 1045 1048 1049
3 1045 973 1048
3 973 976 1048
3 1046 1045 1049
3 975 1047 977
3 1047 1050 977
3 976 978 1048
3 1048 978 1051
3 977 1050 979
3 1050 1052 979
3 978 980 1051
3 1051 980 1053
3 979 1052 1054
3 981 979 1054
3 982 981 1055
3 981 1054 1055
3 1055 983 982
3 1056 983 1055
3 980 984 1053
3 1053 984 1057
3 983 1056 985
3 1056 1058 985
3 984 986 1057
3 1057 986 1059
3 1060 1061 1062
3 1060 989 988
3 1060 988 1061
3 1061 988 1063
3 1058 988 985
3 1063 988 1058
3 986 991 1059
3 1059 991 1064
3 993 1060 1062
3 993 1062 994
3 994 1062 1065
3 989 1060 993
3 991 997 1064
3 1064 997 1066
3 1067 1068 1069
3 1067 1000 999
3 1067 999 1068
3 1068 999 1070
3 1065 999 994
3 1070 999 1065
3 997 1071 1066
3 1001 1071 997
3 1071 1001 1002
3 1072 1071 1002
3 1004 1067 1069
3 1004 1069 1005
3 1005 1069 1073
3 1000 1067 1004
3 1002 1006 1072
3 1072 1006 1074
3 1005 1073 1007
3 1073 1075 1007
3 1076 1008 1077
3 1076 1074 1008
3 1074 1006 1008
3 1076 1077 1078
3 1079 1080 1081
3 1079 1075 1080
3 1079 1009 1075
3 1009 1007 1075
3 1008 1010 1077
3 1077 1082 1078
3 1077 1010 1082
3 1010 1013 1082
3 1081 1015 1079
3 1081 1082 1015
3 1082 1013 1015
3 1009 1079 1015
3 1019 1018 1083
3 1084 1019 1083
3 1084 1085 1019
3 1085 1020 1019
3 1021 1020 1086
3 1020 1085 1086
3 1086 1022 1021
3 1087 1022 1086
3 1083 1088 1089
3 1083 1018 1088
3 1018 1023 1088
3 1084 1083 1089
3 1022 1087 1024
3 1087 1090 1024
3 1026 1025 1091
3 1026 1091 1092
3 1026 1092 1023
3 1023 1092 1088
3 1093 1027 1024
3 1093 1024 1094
3 1094 1024 1090
3 1027 1093 1028
3 1091 1095 1096
3 1091 1025 1095
3 1025 1029 1095
3 1092 1091 1096
3 1097 1093 1094
3 1098 1097 1094
3 1028 1097 1030
3 1093 1097 1028
3 1032 1099 1100
3 1031 1099 1032
3 1095 1029 1032
3 1100 1095 1032
3 1033 1101 1102
3 1034 1033 1102
3 1098 1035 1097
3 1098 1101 1035
3 1101 1033 1035
3 1030 1097 1035
3 1031 1036 1099
3 1099 1036 1103
3 1034 1102 1037
3 1102 1104 1037
3 1039 1038 1105
3 1039 1105 1106
3 1039 1106 1036
3 1036 1106 1103
3 1037 1104 1040
3 1104 1107 1040
3 1105 1108 1109
3 1105 1038 1108
3 1038 1041 1108
3 1106 1105 1109
3 1040 1107 1042
3 1107 1110 1042
3 1041 1043 1108
3 1108 1043 1111
3 1042 1110 1044
3 1110 1112 1044
3 1113 1114 1115
3 1113 1115 1111
3 1113 1111 1046
3 1046 1111 1043
3 1044 1112 1047
3 1112 1116 1047
3 1049 1114 1113
3 1049 1048 1114
3 1048 1117 1114
3 1046 1049 1113
3 1047 1116 1050
3 1116 1118 1050
3 1048 1051 1117
3 1117 1051 1119
3 1050 1118 1052
3 1118 1120 1052
3 1051 1053 1119
3 1119 1053 1121
3 1052 1120 1122
3 1054 1052 1122
3 1055 1054 1123
3 1054 1122 1123
3 1123 1056 1055
3 1124 1056 1123
3 1053 1057 1121
3 1121 1057 1125
3 1056 1124 1058
3 1124 1126 1058
3 1057 1059 1125
3 1125 1059 1127
3 1061 1128 1129
3 1062 1061 1129
3 1063 1130 1061
3 1061 1130 1128
3 1126 1063 1058
3 1130 1063 1126
3 1059 1064 1127
3 1127 1064 1131
3 1062 1129 1065
3 1129 1132 1065
3 1133 1066 1134
3 1133 1131 1066
3 1131 1064 1066
3 1133 1134 1135
3 1136 1137 1138
3 1136 1069 1068
3 1136 1068 1137
3 1137 1068 1139
3 1070 1140 1068
3 1068 1140 1139
3 1132 1070 1065
3 1140 1070 1132
3 1066 1071 1134
3 1134 1071 1072
3 1134 1072 1135
3 1135 1072 1141
3 1142 1143 1144
3 1138 1143 1142
3 1138 1142 1136
3 1136 1142 1145
3 1069 1145 1073
3 1136 1145 1069
3 1146 1074 1147
3 1146 1141 1074
3 1141 1072 1074
3 1144 1146 1147
3 1144 1147 1142
3 1142 1147 1148
3 1145 1142 1149
3 1149 1142 1148
3 1073 1149 1075
3 1145 1149 1073
3 1074 1076 1147
3 1078 1147 1076
3 1078 1150 1147
3 1150 1148 1147
3 1080 1150 1081
3 1080 1149 1150
3 1149 1148 1150
3 1075 1149 1080
3 1078 1082 1150
3 1081 1150 1082
3 1085 1151 1152
3 1084 1151 1085
3 1153 1152 1154
3 1153 1086 1152
3 1086 1085 1152
3 1086 1153 1087
3 1089 1155 1156
3 1088 1155 1089
3 1151 1084 1089
3 1156 1151 1089
3 1153 1154 1157
3 1157 1087 1153
3 1157 1158 1087
3 1158 1090 1087
3 1088 1092 1155
3 1155 1092 1159
3 1090 1158 1094
3 1158 1160 1094
3 1096 1161 1162
3 1095 1161 1096
3 1159 1092 1096
3 1162 1159 1096
3 1094 1160 1098
3 1160 1163 1098
3 1100 1099 1164
3 1100 1164 1165
3 1100 1165 1095
3 1095 1165 1161
3 1101 1166 1102
3 1101 1167 1166
3 1101 1098 1167
3 1098 1163 1167
3 1164 1168 1169
3 1164 1099 1168
3 1099 1103 1168
3 1165 1164 1169
3 1166 1170 1171
3 1166 1171 1102
3 1102 1171 1104
3 1167 1170 1166
3 1103 1106 1168
3 1168 1106 1172
3 1104 1171 1107
3 1171 1173 1107
3 1109 1174 1175
3 1108 1174 1109
3 1172 1106 1109
3 1175 1172 1109
3 1107 1173 1110
3 1173 1176 1110
3 1108 1111 1174
3 1174 1111 1177
3 1110 1176 1112
3 1176 1178 1112
3 1115 1114 1179
3 1115 1179 1180
3 1115 1180 1111
3 1111 1180 1177
3 1112 1178 1116
3 1178 1181 1116
3 1179 1182 1183
3 1179 1114 1182
3 1114 1117 1182
3 1180 1179 1183
3 1116 1181 1118
3 1181 1184 1118
3 1117 1119 1182
3 1182 1119 1185
3 1186 1187 1120
3 1186 1120 1184
3 1184 1120 1118
3 1186 1188 1187
3 1119 1121 1185
3 1185 1121 1189
3 1120 1187 1122
3 1187 1123 1122
3 1187 1190 1123
3 1187 1188 1190
3 1190 1191 1123
3 1123 1191 1124
3 1121 1125 1189
3 1189 1125 1192
3 1193 1191 1190
3 1194 1193 1190
3 1124 1193 1126
3 1191 1193 1124
3 1125 1127 1192
3 1192 1127 1195
3 1128 1196 1197
3 1129 1128 1197
3 1194 1130 1193
3 1194 1196 1130
3 1196 1128 1130
3 1126 1193 1130
3 1198 1131 1199
3 1198 1195 1131
3 1195 1127 1131
3 1198 1199 1200
3 1129 1197 1132
3 1197 1201 1132
3 1131 1133 1199
3 1199 1133 1135
3 1199 1135 1200
3 1200 1135 1202
3 1203 1204 1205
3 1203 1138 1137
3 1203 1137 1204
3 1204 1137 1206
3 1139 1207 1137
3 1137 1207 1206
3 1140 1208 1139
3 1139 1208 1207
3 1201 1140 1132
3 1208 1140 1201
3 1209 1141 1210
3 1209 1202 1141
3 1202 1135 1141
3 1205 1209 1210
3 1203 1205 1210
3 1203 1210 1144
3 1203 1144 1143
3 1138 1203 1143
3 1141 1146 1210
3 1144 1210 1146
3 1152 1151 1211
3 1152 1211 1154
3 1156 1212 1213
3 1155 1212 1156
3 1211 1151 1156
3 1211 1156 1214
3 1214 1156 1213
3 1215 1214 1216
3 1157 1214 1215
3 1157 1211 1214
3 1157 1154 1211
3 1157 1215 1158
3 1155 1159 1212
3 1212 1159 1217
3 1215 1216 1218
3 1218 1158 1215
3 1218 1219 1158
3 1219 1160 1158
3 1162 1220 1221
3 1161 1220 1162
3 1217 1159 1162
3 1221 1217 1162
3 1160 1219 1163
3 1219 1222 1163
3 1161 1165 1220
3 1220 1165 1223
3 1224 1225 1167
3 1224 1167 1222
3 1222 1167 1163
3 1224 1226 1225
3 1169 1227 1228
3 1168 1227 1169
3 1223 1165 1169
3 1228 1223 1169
3 1170 1229 1171
3 1170 1167 1225
3 1170 1225 1229
3 1229 1225 1230
3 1231 1225 1226
3 1230 1225 1231
3 1168 1172 1227
3 1227 1172 1232
3 1229 1233 1173
3 1171 1229 1173
3 1230 1234 1229
3 1234 1233 1229
3 1235 1230 1231
3 1234 1230 1235
3 1175 1236 1237
3 1174 1236 1175
3 1232 1172 1175
3 1237 1232 1175
3 1233 1238 1176
3 1173 1233 1176
3 1239 1234 1240
3 1239 1238 1234
3 1238 1233 1234
3 1235 1240 1234
3 1174 1177 1236
3 1236 1177 1241
3 1238 1242 1243
3 1238 1243 1176
3 1176 1243 1178
3 1239 1242 1238
3 1177 1180 1241
3 1241 1180 1244
3 1178 1243 1181
3 1243 1245 1181
3 1183 1246 1247
3 1182 1246 1183
3 1244 1180 1183
3 1247 1244 1183
3 1248 1249 1184
3 1248 1184 1245
3 1245 1184 1181
3 1248 1250 1249
3 1182 1185 1246
3 1246 1185 1251
3 1184 1249 1186
3 1249 1188 1186
3 1249 1250 1188
3 1250 1252 1188
3 1185 1189 1251
3 1251 1189 1253
3 1188 1252 1190
3 1252 1254 1190
3 1189 1192 1253
3 1253 1192 1255
3 1256 1257 1258
3 1256 1254 1257
3 1256 1194 1254
3 1194 1190 1254
3 1259 1195 1260
3 1259 1255 1195
3 1255 1192 1195
3 1259 1260 1261
3 1196 1256 1258
3 1196 1258 1197
3 1197 1258 1262
3 1194 1256 1196
3 1195 1198 1260
3 1260 1198 1200
3 1260 1200 1261
3 1261 1200 1263
3 1197 1262 1201
3 1262 1264 1201
3 1200 1202 1263
3 1263 1202 1265
3 1204 1266 1267
3 1205 1204 1267
3 1206 1268 1204
3 1204 1268 1266
3 1207 1269 1206
3 1206 1269 1268
3 1208 1270 1207
3 1207 1270 1269
3 1264 1208 1201
3 1270 1208 1264
3 1202 1271 1265
3 1209 1271 1202
3 1267 1209 1205
3 1271 1209 1267
3 1213 1212 1272
3 1213 1273 1214
3 1272 1273 1213
3 1214 1273 1216
3 1272 1274 1275
3 1272 1212 1274
3 1212 1217 1274
3 1273 1272 1275
3 1276 1273 1275
3 1277 1276 1278
3 1218 1276 1277
3 1218 1273 1276
3 1218 1216 1273
3 1218 1277 1219
3 1221 1220 1279
3 1221 1279 1280
3 1221 1280 1217
3 1217 1280 1274
3 1277 1278 1281
3 1281 1219 1277
3 1281 1282 1219
3 1282 1222 1219
3 1279 1283 1284
3 1279 1220 1283
3 1220 1223 1283
3 1280 1279 1284
3 1285 1224 1222
3 1285 1222 1286
3 1286 1222 1282
3 1224 1285 1226
3 1228 1287 1288
3 1227 1287 1228
3 1283 1223 1228
3 1288 1283 1228
3 1285 1286 1289
3 1289 1226 1285
3 1289 1290 1226
3 1290 1231 1226
3 1227 1232 1287
3 1287 1232 1291
3 1231 1290 1235
3 1290 1292 1235
3 1237 1293 1294
3 1236 1293 1237
3 1291 1232 1237
3 1294 1291 1237
3 1240 1295 1296
3 1239 1240 1296
3 1292 1240 1235
3 1295 1240 1292
3 1236 1241 1293
3 1293 1241 1297
3 1242 1298 1243
3 1242 1299 1298
3 1242 1239 1299
3 1239 1296 1299
3 1241 1244 1297
3 1297 1244 1300
3 1298 1301 1245
3 1243 1298 1245
3 1302 1298 1299
3 1301 1298 1302
3 1247 1246 1303
3 1247 1303 1304
3 1247 1304 1244
3 1244 1304 1300
3 1245 1301 1248
3 1301 1250 1248
3 1301 1302 1250
3 1302 1305 1250
3 1303 1251 1306
3 1246 1251 1303
3 1307 1304 1303
3 1306 1307 1303
3 1250 1305 1252
3 1305 1308 1252
3 1306 1253 1309
3 1251 1253 1306
3 1310 1307 1306
3 1309 1310 1306
3 1311 1312 1313
3 1311 1308 1312
3 1311 1254 1308
3 1254 1252 1308
3 1309 1255 1314
3 1253 1255 1309
3 1315 1310 1309
3 1314 1315 1309
3 1257 1311 1313
3 1257 1313 1258
3 1258 1313 1316
3 1254 1311 1257
3 1255 1259 1314
3 1314 1259 1261
3 1314 1261 1315
3 1315 1261 1317
3 1258 1316 1262
3 1316 1318 1262
3 1261 1263 1317
3 1317 1263 1319
3 1262 1318 1264
3 1318 1320 1264
3 1321 1265 1322
3 1321 1319 1265
3 1319 1263 1265
3 1322 1267 1266
3 1322 1266 1321
3 1321 1266 1323
3 1268 1324 1266
3 1266 1324 1323
3 1269 1325 1268
3 1268 1325 1324
3 1270 1326 1269
3 1269 1326 1325
3 1320 1270 1264
3 1326 1270 1320
3 1265 1271 1322
3 1267 1322 1271
3 1275 1274 1327
3 1275 1328 1276
3 1327 1328 1275
3 1276 1328 1278
3 1327 1329 1330
3 1327 1274 1329
3 1274 1280 1329
3 1328 1327 1330
3 1331 1328 1330
3 1332 1331 1333
3 1281 1331 1332
3 1281 1328 1331
3 1281 1278 1328
3 1281 1332 1282
3 1284 1283 1334
3 1284 1334 1335
3 1284 1335 1280
3 1280 1335 1329
3 1336 1332 1333
3 1337 1336 1333
3 1282 1336 1286
3 1332 1336 1282
3 1288 1287 1338
3 1288 1338 1339
3 1283 1288 1339
3 1283 1339 1340
3 1283 1340 1334
3 1335 1334 1340
3 1341 1336 1337
3 1342 1341 1337
3 1286 1343 1289
3 1286 1336 1343
3 1336 1341 1343
3 1289 1343 1290
3 1338 1344 1345
3 1338 1287 1344
3 1287 1291 1344
3 1339 1338 1345
3 1346 1341 1342
3 1347 1346 1342
3 1343 1341 1348
3 1348 1341 1346
3 1290 1348 1292
3 1343 1348 1290
3 1294 1293 1349
3 1294 1349 1350
3 1294 1350 1291
3 1291 1350 1344
3 1346 1347 1351
3 1295 1352 1296
3 1295 1346 1352
3 1295 1348 1346
3 1346 1351 1352
3 1292 1348 1295
3 1349 1353 1354
3 1349 1293 1353
3 1293 1297 1353
3 1350 1349 1354
3 1296 1352 1299
3 1352 1355 1299
3 1297 1300 1353
3 1353 1300 1356
3 1299 1355 1302
3 1355 1357 1302
3 1300 1304 1356
3 1356 1304 1358
3 1302 1357 1305
3 1357 1359 1305
3 1304 1307 1358
3 1358 1307 1360
3 1361 1362 1363
3 1361 1359 1362
3 1361 1308 1359
3 1308 1305 1359
3 1307 1310 1360
3 1360 1310 1364
3 1365 1366 1367
3 1363 1366 1365
3 1361 1363 1365
3 1361 1365 1313
3 1361 1313 1312
3 1308 1361 1312
3 1310 1315 1364
3 1364 1315 1368
3 1369 1365 1367
3 1370 1369 1367
3 1313 1369 1316
3 1365 1369 1313
3 1315 1317 1368
3 1368 1317 1371
3 1369 1370 1372
3 1372 1316 1369
3 1372 1373 1316
3 1373 1318 1316
3 1317 1319 1371
3 1371 1319 1374
3 1318 1373 1320
3 1373 1375 1320
3 1319 1376 1374
3 1321 1376 1319
3 1323 1377 1321
3 1321 1377 1376
3 1324 1378 1323
3 1323 1378 1377
3 1325 1379 1324
3 1324 1379 1378
3 1326 1380 1325
3 1325 1380 1379
3 1375 1326 1320
3 1380 1326 1375
3 1330 1329 1381
3 1330 1382 1331
3 1381 1382 1330
3 1331 1382 1333
3 1381 1335 1383
3 1329 1335 1381
3 1382 1381 1384
3 1384 1381 1383
3 1333 1384 1337
3 1382 1384 1333
3 1340 1339 1385
3 1340 1383 1335
3 1340 1385 1383
3 1385 1386 1383
3 1384 1383 1387
3 1387 1383 1386
3 1337 1387 1342
3 1384 1387 1337
3 1345 1344 1388
3 1345 1388 1389
3 1339 1345 1389
3 1339 1389 1390
3 1339 1390 1385
3 1386 1385 1390
3 1391 1386 1390
3 1387 1386 1391
3 1392 1387 1391
3 1392 1342 1387
3 1392 1393 1342
3 1393 1347 1342
3 1388 1394 1395
3 1388 1344 1394
3 1344 1350 1394
3 1389 1388 1395
3 1396 1351 1347
3 1396 1347 1397
3 1397 1347 1393
3 1351 1396 1352
3 1354 1353 1398
3 1354 1398 1399
3 1354 1399 1350
3 1350 1399 1394
3 1396 1397 1400
3 1400 1352 1396
3 1400 1401 1352
3 1401 1355 1352
3 1398 1402 1403
3 1398 1353 1402
3 1353 1356 1402
3 1399 1398 1403
3 1355 1401 1357
3 1401 1404 1357
3 1356 1358 1402
3 1402 1358 1405
3 1406 1407 1408
3 1406 1404 1407
3 1406 1359 1404
3 1359 1357 1404
3 1358 1360 1405
3 1405 1360 1409
3 1410 1411 1412
3 1408 1411 1410
3 1406 1408 1410
3 1406 1410 1363
3 1406 1363 1362
3 1359 1406 1362
3 1360 1364 1409
3 1409 1364 1413
3 1414 1415 1416
3 1412 1415 1414
3 1410 1412 1414
3 1410 1414 1367
3 1410 1367 1366
3 1363 1410 1366
3 1364 1368 1413
3 1413 1368 1417
3 1418 1414 1416
3 1419 1418 1416
3 1367 1418 1370
3 1414 1418 1367
3 1368 1371 1417
3 1417 1371 1420
3 1418 1419 1421
3 1422 1421 1423
3 1372 1421 1422
3 1372 1418 1421
3 1372 1370 1418
3 1372 1422 1373
3 1424 1374 1425
3 1424 1420 1374
3 1420 1371 1374
3 1424 1425 1426
3 1427 1422 1423
3 1428 1427 1423
3 1373 1427 1375
3 1422 1427 1373
3 1374 1376 1425
3 1425 1429 1426
3 1425 1376 1429
3 1376 1377 1429
3 1378 1430 1377
3 1377 1430 1429
3 1379 1431 1378
3 1378 1431 1430
3 1428 1380 1427
3 1428 1431 1380
3 1431 1379 1380
3 1375 1427 1380
3 1390 1389 1432
3 1390 1433 1391
3 1432 1433 1390
3 1391 1434 1392
3 1433 1434 1391
3 1392 1434 1393
3 1395 1394 1435
3 1395 1432 1389
3 1395 1435 1432
3 1435 1436 1432
3 1433 1432 1437
3 1437 1432 1436
3 1434 1433 1438
3 1438 1433 1437
3 1393 1438 1397
3 1434 1438 1393
3 1435 1399 1439
3 1394 1399 1435
3 1436 1435 1440
3 1440 1435 1439
3 1437 1436 1441
3 1441 1436 1440
3 1438 1437 1442
3 1442 1437 1441
3 1397 1443 1400
3 1397 1438 1443
3 1438 1442 1443
3 1400 1443 1401
3 1403 1402 1444
3 1403 1444 1445
3 1399 1403 1445
3 1399 1445 1446
3 1399 1446 1439
3 1440 1439 1446
3 1447 1440 1446
3 1447 1448 1449
3 1447 1449 1440
3 1440 1449 1441
3 1442 1441 1450
3 1450 1441 1449
3 1443 1442 1451
3 1451 1442 1450
3 1401 1451 1404
3 1443 1451 1401
3 1444 1405 1452
3 1402 1405 1444
3 1453 1445 1444
3 1452 1453 1444
3 1454 1449 1448
3 1455 1454 1448
3 1450 1449 1456
3 1456 1449 1454
3 1407 1456 1408
3 1407 1451 1456
3 1451 1450 1456
3 1404 1451 1407
3 1452 1409 1457
3 1405 1409 1452
3 1458 1453 1452
3 1457 1458 1452
3 1459 1454 1455
3 1460 1459 1455
3 1411 1459 1412
3 1411 1456 1459
3 1456 1454 1459
3 1408 1456 1411
3 1457 1413 1461
3 1409 1413 1457
3 1462 1458 1457
3 1461 1462 1457
3 1415 1459 1460
3 1415 1460 1416
3 1416 1460 1463
3 1412 1459 1415
3 1461 1417 1464
3 1413 1417 1461
3 1465 1462 1461
3 1464 1465 1461
3 1416 1463 1419
3 1463 1466 1419
3 1464 1420 1467
3 1417 1420 1464
3 1468 1465 1464
3 1468 1464 1469
3 1469 1464 1467
3 1469 1470 1471
3 1468 1469 1471
3 1421 1470 1472
3 1421 1466 1470
3 1421 1419 1466
3 1471 1470 1466
3 1421 1472 1423
3 1420 1424 1467
3 1426 1467 1424
3 1426 1473 1467
3 1473 1469 1467
3 1470 1469 1474
3 1474 1469 1473
3 1472 1470 1475
3 1475 1470 1474
3 1423 1475 1428
3 1472 1475 1423
3 1426 1429 1473
3 1430 1473 1429
3 1474 1473 1430
3 1431 1474 1430
3 1475 1474 1431
3 1428 1475 1431
3 1446 1445 1476
3 1446 1477 1447
3 1476 1477 1446
3 1447 1477 1448
3 1476 1453 1478
3 1445 1453 1476
3 1477 1476 1479
3 1479 1476 1478
3 1448 1479 1455
3 1477 1479 1448
3 1478 1458 1480
3 1453 1458 1478
3 1479 1478 1481
3 1481 1478 1480
3 1455 1481 1460
3 1479 1481 1455
3 1480 1462 1482
3 1458 1462 1480
3 1481 1480 1483
3 1483 1480 1482
3 1460 1483 1463
3 1481 1483 1460
3 1482 1465 1484
3 1462 1465 1482
3 1483 1482 1485
3 1485 1482 1484
3 1463 1485 1466
3 1483 1485 1463
3 1465 1468 1484
3 1471 1484 1468
3 1485 1484 1471
3 1466 1485 1471
