ply
format ascii 1.0
element vertex 1314
property float x
property float y
property float z
property uchar red
property uchar green
property uchar blue
element face 2624
property list uchar int vertex_indices
end_header
0.3311 0.0500 0.3300 255 128 13
0.3400 0.0500 0.3254 255 128 13
0.3400 0.0428 0.3300 255 128 13
0.3400 0.0448 0.3500 255 128 13
0.3322 0.0500 0.3500 255 128 13
0.3400 0.0500 0.3535 255 128 13
0.3365 0.0700 0.3300 255 128 13
0.3400 0.0700 0.3287 255 128 13
0.3366 0.0700 0.3500 255 128 13
0.3400 0.0700 0.3512 255 128 13
0.3400 0.0713 0.3300 255 128 13
0.3400 0.0712 0.3500 255 128 13
0.3555 -0.0300 0.3300 255 128 13
0.3600 -0.0300 0.3205 255 128 13
0.3600 -0.0369 0.3300 255 128 13
0.3600 -0.0300 0.3483 255 128 13
0.3543 -0.0100 0.3100 255 128 13
0.3600 -0.0100 0.3001 255 128 13
0.3600 -0.0211 0.3100 255 128 13
0.3515 -0.0100 0.3300 255 128 13
0.3600 -0.0275 0.3500 255 128 13
0.3571 -0.0100 0.3500 255 128 13
0.3600 -0.0100 0.3529 255 128 13
0.3583 0.0100 0.2900 255 128 13
0.3600 0.0100 0.2882 255 128 13
0.3600 0.0061 0.2900 255 128 13
0.3513 0.0100 0.3100 255 128 13
0.3504 0.0100 0.3300 255 128 13
0.3563 0.0100 0.3500 255 128 13
0.3600 0.0100 0.3537 255 128 13
0.3600 0.0203 0.2900 255 128 13
0.3538 0.0300 0.3100 255 128 13
0.3600 0.0300 0.2938 255 128 13
0.3475 0.0300 0.3300 255 128 13
0.3525 0.0300 0.3500 255 128 13
0.3600 0.0300 0.3555 255 128 13
0.3600 0.0396 0.3100 255 128 13
0.3600 0.0500 0.3173 255 128 13
0.3600 0.0500 0.3581 255 128 13
0.3600 0.0700 0.3271 255 128 13
0.3600 0.0700 0.3526 255 128 13
0.3600 0.0727 0.3300 255 128 13
0.3600 0.0725 0.3500 255 128 13
0.3800 -0.0300 0.3275 255 128 13
0.3800 -0.0317 0.3300 255 128 13
0.3800 -0.0300 0.3450 255 128 13
0.3800 -0.0100 0.3031 255 128 13
0.3800 -0.0170 0.3100 255 128 13
0.3800 -0.0291 0.3500 255 128 13
0.3800 -0.0100 0.3604 255 128 13
0.3800 0.0100 0.2886 255 128 13
0.3800 0.0076 0.2900 255 128 13
0.3800 0.0100 0.3640 255 128 13
0.3800 0.0275 0.2900 255 128 13
0.3800 0.0300 0.2903 255 128 13
0.3800 0.0300 0.3654 255 128 13
0.3789 0.0500 0.3100 255 128 13
0.3800 0.0500 0.3095 255 128 13
0.3800 0.0500 0.3652 255 128 13
0.3800 0.0507 0.3100 255 128 13
0.3800 0.0700 0.3237 255 128 13
0.3800 0.0700 0.3562 255 128 13
0.3800 0.0744 0.3300 255 128 13
0.3800 0.0743 0.3500 255 128 13
0.3818 -0.0300 0.3300 255 128 13
0.3878 -0.0100 0.3100 255 128 13
0.4000 -0.0100 0.3241 255 128 13
0.4000 -0.0140 0.3300 255 128 13
0.4000 -0.0202 0.3500 255 128 13
0.4000 -0.0136 0.3700 255 128 13
0.3955 -0.0100 0.3700 255 128 13
0.4000 -0.0100 0.3736 255 128 13
0.3821 0.0100 0.2900 255 128 13
0.4000 0.0100 0.3015 255 128 13
0.4000 -0.0001 0.3100 255 128 13
0.3875 0.0100 0.3700 255 128 13
0.4000 0.0100 0.3822 255 128 13
0.4000 0.0300 0.2985 255 128 13
0.3851 0.0300 0.3700 255 128 13
0.4000 0.0300 0.3884 255 128 13
0.4000 0.0500 0.3027 255 128 13
0.3861 0.0500 0.3700 255 128 13
0.4000 0.0500 0.3862 255 128 13
0.4000 0.0632 0.3100 255 128 13
0.4000 0.0700 0.3197 255 128 13
0.4000 0.0675 0.3700 255 128 13
0.4000 0.0700 0.3648 255 128 13
0.4000 0.0736 0.3300 255 128 13
0.4000 0.0740 0.3500 255 128 13
0.4200 -0.0100 0.3268 255 128 13
0.4200 -0.0125 0.3300 255 128 13
0.4200 -0.0213 0.3500 255 128 13
0.4200 -0.0259 0.3700 255 128 13
0.4200 -0.0129 0.3900 255 128 13
0.4174 -0.0100 0.3900 255 128 13
0.4200 -0.0100 0.3920 255 128 13
0.4200 0.0100 0.3092 255 128 13
0.4200 0.0089 0.3100 255 128 13
0.4084 0.0100 0.3900 255 128 13
0.4200 0.0100 0.3988 255 128 13
0.4200 0.0300 0.3050 255 128 13
0.4022 0.0300 0.3900 255 128 13
0.4200 0.0300 0.3992 255 128 13
0.4200 0.0500 0.3092 255 128 13
0.4151 0.0500 0.3900 255 128 13
0.4200 0.0500 0.3909 255 128 13
0.4200 0.0510 0.3100 255 128 13
0.4073 0.0700 0.3300 255 128 13
0.4200 0.0633 0.3300 255 128 13
0.4121 0.0700 0.3500 255 128 13
0.4200 0.0672 0.3500 255 128 13
0.4200 0.0661 0.3700 255 128 13
0.4200 0.0514 0.3900 255 128 13
0.4294 -0.0100 0.3300 255 128 13
0.4400 -0.0100 0.3357 255 128 13
0.4400 -0.0173 0.3500 255 128 13
0.4400 -0.0248 0.3700 255 128 13
0.4400 -0.0171 0.3900 255 128 13
0.4400 -0.0100 0.3949 255 128 13
0.4212 0.0100 0.3100 255 128 13
0.4400 0.0100 0.3225 255 128 13
0.4400 -0.0043 0.3300 255 128 13
0.4400 0.0100 0.4062 255 128 13
0.4269 0.0300 0.3100 255 128 13
0.4400 0.0300 0.3213 255 128 13
0.4400 0.0300 0.4083 255 128 13
0.4209 0.0500 0.3100 255 128 13
0.4400 0.0500 0.3289 255 128 13
0.4400 0.0500 0.3974 255 128 13
0.4400 0.0510 0.3300 255 128 13
0.4400 0.0637 0.3500 255 128 13
0.4400 0.0681 0.3700 255 128 13
0.4400 0.0596 0.3900 255 128 13
0.4478 -0.0100 0.3500 255 128 13
0.4521 -0.0100 0.3700 255 128 13
0.4463 -0.0100 0.3900 255 128 13
0.4475 0.0100 0.3300 255 128 13
0.4600 0.0100 0.3474 255 128 13
0.4600 0.0072 0.3500 255 128 13
0.4600 -0.0012 0.3700 255 128 13
0.4600 0.0013 0.3900 255 128 13
0.4600 0.0100 0.3993 255 128 13
0.4483 0.0300 0.3300 255 128 13
0.4600 0.0300 0.3444 255 128 13
0.4600 0.0300 0.4070 255 128 13
0.4409 0.0500 0.3300 255 128 13
0.4600 0.0399 0.3500 255 128 13
0.4544 0.0500 0.3500 255 128 13
0.4600 0.0500 0.3574 255 128 13
0.4600 0.0500 0.3970 255 128 13
0.4600 0.0597 0.3700 255 128 13
0.4600 0.0570 0.3900 255 128 13
0.4620 0.0100 0.3500 255 128 13
0.4729 0.0100 0.3700 255 128 13
0.4775 0.0100 0.3900 255 128 13
0.4659 0.0300 0.3500 255 128 13
0.4800 0.0300 0.3625 255 128 13
0.4800 0.0190 0.3700 255 128 13
0.4800 0.0120 0.3900 255 128 13
0.4800 0.0300 0.3998 255 128 13
0.4800 0.0500 0.3666 255 128 13
0.4800 0.0500 0.3947 255 128 13
0.4800 0.0548 0.3700 255 128 13
0.4800 0.0551 0.3900 255 128 13
0.4791 0.1900 0.3900 255 128 13
0.4800 0.1900 0.3879 255 128 13
0.4800 0.1883 0.3900 255 128 13
0.4800 0.1878 0.4100 255 128 13
0.4790 0.1900 0.4100 255 128 13
0.4800 0.1900 0.4147 255 128 13
0.4747 0.2100 0.3900 255 128 13
0.4800 0.2100 0.3721 255 128 13
0.4800 0.2100 0.4100 255 128 13
0.4800 0.2098 0.4100 255 128 13
0.4793 0.2300 0.3900 255 128 13
0.4800 0.2300 0.3876 255 128 13
0.4800 0.2300 0.3924 255 128 13
0.4800 0.2307 0.3900 255 128 13
0.5000 0.0300 0.3645 255 128 13
0.5000 0.0235 0.3700 255 128 13
0.5000 0.0165 0.3900 255 128 13
0.5000 0.0300 0.3984 255 128 13
0.5000 0.0500 0.3612 255 128 13
0.5000 0.0500 0.4016 255 128 13
0.4973 0.0500 0.4500 255 128 13
0.5000 0.0500 0.4380 255 128 13
0.5000 0.0469 0.4500 255 128 13
0.5000 0.0500 0.4564 255 128 13
0.5000 0.0638 0.3700 255 128 13
0.5000 0.0656 0.3900 255 128 13
0.4964 0.0700 0.4300 255 128 13
0.5000 0.0700 0.4204 255 128 13
0.5000 0.0563 0.4300 255 128 13
0.4977 0.0700 0.4500 255 128 13
0.5000 0.0700 0.4536 255 128 13
0.4983 0.0900 0.4300 255 128 13
0.5000 0.0900 0.4258 255 128 13
0.5000 0.0900 0.4338 255 128 13
0.5000 0.0760 0.4500 255 128 13
0.4998 0.1100 0.4100 255 128 13
0.5000 0.1100 0.4096 255 128 13
0.5000 0.1092 0.4100 255 128 13
0.4908 0.1100 0.4300 255 128 13
0.5000 0.1100 0.4449 255 128 13
0.4998 0.1300 0.4100 255 128 13
0.5000 0.1300 0.4093 255 128 13
0.4947 0.1300 0.4300 255 128 13
0.5000 0.1300 0.4491 255 128 13
0.4962 0.1500 0.3900 255 128 13
0.5000 0.1500 0.3780 255 128 13
0.5000 0.1418 0.3900 255 128 13
0.4955 0.1500 0.4100 255 128 13
0.4981 0.1500 0.4300 255 128 13
0.5000 0.1500 0.4401 255 128 13
0.4985 0.1700 0.3700 255 128 13
0.5000 0.1700 0.3680 255 128 13
0.5000 0.1640 0.3700 255 128 13
0.4912 0.1700 0.3900 255 128 13
0.4884 0.1700 0.4100 255 128 13
0.4902 0.1700 0.4300 255 128 13
0.5000 0.1539 0.4500 255 128 13
0.4933 0.1700 0.4500 255 128 13
0.5000 0.1668 0.4700 255 128 13
0.4985 0.1700 0.4700 255 128 13
0.5000 0.1700 0.4723 255 128 13
0.4924 0.1900 0.3700 255 128 13
0.5000 0.1900 0.3633 255 128 13
0.4832 0.1900 0.4300 255 128 13
0.4888 0.1900 0.4500 255 128 13
0.4949 0.1900 0.4700 255 128 13
0.5000 0.1900 0.4771 255 128 13
0.4814 0.2100 0.3700 255 128 13
0.5000 0.2100 0.3615 255 128 13
0.4800 0.2100 0.4100 255 128 13
0.4865 0.2100 0.4300 255 128 13
0.4909 0.2100 0.4500 255 128 13
0.4991 0.2100 0.4700 255 128 13
0.5000 0.2100 0.4712 255 128 13
0.4933 0.2300 0.3700 255 128 13
0.5000 0.2300 0.3676 255 128 13
0.4869 0.2300 0.4100 255 128 13
0.4940 0.2300 0.4300 255 128 13
0.4990 0.2300 0.4500 255 128 13
0.5000 0.2300 0.4516 255 128 13
0.5000 0.2115 0.4700 255 128 13
0.5000 0.2324 0.3700 255 128 13
0.5000 0.2385 0.3900 255 128 13
0.5000 0.2376 0.4100 255 128 13
0.5000 0.2357 0.4300 255 128 13
0.5000 0.2315 0.4500 255 128 13
0.5200 0.0300 0.3657 255 128 13
0.5200 0.0249 0.3700 255 128 13
0.5200 0.0198 0.3900 255 128 13
0.5200 0.0300 0.3980 255 128 13
0.5200 0.0500 0.3623 255 128 13
0.5200 0.0500 0.4058 255 128 13
0.5051 0.0500 0.4300 255 128 13
0.5200 0.0500 0.4175 255 128 13
0.5200 0.0454 0.4300 255 128 13
0.5200 0.0394 0.4500 255 128 13
0.5200 0.0358 0.4700 255 128 13
0.5076 0.0500 0.4700 255 128 13
0.5200 0.0500 0.4837 255 128 13
0.5200 0.0667 0.3700 255 128 13
0.5070 0.0700 0.3900 255 128 13
0.5200 0.0700 0.3759 255 128 13
0.5200 0.0698 0.4100 255 128 13
0.5198 0.0700 0.4100 255 128 13
0.5138 0.0700 0.4700 255 128 13
0.5200 0.0700 0.4753 255 128 13
0.5171 0.0900 0.3900 255 128 13
0.5200 0.0900 0.3862 255 128 13
0.5128 0.0900 0.4100 255 128 13
0.5071 0.0900 0.4500 255 128 13
0.5200 0.0900 0.4631 255 128 13
0.5200 0.0795 0.4700 255 128 13
0.5188 0.1100 0.3700 255 128 13
0.5200 0.1100 0.3687 255 128 13
0.5200 0.1069 0.3700 255 128 13
0.5095 0.1100 0.3900 255 128 13
0.5034 0.1100 0.4500 255 128 13
0.5200 0.1100 0.4646 255 128 13
0.5137 0.1300 0.3700 255 128 13
0.5200 0.1300 0.3646 255 128 13
0.5053 0.1300 0.3900 255 128 13
0.5003 0.1300 0.4500 255 128 13
0.5200 0.1183 0.4700 255 128 13
0.5136 0.1300 0.4700 255 128 13
0.5200 0.1300 0.4791 255 128 13
0.5083 0.1500 0.3700 255 128 13
0.5200 0.1500 0.3662 255 128 13
0.5018 0.1500 0.4500 255 128 13
0.5072 0.1500 0.4700 255 128 13
0.5200 0.1431 0.4900 255 128 13
0.5162 0.1500 0.4900 255 128 13
0.5200 0.1500 0.4957 255 128 13
0.5027 0.1700 0.3700 255 128 13
0.5200 0.1569 0.3700 255 128 13
0.5200 0.1700 0.3835 255 128 13
0.5114 0.1700 0.4900 255 128 13
0.5200 0.1700 0.5011 255 128 13
0.5081 0.1900 0.3700 255 128 13
0.5200 0.1900 0.3823 255 128 13
0.5105 0.1900 0.4900 255 128 13
0.5200 0.1900 0.5016 255 128 13
0.5200 0.2100 0.3644 255 128 13
0.5200 0.2006 0.3700 255 128 13
0.5153 0.2100 0.4900 255 128 13
0.5200 0.2100 0.4967 255 128 13
0.5200 0.2300 0.3671 255 128 13
0.5140 0.2300 0.4700 255 128 13
0.5200 0.2300 0.4775 255 128 13
0.5200 0.2170 0.4900 255 128 13
0.5200 0.2331 0.3700 255 128 13
0.5200 0.2397 0.3900 255 128 13
0.5200 0.2405 0.4100 255 128 13
0.5200 0.2444 0.4300 255 128 13
0.5134 0.2500 0.4500 255 128 13
0.5200 0.2500 0.4401 255 128 13
0.5168 0.2500 0.4700 255 128 13
0.5200 0.2500 0.4744 255 128 13
0.5200 0.2619 0.4500 255 128 13
0.5198 0.2700 0.4700 255 128 13
0.5200 0.2700 0.4692 255 128 13
0.5200 0.2700 0.4704 255 128 13
0.5200 0.2702 0.4700 255 128 13
0.5350 0.0300 0.3700 255 128 13
0.5400 0.0300 0.3744 255 128 13
0.5400 0.0242 0.3900 255 128 13
0.5400 0.0300 0.3989 255 128 13
0.5241 0.0300 0.4900 255 128 13
0.5400 0.0300 0.4832 255 128 13
0.5400 0.0268 0.4900 255 128 13
0.5400 0.0253 0.5100 255 128 13
0.5317 0.0300 0.5100 255 128 13
0.5400 0.0300 0.5196 255 128 13
0.5400 0.0500 0.3649 255 128 13
0.5400 0.0341 0.3700 255 128 13
0.5400 0.0432 0.4100 255 128 13
0.5291 0.0500 0.4100 255 128 13
0.5400 0.0423 0.4300 255 128 13
0.5400 0.0393 0.4500 255 128 13
0.5400 0.0360 0.4700 255 128 13
0.5253 0.0500 0.4900 255 128 13
0.5312 0.0500 0.5100 255 128 13
0.5400 0.0478 0.5300 255 128 13
0.5393 0.0500 0.5300 255 128 13
0.5400 0.0500 0.5324 255 128 13
0.5242 0.0700 0.3700 255 128 13
0.5400 0.0700 0.3645 255 128 13
0.5351 0.0700 0.4900 255 128 13
0.5362 0.0700 0.5100 255 128 13
0.5356 0.0700 0.5300 255 128 13
0.5400 0.0628 0.5500 255 128 13
0.5375 0.0700 0.5500 255 128 13
0.5400 0.0670 0.5700 255 128 13
0.5396 0.0700 0.5700 255 128 13
0.5400 0.0700 0.5709 255 128 13
0.5282 0.0900 0.3700 255 128 13
0.5400 0.0900 0.3614 255 128 13
0.5259 0.0900 0.4700 255 128 13
0.5400 0.0900 0.4860 255 128 13
0.5400 0.0815 0.4900 255 128 13
0.5400 0.0797 0.5100 255 128 13
0.5400 0.0879 0.5300 255 128 13
0.5400 0.0767 0.5500 255 128 13
0.5400 0.0708 0.5700 255 128 13
0.5400 0.1100 0.3546 255 128 13
0.5248 0.1100 0.4700 255 128 13
0.5400 0.1100 0.4895 255 128 13
0.5400 0.1300 0.3581 255 128 13
0.5400 0.1105 0.4900 255 128 13
0.5274 0.1300 0.4900 255 128 13
0.5400 0.1217 0.5100 255 128 13
0.5359 0.1300 0.5100 255 128 13
0.5400 0.1300 0.5175 255 128 13
0.5400 0.1500 0.3661 255 128 13
0.5284 0.1500 0.5100 255 128 13
0.5400 0.1490 0.5300 255 128 13
0.5396 0.1500 0.5300 255 128 13
0.5400 0.1500 0.5304 255 128 13
0.5400 0.1543 0.3700 255 128 13
0.5322 0.1700 0.3900 255 128 13
0.5400 0.1676 0.3900 255 128 13
0.5400 0.1700 0.3922 255 128 13
0.5262 0.1700 0.5100 255 128 13
0.5361 0.1700 0.5300 255 128 13
0.5400 0.1700 0.5341 255 128 13
0.5331 0.1900 0.3900 255 128 13
0.5400 0.1900 0.3922 255 128 13
0.5259 0.1900 0.5100 255 128 13
0.5334 0.1900 0.5300 255 128 13
0.5400 0.1900 0.5390 255 128 13
0.5400 0.2100 0.3668 255 128 13
0.5400 0.2063 0.3700 255 128 13
0.5400 0.1924 0.3900 255 128 13
0.5270 0.2100 0.5100 255 128 13
0.5290 0.2100 0.5300 255 128 13
0.5400 0.2045 0.5500 255 128 13
0.5346 0.2100 0.5500 255 128 13
0.5400 0.2100 0.5534 255 128 13
0.5400 0.2300 0.3653 255 128 13
0.5288 0.2300 0.4900 255 128 13
0.5347 0.2300 0.5100 255 128 13
0.5318 0.2300 0.5300 255 128 13
0.5295 0.2300 0.5500 255 128 13
0.5400 0.2300 0.5557 255 128 13
0.5400 0.2369 0.3700 255 128 13
0.5400 0.2457 0.3900 255 128 13
0.5400 0.2471 0.4100 255 128 13
0.5328 0.2500 0.4300 255 128 13
0.5400 0.2500 0.4194 255 128 13
0.5400 0.2481 0.4900 255 128 13
0.5400 0.2500 0.4887 255 128 13
0.5400 0.2358 0.5100 255 128 13
0.5400 0.2386 0.5300 255 128 13
0.5400 0.2424 0.5500 255 128 13
0.5400 0.2556 0.4300 255 128 13
0.5292 0.2700 0.4500 255 128 13
0.5400 0.2700 0.4429 255 128 13
0.5400 0.2700 0.4883 255 128 13
0.5400 0.2745 0.4500 255 128 13
0.5400 0.2785 0.4700 255 128 13
0.5600 0.0300 0.3824 255 128 13
0.5600 0.0233 0.3900 255 128 13
0.5600 0.0202 0.4100 255 128 13
0.5492 0.0300 0.4100 255 128 13
0.5600 0.0300 0.4235 255 128 13
0.5565 0.0300 0.4900 255 128 13
0.5600 0.0300 0.4916 255 128 13
0.5600 0.0241 0.5100 255 128 13
0.5600 0.0278 0.5300 255 128 13
0.5538 0.0300 0.5300 255 128 13
0.5600 0.0300 0.5347 255 128 13
0.5600 0.0500 0.3691 255 128 13
0.5600 0.0484 0.3700 255 128 13
0.5600 0.0337 0.4300 255 128 13
0.5600 0.0387 0.4500 255 128 13
0.5600 0.0380 0.4700 255 128 13
0.5600 0.0307 0.4900 255 128 13
0.5600 0.0377 0.5500 255 128 13
0.5457 0.0500 0.5500 255 128 13
0.5600 0.0413 0.5700 255 128 13
0.5439 0.0500 0.5700 255 128 13
0.5600 0.0492 0.5900 255 128 13
0.5584 0.0500 0.5900 255 128 13
0.5600 0.0500 0.5908 255 128 13
0.5600 0.0700 0.3621 255 128 13
0.5523 0.0700 0.5900 255 128 13
0.5600 0.0700 0.5954 255 128 13
0.5600 0.0900 0.3565 255 128 13
0.5428 0.0900 0.4900 255 128 13
0.5439 0.0900 0.5100 255 128 13
0.5406 0.0900 0.5300 255 128 13
0.5450 0.0900 0.5500 255 128 13
0.5505 0.0900 0.5700 255 128 13
0.5600 0.0900 0.5886 255 128 13
0.5600 0.0878 0.5900 255 128 13
0.5600 0.1100 0.3501 255 128 13
0.5403 0.1100 0.4900 255 128 13
0.5452 0.1100 0.5100 255 128 13
0.5477 0.1100 0.5300 255 128 13
0.5548 0.1100 0.5500 255 128 13
0.5600 0.1100 0.5596 255 128 13
0.5600 0.1026 0.5700 255 128 13
0.5600 0.1300 0.3563 255 128 13
0.5474 0.1300 0.5300 255 128 13
0.5600 0.1300 0.5445 255 128 13
0.5600 0.1207 0.5500 255 128 13
0.5600 0.1500 0.3658 255 128 13
0.5600 0.1500 0.5434 255 128 13
0.5600 0.1543 0.3700 255 128 13
0.5600 0.1671 0.3900 255 128 13
0.5600 0.1700 0.3927 255 128 13
0.5600 0.1700 0.5455 255 128 13
0.5600 0.1900 0.3928 255 128 13
0.5600 0.1864 0.5500 255 128 13
0.5579 0.1900 0.5500 255 128 13
0.5600 0.1900 0.5517 255 128 13
0.5600 0.2100 0.3666 255 128 13
0.5600 0.2063 0.3700 255 128 13
0.5600 0.1930 0.3900 255 128 13
0.5600 0.2100 0.5566 255 128 13
0.5600 0.2300 0.3619 255 128 13
0.5600 0.2300 0.5563 255 128 13
0.5529 0.2500 0.3700 255 128 13
0.5600 0.2500 0.3652 255 128 13
0.5443 0.2500 0.3900 255 128 13
0.5430 0.2500 0.4100 255 128 13
0.5600 0.2479 0.4900 255 128 13
0.5600 0.2500 0.4870 255 128 13
0.5600 0.2408 0.5100 255 128 13
0.5600 0.2422 0.5300 255 128 13
0.5600 0.2440 0.5500 255 128 13
0.5600 0.2614 0.3700 255 128 13
0.5556 0.2700 0.3900 255 128 13
0.5600 0.2700 0.3795 255 128 13
0.5535 0.2700 0.4100 255 128 13
0.5525 0.2700 0.4300 255 128 13
0.5600 0.2700 0.4735 255 128 13
0.5600 0.2747 0.3900 255 128 13
0.5600 0.2779 0.4100 255 128 13
0.5600 0.2753 0.4300 255 128 13
0.5600 0.2736 0.4500 255 128 13
0.5600 0.2717 0.4700 255 128 13
0.5800 0.0300 0.3814 255 128 13
0.5800 0.0213 0.3900 255 128 13
0.5800 0.0118 0.4100 255 128 13
0.5800 0.0231 0.4300 255 128 13
0.5673 0.0300 0.4300 255 128 13
0.5800 0.0300 0.4392 255 128 13
0.5719 0.0300 0.4900 255 128 13
0.5800 0.0300 0.4891 255 128 13
0.5800 0.0296 0.4900 255 128 13
0.5800 0.0243 0.5100 255 128 13
0.5800 0.0266 0.5300 255 128 13
0.5800 0.0300 0.5476 255 128 13
0.5800 0.0500 0.3666 255 128 13
0.5800 0.0450 0.3700 255 128 13
0.5800 0.0361 0.4500 255 128 13
0.5800 0.0371 0.4700 255 128 13
0.5800 0.0305 0.5500 255 128 13
0.5800 0.0388 0.5700 255 128 13
0.5800 0.0494 0.5900 255 128 13
0.5800 0.0500 0.5906 255 128 13
0.5800 0.0700 0.3598 255 128 13
0.5800 0.0700 0.6009 255 128 13
0.5800 0.0900 0.3534 255 128 13
0.5612 0.0900 0.5900 255 128 13
0.5800 0.0900 0.6005 255 128 13
0.5603 0.1100 0.3500 255 128 13
0.5800 0.1100 0.3460 255 128 13
0.5800 0.0994 0.3500 255 128 13
0.5667 0.1100 0.5700 255 128 13
0.5800 0.1100 0.5892 255 128 13
0.5800 0.1092 0.5900 255 128 13
0.5800 0.1288 0.3500 255 128 13
0.5800 0.1300 0.3503 255 128 13
0.5655 0.1300 0.5500 255 128 13
0.5800 0.1300 0.5643 255 128 13
0.5800 0.1240 0.5700 255 128 13
0.5800 0.1500 0.3618 255 128 13
0.5690 0.1500 0.5500 255 128 13
0.5800 0.1500 0.5581 255 128 13
0.5800 0.1562 0.3700 255 128 13
0.5800 0.1672 0.3900 255 128 13
0.5800 0.1700 0.3927 255 128 13
0.5663 0.1700 0.5500 255 128 13
0.5800 0.1700 0.5606 255 128 13
0.5800 0.1900 0.3928 255 128 13
0.5800 0.1900 0.5624 255 128 13
0.5800 0.2100 0.3665 255 128 13
0.5800 0.2061 0.3700 255 128 13
0.5800 0.1929 0.3900 255 128 13
0.5800 0.2100 0.5518 255 128 13
0.5800 0.2300 0.3606 255 128 13
0.5735 0.2300 0.5500 255 128 13
0.5800 0.2156 0.5500 255 128 13
0.5800 0.2300 0.5408 255 128 13
0.5800 0.2500 0.3608 255 128 13
0.5731 0.2500 0.4700 255 128 13
0.5800 0.2446 0.4700 255 128 13
0.5800 0.2500 0.4575 255 128 13
0.5800 0.2392 0.4900 255 128 13
0.5800 0.2361 0.5100 255 128 13
0.5800 0.2340 0.5300 255 128 13
0.5718 0.2700 0.3700 255 128 13
0.5800 0.2700 0.3673 255 128 13
0.5657 0.2700 0.4500 255 128 13
0.5800 0.2553 0.4500 255 128 13
0.5800 0.2700 0.4377 255 128 13
0.5616 0.2700 0.4700 255 128 13
0.5800 0.2727 0.3700 255 128 13
0.5800 0.2798 0.3900 255 128 13
0.5800 0.2807 0.4100 255 128 13
0.5800 0.2755 0.4300 255 128 13
0.5933 0.0100 0.4100 255 128 13
0.6000 0.0100 0.4085 255 128 13
0.6000 0.0092 0.4100 255 128 13
0.6000 0.0100 0.4121 255 128 13
0.6000 0.0300 0.3804 255 128 13
0.6000 0.0206 0.3900 255 128 13
0.6000 0.0171 0.4300 255 128 13
0.6000 0.0300 0.4488 255 128 13
0.6000 0.0300 0.4873 255 128 13
0.6000 0.0293 0.4900 255 128 13
0.6000 0.0246 0.5100 255 128 13
0.6000 0.0262 0.5300 255 128 13
0.6000 0.0300 0.5467 255 128 13
0.6000 0.0500 0.3635 255 128 13
0.6000 0.0417 0.3700 255 128 13
0.6000 0.0308 0.4500 255 128 13
0.6000 0.0341 0.4700 255 128 13
0.6000 0.0309 0.5500 255 128 13
0.6000 0.0431 0.5700 255 128 13
0.5815 0.0500 0.5900 255 128 13
0.6000 0.0500 0.5800 255 128 13
0.6000 0.0700 0.3547 255 128 13
0.6000 0.0576 0.5900 255 128 13
0.6000 0.0700 0.6027 255 128 13
0.5878 0.0900 0.3500 255 128 13
0.6000 0.0900 0.3446 255 128 13
0.6000 0.0795 0.3500 255 128 13
0.6000 0.0900 0.6049 255 128 13
0.6000 0.1100 0.3365 255 128 13
0.5825 0.1100 0.5900 255 128 13
0.6000 0.1100 0.5937 255 128 13
0.5995 0.1300 0.3300 255 128 13
0.6000 0.1300 0.3295 255 128 13
0.6000 0.1288 0.3300 255 128 13
0.5803 0.1300 0.3500 255 128 13
0.5897 0.1300 0.5700 255 128 13
0.6000 0.1300 0.5757 255 128 13
0.6000 0.1141 0.5900 255 128 13
0.6000 0.1319 0.3300 255 128 13
0.5927 0.1500 0.3500 255 128 13
0.6000 0.1500 0.3387 255 128 13
0.6000 0.1396 0.5700 255 128 13
0.6000 0.1500 0.5649 255 128 13
0.6000 0.1549 0.3500 255 128 13
0.6000 0.1595 0.3700 255 128 13
0.6000 0.1674 0.3900 255 128 13
0.6000 0.1700 0.3926 255 128 13
0.6000 0.1700 0.5651 255 128 13
0.6000 0.1900 0.3929 255 128 13
0.6000 0.1900 0.5623 255 128 13
0.6000 0.2100 0.3670 255 128 13
0.6000 0.2067 0.3700 255 128 13
0.6000 0.1932 0.3900 255 128 13
0.5854 0.2100 0.5500 255 128 13
0.6000 0.2053 0.5500 255 128 13
0.6000 0.2100 0.5427 255 128 13
0.6000 0.2300 0.3609 255 128 13
0.5939 0.2300 0.5100 255 128 13
0.6000 0.2268 0.5100 255 128 13
0.6000 0.2300 0.5000 255 128 13
0.5853 0.2300 0.5300 255 128 13
0.6000 0.2172 0.5300 255 128 13
0.6000 0.2500 0.3610 255 128 13
0.5891 0.2500 0.4500 255 128 13
0.6000 0.2462 0.4500 255 128 13
0.6000 0.2500 0.4456 255 128 13
0.6000 0.2387 0.4700 255 128 13
0.6000 0.2328 0.4900 255 128 13
0.6000 0.2700 0.3674 255 128 13
0.5969 0.2700 0.4300 255 128 13
0.6000 0.2686 0.4300 255 128 13
0.6000 0.2700 0.4276 255 128 13
0.6000 0.2726 0.3700 255 128 13
0.6000 0.2782 0.3900 255 128 13
0.6000 0.2765 0.4100 255 128 13
0.6200 0.0100 0.4062 255 128 13
0.6200 0.0077 0.4100 255 128 13
0.6200 0.0100 0.4221 255 128 13
0.6200 0.0300 0.3802 255 128 13
0.6200 0.0205 0.3900 255 128 13
0.6200 0.0116 0.4300 255 128 13
0.6200 0.0211 0.4500 255 128 13
0.6014 0.0300 0.4500 255 128 13
0.6200 0.0252 0.4700 255 128 13
0.6092 0.0300 0.4700 255 128 13
0.6200 0.0270 0.4900 255 128 13
0.6200 0.0283 0.5100 255 128 13
0.6100 0.0300 0.5300 255 128 13
0.6200 0.0300 0.5159 255 128 13
0.6200 0.0500 0.3613 255 128 13
0.6200 0.0404 0.3700 255 128 13
0.6200 0.0340 0.5300 255 128 13
0.6200 0.0407 0.5500 255 128 13
0.6113 0.0500 0.5700 255 128 13
0.6200 0.0500 0.5630 255 128 13
0.6123 0.0700 0.3500 255 128 13
0.6200 0.0700 0.3469 255 128 13
0.6200 0.0656 0.3500 255 128 13
0.6200 0.0560 0.5700 255 128 13
0.6200 0.0689 0.5900 255 128 13
0.6200 0.0700 0.5913 255 128 13
0.6200 0.0900 0.3375 255 128 13
0.6200 0.0900 0.5970 255 128 13
0.6107 0.1100 0.3300 255 128 13
0.6200 0.1100 0.3230 255 128 13
0.6200 0.1017 0.3300 255 128 13
0.6088 0.1100 0.5900 255 128 13
0.6200 0.1023 0.5900 255 128 13
0.6200 0.1100 0.5854 255 128 13
0.6200 0.1300 0.3160 255 128 13
0.6200 0.1300 0.5718 255 128 13
0.6089 0.1500 0.3300 255 128 13
0.6200 0.1500 0.3232 255 128 13
0.6200 0.1328 0.5700 255 128 13
0.6200 0.1500 0.5600 255 128 13
0.6200 0.1548 0.3300 255 128 13
0.6200 0.1594 0.3500 255 128 13
0.6200 0.1606 0.3700 255 128 13
0.6200 0.1673 0.3900 255 128 13
0.6200 0.1700 0.3927 255 128 13
0.6200 0.1700 0.5590 255 128 13
0.6200 0.1900 0.3948 255 128 13
0.6200 0.1900 0.5592 255 128 13
0.6089 0.2100 0.3700 255 128 13
0.6200 0.2100 0.3760 255 128 13
0.6200 0.1975 0.3900 255 128 13
0.6140 0.2100 0.5500 255 128 13
0.6200 0.2100 0.5518 255 128 13
0.6200 0.2300 0.3671 255 128 13
0.6200 0.2212 0.3700 255 128 13
0.6131 0.2300 0.5100 255 128 13
0.6200 0.2300 0.5137 255 128 13
0.6200 0.2228 0.5300 255 128 13
0.6200 0.2117 0.5500 255 128 13
0.6200 0.2500 0.3673 255 128 13
0.6200 0.2449 0.4500 255 128 13
0.6200 0.2500 0.4424 255 128 13
0.6200 0.2389 0.4700 255 128 13
0.6200 0.2348 0.4900 255 128 13
0.6200 0.2315 0.5100 255 128 13
0.6200 0.2575 0.3700 255 128 13
0.6072 0.2700 0.3700 255 128 13
0.6200 0.2700 0.3895 255 128 13
0.6124 0.2700 0.4100 255 128 13
0.6200 0.2653 0.4100 255 128 13
0.6200 0.2700 0.3905 255 128 13
0.6200 0.2590 0.4300 255 128 13
0.6200 0.2701 0.3900 255 128 13
0.6301 0.0100 0.4100 255 128 13
0.6400 0.0300 0.3808 255 128 13
0.6400 0.0218 0.3900 255 128 13
0.6400 0.0123 0.4100 255 128 13
0.6400 0.0153 0.4300 255 128 13
0.6400 0.0206 0.4500 255 128 13
0.6400 0.0261 0.4700 255 128 13
0.6288 0.0300 0.4900 255 128 13
0.6400 0.0300 0.4801 255 128 13
0.6235 0.0300 0.5100 255 128 13
0.6400 0.0500 0.3602 255 128 13
0.6400 0.0402 0.3700 255 128 13
0.6400 0.0338 0.4900 255 128 13
0.6400 0.0372 0.5100 255 128 13
0.6400 0.0407 0.5300 255 128 13
0.6394 0.0500 0.5500 255 128 13
0.6400 0.0500 0.5495 255 128 13
0.6400 0.0700 0.3429 255 128 13
0.6400 0.0615 0.3500 255 128 13
0.6400 0.0505 0.5500 255 128 13
0.6366 0.0700 0.5700 255 128 13
0.6400 0.0700 0.5666 255 128 13
0.6214 0.0700 0.5900 255 128 13
0.6393 0.0900 0.3300 255 128 13
0.6400 0.0900 0.3294 255 128 13
0.6400 0.0895 0.3300 255 128 13
0.6400 0.0742 0.5700 255 128 13
0.6400 0.0900 0.5830 255 128 13
0.6314 0.0900 0.5900 255 128 13
0.6317 0.1100 0.3100 255 128 13
0.6400 0.1100 0.2952 255 128 13
0.6400 0.1013 0.3100 255 128 13
0.6400 0.1100 0.5734 255 128 13
0.6382 0.1300 0.2900 255 128 13
0.6400 0.1300 0.2883 255 128 13
0.6400 0.1224 0.2900 255 128 13
0.6259 0.1300 0.3100 255 128 13
0.6223 0.1300 0.5700 255 128 13
0.6400 0.1135 0.5700 255 128 13
0.6400 0.1300 0.5502 255 128 13
0.6400 0.1351 0.2900 255 128 13
0.6336 0.1500 0.3100 255 128 13
0.6400 0.1500 0.3001 255 128 13
0.6322 0.1500 0.5500 255 128 13
0.6400 0.1303 0.5500 255 128 13
0.6400 0.1500 0.5438 255 128 13
0.6400 0.1544 0.3100 255 128 13
0.6400 0.1588 0.3300 255 128 13
0.6400 0.1603 0.3500 255 128 13
0.6400 0.1610 0.3700 255 128 13
0.6400 0.1675 0.3900 255 128 13
0.6400 0.1700 0.3925 255 128 13
0.6370 0.1700 0.5500 255 128 13
0.6400 0.1700 0.5482 255 128 13
0.6400 0.1900 0.3978 255 128 13
0.6400 0.1734 0.5500 255 128 13
0.6400 0.1900 0.5576 255 128 13
0.6319 0.2100 0.3900 255 128 13
0.6400 0.2100 0.3953 255 128 13
0.6400 0.2100 0.5589 255 128 13
0.6231 0.2300 0.3700 255 128 13
0.6357 0.2300 0.3900 255 128 13
0.6400 0.2300 0.3942 255 128 13
0.6334 0.2300 0.5300 255 128 13
0.6400 0.2300 0.5383 255 128 13
0.6400 0.2229 0.5500 255 128 13
0.6228 0.2500 0.3700 255 128 13
0.6328 0.2500 0.3900 255 128 13
0.6400 0.2500 0.4006 255 128 13
0.6400 0.2480 0.4500 255 128 13
0.6400 0.2500 0.4458 255 128 13
0.6400 0.2413 0.4700 255 128 13
0.6400 0.2350 0.4900 255 128 13
0.6400 0.2344 0.5100 255 128 13
0.6400 0.2334 0.5300 255 128 13
0.6202 0.2700 0.3900 255 128 13
0.6400 0.2563 0.4100 255 128 13
0.6400 0.2567 0.4300 255 128 13
0.6600 0.0300 0.3850 255 128 13
0.6600 0.0263 0.3900 255 128 13
0.6600 0.0193 0.4100 255 128 13
0.6600 0.0202 0.4300 255 128 13
0.6600 0.0261 0.4500 255 128 13
0.6474 0.0300 0.4700 255 128 13
0.6600 0.0300 0.4573 255 128 13
0.6600 0.0500 0.3598 255 128 13
0.6600 0.0411 0.3700 255 128 13
0.6600 0.0374 0.4700 255 128 13
0.6600 0.0428 0.4900 255 128 13
0.6600 0.0443 0.5100 255 128 13
0.6600 0.0491 0.5300 255 128 13
0.6600 0.0500 0.5312 255 128 13
0.6600 0.0700 0.3374 255 128 13
0.6600 0.0590 0.3500 255 128 13
0.6566 0.0700 0.5500 255 128 13
0.6600 0.0700 0.5471 255 128 13
0.6600 0.0900 0.3109 255 128 13
0.6600 0.0775 0.3300 255 128 13
0.6600 0.0764 0.5500 255 128 13
0.6520 0.0900 0.5700 255 128 13
0.6600 0.0900 0.5591 255 128 13
0.6600 0.1100 0.2901 255 128 13
0.6600 0.0908 0.3100 255 128 13
0.6579 0.1100 0.5500 255 128 13
0.6600 0.1055 0.5500 255 128 13
0.6600 0.1100 0.5484 255 128 13
0.6433 0.1100 0.5700 255 128 13
0.6600 0.1300 0.2881 255 128 13
0.6600 0.1104 0.2900 255 128 13
0.6402 0.1300 0.5500 255 128 13
0.6600 0.1300 0.5401 255 128 13
0.6600 0.1358 0.2900 255 128 13
0.6600 0.1500 0.2993 255 128 13
0.6600 0.1500 0.5372 255 128 13
0.6600 0.1555 0.3100 255 128 13
0.6600 0.1630 0.3300 255 128 13
0.6600 0.1662 0.3500 255 128 13
0.6600 0.1671 0.3700 255 128 13
0.6475 0.1700 0.3900 255 128 13
0.6600 0.1700 0.3784 255 128 13
0.6600 0.1700 0.5456 255 128 13
0.6600 0.1790 0.3900 255 128 13
0.6600 0.1900 0.3947 255 128 13
0.6600 0.1757 0.5500 255 128 13
0.6600 0.1900 0.5600 255 128 13
0.6600 0.2100 0.3983 255 128 13
0.6600 0.2082 0.5700 255 128 13
0.6583 0.2100 0.5700 255 128 13
0.6600 0.2100 0.5711 255 128 13
0.6600 0.2300 0.4002 255 128 13
0.6465 0.2300 0.5500 255 128 13
0.6594 0.2300 0.5700 255 128 13
0.6600 0.2300 0.5706 255 128 13
0.6600 0.2500 0.4063 255 128 13
0.6453 0.2500 0.4500 255 128 13
0.6600 0.2500 0.4687 255 128 13
0.6600 0.2495 0.4700 255 128 13
0.6600 0.2366 0.4900 255 128 13
0.6600 0.2338 0.5100 255 128 13
0.6600 0.2385 0.5300 255 128 13
0.6600 0.2411 0.5500 255 128 13
0.6600 0.2307 0.5700 255 128 13
0.6600 0.2539 0.4100 255 128 13
0.6600 0.2571 0.4300 255 128 13
0.6600 0.2551 0.4500 255 128 13
0.6704 0.0300 0.3900 255 128 13
0.6800 0.0300 0.3962 255 128 13
0.6800 0.0233 0.4100 255 128 13
0.6800 0.0239 0.4300 255 128 13
0.6673 0.0300 0.4500 255 128 13
0.6800 0.0300 0.4399 255 128 13
0.6800 0.0500 0.3570 255 128 13
0.6800 0.0421 0.3700 255 128 13
0.6800 0.0333 0.3900 255 128 13
0.6800 0.0384 0.4500 255 128 13
0.6769 0.0500 0.4700 255 128 13
0.6800 0.0500 0.4662 255 128 13
0.6710 0.0500 0.4900 255 128 13
0.6694 0.0500 0.5100 255 128 13
0.6613 0.0500 0.5300 255 128 13
0.6776 0.0700 0.3300 255 128 13
0.6800 0.0700 0.3290 255 128 13
0.6800 0.0690 0.3300 255 128 13
0.6800 0.0549 0.3500 255 128 13
0.6800 0.0523 0.4700 255 128 13
0.6800 0.0558 0.4900 255 128 13
0.6800 0.0565 0.5100 255 128 13
0.6800 0.0628 0.5300 255 128 13
0.6800 0.0700 0.5366 255 128 13
0.6800 0.0900 0.3178 255 128 13
0.6680 0.0900 0.5500 255 128 13
0.6800 0.0900 0.5430 255 128 13
0.6744 0.1100 0.3100 255 128 13
0.6800 0.1100 0.3145 255 128 13
0.6800 0.1100 0.5417 255 128 13
0.6621 0.1300 0.2900 255 128 13
0.6753 0.1300 0.3100 255 128 13
0.6800 0.1300 0.3143 255 128 13
0.6800 0.1300 0.5391 255 128 13
0.6685 0.1500 0.3100 255 128 13
0.6800 0.1500 0.3173 255 128 13
0.6800 0.1500 0.5386 255 128 13
0.6800 0.1700 0.3246 255 128 13
0.6715 0.1700 0.3300 255 128 13
0.6643 0.1700 0.3500 255 128 13
0.6631 0.1700 0.3700 255 128 13
0.6800 0.1677 0.5500 255 128 13
0.6749 0.1700 0.5500 255 128 13
0.6800 0.1700 0.5516 255 128 13
0.6800 0.1806 0.3300 255 128 13
0.6775 0.1900 0.3500 255 128 13
0.6800 0.1900 0.3434 255 128 13
0.6758 0.1900 0.3700 255 128 13
0.6669 0.1900 0.3900 255 128 13
0.6800 0.1900 0.5651 255 128 13
0.6800 0.1924 0.3500 255 128 13
0.6800 0.1939 0.3700 255 128 13
0.6800 0.2023 0.3900 255 128 13
0.6800 0.2100 0.3955 255 128 13
0.6800 0.1974 0.5700 255 128 13
0.6800 0.2100 0.5777 255 128 13
0.6800 0.2300 0.4010 255 128 13
0.6800 0.2300 0.5797 255 128 13
0.6800 0.2500 0.4068 255 128 13
0.6800 0.2460 0.4700 255 128 13
0.6800 0.2500 0.4536 255 128 13
0.6800 0.2357 0.4900 255 128 13
0.6800 0.2361 0.5100 255 128 13
0.6800 0.2397 0.5300 255 128 13
0.6800 0.2429 0.5500 255 128 13
0.6800 0.2406 0.5700 255 128 13
0.6800 0.2548 0.4100 255 128 13
0.6800 0.2521 0.4300 255 128 13
0.6800 0.2507 0.4500 255 128 13
0.7000 0.0300 0.4008 255 128 13
0.7000 0.0249 0.4100 255 128 13
0.7000 0.0264 0.4300 255 128 13
0.7000 0.0300 0.4343 255 128 13
0.7000 0.0500 0.3547 255 128 13
0.7000 0.0422 0.3700 255 128 13
0.7000 0.0359 0.3900 255 128 13
0.6992 0.0500 0.4500 255 128 13
0.7000 0.0500 0.4496 255 128 13
0.6850 0.0700 0.3300 255 128 13
0.7000 0.0700 0.3338 255 128 13
0.7000 0.0540 0.3500 255 128 13
0.7000 0.0505 0.4500 255 128 13
0.7000 0.0612 0.4700 255 128 13
0.7000 0.0636 0.4900 255 128 13
0.7000 0.0633 0.5100 255 128 13
0.7000 0.0674 0.5300 255 128 13
0.7000 0.0700 0.5329 255 128 13
0.7000 0.0900 0.3268 255 128 13
0.7000 0.0790 0.3300 255 128 13
0.7000 0.0900 0.5424 255 128 13
0.7000 0.1100 0.3261 255 128 13
0.7000 0.1100 0.5440 255 128 13
0.7000 0.1300 0.3261 255 128 13
0.7000 0.1300 0.5424 255 128 13
0.7000 0.1500 0.3264 255 128 13
0.7000 0.1500 0.5403 255 128 13
0.7000 0.1700 0.3276 255 128 13
0.7000 0.1656 0.5500 255 128 13
0.7000 0.1700 0.5527 255 128 13
0.7000 0.1767 0.3300 255 128 13
0.7000 0.1900 0.3404 255 128 13
0.7000 0.1900 0.5684 255 128 13
0.7000 0.1942 0.3500 255 128 13
0.7000 0.1986 0.3700 255 128 13
0.7000 0.2062 0.3900 255 128 13
0.7000 0.2100 0.3939 255 128 13
0.7000 0.1930 0.5700 255 128 13
0.7000 0.2100 0.5768 255 128 13
0.7000 0.2300 0.4022 255 128 13
0.6992 0.2300 0.4500 255 128 13
0.7000 0.2293 0.4500 255 128 13
0.7000 0.2300 0.4485 255 128 13
0.6967 0.2300 0.4700 255 128 13
0.7000 0.2276 0.4700 255 128 13
0.7000 0.2300 0.4805 255 128 13
0.7000 0.2300 0.5724 255 128 13
0.7000 0.2500 0.4095 255 128 13
0.6839 0.2500 0.4300 255 128 13
0.7000 0.2404 0.4300 255 128 13
0.7000 0.2500 0.4111 255 128 13
0.6808 0.2500 0.4500 255 128 13
0.7000 0.2322 0.4900 255 128 13
0.7000 0.2366 0.5100 255 128 13
0.7000 0.2376 0.5300 255 128 13
0.7000 0.2384 0.5500 255 128 13
0.7000 0.2325 0.5700 255 128 13
0.7000 0.2508 0.4100 255 128 13
0.7200 0.0300 0.4058 255 128 13
0.7200 0.0278 0.4100 255 128 13
0.7200 0.0281 0.4300 255 128 13
0.7200 0.0300 0.4323 255 128 13
0.7200 0.0500 0.3639 255 128 13
0.7200 0.0451 0.3700 255 128 13
0.7200 0.0375 0.3900 255 128 13
0.7200 0.0500 0.4480 255 128 13
0.7136 0.0700 0.3500 255 128 13
0.7200 0.0700 0.3552 255 128 13
0.7200 0.0521 0.4500 255 128 13
0.7200 0.0681 0.4700 255 128 13
0.7110 0.0700 0.4900 255 128 13
0.7200 0.0700 0.4746 255 128 13
0.7141 0.0700 0.5100 255 128 13
0.7165 0.0700 0.5300 255 128 13
0.7033 0.0900 0.3300 255 128 13
0.7159 0.0900 0.3500 255 128 13
0.7200 0.0900 0.3540 255 128 13
0.7200 0.0764 0.4900 255 128 13
0.7200 0.0734 0.5100 255 128 13
0.7200 0.0707 0.5300 255 128 13
0.7200 0.0900 0.5474 255 128 13
0.7039 0.1100 0.3300 255 128 13
0.7161 0.1100 0.3500 255 128 13
0.7200 0.1100 0.3539 255 128 13
0.7200 0.0966 0.5500 255 128 13
0.7120 0.1100 0.5500 255 128 13
0.7200 0.1100 0.5542 255 128 13
0.7039 0.1300 0.3300 255 128 13
0.7161 0.1300 0.3500 255 128 13
0.7200 0.1300 0.3539 255 128 13
0.7116 0.1300 0.5500 255 128 13
0.7200 0.1300 0.5552 255 128 13
0.7037 0.1500 0.3300 255 128 13
0.7160 0.1500 0.3500 255 128 13
0.7200 0.1500 0.3539 255 128 13
0.7139 0.1500 0.5500 255 128 13
0.7200 0.1500 0.5533 255 128 13
0.7025 0.1700 0.3300 255 128 13
0.7154 0.1700 0.3500 255 128 13
0.7200 0.1700 0.3543 255 128 13
0.7200 0.1700 0.5538 255 128 13
0.7063 0.1900 0.3500 255 128 13
0.7200 0.1900 0.3622 255 128 13
0.7200 0.1900 0.5621 255 128 13
0.7200 0.1958 0.3700 255 128 13
0.7200 0.2062 0.3900 255 128 13
0.7200 0.2100 0.3943 255 128 13
0.7157 0.2100 0.5700 255 128 13
0.7200 0.2100 0.5671 255 128 13
0.7200 0.2300 0.4049 255 128 13
0.7162 0.2300 0.4300 255 128 13
0.7200 0.2279 0.4300 255 128 13
0.7200 0.2300 0.4243 255 128 13
0.7200 0.2188 0.4500 255 128 13
0.7200 0.2176 0.4700 255 128 13
0.7043 0.2300 0.4900 255 128 13
0.7200 0.2221 0.4900 255 128 13
0.7168 0.2300 0.5100 255 128 13
0.7200 0.2283 0.5100 255 128 13
0.7159 0.2300 0.5300 255 128 13
0.7200 0.2273 0.5300 255 128 13
0.7168 0.2300 0.5500 255 128 13
0.7200 0.2274 0.5500 255 128 13
0.7033 0.2300 0.5700 255 128 13
0.7200 0.2405 0.4100 255 128 13
0.7018 0.2500 0.4100 255 128 13
0.7253 0.0300 0.4100 255 128 13
0.7279 0.0300 0.4300 255 128 13
0.7315 0.0500 0.3700 255 128 13
0.7400 0.0500 0.3776 255 128 13
0.7400 0.0440 0.3900 255 128 13
0.7400 0.0362 0.4100 255 128 13
0.7400 0.0331 0.4300 255 128 13
0.7400 0.0455 0.4500 255 128 13
0.7263 0.0500 0.4500 255 128 13
0.7400 0.0500 0.4543 255 128 13
0.7400 0.0700 0.3667 255 128 13
0.7400 0.0608 0.3700 255 128 13
0.7400 0.0686 0.4700 255 128 13
0.7400 0.0700 0.4716 255 128 13
0.7400 0.0900 0.3661 255 128 13
0.7400 0.0876 0.4900 255 128 13
0.7400 0.0840 0.5100 255 128 13
0.7400 0.0784 0.5300 255 128 13
0.7400 0.0900 0.5426 255 128 13
0.7400 0.1100 0.3661 255 128 13
0.7400 0.0984 0.5500 255 128 13
0.7400 0.1100 0.5568 255 128 13
0.7400 0.1300 0.3659 255 128 13
0.7400 0.1300 0.5610 255 128 13
0.7400 0.1500 0.3641 255 128 13
0.7400 0.1500 0.5595 255 128 13
0.7400 0.1700 0.3614 255 128 13
0.7400 0.1700 0.5570 255 128 13
0.7400 0.1900 0.3664 255 128 13
0.7400 0.1900 0.5550 255 128 13
0.7400 0.1937 0.3700 255 128 13
0.7400 0.2060 0.3900 255 128 13
0.7400 0.2100 0.3946 255 128 13
0.7398 0.2100 0.4500 255 128 13
0.7400 0.2099 0.4500 255 128 13
0.7400 0.2100 0.4498 255 128 13
0.7341 0.2100 0.4700 255 128 13
0.7400 0.2065 0.4700 255 128 13
0.7376 0.2100 0.4900 255 128 13
0.7400 0.2081 0.4900 255 128 13
0.7400 0.2100 0.4956 255 128 13
0.7361 0.2100 0.5500 255 128 13
0.7400 0.2025 0.5500 255 128 13
0.7400 0.2100 0.5356 255 128 13
0.7400 0.2300 0.4063 255 128 13
0.7400 0.2227 0.4300 255 128 13
0.7400 0.2300 0.4165 255 128 13
0.7400 0.2146 0.5100 255 128 13
0.7400 0.2114 0.5300 255 128 13
0.7400 0.2366 0.4100 255 128 13
0.7478 0.0500 0.3900 255 128 13
0.7600 0.0500 0.4023 255 128 13
0.7600 0.0441 0.4100 255 128 13
0.7600 0.0392 0.4300 255 128 13
0.7600 0.0458 0.4500 255 128 13
0.7600 0.0500 0.4543 255 128 13
0.7433 0.0700 0.3700 255 128 13
0.7555 0.0700 0.3900 255 128 13
0.7600 0.0700 0.3945 255 128 13
0.7462 0.0700 0.4700 255 128 13
0.7600 0.0700 0.4674 255 128 13
0.7439 0.0900 0.3700 255 128 13
0.7560 0.0900 0.3900 255 128 13
0.7600 0.0900 0.3940 255 128 13
0.7600 0.0734 0.4700 255 128 13
0.7458 0.0900 0.4900 255 128 13
0.7600 0.0900 0.4847 255 128 13
0.7478 0.0900 0.5100 255 128 13
0.7549 0.0900 0.5300 255 128 13
0.7440 0.1100 0.3700 255 128 13
0.7561 0.1100 0.3900 255 128 13
0.7600 0.1100 0.3939 255 128 13
0.7600 0.1010 0.4900 255 128 13
0.7600 0.1044 0.5100 255 128 13
0.7600 0.0943 0.5300 255 128 13
0.7600 0.1060 0.5500 255 128 13
0.7600 0.1100 0.5535 255 128 13
0.7443 0.1300 0.3700 255 128 13
0.7566 0.1300 0.3900 255 128 13
0.7600 0.1300 0.3934 255 128 13
0.7600 0.1300 0.5628 255 128 13
0.7484 0.1500 0.3700 255 128 13
0.7600 0.1500 0.3847 255 128 13
0.7600 0.1401 0.3900 255 128 13
0.7600 0.1500 0.5612 255 128 13
0.7600 0.1700 0.3657 255 128 13
0.7600 0.1632 0.3700 255 128 13
0.7600 0.1700 0.5564 255 128 13
0.7600 0.1900 0.3676 255 128 13
0.7496 0.1900 0.5500 255 128 13
0.7600 0.1816 0.5500 255 128 13
0.7600 0.1900 0.5422 255 128 13
0.7600 0.1925 0.3700 255 128 13
0.7600 0.2053 0.3900 255 128 13
0.7600 0.2100 0.3952 255 128 13
0.7600 0.2045 0.4500 255 128 13
0.7600 0.2100 0.4433 255 128 13
0.7600 0.1989 0.4700 255 128 13
0.7600 0.1950 0.4900 255 128 13
0.7479 0.2100 0.5100 255 128 13
0.7600 0.2019 0.5100 255 128 13
0.7420 0.2100 0.5300 255 128 13
0.7600 0.1990 0.5300 255 128 13
0.7600 0.2300 0.4060 255 128 13
0.7600 0.2231 0.4300 255 128 13
0.7600 0.2300 0.4181 255 128 13
0.7600 0.2371 0.4100 255 128 13
0.7721 0.0500 0.4100 255 128 13
0.7800 0.0500 0.4216 255 128 13
0.7800 0.0471 0.4300 255 128 13
0.7728 0.0500 0.4500 255 128 13
0.7800 0.0500 0.4410 255 128 13
0.7800 0.0700 0.4068 255 128 13
0.7800 0.0611 0.4100 255 128 13
0.7800 0.0536 0.4500 255 128 13
0.7800 0.0700 0.4625 255 128 13
0.7800 0.0900 0.4061 255 128 13
0.7800 0.0776 0.4700 255 128 13
0.7800 0.0900 0.4825 255 128 13
0.7800 0.1100 0.4060 255 128 13
0.7800 0.1015 0.4900 255 128 13
0.7798 0.1100 0.5100 255 128 13
0.7800 0.1100 0.5099 255 128 13
0.7800 0.1100 0.5102 255 128 13
0.7800 0.1067 0.5300 255 128 13
0.7664 0.1100 0.5500 255 128 13
0.7800 0.1100 0.5359 255 128 13
0.7800 0.1300 0.4057 255 128 13
0.7800 0.1100 0.5100 255 128 13
0.7800 0.1200 0.5500 255 128 13
0.7800 0.1300 0.5568 255 128 13
0.7653 0.1500 0.3900 255 128 13
0.7800 0.1500 0.4016 255 128 13
0.7800 0.1500 0.5584 255 128 13
0.7701 0.1700 0.3700 255 128 13
0.7800 0.1700 0.3797 255 128 13
0.7800 0.1630 0.3900 255 128 13
0.7800 0.1700 0.5518 255 128 13
0.7666 0.1900 0.3700 255 128 13
0.7800 0.1900 0.3802 255 128 13
0.7712 0.1900 0.4700 255 128 13
0.7800 0.1837 0.4700 255 128 13
0.7800 0.1900 0.4543 255 128 13
0.7660 0.1900 0.4900 255 128 13
0.7800 0.1812 0.4900 255 128 13
0.7740 0.1900 0.5100 255 128 13
0.7800 0.1854 0.5100 255 128 13
0.7758 0.1900 0.5300 255 128 13
0.7800 0.1874 0.5300 255 128 13
0.7800 0.1724 0.5500 255 128 13
0.7800 0.1964 0.3900 255 128 13
0.7800 0.2100 0.4039 255 128 13
0.7800 0.1924 0.4500 255 128 13
0.7800 0.2100 0.4336 255 128 13
0.7800 0.2244 0.4100 255 128 13
0.7736 0.2300 0.4100 255 128 13
0.7800 0.2160 0.4300 255 128 13
0.7831 0.0500 0.4300 255 128 13
0.7832 0.0700 0.4100 255 128 13
0.7921 0.0700 0.4300 255 128 13
0.7968 0.0700 0.4500 255 128 13
0.7839 0.0900 0.4100 255 128 13
0.7952 0.0900 0.4300 255 128 13
0.8000 0.0900 0.4362 255 128 13
0.8000 0.0731 0.4500 255 128 13
0.8000 0.0788 0.4700 255 128 13
0.8000 0.0890 0.4900 255 128 13
0.7973 0.0900 0.4900 255 128 13
0.8000 0.0900 0.4915 255 128 13
0.7839 0.1100 0.4100 255 128 13
0.7961 0.1100 0.4300 255 128 13
0.8000 0.1100 0.4340 255 128 13
0.8000 0.1039 0.5100 255 128 13
0.7801 0.1100 0.5100 255 128 13
0.8000 0.1100 0.5212 255 128 13
0.7883 0.1100 0.5300 255 128 13
0.7841 0.1300 0.4100 255 128 13
0.7962 0.1300 0.4300 255 128 13
0.8000 0.1300 0.4338 255 128 13
0.8000 0.1220 0.5300 255 128 13
0.7915 0.1300 0.5500 255 128 13
0.8000 0.1300 0.5370 255 128 13
0.7859 0.1500 0.4100 255 128 13
0.7961 0.1500 0.4300 255 128 13
0.8000 0.1500 0.4343 255 128 13
0.7961 0.1500 0.5500 255 128 13
0.8000 0.1500 0.5430 255 128 13
0.7845 0.1700 0.3900 255 128 13
0.7889 0.1700 0.4100 255 128 13
0.7948 0.1700 0.4300 255 128 13
0.8000 0.1700 0.4377 255 128 13
0.7987 0.1700 0.4900 255 128 13
0.8000 0.1672 0.4900 255 128 13
0.8000 0.1700 0.4873 255 128 13
0.7992 0.1700 0.5100 255 128 13
0.8000 0.1664 0.5100 255 128 13
0.7992 0.1700 0.5300 255 128 13
0.8000 0.1677 0.5300 255 128 13
0.7830 0.1700 0.5500 255 128 13
0.7843 0.1900 0.3900 255 128 13
0.7885 0.1900 0.4100 255 128 13
0.7903 0.1900 0.4300 255 128 13
0.8000 0.1840 0.4500 255 128 13
0.7863 0.1900 0.4500 255 128 13
0.8000 0.1770 0.4700 255 128 13
0.7841 0.2100 0.4100 255 128 13
0.7829 0.2100 0.4300 255 128 13
0.8200 0.0900 0.4475 255 128 13
0.8200 0.0871 0.4500 255 128 13
0.8200 0.0826 0.4700 255 128 13
0.8200 0.0888 0.4900 255 128 13
0.8200 0.0900 0.4918 255 128 13
0.8200 0.1100 0.4436 255 128 13
0.8200 0.1072 0.5100 255 128 13
0.8200 0.1100 0.5125 255 128 13
0.8200 0.1300 0.4427 255 128 13
0.8142 0.1300 0.5100 255 128 13
0.8200 0.1173 0.5100 255 128 13
0.8200 0.1300 0.4952 255 128 13
0.8034 0.1300 0.5300 255 128 13
0.8200 0.1500 0.4435 255 128 13
0.8067 0.1500 0.4900 255 128 13
0.8200 0.1321 0.4900 255 128 13
0.8200 0.1500 0.4769 255 128 13
0.8032 0.1500 0.5100 255 128 13
0.8043 0.1500 0.5300 255 128 13
0.8200 0.1700 0.4482 255 128 13
0.8189 0.1700 0.4700 255 128 13
0.8200 0.1689 0.4700 255 128 13
0.8200 0.1700 0.4667 255 128 13
0.8200 0.1736 0.4500 255 128 13
0.8243 0.0900 0.4500 255 128 13
0.8338 0.0900 0.4700 255 128 13
0.8223 0.0900 0.4900 255 128 13
0.8300 0.1100 0.4500 255 128 13
0.8400 0.1100 0.4689 255 128 13
0.8400 0.1081 0.4700 255 128 13
0.8400 0.1096 0.4900 255 128 13
0.8240 0.1100 0.5100 255 128 13
0.8400 0.1100 0.4904 255 128 13
0.8326 0.1300 0.4500 255 128 13
0.8400 0.1116 0.4700 255 128 13
0.8339 0.1300 0.4700 255 128 13
0.8220 0.1300 0.4900 255 128 13
0.8400 0.1103 0.4900 255 128 13
0.8300 0.1500 0.4500 255 128 13
0.8265 0.1500 0.4700 255 128 13
0.8220 0.1700 0.4500 255 128 13
0.8408 0.1100 0.4700 255 128 13
0.8403 0.1100 0.4900 255 128 13
3 0 1 2
3 0 3 4
3 2 3 0
3 3 5 4
3 6 1 0
3 7 1 6
3 4 8 0
3 8 6 0
3 9 4 5
3 8 4 9
3 6 10 7
3 8 10 6
3 11 10 8
3 9 11 8
3 12 13 14
3 14 15 12
3 16 17 18
3 13 16 18
3 13 12 16
3 12 19 16
3 20 12 15
3 20 21 12
3 21 19 12
3 20 22 21
3 23 24 25
3 17 23 25
3 17 16 23
3 16 26 23
3 19 27 16
3 27 26 16
3 21 28 19
3 28 27 19
3 29 21 22
3 28 21 29
3 23 30 24
3 30 31 32
3 30 23 31
3 23 26 31
3 27 33 26
3 33 31 26
3 28 34 27
3 34 33 27
3 35 28 29
3 34 28 35
3 31 36 32
3 2 1 37
3 2 37 31
3 2 31 33
3 31 37 36
3 3 2 33
3 34 3 33
3 34 5 3
3 34 35 5
3 35 38 5
3 1 7 37
3 37 7 39
3 5 38 9
3 38 40 9
3 7 41 39
3 10 41 7
3 11 42 10
3 10 42 41
3 40 11 9
3 42 11 40
3 14 43 44
3 13 43 14
3 44 15 14
3 45 15 44
3 18 46 47
3 17 46 18
3 43 13 18
3 47 43 18
3 15 45 48
3 20 15 48
3 48 22 20
3 49 22 48
3 25 50 51
3 24 50 25
3 46 17 25
3 51 46 25
3 22 49 29
3 49 52 29
3 24 53 50
3 30 53 24
3 53 30 32
3 54 53 32
3 29 52 35
3 52 55 35
3 56 32 36
3 56 57 32
3 57 54 32
3 36 37 56
3 35 55 38
3 55 58 38
3 56 59 57
3 59 56 37
3 59 37 60
3 60 37 39
3 38 58 40
3 58 61 40
3 39 62 60
3 41 62 39
3 42 63 41
3 41 63 62
3 61 42 40
3 63 42 61
3 44 43 64
3 44 64 45
3 47 46 65
3 47 65 66
3 43 47 66
3 43 66 67
3 43 67 64
3 45 64 67
3 45 67 48
3 48 67 68
3 49 69 70
3 49 48 69
3 48 68 69
3 69 71 70
3 51 50 72
3 51 72 73
3 46 51 73
3 46 73 74
3 46 74 65
3 66 65 74
3 70 75 52
3 49 70 52
3 76 70 71
3 75 70 76
3 50 53 72
3 72 53 54
3 72 54 73
3 73 54 77
3 75 78 55
3 52 75 55
3 79 75 76
3 78 75 79
3 54 57 77
3 77 57 80
3 78 81 58
3 55 78 58
3 82 78 79
3 81 78 82
3 57 83 80
3 59 83 57
3 83 59 60
3 84 83 60
3 81 85 86
3 81 86 58
3 58 86 61
3 82 85 81
3 60 87 84
3 62 87 60
3 63 88 62
3 62 88 87
3 86 63 61
3 88 63 86
3 67 89 90
3 66 89 67
3 68 67 91
3 67 90 91
3 69 68 92
3 68 91 92
3 71 93 94
3 71 69 93
3 69 92 93
3 93 95 94
3 74 96 97
3 73 96 74
3 89 66 74
3 97 89 74
3 94 98 76
3 71 94 76
3 99 94 95
3 98 94 99
3 73 77 96
3 96 77 100
3 98 101 79
3 76 98 79
3 102 98 99
3 101 98 102
3 77 80 100
3 100 80 103
3 101 104 82
3 79 101 82
3 105 101 102
3 104 101 105
3 80 106 103
3 83 106 80
3 84 107 108
3 84 108 83
3 83 108 106
3 107 109 110
3 108 107 110
3 109 86 85
3 109 85 110
3 110 85 111
3 104 85 82
3 104 112 85
3 112 111 85
3 105 112 104
3 84 87 107
3 88 107 87
3 109 107 88
3 86 109 88
3 90 89 113
3 114 90 113
3 114 115 90
3 115 91 90
3 92 91 116
3 91 115 116
3 93 92 117
3 92 116 117
3 117 95 93
3 118 95 117
3 97 96 119
3 97 119 120
3 89 97 120
3 89 120 121
3 89 121 113
3 114 113 121
3 95 118 99
3 118 122 99
3 119 100 123
3 96 100 119
3 124 120 119
3 123 124 119
3 99 122 102
3 122 125 102
3 123 103 126
3 100 103 123
3 127 124 123
3 126 127 123
3 102 125 105
3 125 128 105
3 103 106 126
3 126 129 127
3 126 106 129
3 106 108 129
3 110 130 108
3 108 130 129
3 111 131 110
3 110 131 130
3 112 132 111
3 111 132 131
3 128 112 105
3 132 112 128
3 115 114 133
3 115 134 116
3 133 134 115
3 116 135 117
3 134 135 116
3 117 135 118
3 121 120 136
3 121 136 137
3 114 121 137
3 114 137 138
3 114 138 133
3 134 133 138
3 139 134 138
3 135 134 139
3 140 135 139
3 140 118 135
3 140 141 118
3 141 122 118
3 136 124 142
3 120 124 136
3 143 137 136
3 142 143 136
3 122 141 125
3 141 144 125
3 142 127 145
3 124 127 142
3 146 143 142
3 146 142 147
3 147 142 145
3 146 147 148
3 125 144 128
3 144 149 128
3 127 129 145
3 130 145 129
3 147 145 130
3 147 150 148
3 147 130 150
3 130 131 150
3 132 151 131
3 131 151 150
3 149 132 128
3 151 132 149
3 138 137 152
3 138 153 139
3 152 153 138
3 139 154 140
3 153 154 139
3 140 154 141
3 152 143 155
3 137 143 152
3 156 157 153
3 156 153 155
3 155 153 152
3 154 153 157
3 158 154 157
3 158 141 154
3 158 159 141
3 159 144 141
3 143 146 155
3 155 146 148
3 155 148 156
3 156 148 160
3 144 159 149
3 159 161 149
3 148 162 160
3 150 162 148
3 151 163 150
3 150 163 162
3 161 151 149
3 163 151 161
3 164 165 166
3 164 167 168
3 166 167 164
3 167 169 168
3 170 165 164
3 171 165 170
3 172 168 173
3 172 170 168
3 170 164 168
3 169 173 168
3 174 171 170
3 175 171 174
3 176 170 172
3 174 170 176
3 174 177 175
3 176 177 174
3 157 178 179
3 156 178 157
3 158 157 180
3 157 179 180
3 180 159 158
3 181 159 180
3 156 160 178
3 178 160 182
3 159 181 161
3 181 183 161
3 184 185 186
3 186 187 184
3 160 188 182
3 162 188 160
3 163 189 162
3 162 189 188
3 183 163 161
3 189 163 183
3 190 191 192
3 185 190 192
3 185 184 190
3 184 193 190
3 194 184 187
3 193 184 194
3 195 191 190
3 196 191 195
3 197 193 198
3 197 195 193
3 195 190 193
3 194 198 193
3 199 200 201
3 196 199 201
3 196 195 199
3 195 202 199
3 203 195 197
3 202 195 203
3 204 200 199
3 205 200 204
3 202 206 199
3 206 204 199
3 207 202 203
3 206 202 207
3 208 209 210
3 205 208 210
3 205 204 208
3 204 211 208
3 206 212 204
3 212 211 204
3 213 206 207
3 212 206 213
3 214 215 216
3 209 214 216
3 209 208 214
3 208 217 214
3 211 218 208
3 218 217 208
3 212 219 211
3 219 218 211
3 220 212 213
3 220 221 212
3 221 219 212
3 221 222 223
3 220 222 221
3 222 224 223
3 225 215 214
3 226 215 225
3 166 165 225
3 166 225 217
3 217 225 214
3 167 166 217
3 218 167 217
3 169 167 218
3 169 218 227
3 227 218 219
3 221 228 219
3 228 227 219
3 223 229 221
3 229 228 221
3 230 223 224
3 229 223 230
3 231 226 225
3 232 226 231
3 165 171 231
3 225 165 231
3 173 233 172
3 173 169 227
3 173 227 233
3 233 227 234
3 228 235 227
3 235 234 227
3 229 236 228
3 236 235 228
3 237 229 230
3 236 229 237
3 238 232 231
3 239 232 238
3 171 175 238
3 231 171 238
3 233 240 176
3 172 233 176
3 234 241 233
3 241 240 233
3 235 242 234
3 242 241 234
3 243 236 244
3 243 242 236
3 242 235 236
3 237 244 236
3 238 245 239
3 175 245 238
3 175 177 245
3 177 246 245
3 240 177 176
3 240 247 177
3 247 246 177
3 241 247 240
3 248 247 241
3 242 248 241
3 249 248 242
3 243 249 242
3 179 250 251
3 178 250 179
3 180 179 252
3 179 251 252
3 252 181 180
3 253 181 252
3 178 182 250
3 250 182 254
3 181 253 183
3 253 255 183
3 256 257 258
3 256 186 185
3 256 258 186
3 258 259 186
3 187 260 261
3 187 186 260
3 186 259 260
3 260 262 261
3 182 263 254
3 188 263 182
3 264 265 263
3 264 263 189
3 189 263 188
3 266 183 255
3 266 264 183
3 266 267 264
3 264 189 183
3 257 267 266
3 256 267 257
3 256 191 267
3 256 192 191
3 185 192 256
3 261 268 194
3 187 261 194
3 269 261 262
3 268 261 269
3 270 265 264
3 271 265 270
3 267 272 264
3 272 270 264
3 191 196 272
3 267 191 272
3 198 273 197
3 198 274 273
3 194 274 198
3 194 275 274
3 194 268 275
3 269 275 268
3 276 277 278
3 271 276 278
3 271 270 276
3 270 279 276
3 201 200 279
3 201 279 272
3 272 279 270
3 196 201 272
3 273 280 203
3 197 273 203
3 281 273 274
3 280 273 281
3 282 277 276
3 283 277 282
3 279 284 276
3 284 282 276
3 200 205 284
3 279 200 284
3 280 285 207
3 203 280 207
3 286 280 281
3 286 287 280
3 287 285 280
3 286 288 287
3 289 283 282
3 290 283 289
3 210 209 289
3 210 289 284
3 284 289 282
3 205 210 284
3 285 291 213
3 207 285 213
3 287 292 285
3 292 291 285
3 293 287 288
3 293 294 287
3 294 292 287
3 293 295 294
3 216 215 296
3 289 297 290
3 297 289 298
3 289 209 298
3 216 296 298
3 216 298 209
3 213 291 220
3 222 220 291
3 292 222 291
3 224 222 292
3 224 292 299
3 299 292 294
3 300 294 295
3 299 294 300
3 296 226 301
3 215 226 296
3 302 298 296
3 301 302 296
3 299 303 230
3 224 299 230
3 304 299 300
3 303 299 304
3 301 305 306
3 301 226 305
3 226 232 305
3 302 301 306
3 303 307 237
3 230 303 237
3 308 303 304
3 307 303 308
3 232 239 305
3 305 239 309
3 244 310 243
3 244 311 310
3 237 311 244
3 237 312 311
3 237 307 312
3 308 312 307
3 239 313 309
3 245 313 239
3 246 314 245
3 245 314 313
3 247 315 246
3 246 315 314
3 248 316 247
3 247 316 315
3 317 318 316
3 317 316 249
3 249 316 248
3 249 243 310
3 249 310 317
3 317 310 319
3 320 310 311
3 319 310 320
3 317 321 318
3 321 322 323
3 321 317 322
3 317 319 322
3 324 319 320
3 322 319 324
3 322 325 323
3 324 325 322
3 251 250 326
3 327 251 326
3 327 328 251
3 328 252 251
3 328 253 252
3 329 253 328
3 330 331 332
3 330 333 334
3 332 333 330
3 333 335 334
3 326 336 337
3 326 250 336
3 250 254 336
3 327 326 337
3 338 339 255
3 338 255 329
3 329 255 253
3 339 258 257
3 339 338 258
3 338 340 258
3 259 258 341
3 258 340 341
3 260 259 342
3 259 341 342
3 262 330 343
3 262 342 330
3 262 260 342
3 342 331 330
3 334 344 330
3 344 343 330
3 345 334 335
3 345 346 334
3 346 344 334
3 345 347 346
3 348 254 263
3 348 349 254
3 349 336 254
3 263 265 348
3 255 339 266
3 257 266 339
3 343 350 269
3 262 343 269
3 344 351 343
3 351 350 343
3 346 352 344
3 352 351 344
3 353 346 347
3 353 354 346
3 354 352 346
3 354 355 356
3 353 355 354
3 355 357 356
3 358 349 348
3 359 349 358
3 265 271 358
3 348 265 358
3 275 360 274
3 275 361 360
3 269 361 275
3 269 362 361
3 269 350 362
3 351 362 350
3 363 362 351
3 352 363 351
3 364 363 352
3 354 364 352
3 365 364 354
3 356 365 354
3 366 365 356
3 357 366 356
3 278 359 358
3 278 277 359
3 277 367 359
3 271 278 358
3 360 368 281
3 274 360 281
3 369 360 361
3 368 360 369
3 277 283 367
3 367 283 370
3 281 368 286
3 288 371 372
3 286 371 288
3 286 369 371
3 286 368 369
3 372 373 374
3 371 373 372
3 373 375 374
3 283 290 370
3 370 290 376
3 288 372 293
3 295 293 372
3 295 372 377
3 377 372 374
3 378 374 375
3 378 379 374
3 379 377 374
3 378 380 379
3 290 381 376
3 297 381 290
3 298 382 383
3 298 383 297
3 297 383 381
3 383 382 384
3 377 385 300
3 295 377 300
3 379 386 377
3 386 385 377
3 387 379 380
3 386 379 387
3 382 302 388
3 298 302 382
3 389 384 382
3 388 389 382
3 385 390 304
3 300 385 304
3 386 391 385
3 391 390 385
3 392 386 387
3 391 386 392
3 306 393 394
3 305 393 306
3 388 302 306
3 388 306 395
3 395 306 394
3 389 388 395
3 390 396 308
3 304 390 308
3 391 397 390
3 397 396 390
3 398 391 392
3 398 399 391
3 399 397 391
3 398 400 399
3 305 309 393
3 393 309 401
3 312 402 311
3 312 308 396
3 312 396 402
3 402 396 403
3 397 404 396
3 404 403 396
3 399 405 397
3 405 404 397
3 406 399 400
3 405 399 406
3 309 407 401
3 313 407 309
3 314 408 313
3 313 408 407
3 315 409 314
3 314 409 408
3 410 411 409
3 410 409 316
3 316 409 315
3 316 318 410
3 402 412 413
3 402 413 311
3 311 413 320
3 403 412 402
3 414 412 403
3 404 414 403
3 415 414 404
3 405 415 404
3 416 415 405
3 406 416 405
3 410 417 411
3 418 419 417
3 321 418 417
3 321 417 410
3 321 410 318
3 321 323 418
3 320 413 324
3 413 420 324
3 418 421 419
3 323 421 418
3 323 325 421
3 325 422 421
3 420 325 324
3 422 325 420
3 328 423 424
3 327 423 328
3 329 425 426
3 329 328 425
3 328 424 425
3 425 427 426
3 332 331 428
3 429 332 428
3 429 430 332
3 430 333 332
3 335 431 432
3 335 333 431
3 333 430 431
3 431 433 432
3 337 434 435
3 336 434 337
3 423 327 337
3 435 423 337
3 329 426 338
3 426 427 436
3 426 436 338
3 338 436 340
3 341 340 437
3 340 436 437
3 342 341 438
3 341 437 438
3 428 331 342
3 428 342 439
3 439 342 438
3 429 428 439
3 335 432 345
3 347 440 441
3 345 440 347
3 345 433 440
3 345 432 433
3 441 442 443
3 440 442 441
3 443 444 445
3 442 444 443
3 444 446 445
3 336 349 434
3 434 349 447
3 347 441 353
3 355 353 441
3 443 355 441
3 357 355 443
3 357 443 448
3 448 443 445
3 449 445 446
3 448 445 449
3 349 359 447
3 447 359 450
3 362 451 361
3 362 363 452
3 451 362 452
3 363 364 453
3 452 363 453
3 364 365 454
3 453 364 454
3 365 366 455
3 454 365 455
3 366 456 455
3 357 456 366
3 357 457 456
3 357 448 457
3 449 457 448
3 359 367 450
3 450 367 458
3 451 459 369
3 361 451 369
3 452 460 451
3 460 459 451
3 453 461 452
3 461 460 452
3 454 462 453
3 462 461 453
3 463 455 464
3 463 462 455
3 462 454 455
3 456 464 455
3 367 370 458
3 458 370 465
3 369 459 371
3 373 371 459
3 460 373 459
3 375 373 460
3 375 460 466
3 466 460 461
3 467 462 468
3 467 466 462
3 466 461 462
3 463 468 462
3 370 376 465
3 465 376 469
3 375 466 378
3 466 380 378
3 466 467 380
3 467 470 380
3 376 471 469
3 381 471 376
3 383 472 381
3 381 472 471
3 472 383 384
3 473 472 384
3 380 470 387
3 470 474 387
3 384 389 473
3 473 389 475
3 476 477 392
3 476 392 474
3 474 392 387
3 476 478 477
3 394 479 480
3 393 479 394
3 395 394 481
3 394 480 481
3 475 389 395
3 481 475 395
3 392 477 398
3 477 400 398
3 477 478 400
3 478 482 400
3 393 401 479
3 479 401 483
3 400 482 406
3 482 484 406
3 485 401 407
3 485 486 401
3 486 483 401
3 407 408 487
3 485 407 487
3 408 409 488
3 487 408 488
3 409 411 488
3 412 489 490
3 413 412 490
3 414 491 412
3 412 491 489
3 415 492 414
3 414 492 491
3 416 493 415
3 415 493 492
3 484 416 406
3 493 416 484
3 485 494 486
3 494 495 496
3 494 485 495
3 485 487 495
3 488 497 487
3 497 495 487
3 411 417 498
3 411 498 488
3 488 498 497
3 417 419 498
3 413 490 420
3 490 499 420
3 495 500 496
3 497 500 495
3 501 500 497
3 498 501 497
3 502 501 498
3 419 502 498
3 419 421 502
3 421 503 502
3 422 504 421
3 421 504 503
3 499 422 420
3 504 422 499
3 424 505 506
3 423 505 424
3 425 424 507
3 424 506 507
3 427 508 509
3 427 425 508
3 425 507 508
3 508 510 509
3 511 512 513
3 511 430 429
3 511 513 430
3 513 514 430
3 431 430 515
3 430 514 515
3 515 433 431
3 516 433 515
3 435 517 518
3 434 517 435
3 505 423 435
3 518 505 435
3 427 509 436
3 509 510 519
3 509 519 436
3 436 519 437
3 438 437 520
3 437 519 520
3 512 511 439
3 512 439 520
3 520 439 438
3 429 439 511
3 433 516 521
3 440 433 521
3 442 440 522
3 440 521 522
3 444 442 523
3 442 522 523
3 523 446 444
3 524 446 523
3 434 447 517
3 517 447 525
3 446 524 449
3 524 526 449
3 447 450 525
3 525 450 527
3 457 528 456
3 457 529 528
3 457 449 529
3 449 526 529
3 530 531 532
3 530 532 527
3 530 527 458
3 458 527 450
3 464 533 463
3 464 534 533
3 456 534 464
3 456 535 534
3 456 528 535
3 529 535 528
3 530 536 531
3 536 530 458
3 536 458 537
3 537 458 465
3 468 538 467
3 468 539 538
3 463 539 468
3 463 540 539
3 463 533 540
3 534 540 533
3 465 469 537
3 537 469 541
3 538 542 470
3 467 538 470
3 543 538 539
3 542 538 543
3 469 544 541
3 471 544 469
3 472 545 471
3 471 545 544
3 545 472 473
3 546 545 473
3 542 547 474
3 470 542 474
3 548 542 543
3 547 542 548
3 473 475 546
3 546 475 549
3 474 547 476
3 547 478 476
3 547 548 478
3 548 550 478
3 480 551 552
3 479 551 480
3 481 480 553
3 480 552 553
3 549 475 481
3 553 549 481
3 478 550 482
3 550 554 482
3 479 483 551
3 551 483 555
3 556 557 558
3 556 554 557
3 556 484 554
3 484 482 554
3 483 486 555
3 555 486 559
3 560 561 562
3 560 490 489
3 560 489 561
3 561 489 563
3 491 564 489
3 489 564 563
3 492 565 491
3 491 565 564
3 558 493 556
3 558 565 493
3 565 492 493
3 484 556 493
3 566 486 494
3 566 567 486
3 567 559 486
3 494 496 566
3 568 569 570
3 562 569 568
3 562 568 560
3 560 568 571
3 490 571 499
3 560 571 490
3 566 572 567
3 496 572 566
3 496 500 572
3 500 573 572
3 501 574 500
3 500 574 573
3 502 575 501
3 501 575 574
3 570 503 568
3 570 575 503
3 575 502 503
3 504 568 503
3 571 568 504
3 499 571 504
3 576 577 578
3 578 579 576
3 506 580 581
3 505 580 506
3 577 576 507
3 577 507 581
3 581 507 506
3 576 579 582
3 576 582 507
3 507 582 508
3 582 510 508
3 583 510 582
3 513 584 585
3 512 584 513
3 514 513 586
3 513 585 586
3 515 514 587
3 514 586 587
3 587 516 515
3 588 516 587
3 518 589 590
3 517 589 518
3 580 505 518
3 590 580 518
3 510 583 591
3 519 510 591
3 520 519 592
3 519 591 592
3 584 512 520
3 592 584 520
3 516 588 593
3 521 516 593
3 522 521 594
3 521 593 594
3 595 594 596
3 595 523 594
3 523 522 594
3 523 595 524
3 517 525 589
3 589 525 597
3 595 596 598
3 598 524 595
3 598 599 524
3 599 526 524
3 600 601 602
3 600 602 597
3 600 597 527
3 527 597 525
3 526 599 529
3 599 603 529
3 532 601 600
3 532 531 601
3 531 604 601
3 527 532 600
3 535 605 534
3 535 606 605
3 535 529 606
3 529 603 606
3 607 608 609
3 536 610 607
3 536 607 604
3 536 604 531
3 609 604 607
3 536 537 610
3 540 611 539
3 540 612 611
3 534 612 540
3 534 613 612
3 534 605 613
3 606 613 605
3 607 614 608
3 614 615 616
3 614 607 615
3 607 610 615
3 537 541 615
3 610 537 615
3 611 617 618
3 611 618 539
3 539 618 543
3 612 617 611
3 615 619 616
3 541 619 615
3 541 544 619
3 544 620 619
3 545 621 544
3 544 621 620
3 621 545 546
3 622 621 546
3 543 618 548
3 618 623 548
3 546 549 622
3 622 549 624
3 548 623 550
3 623 625 550
3 552 626 627
3 551 626 552
3 553 552 628
3 552 627 628
3 624 549 553
3 628 624 553
3 629 630 631
3 629 625 630
3 629 554 625
3 554 550 625
3 551 555 626
3 626 555 632
3 633 634 635
3 633 636 637
3 634 633 637
3 631 637 636
3 629 631 636
3 629 636 558
3 629 558 557
3 554 629 557
3 555 559 632
3 632 559 638
3 639 640 641
3 639 562 561
3 639 561 640
3 640 561 642
3 563 643 561
3 561 643 642
3 635 564 633
3 635 643 564
3 643 563 564
3 565 633 564
3 636 633 565
3 558 636 565
3 559 567 638
3 638 567 644
3 645 646 647
3 641 646 645
3 639 641 645
3 639 645 570
3 639 570 569
3 562 639 569
3 567 648 644
3 572 648 567
3 573 649 572
3 572 649 648
3 574 650 573
3 573 650 649
3 647 575 645
3 647 650 575
3 650 574 575
3 570 645 575
3 578 651 652
3 577 651 578
3 652 579 578
3 653 579 652
3 581 654 655
3 580 654 581
3 651 577 581
3 655 651 581
3 579 653 656
3 582 579 656
3 583 657 658
3 583 582 657
3 582 656 657
3 658 659 660
3 657 659 658
3 660 585 584
3 660 659 585
3 659 661 585
3 586 585 662
3 585 661 662
3 663 662 664
3 663 587 662
3 587 586 662
3 587 663 588
3 590 665 666
3 589 665 590
3 654 580 590
3 666 654 590
3 583 658 591
3 592 591 658
3 660 592 658
3 584 592 660
3 663 664 667
3 588 663 667
3 588 667 593
3 593 667 668
3 669 668 670
3 669 594 668
3 594 593 668
3 594 669 596
3 671 672 673
3 671 673 665
3 671 665 597
3 597 665 589
3 669 670 674
3 596 669 674
3 596 674 598
3 598 674 675
3 675 599 598
3 676 599 675
3 602 672 671
3 602 601 672
3 601 677 672
3 597 602 671
3 599 676 603
3 676 678 603
3 679 680 681
3 679 681 677
3 679 677 604
3 604 677 601
3 682 683 684
3 682 678 683
3 682 606 678
3 606 603 678
3 609 680 679
3 609 608 680
3 608 685 680
3 604 609 679
3 613 682 684
3 613 684 612
3 612 684 686
3 606 682 613
3 687 608 614
3 687 688 608
3 688 685 608
3 614 616 687
3 617 689 690
3 618 617 690
3 686 617 612
3 689 617 686
3 687 691 688
3 616 691 687
3 616 619 691
3 619 692 691
3 620 693 619
3 619 693 692
3 621 694 620
3 620 694 693
3 694 621 622
3 695 694 622
3 618 690 623
3 690 696 623
3 622 624 695
3 695 624 697
3 623 696 625
3 696 698 625
3 627 626 699
3 700 627 699
3 700 701 627
3 701 628 627
3 697 624 628
3 701 697 628
3 630 702 631
3 630 703 702
3 630 625 703
3 625 698 703
3 699 704 705
3 699 626 704
3 626 632 704
3 700 699 705
3 634 706 635
3 707 706 634
3 707 634 708
3 708 634 637
3 702 637 631
3 702 709 637
3 709 708 637
3 703 709 702
3 632 638 704
3 704 638 710
3 640 711 712
3 641 640 712
3 642 713 640
3 640 713 711
3 643 714 642
3 642 714 713
3 706 643 635
3 706 715 643
3 715 714 643
3 707 715 706
3 716 644 717
3 716 710 644
3 710 638 644
3 716 717 718
3 719 720 721
3 719 647 646
3 719 646 720
3 720 646 722
3 712 646 641
3 722 646 712
3 644 648 717
3 717 723 718
3 717 648 723
3 648 649 723
3 721 650 719
3 721 723 650
3 723 649 650
3 647 719 650
3 652 651 724
3 652 724 653
3 655 725 726
3 654 725 655
3 724 651 655
3 724 655 727
3 727 655 726
3 653 724 727
3 653 727 656
3 656 727 728
3 657 656 729
3 656 728 729
3 659 657 730
3 657 729 730
3 731 730 732
3 731 661 730
3 661 659 730
3 661 733 662
3 731 733 661
3 662 733 664
3 666 734 735
3 665 734 666
3 725 654 666
3 735 725 666
3 731 732 736
3 733 731 736
3 737 733 736
3 664 733 737
3 664 737 667
3 667 737 738
3 739 738 740
3 739 668 738
3 668 667 738
3 668 739 670
3 673 741 742
3 672 741 673
3 734 665 673
3 742 734 673
3 739 740 743
3 744 743 745
3 674 743 744
3 674 739 743
3 674 670 739
3 674 746 675
3 744 746 674
3 675 746 676
3 747 748 749
3 747 749 741
3 747 741 677
3 677 741 672
3 744 745 750
3 750 751 752
3 750 752 744
3 744 752 746
3 676 752 678
3 746 752 676
3 753 754 755
3 748 753 755
3 747 753 748
3 747 680 753
3 747 681 680
3 677 681 747
3 683 752 751
3 683 751 684
3 684 751 756
3 678 752 683
3 757 758 759
3 754 757 759
3 754 753 757
3 753 760 757
3 680 685 760
3 753 680 760
3 761 762 763
3 761 756 762
3 761 686 756
3 686 684 756
3 757 764 758
3 764 765 766
3 764 757 765
3 757 760 765
3 685 688 765
3 760 685 765
3 767 768 769
3 763 768 767
3 761 763 767
3 761 767 690
3 761 690 689
3 686 761 689
3 765 770 766
3 688 770 765
3 688 691 770
3 691 771 770
3 692 772 691
3 691 772 771
3 693 773 692
3 692 773 772
3 694 774 693
3 693 774 773
3 774 694 695
3 775 774 695
3 776 767 769
3 777 776 769
3 690 776 696
3 767 776 690
3 695 697 775
3 775 697 778
3 776 777 779
3 779 696 776
3 779 780 696
3 780 698 696
3 701 700 781
3 701 781 782
3 701 782 697
3 697 782 778
3 698 780 703
3 780 783 703
3 705 704 784
3 705 781 700
3 705 784 781
3 784 785 781
3 786 782 781
3 785 786 781
3 708 787 707
3 788 787 708
3 788 708 789
3 789 708 709
3 783 709 703
3 789 709 783
3 784 710 790
3 704 710 784
3 785 784 791
3 791 784 790
3 792 786 785
3 791 792 785
3 711 793 794
3 712 711 794
3 713 795 711
3 711 795 793
3 714 796 713
3 713 796 795
3 715 797 714
3 714 797 796
3 787 715 707
3 787 798 715
3 798 797 715
3 788 798 787
3 710 716 790
3 718 790 716
3 718 799 790
3 799 791 790
3 721 720 800
3 721 800 791
3 721 791 799
3 792 791 800
3 722 801 720
3 720 801 800
3 794 722 712
3 801 722 794
3 718 723 799
3 721 799 723
3 726 802 803
3 725 802 726
3 727 726 804
3 726 803 804
3 728 727 805
3 727 804 805
3 729 728 806
3 728 805 806
3 807 806 808
3 807 730 806
3 730 729 806
3 730 807 732
3 735 809 810
3 734 809 735
3 802 725 735
3 810 802 735
3 807 808 811
3 732 807 811
3 732 811 736
3 736 811 812
3 737 736 813
3 736 812 813
3 738 737 814
3 737 813 814
3 814 740 738
3 815 740 814
3 742 816 817
3 741 816 742
3 809 734 742
3 817 809 742
3 818 743 740
3 818 740 819
3 819 740 815
3 743 818 745
3 749 820 821
3 748 820 749
3 816 741 749
3 821 816 749
3 818 819 822
3 823 822 824
3 750 822 823
3 750 818 822
3 750 745 818
3 750 823 751
3 755 825 826
3 754 825 755
3 820 748 755
3 826 820 755
3 827 828 829
3 824 828 827
3 824 827 823
3 823 827 830
3 751 830 756
3 823 830 751
3 759 831 832
3 758 831 759
3 825 754 759
3 832 825 759
3 833 827 829
3 834 833 829
3 762 833 763
3 762 830 833
3 830 827 833
3 756 830 762
3 758 835 831
3 764 835 758
3 835 764 766
3 836 835 766
3 768 833 834
3 768 834 769
3 769 834 837
3 763 833 768
3 766 838 836
3 770 838 766
3 771 839 770
3 770 839 838
3 772 840 771
3 771 840 839
3 773 841 772
3 772 841 840
3 842 843 841
3 842 841 774
3 774 841 773
3 774 775 842
3 769 837 777
3 837 844 777
3 842 845 843
3 845 842 775
3 845 775 846
3 846 775 778
3 777 844 847
3 779 777 847
3 847 780 779
3 848 780 847
3 778 782 846
3 846 782 849
3 850 851 783
3 850 783 848
3 848 783 780
3 850 852 851
3 782 786 849
3 849 786 853
3 789 854 788
3 789 783 851
3 789 851 854
3 854 851 855
3 856 851 852
3 855 851 856
3 786 792 853
3 853 792 857
3 793 858 794
3 859 858 793
3 859 793 860
3 860 793 795
3 796 861 795
3 795 861 860
3 797 862 796
3 796 862 861
3 798 863 797
3 797 863 862
3 854 798 788
3 854 864 798
3 864 863 798
3 855 864 854
3 865 864 855
3 856 865 855
3 792 866 857
3 800 866 792
3 801 867 800
3 800 867 866
3 858 801 794
3 858 868 801
3 868 867 801
3 859 868 858
3 803 802 869
3 870 803 869
3 870 871 803
3 871 804 803
3 805 804 872
3 804 871 872
3 873 872 874
3 873 806 872
3 806 805 872
3 806 873 808
3 810 875 876
3 809 875 810
3 869 802 810
3 869 810 877
3 877 810 876
3 870 869 877
3 873 874 878
3 879 878 880
3 811 878 879
3 811 873 878
3 811 808 873
3 811 881 812
3 879 881 811
3 812 882 813
3 881 882 812
3 813 883 814
3 882 883 813
3 814 883 815
3 884 885 886
3 884 817 816
3 884 886 817
3 886 887 817
3 875 809 817
3 887 875 817
3 879 880 888
3 881 879 888
3 889 881 888
3 882 881 889
3 890 882 889
3 883 882 890
3 891 883 890
3 891 815 883
3 891 892 815
3 892 819 815
3 821 885 884
3 821 820 885
3 820 893 885
3 816 821 884
3 894 822 819
3 894 819 895
3 895 819 892
3 822 894 824
3 826 825 896
3 826 896 897
3 826 897 820
3 820 897 893
3 828 894 895
3 828 895 829
3 829 895 898
3 824 894 828
3 832 831 899
3 832 896 825
3 832 899 896
3 899 900 896
3 901 897 896
3 900 901 896
3 829 898 834
3 898 902 834
3 831 835 899
3 836 899 835
3 836 903 899
3 903 900 899
3 904 901 900
3 903 904 900
3 834 902 837
3 902 905 837
3 836 838 903
3 903 838 839
3 903 839 906
3 903 906 904
3 906 839 907
3 839 840 908
3 907 839 908
3 840 841 909
3 908 840 909
3 841 843 909
3 910 911 844
3 910 844 905
3 905 844 837
3 910 912 911
3 907 913 906
3 913 914 915
3 913 907 914
3 907 908 914
3 909 916 908
3 916 914 908
3 843 845 917
3 843 917 909
3 909 917 916
3 845 846 917
3 844 911 847
3 911 848 847
3 911 912 848
3 912 918 848
3 914 919 915
3 916 919 914
3 920 919 916
3 917 920 916
3 921 920 917
3 921 917 846
3 921 846 922
3 922 846 849
3 848 918 923
3 850 848 923
3 923 852 850
3 924 852 923
3 849 853 922
3 922 853 925
3 852 924 856
3 924 926 856
3 853 857 925
3 925 857 927
3 860 928 929
3 859 860 929
3 861 930 860
3 860 930 928
3 862 931 861
3 861 931 930
3 863 932 862
3 862 932 931
3 864 933 863
3 863 933 932
3 865 934 864
3 864 934 933
3 926 865 856
3 934 865 926
3 857 935 927
3 866 935 857
3 867 936 866
3 866 936 935
3 868 937 867
3 867 937 936
3 929 868 859
3 937 868 929
3 871 938 939
3 870 938 871
3 872 871 940
3 871 939 940
3 940 874 872
3 941 874 940
3 876 942 943
3 875 942 876
3 877 876 944
3 876 943 944
3 938 870 877
3 944 938 877
3 945 878 874
3 945 874 946
3 946 874 941
3 878 945 880
3 886 885 947
3 948 886 947
3 948 949 886
3 949 887 886
3 942 875 887
3 949 942 887
3 945 946 950
3 880 945 950
3 880 950 888
3 888 950 951
3 889 888 952
3 888 951 952
3 890 889 953
3 889 952 953
3 891 890 954
3 890 953 954
3 954 892 891
3 955 892 954
3 947 956 957
3 947 885 956
3 885 893 956
3 948 947 957
3 892 955 895
3 955 958 895
3 893 897 956
3 956 897 959
3 895 958 898
3 958 960 898
3 897 901 959
3 959 901 961
3 898 960 902
3 960 962 902
3 901 904 961
3 961 904 963
3 902 962 905
3 962 964 905
3 904 906 963
3 963 906 965
3 905 964 966
3 910 905 966
3 966 912 910
3 967 912 966
3 906 968 965
3 913 968 906
3 968 913 915
3 969 968 915
3 912 967 918
3 967 970 918
3 915 971 969
3 919 971 915
3 920 972 919
3 919 972 971
3 921 973 920
3 920 973 972
3 973 921 922
3 974 973 922
3 918 970 975
3 923 918 975
3 975 924 923
3 976 924 975
3 922 925 974
3 974 925 977
3 978 979 980
3 978 981 982
3 979 978 982
3 982 981 983
3 924 976 926
3 976 984 926
3 925 927 977
3 977 927 985
3 986 987 988
3 980 987 986
3 980 986 978
3 978 986 989
3 928 989 929
3 928 981 989
3 981 978 989
3 981 990 983
3 981 928 990
3 928 930 990
3 931 991 930
3 930 991 990
3 932 992 931
3 931 992 991
3 933 993 932
3 932 993 992
3 934 994 933
3 933 994 993
3 984 934 926
3 994 934 984
3 927 995 985
3 935 995 927
3 988 936 986
3 988 995 936
3 995 935 936
3 937 986 936
3 989 986 937
3 929 989 937
3 939 996 997
3 938 996 939
3 940 939 998
3 939 997 998
3 998 941 940
3 999 941 998
3 943 1000 1001
3 942 1000 943
3 944 943 1002
3 943 1001 1002
3 996 938 944
3 1002 996 944
3 941 999 946
3 999 1003 946
3 949 948 1004
3 949 1004 1005
3 949 1005 942
3 942 1005 1000
3 946 1003 1006
3 950 946 1006
3 951 950 1007
3 950 1006 1007
3 1008 1007 1009
3 1008 952 1007
3 952 951 1007
3 952 1010 953
3 1008 1010 952
3 953 1011 954
3 1010 1011 953
3 954 1011 955
3 957 956 1012
3 957 1004 948
3 957 1012 1004
3 1012 1013 1004
3 1014 1005 1004
3 1013 1014 1004
3 1008 1009 1015
3 1010 1008 1015
3 1016 1010 1015
3 1011 1010 1016
3 1017 1011 1016
3 1017 955 1011
3 1017 1018 955
3 1018 958 955
3 1012 959 1019
3 956 959 1012
3 1013 1012 1020
3 1020 1012 1019
3 1021 1014 1013
3 1020 1021 1013
3 1022 1023 960
3 1022 960 1018
3 1018 960 958
3 1022 1024 1023
3 1019 961 1025
3 959 961 1019
3 1020 1019 1026
3 1026 1019 1025
3 1027 1021 1020
3 1026 1027 1020
3 1023 1028 962
3 960 1023 962
3 1029 1023 1024
3 1028 1023 1029
3 1025 963 1030
3 961 963 1025
3 1026 1025 1031
3 1031 1025 1030
3 1032 1027 1026
3 1031 1032 1026
3 1028 1033 964
3 962 1028 964
3 1034 1028 1029
3 1033 1028 1034
3 1030 965 1035
3 963 965 1030
3 1031 1030 1036
3 1036 1030 1035
3 1037 1032 1031
3 1036 1037 1031
3 964 1033 966
3 1033 967 966
3 1033 1034 967
3 1034 1038 967
3 965 968 1035
3 969 1035 968
3 969 1039 1035
3 1039 1036 1035
3 1040 1037 1036
3 1039 1040 1036
3 967 1038 970
3 1038 1041 970
3 969 971 1039
3 1039 1042 1040
3 1039 971 1042
3 971 972 1042
3 973 1043 972
3 972 1043 1042
3 1043 973 974
3 1044 1043 974
3 1045 975 970
3 1045 970 1046
3 1046 970 1041
3 975 1045 976
3 974 977 1044
3 1044 977 1047
3 1048 1049 1050
3 1048 980 979
3 1048 979 1049
3 1049 979 1051
3 982 1052 979
3 979 1052 1051
3 983 1053 1054
3 983 1054 982
3 982 1054 1052
3 1053 1055 1056
3 1054 1053 1056
3 1055 1057 1058
3 1056 1055 1058
3 1057 1059 1060
3 1058 1057 1060
3 1046 1060 1059
3 1046 1059 1045
3 1045 1059 1061
3 976 1061 984
3 1045 1061 976
3 1062 985 1063
3 1062 1047 985
3 1047 977 985
3 1050 1062 1063
3 1048 1050 1063
3 1048 1063 988
3 1048 988 987
3 980 1048 987
3 983 990 1053
3 991 1053 990
3 1055 1053 991
3 992 1055 991
3 1057 1055 992
3 993 1057 992
3 1059 1057 993
3 994 1059 993
3 1061 1059 994
3 984 1061 994
3 985 995 1063
3 988 1063 995
3 997 996 1064
3 997 1065 998
3 1064 1065 997
3 998 1065 999
3 1001 1000 1066
3 1067 1001 1066
3 1067 1068 1001
3 1068 1002 1001
3 1064 996 1002
3 1064 1002 1069
3 1069 1002 1068
3 1065 1064 1069
3 1070 1065 1069
3 1065 1003 999
3 1065 1071 1003
3 1065 1070 1071
3 1072 1003 1071
3 1071 1073 1072
3 1066 1074 1075
3 1066 1000 1074
3 1000 1005 1074
3 1067 1066 1075
3 1003 1072 1006
3 1072 1073 1076
3 1072 1076 1006
3 1006 1076 1007
3 1076 1009 1007
3 1077 1009 1076
3 1005 1014 1074
3 1074 1014 1078
3 1009 1077 1079
3 1015 1009 1079
3 1016 1015 1080
3 1015 1079 1080
3 1017 1016 1081
3 1016 1080 1081
3 1081 1018 1017
3 1082 1018 1081
3 1014 1021 1078
3 1078 1021 1083
3 1018 1082 1084
3 1022 1018 1084
3 1084 1024 1022
3 1085 1024 1084
3 1021 1027 1083
3 1083 1027 1086
3 1024 1085 1029
3 1085 1087 1029
3 1027 1032 1086
3 1086 1032 1088
3 1029 1087 1034
3 1087 1089 1034
3 1032 1037 1088
3 1088 1037 1090
3 1034 1089 1038
3 1089 1091 1038
3 1037 1040 1090
3 1090 1040 1092
3 1038 1091 1041
3 1091 1093 1041
3 1040 1094 1092
3 1042 1094 1040
3 1043 1095 1042
3 1042 1095 1094
3 1095 1043 1044
3 1096 1095 1044
3 1097 1098 1099
3 1097 1100 1101
3 1098 1097 1101
3 1100 1102 1103
3 1101 1100 1103
3 1103 1102 1104
3 1105 1106 1107
3 1105 1093 1106
3 1105 1046 1093
3 1046 1041 1093
3 1044 1047 1096
3 1096 1047 1108
3 1049 1109 1110
3 1050 1049 1110
3 1099 1051 1097
3 1099 1109 1051
3 1109 1049 1051
3 1052 1097 1051
3 1100 1097 1052
3 1054 1100 1052
3 1102 1100 1054
3 1102 1111 1104
3 1102 1054 1111
3 1054 1056 1111
3 1058 1112 1056
3 1056 1112 1111
3 1107 1060 1105
3 1107 1112 1060
3 1112 1058 1060
3 1046 1105 1060
3 1047 1113 1108
3 1062 1113 1047
3 1110 1062 1050
3 1113 1062 1110
3 1068 1067 1114
3 1115 1068 1114
3 1115 1116 1068
3 1116 1069 1068
3 1070 1069 1117
3 1069 1116 1117
3 1071 1070 1118
3 1070 1117 1118
3 1118 1073 1071
3 1119 1073 1118
3 1075 1074 1120
3 1075 1114 1067
3 1075 1120 1114
3 1120 1121 1114
3 1122 1115 1114
3 1121 1122 1114
3 1123 1076 1073
3 1123 1073 1124
3 1124 1073 1119
3 1076 1123 1077
3 1120 1078 1125
3 1074 1078 1120
3 1121 1120 1126
3 1126 1120 1125
3 1127 1122 1121
3 1126 1127 1121
3 1123 1124 1128
3 1129 1128 1130
3 1079 1128 1129
3 1079 1123 1128
3 1079 1077 1123
3 1079 1131 1080
3 1129 1131 1079
3 1080 1132 1081
3 1131 1132 1080
3 1081 1132 1082
3 1125 1083 1133
3 1078 1083 1125
3 1126 1125 1134
3 1134 1125 1133
3 1135 1127 1126
3 1134 1135 1126
3 1129 1130 1136
3 1131 1129 1136
3 1137 1131 1136
3 1132 1131 1137
3 1138 1132 1137
3 1082 1132 1138
3 1082 1138 1084
3 1084 1138 1139
3 1139 1085 1084
3 1140 1085 1139
3 1133 1086 1141
3 1083 1086 1133
3 1134 1133 1142
3 1142 1133 1141
3 1143 1135 1134
3 1142 1143 1134
3 1085 1140 1087
3 1140 1144 1087
3 1141 1088 1145
3 1086 1088 1141
3 1146 1147 1142
3 1146 1142 1145
3 1145 1142 1141
3 1143 1142 1147
3 1087 1144 1089
3 1144 1148 1089
3 1145 1149 1150
3 1145 1088 1149
3 1088 1090 1149
3 1146 1145 1150
3 1089 1148 1091
3 1148 1151 1091
3 1090 1092 1149
3 1149 1092 1152
3 1153 1154 1155
3 1153 1151 1154
3 1153 1093 1151
3 1093 1091 1151
3 1092 1156 1152
3 1094 1156 1092
3 1095 1157 1094
3 1094 1157 1156
3 1157 1095 1096
3 1158 1157 1096
3 1098 1159 1160
3 1099 1098 1160
3 1101 1161 1098
3 1098 1161 1159
3 1103 1162 1101
3 1101 1162 1161
3 1104 1163 1164
3 1104 1164 1103
3 1103 1164 1162
3 1163 1165 1166
3 1164 1163 1166
3 1155 1166 1165
3 1153 1155 1165
3 1153 1165 1107
3 1153 1107 1106
3 1093 1153 1106
3 1096 1108 1158
3 1158 1108 1167
3 1109 1168 1169
3 1110 1109 1169
3 1160 1109 1099
3 1168 1109 1160
3 1104 1111 1163
3 1112 1163 1111
3 1165 1163 1112
3 1107 1165 1112
3 1108 1170 1167
3 1113 1170 1108
3 1169 1113 1110
3 1170 1113 1169
3 1116 1115 1171
3 1172 1116 1171
3 1172 1173 1116
3 1173 1117 1116
3 1174 1173 1175
3 1174 1118 1173
3 1118 1117 1173
3 1118 1174 1119
3 1171 1176 1177
3 1171 1115 1176
3 1115 1122 1176
3 1172 1171 1177
3 1174 1175 1178
3 1178 1119 1174
3 1178 1179 1119
3 1179 1124 1119
3 1122 1127 1176
3 1176 1127 1180
3 1124 1179 1181
3 1128 1124 1181
3 1181 1130 1128
3 1182 1130 1181
3 1127 1135 1180
3 1180 1135 1183
3 1130 1182 1184
3 1136 1130 1184
3 1185 1184 1186
3 1185 1137 1184
3 1137 1136 1184
3 1187 1137 1185
3 1187 1188 1137
3 1188 1138 1137
3 1189 1188 1190
3 1189 1139 1188
3 1139 1138 1188
3 1139 1189 1140
3 1135 1143 1183
3 1183 1143 1191
3 1185 1186 1192
3 1187 1185 1192
3 1189 1190 1193
3 1193 1140 1189
3 1193 1194 1140
3 1194 1144 1140
3 1147 1146 1195
3 1147 1195 1196
3 1147 1196 1143
3 1143 1196 1191
3 1144 1194 1148
3 1194 1197 1148
3 1150 1149 1198
3 1150 1198 1199
3 1146 1150 1199
3 1146 1199 1200
3 1146 1200 1195
3 1196 1195 1200
3 1148 1197 1151
3 1197 1201 1151
3 1198 1152 1202
3 1149 1152 1198
3 1203 1199 1198
3 1202 1203 1198
3 1204 1205 1206
3 1204 1207 1208
3 1205 1204 1208
3 1207 1209 1210
3 1208 1207 1210
3 1209 1211 1212
3 1210 1209 1212
3 1211 1155 1154
3 1211 1154 1212
3 1212 1154 1213
3 1201 1154 1151
3 1213 1154 1201
3 1152 1156 1202
3 1202 1214 1203
3 1202 1156 1214
3 1156 1157 1214
3 1214 1157 1158
3 1215 1214 1158
3 1159 1216 1217
3 1160 1159 1217
3 1206 1161 1204
3 1206 1216 1161
3 1216 1159 1161
3 1162 1204 1161
3 1207 1204 1162
3 1164 1207 1162
3 1209 1207 1164
3 1166 1209 1164
3 1211 1209 1166
3 1155 1211 1166
3 1218 1167 1219
3 1218 1215 1167
3 1215 1158 1167
3 1219 1169 1168
3 1219 1168 1218
3 1218 1168 1220
3 1217 1168 1160
3 1220 1168 1217
3 1167 1170 1219
3 1169 1219 1170
3 1173 1172 1221
3 1173 1221 1175
3 1177 1176 1222
3 1177 1221 1172
3 1177 1222 1221
3 1222 1223 1221
3 1175 1224 1178
3 1175 1221 1224
3 1221 1223 1224
3 1178 1224 1179
3 1222 1180 1225
3 1176 1180 1222
3 1223 1222 1226
3 1226 1222 1225
3 1227 1228 1224
3 1227 1224 1226
3 1226 1224 1223
3 1179 1224 1228
3 1179 1228 1181
3 1181 1228 1229
3 1182 1230 1231
3 1182 1181 1230
3 1181 1229 1230
3 1230 1232 1231
3 1225 1183 1233
3 1180 1183 1225
3 1226 1225 1234
3 1234 1225 1233
3 1235 1227 1226
3 1234 1235 1226
3 1182 1231 1184
3 1186 1236 1237
3 1184 1236 1186
3 1184 1232 1236
3 1184 1231 1232
3 1236 1187 1237
3 1236 1188 1187
3 1236 1238 1239
3 1188 1236 1239
3 1188 1239 1190
3 1233 1191 1240
3 1183 1191 1233
3 1234 1233 1241
3 1241 1233 1240
3 1242 1235 1234
3 1241 1242 1234
3 1186 1237 1192
3 1238 1243 1239
3 1192 1237 1187
3 1244 1243 1245
3 1193 1243 1244
3 1193 1239 1243
3 1193 1190 1239
3 1193 1244 1194
3 1240 1196 1246
3 1191 1196 1240
3 1241 1240 1247
3 1247 1240 1246
3 1248 1242 1241
3 1247 1248 1241
3 1249 1244 1245
3 1250 1249 1245
3 1194 1249 1197
3 1244 1249 1194
3 1200 1199 1251
3 1200 1246 1196
3 1200 1251 1246
3 1251 1252 1246
3 1247 1246 1253
3 1253 1246 1252
3 1254 1248 1247
3 1253 1254 1247
3 1255 1256 1257
3 1255 1258 1259
3 1256 1255 1259
3 1258 1260 1261
3 1259 1258 1261
3 1250 1261 1260
3 1250 1260 1249
3 1249 1260 1262
3 1197 1262 1201
3 1249 1262 1197
3 1251 1203 1263
3 1199 1203 1251
3 1252 1251 1264
3 1264 1251 1263
3 1253 1252 1265
3 1265 1252 1264
3 1266 1254 1253
3 1266 1253 1267
3 1267 1253 1265
3 1267 1206 1205
3 1267 1205 1266
3 1266 1205 1268
3 1257 1208 1255
3 1257 1268 1208
3 1268 1205 1208
3 1210 1255 1208
3 1258 1255 1210
3 1212 1258 1210
3 1260 1258 1212
3 1213 1260 1212
3 1262 1260 1213
3 1201 1262 1213
3 1203 1214 1263
3 1215 1263 1214
3 1215 1269 1263
3 1269 1264 1263
3 1265 1264 1270
3 1270 1264 1269
3 1216 1270 1217
3 1216 1267 1270
3 1267 1265 1270
3 1206 1267 1216
3 1215 1218 1269
3 1220 1269 1218
3 1270 1269 1220
3 1217 1270 1220
3 1228 1271 1272
3 1227 1271 1228
3 1229 1228 1273
3 1228 1272 1273
3 1230 1229 1274
3 1229 1273 1274
3 1274 1232 1230
3 1275 1232 1274
3 1227 1235 1271
3 1271 1235 1276
3 1232 1275 1277
3 1236 1232 1277
3 1277 1238 1236
3 1278 1238 1277
3 1235 1242 1276
3 1276 1242 1279
3 1280 1281 1282
3 1243 1280 1283
3 1243 1278 1280
3 1243 1238 1278
3 1281 1280 1278
3 1243 1283 1245
3 1242 1248 1279
3 1279 1248 1284
3 1285 1286 1287
3 1282 1286 1285
3 1282 1285 1280
3 1280 1285 1288
3 1283 1280 1289
3 1289 1280 1288
3 1245 1289 1250
3 1283 1289 1245
3 1248 1254 1284
3 1284 1254 1290
3 1291 1292 1293
3 1287 1292 1291
3 1285 1287 1291
3 1285 1291 1257
3 1285 1257 1256
3 1259 1285 1256
3 1288 1285 1259
3 1261 1288 1259
3 1289 1288 1261
3 1250 1289 1261
3 1254 1294 1290
3 1266 1294 1254
3 1293 1268 1291
3 1293 1294 1268
3 1294 1266 1268
3 1257 1291 1268
3 1272 1271 1295
3 1272 1296 1273
3 1295 1296 1272
3 1273 1297 1274
3 1296 1297 1273
3 1274 1297 1275
3 1295 1276 1298
3 1271 1276 1295
3 1299 1300 1296
3 1299 1296 1298
3 1298 1296 1295
3 1297 1296 1300
3 1301 1297 1300
3 1302 1301 1303
3 1277 1301 1302
3 1277 1297 1301
3 1277 1275 1297
3 1277 1302 1278
3 1298 1279 1304
3 1276 1279 1298
3 1305 1299 1298
3 1305 1298 1306
3 1306 1298 1304
3 1306 1307 1308
3 1305 1306 1308
3 1303 1308 1307
3 1302 1303 1307
3 1302 1307 1282
3 1302 1282 1281
3 1278 1302 1281
3 1304 1284 1309
3 1279 1284 1304
3 1306 1304 1310
3 1310 1304 1309
3 1286 1310 1287
3 1286 1307 1310
3 1307 1306 1310
3 1282 1307 1286
3 1309 1290 1311
3 1284 1290 1309
3 1292 1311 1293
3 1292 1310 1311
3 1310 1309 1311
3 1287 1310 1292
3 1290 1294 1311
3 1293 1311 1294
3 1300 1299 1312
3 1300 1313 1301
3 1312 1313 1300
3 1301 1313 1303
3 1299 1305 1312
3 1308 1312 1305
3 1313 1312 1308
3 1303 1313 1308
