ply
format ascii 1.0
element vertex 1136
property float x
property float y
property float z
property uchar red
property uchar green
property uchar blue
element face 2272
property list uchar int vertex_indices
end_header
0.6785 0.0900 0.2700 148 102 189
0.6800 0.0900 0.2679 148 102 189
0.6800 0.0888 0.2700 148 102 189
0.6800 0.0860 0.2900 148 102 189
0.6762 0.0900 0.2900 148 102 189
0.6800 0.0900 0.3023 148 102 189
0.6696 0.1100 0.2700 148 102 189
0.6800 0.1100 0.2505 148 102 189
0.6704 0.1100 0.2900 148 102 189
0.6800 0.0988 0.3100 148 102 189
0.6770 0.1100 0.3100 148 102 189
0.6800 0.1100 0.3131 148 102 189
0.6800 0.1211 0.2700 148 102 189
0.6748 0.1300 0.2900 148 102 189
0.6800 0.1300 0.2809 148 102 189
0.6776 0.1300 0.3100 148 102 189
0.6800 0.1300 0.3126 148 102 189
0.6777 0.1500 0.1300 148 102 189
0.6800 0.1500 0.1210 148 102 189
0.6800 0.1450 0.1300 148 102 189
0.6800 0.1500 0.1338 148 102 189
0.6800 0.1412 0.2900 148 102 189
0.6800 0.1369 0.3100 148 102 189
0.6752 0.1700 0.1300 148 102 189
0.6800 0.1700 0.1138 148 102 189
0.6800 0.1700 0.1463 148 102 189
0.6782 0.1900 0.1300 148 102 189
0.6800 0.1900 0.1270 148 102 189
0.6800 0.1742 0.1500 148 102 189
0.6757 0.1900 0.1500 148 102 189
0.6800 0.1827 0.1700 148 102 189
0.6782 0.1900 0.1700 148 102 189
0.6800 0.1900 0.1752 148 102 189
0.6800 0.1936 0.1300 148 102 189
0.6800 0.2080 0.1500 148 102 189
0.6800 0.1930 0.1700 148 102 189
0.7000 0.0900 0.2546 148 102 189
0.7000 0.0797 0.2700 148 102 189
0.7000 0.0743 0.2900 148 102 189
0.7000 0.0737 0.3100 148 102 189
0.6834 0.0900 0.3100 148 102 189
0.7000 0.0900 0.3237 148 102 189
0.6807 0.1100 0.2500 148 102 189
0.7000 0.1100 0.2435 148 102 189
0.7000 0.0976 0.2500 148 102 189
0.7000 0.1100 0.3258 148 102 189
0.6925 0.1300 0.1300 148 102 189
0.7000 0.1300 0.1234 148 102 189
0.7000 0.1237 0.1300 148 102 189
0.7000 0.1300 0.1374 148 102 189
0.6924 0.1300 0.2300 148 102 189
0.7000 0.1300 0.2275 148 102 189
0.7000 0.1276 0.2300 148 102 189
0.6991 0.1300 0.2500 148 102 189
0.6924 0.1300 0.2700 148 102 189
0.7000 0.1300 0.3254 148 102 189
0.6869 0.1500 0.1100 148 102 189
0.7000 0.1500 0.1051 148 102 189
0.7000 0.1423 0.1100 148 102 189
0.7000 0.1422 0.1500 148 102 189
0.6937 0.1500 0.1500 148 102 189
0.7000 0.1500 0.1565 148 102 189
0.6934 0.1500 0.2100 148 102 189
0.7000 0.1500 0.2046 148 102 189
0.7000 0.1460 0.2100 148 102 189
0.6860 0.1500 0.2300 148 102 189
0.7000 0.1500 0.2400 148 102 189
0.7000 0.1313 0.2500 148 102 189
0.7000 0.1390 0.2700 148 102 189
0.6867 0.1500 0.2900 148 102 189
0.7000 0.1500 0.2775 148 102 189
0.6877 0.1500 0.3100 148 102 189
0.7000 0.1500 0.3189 148 102 189
0.6823 0.1700 0.1100 148 102 189
0.7000 0.1700 0.1021 148 102 189
0.6816 0.1700 0.1500 148 102 189
0.7000 0.1618 0.1700 148 102 189
0.6861 0.1700 0.1700 148 102 189
0.7000 0.1607 0.1900 148 102 189
0.6877 0.1700 0.1900 148 102 189
0.7000 0.1677 0.2100 148 102 189
0.7000 0.1700 0.2089 148 102 189
0.7000 0.1591 0.2300 148 102 189
0.7000 0.1608 0.2900 148 102 189
0.7000 0.1588 0.3100 148 102 189
0.6969 0.1900 0.1100 148 102 189
0.7000 0.1900 0.1081 148 102 189
0.6889 0.1900 0.1900 148 102 189
0.7000 0.1900 0.1983 148 102 189
0.7000 0.1925 0.1100 148 102 189
0.6930 0.2100 0.1300 148 102 189
0.7000 0.2100 0.1249 148 102 189
0.6808 0.2100 0.1500 148 102 189
0.6960 0.2100 0.1700 148 102 189
0.7000 0.2100 0.1746 148 102 189
0.7000 0.1985 0.1900 148 102 189
0.7000 0.2161 0.1300 148 102 189
0.6930 0.2300 0.1500 148 102 189
0.7000 0.2300 0.1452 148 102 189
0.7000 0.2300 0.1576 148 102 189
0.7000 0.2163 0.1700 148 102 189
0.7000 0.2362 0.1500 148 102 189
0.7070 0.0700 0.2900 148 102 189
0.7200 0.0700 0.2714 148 102 189
0.7200 0.0629 0.2900 148 102 189
0.7200 0.0603 0.3100 148 102 189
0.7039 0.0700 0.3100 148 102 189
0.7200 0.0611 0.3300 148 102 189
0.7116 0.0700 0.3300 148 102 189
0.7200 0.0680 0.3500 148 102 189
0.7189 0.0700 0.3500 148 102 189
0.7200 0.0700 0.3511 148 102 189
0.7200 0.0900 0.2548 148 102 189
0.7200 0.0708 0.2700 148 102 189
0.7051 0.0900 0.3300 148 102 189
0.7163 0.0900 0.3500 148 102 189
0.7200 0.0900 0.3537 148 102 189
0.7200 0.1100 0.2403 148 102 189
0.7200 0.0969 0.2500 148 102 189
0.7040 0.1100 0.3300 148 102 189
0.7161 0.1100 0.3500 148 102 189
0.7200 0.1100 0.3539 148 102 189
0.7200 0.1300 0.1165 148 102 189
0.7200 0.1167 0.1300 148 102 189
0.7200 0.1300 0.1483 148 102 189
0.7200 0.1300 0.2201 148 102 189
0.7200 0.1212 0.2300 148 102 189
0.7045 0.1300 0.3300 148 102 189
0.7167 0.1300 0.3500 148 102 189
0.7200 0.1300 0.3533 148 102 189
0.7200 0.1500 0.1034 148 102 189
0.7200 0.1375 0.1100 148 102 189
0.7200 0.1314 0.1500 148 102 189
0.7200 0.1500 0.1679 148 102 189
0.7141 0.1500 0.1900 148 102 189
0.7200 0.1500 0.1767 148 102 189
0.7200 0.1471 0.1900 148 102 189
0.7200 0.1378 0.2100 148 102 189
0.7049 0.1500 0.2500 148 102 189
0.7046 0.1500 0.2700 148 102 189
0.7107 0.1500 0.3300 148 102 189
0.7200 0.1500 0.3436 148 102 189
0.7200 0.1395 0.3500 148 102 189
0.7200 0.1700 0.1007 148 102 189
0.7200 0.1518 0.1700 148 102 189
0.7004 0.1700 0.2100 148 102 189
0.7058 0.1700 0.2300 148 102 189
0.7090 0.1700 0.2500 148 102 189
0.7091 0.1700 0.2700 148 102 189
0.7066 0.1700 0.2900 148 102 189
0.7113 0.1700 0.3100 148 102 189
0.7200 0.1700 0.3187 148 102 189
0.7200 0.1592 0.3300 148 102 189
0.7200 0.1900 0.1047 148 102 189
0.7098 0.1900 0.2100 148 102 189
0.7157 0.1900 0.2300 148 102 189
0.7165 0.1900 0.2500 148 102 189
0.7168 0.1900 0.2700 148 102 189
0.7176 0.1900 0.2900 148 102 189
0.7200 0.1900 0.2967 148 102 189
0.7200 0.1822 0.3100 148 102 189
0.7200 0.1975 0.1100 148 102 189
0.7200 0.2100 0.1206 148 102 189
0.7096 0.2100 0.1900 148 102 189
0.7200 0.2100 0.2006 148 102 189
0.7200 0.2006 0.2100 148 102 189
0.7200 0.1943 0.2300 148 102 189
0.7200 0.1935 0.2500 148 102 189
0.7200 0.1932 0.2700 148 102 189
0.7200 0.1923 0.2900 148 102 189
0.7200 0.2198 0.1300 148 102 189
0.7200 0.2300 0.1408 148 102 189
0.7058 0.2300 0.1700 148 102 189
0.7158 0.2300 0.1900 148 102 189
0.7200 0.2300 0.1942 148 102 189
0.7200 0.2403 0.1500 148 102 189
0.7134 0.2500 0.1700 148 102 189
0.7200 0.2500 0.1621 148 102 189
0.7181 0.2500 0.1900 148 102 189
0.7200 0.2500 0.1920 148 102 189
0.7200 0.2580 0.1700 148 102 189
0.7200 0.2545 0.1900 148 102 189
0.7399 0.0500 0.3300 148 102 189
0.7400 0.0500 0.3294 148 102 189
0.7400 0.0499 0.3300 148 102 189
0.7400 0.0496 0.3500 148 102 189
0.7391 0.0500 0.3500 148 102 189
0.7400 0.0500 0.3507 148 102 189
0.7231 0.0700 0.2700 148 102 189
0.7400 0.0700 0.2665 148 102 189
0.7400 0.0666 0.2700 148 102 189
0.7400 0.0579 0.2900 148 102 189
0.7400 0.0517 0.3100 148 102 189
0.7400 0.0700 0.3645 148 102 189
0.7400 0.0900 0.2554 148 102 189
0.7400 0.0900 0.3660 148 102 189
0.7400 0.1100 0.2365 148 102 189
0.7400 0.0968 0.2500 148 102 189
0.7400 0.1100 0.3660 148 102 189
0.7400 0.1300 0.1137 148 102 189
0.7400 0.1194 0.1300 148 102 189
0.7400 0.1300 0.1433 148 102 189
0.7400 0.1300 0.2135 148 102 189
0.7400 0.1160 0.2300 148 102 189
0.7400 0.1300 0.3654 148 102 189
0.7400 0.1500 0.1026 148 102 189
0.7400 0.1335 0.1100 148 102 189
0.7400 0.1353 0.1500 148 102 189
0.7400 0.1488 0.1700 148 102 189
0.7313 0.1500 0.1700 148 102 189
0.7400 0.1427 0.1900 148 102 189
0.7400 0.1327 0.2100 148 102 189
0.7280 0.1500 0.3500 148 102 189
0.7400 0.1500 0.3572 148 102 189
0.7400 0.1700 0.1008 148 102 189
0.7400 0.1637 0.3300 148 102 189
0.7400 0.1700 0.3209 148 102 189
0.7400 0.1552 0.3500 148 102 189
0.7400 0.1900 0.1048 148 102 189
0.7400 0.1832 0.3100 148 102 189
0.7400 0.1900 0.3005 148 102 189
0.7400 0.1975 0.1100 148 102 189
0.7400 0.2100 0.1203 148 102 189
0.7337 0.2100 0.2100 148 102 189
0.7400 0.2100 0.2179 148 102 189
0.7400 0.2047 0.2300 148 102 189
0.7400 0.2008 0.2500 148 102 189
0.7400 0.1983 0.2700 148 102 189
0.7400 0.1944 0.2900 148 102 189
0.7400 0.2198 0.1300 148 102 189
0.7400 0.2300 0.1403 148 102 189
0.7400 0.2204 0.2100 148 102 189
0.7400 0.2300 0.2065 148 102 189
0.7400 0.2400 0.1500 148 102 189
0.7400 0.2500 0.1600 148 102 189
0.7400 0.2500 0.2044 148 102 189
0.7400 0.2607 0.1700 148 102 189
0.7400 0.2694 0.1900 148 102 189
0.7513 0.0500 0.3100 148 102 189
0.7600 0.0500 0.3074 148 102 189
0.7600 0.0487 0.3100 148 102 189
0.7600 0.0440 0.3300 148 102 189
0.7600 0.0439 0.3500 148 102 189
0.7600 0.0500 0.3699 148 102 189
0.7600 0.0700 0.2664 148 102 189
0.7600 0.0665 0.2700 148 102 189
0.7600 0.0576 0.2900 148 102 189
0.7600 0.0500 0.3700 148 102 189
0.7455 0.0700 0.3700 148 102 189
0.7600 0.0681 0.3900 148 102 189
0.7589 0.0700 0.3900 148 102 189
0.7600 0.0700 0.3910 148 102 189
0.7600 0.0900 0.2546 148 102 189
0.7440 0.0900 0.3700 148 102 189
0.7563 0.0900 0.3900 148 102 189
0.7600 0.0900 0.3937 148 102 189
0.7534 0.1100 0.2300 148 102 189
0.7600 0.1100 0.2266 148 102 189
0.7600 0.1073 0.2300 148 102 189
0.7600 0.0948 0.2500 148 102 189
0.7440 0.1100 0.3700 148 102 189
0.7561 0.1100 0.3900 148 102 189
0.7600 0.1100 0.3939 148 102 189
0.7600 0.1300 0.1244 148 102 189
0.7600 0.1264 0.1300 148 102 189
0.7600 0.1300 0.1381 148 102 189
0.7466 0.1300 0.2100 148 102 189
0.7600 0.1300 0.2028 148 102 189
0.7600 0.1240 0.2100 148 102 189
0.7446 0.1300 0.3700 148 102 189
0.7567 0.1300 0.3900 148 102 189
0.7600 0.1300 0.3934 148 102 189
0.7600 0.1500 0.1075 148 102 189
0.7600 0.1453 0.1100 148 102 189
0.7600 0.1354 0.1500 148 102 189
0.7600 0.1452 0.1700 148 102 189
0.7600 0.1393 0.1900 148 102 189
0.7528 0.1500 0.3700 148 102 189
0.7600 0.1500 0.3822 148 102 189
0.7600 0.1396 0.3900 148 102 189
0.7600 0.1700 0.1048 148 102 189
0.7528 0.1700 0.3100 148 102 189
0.7600 0.1657 0.3100 148 102 189
0.7600 0.1700 0.2996 148 102 189
0.7600 0.1617 0.3300 148 102 189
0.7600 0.1592 0.3500 148 102 189
0.7600 0.1553 0.3700 148 102 189
0.7600 0.1900 0.1087 148 102 189
0.7474 0.1900 0.2900 148 102 189
0.7600 0.1770 0.2900 148 102 189
0.7600 0.1900 0.2793 148 102 189
0.7600 0.1921 0.1100 148 102 189
0.7600 0.2100 0.1218 148 102 189
0.7472 0.2100 0.2300 148 102 189
0.7600 0.2100 0.2428 148 102 189
0.7600 0.2048 0.2500 148 102 189
0.7600 0.1964 0.2700 148 102 189
0.7600 0.2184 0.1300 148 102 189
0.7600 0.2300 0.1432 148 102 189
0.7434 0.2300 0.2100 148 102 189
0.7555 0.2300 0.2300 148 102 189
0.7600 0.2300 0.2346 148 102 189
0.7600 0.2363 0.1500 148 102 189
0.7600 0.2500 0.1640 148 102 189
0.7448 0.2500 0.2100 148 102 189
0.7567 0.2500 0.2300 148 102 189
0.7600 0.2500 0.2333 148 102 189
0.7600 0.2564 0.1700 148 102 189
0.7419 0.2700 0.1900 148 102 189
0.7600 0.2700 0.1855 148 102 189
0.7538 0.2700 0.2100 148 102 189
0.7600 0.2700 0.2208 148 102 189
0.7600 0.2591 0.2300 148 102 189
0.7600 0.2732 0.1900 148 102 189
0.7600 0.2743 0.2100 148 102 189
0.7639 0.0500 0.3100 148 102 189
0.7800 0.0500 0.3237 148 102 189
0.7800 0.0476 0.3300 148 102 189
0.7800 0.0475 0.3500 148 102 189
0.7800 0.0500 0.3575 148 102 189
0.7800 0.0700 0.2700 148 102 189
0.7800 0.0700 0.2700 148 102 189
0.7800 0.0605 0.2900 148 102 189
0.7800 0.0549 0.3100 148 102 189
0.7800 0.0542 0.3700 148 102 189
0.7800 0.0620 0.3900 148 102 189
0.7800 0.0700 0.3995 148 102 189
0.7800 0.0900 0.2551 148 102 189
0.7800 0.0900 0.4056 148 102 189
0.7800 0.1100 0.2222 148 102 189
0.7800 0.1043 0.2300 148 102 189
0.7800 0.0946 0.2500 148 102 189
0.7800 0.1100 0.4060 148 102 189
0.7800 0.1300 0.1277 148 102 189
0.7800 0.1279 0.1300 148 102 189
0.7800 0.1268 0.1500 148 102 189
0.7719 0.1300 0.1500 148 102 189
0.7800 0.1300 0.1573 148 102 189
0.7800 0.1300 0.1968 148 102 189
0.7800 0.1201 0.2100 148 102 189
0.7800 0.1300 0.4057 148 102 189
0.7646 0.1500 0.1100 148 102 189
0.7800 0.1500 0.1178 148 102 189
0.7800 0.1357 0.1700 148 102 189
0.7800 0.1348 0.1900 148 102 189
0.7658 0.1500 0.3900 148 102 189
0.7800 0.1500 0.4015 148 102 189
0.7691 0.1700 0.1100 148 102 189
0.7800 0.1700 0.1160 148 102 189
0.7800 0.1679 0.3100 148 102 189
0.7800 0.1700 0.3040 148 102 189
0.7800 0.1669 0.3300 148 102 189
0.7800 0.1666 0.3500 148 102 189
0.7800 0.1661 0.3700 148 102 189
0.7800 0.1617 0.3900 148 102 189
0.7627 0.1900 0.1100 148 102 189
0.7800 0.1900 0.1173 148 102 189
0.7800 0.1802 0.2900 148 102 189
0.7800 0.1900 0.2837 148 102 189
0.7800 0.2100 0.1244 148 102 189
0.7717 0.2100 0.2500 148 102 189
0.7800 0.2100 0.2586 148 102 189
0.7800 0.2032 0.2700 148 102 189
0.7800 0.2162 0.1300 148 102 189
0.7800 0.2300 0.1489 148 102 189
0.7800 0.2212 0.2500 148 102 189
0.7800 0.2300 0.2469 148 102 189
0.7800 0.2308 0.1500 148 102 189
0.7746 0.2500 0.1700 148 102 189
0.7800 0.2476 0.1700 148 102 189
0.7800 0.2500 0.1721 148 102 189
0.7800 0.2500 0.2456 148 102 189
0.7800 0.2700 0.1856 148 102 189
0.7685 0.2700 0.2300 148 102 189
0.7800 0.2700 0.2369 148 102 189
0.7800 0.2739 0.1900 148 102 189
0.7800 0.2789 0.2100 148 102 189
0.7800 0.2748 0.2300 148 102 189
0.7842 0.0500 0.3300 148 102 189
0.7847 0.0500 0.3500 148 102 189
0.7801 0.0700 0.2700 148 102 189
0.8000 0.0700 0.2859 148 102 189
0.8000 0.0676 0.2900 148 102 189
0.8000 0.0623 0.3100 148 102 189
0.8000 0.0582 0.3300 148 102 189
0.8000 0.0574 0.3500 148 102 189
0.8000 0.0593 0.3700 148 102 189
0.8000 0.0612 0.3900 148 102 189
0.8000 0.0637 0.4100 148 102 189
0.7916 0.0700 0.4100 148 102 189
0.8000 0.0700 0.4262 148 102 189
0.8000 0.0900 0.2603 148 102 189
0.8000 0.0815 0.2700 148 102 189
0.7845 0.0900 0.4100 148 102 189
0.8000 0.0764 0.4300 148 102 189
0.7968 0.0900 0.4300 148 102 189
0.8000 0.0900 0.4330 148 102 189
0.8000 0.1100 0.2214 148 102 189
0.8000 0.1041 0.2300 148 102 189
0.8000 0.0966 0.2500 148 102 189
0.7840 0.1100 0.4100 148 102 189
0.7963 0.1100 0.4300 148 102 189
0.8000 0.1100 0.4335 148 102 189
0.7966 0.1300 0.1300 148 102 189
0.8000 0.1300 0.1309 148 102 189
0.8000 0.1229 0.1500 148 102 189
0.8000 0.1255 0.1700 148 102 189
0.7906 0.1300 0.1700 148 102 189
0.8000 0.1280 0.1900 148 102 189
0.7942 0.1300 0.1900 148 102 189
0.8000 0.1186 0.2100 148 102 189
0.7841 0.1300 0.4100 148 102 189
0.7963 0.1300 0.4300 148 102 189
0.8000 0.1300 0.4335 148 102 189
0.8000 0.1500 0.1214 148 102 189
0.8000 0.1307 0.1300 148 102 189
0.7859 0.1500 0.4100 148 102 189
0.7963 0.1500 0.4300 148 102 189
0.8000 0.1500 0.4336 148 102 189
0.8000 0.1700 0.1199 148 102 189
0.7821 0.1700 0.3100 148 102 189
0.7831 0.1700 0.3300 148 102 189
0.7833 0.1700 0.3500 148 102 189
0.7837 0.1700 0.3700 148 102 189
0.7855 0.1700 0.3900 148 102 189
0.7891 0.1700 0.4100 148 102 189
0.7964 0.1700 0.4300 148 102 189
0.8000 0.1700 0.4337 148 102 189
0.8000 0.1900 0.1201 148 102 189
0.7844 0.1900 0.2900 148 102 189
0.7889 0.1900 0.3100 148 102 189
0.7894 0.1900 0.3300 148 102 189
0.7895 0.1900 0.3500 148 102 189
0.7896 0.1900 0.3700 148 102 189
0.7897 0.1900 0.3900 148 102 189
0.7903 0.1900 0.4100 148 102 189
0.7960 0.1900 0.4300 148 102 189
0.8000 0.1900 0.4344 148 102 189
0.8000 0.2100 0.1248 148 102 189
0.7848 0.2100 0.2700 148 102 189
0.7886 0.2100 0.2900 148 102 189
0.7898 0.2100 0.3100 148 102 189
0.7900 0.2100 0.3300 148 102 189
0.7900 0.2100 0.3500 148 102 189
0.7900 0.2100 0.3700 148 102 189
0.7900 0.2100 0.3900 148 102 189
0.7905 0.2100 0.4100 148 102 189
0.7959 0.2100 0.4300 148 102 189
0.8000 0.2100 0.4348 148 102 189
0.8000 0.2167 0.1300 148 102 189
0.8000 0.2300 0.1451 148 102 189
0.7830 0.2300 0.2500 148 102 189
0.7894 0.2300 0.2700 148 102 189
0.7903 0.2300 0.2900 148 102 189
0.7904 0.2300 0.3100 148 102 189
0.7902 0.2300 0.3300 148 102 189
0.7900 0.2300 0.3500 148 102 189
0.7900 0.2300 0.3700 148 102 189
0.7903 0.2300 0.3900 148 102 189
0.7921 0.2300 0.4100 148 102 189
0.8000 0.2300 0.4271 148 102 189
0.8000 0.2246 0.4300 148 102 189
0.8000 0.2336 0.1500 148 102 189
0.8000 0.2455 0.1700 148 102 189
0.8000 0.2500 0.1743 148 102 189
0.7844 0.2500 0.2500 148 102 189
0.7922 0.2500 0.2700 148 102 189
0.7955 0.2500 0.2900 148 102 189
0.7950 0.2500 0.3100 148 102 189
0.7918 0.2500 0.3300 148 102 189
0.7905 0.2500 0.3500 148 102 189
0.7908 0.2500 0.3700 148 102 189
0.7929 0.2500 0.3900 148 102 189
0.8000 0.2500 0.4084 148 102 189
0.8000 0.2486 0.4100 148 102 189
0.8000 0.2700 0.1865 148 102 189
0.7943 0.2700 0.2500 148 102 189
0.8000 0.2700 0.2588 148 102 189
0.8000 0.2628 0.2700 148 102 189
0.8000 0.2553 0.2900 148 102 189
0.8000 0.2562 0.3100 148 102 189
0.8000 0.2675 0.3300 148 102 189
0.7957 0.2700 0.3500 148 102 189
0.8000 0.2700 0.3347 148 102 189
0.7967 0.2700 0.3700 148 102 189
0.8000 0.2700 0.3783 148 102 189
0.8000 0.2627 0.3900 148 102 189
0.8000 0.2733 0.1900 148 102 189
0.8000 0.2794 0.2100 148 102 189
0.8000 0.2785 0.2300 148 102 189
0.8000 0.2737 0.2500 148 102 189
0.8000 0.2753 0.3500 148 102 189
0.8000 0.2740 0.3700 148 102 189
0.8038 0.0700 0.2900 148 102 189
0.8139 0.0700 0.3100 148 102 189
0.8200 0.0700 0.3206 148 102 189
0.8200 0.0668 0.3300 148 102 189
0.8200 0.0643 0.3500 148 102 189
0.8200 0.0642 0.3700 148 102 189
0.8200 0.0644 0.3900 148 102 189
0.8200 0.0645 0.4100 148 102 189
0.8200 0.0700 0.4271 148 102 189
0.8147 0.0900 0.2700 148 102 189
0.8200 0.0900 0.2740 148 102 189
0.8200 0.0801 0.2900 148 102 189
0.8200 0.0737 0.3100 148 102 189
0.8200 0.0719 0.4300 148 102 189
0.8200 0.0900 0.4378 148 102 189
0.8200 0.1100 0.2202 148 102 189
0.8200 0.1041 0.2300 148 102 189
0.8200 0.0991 0.2500 148 102 189
0.8200 0.0925 0.2700 148 102 189
0.8200 0.1100 0.4394 148 102 189
0.8200 0.1300 0.1409 148 102 189
0.8200 0.1240 0.1500 148 102 189
0.8200 0.1213 0.1700 148 102 189
0.8200 0.1216 0.1900 148 102 189
0.8200 0.1164 0.2100 148 102 189
0.8200 0.1300 0.4396 148 102 189
0.8200 0.1500 0.1258 148 102 189
0.8200 0.1429 0.1300 148 102 189
0.8200 0.1500 0.4405 148 102 189
0.8200 0.1700 0.1211 148 102 189
0.8200 0.1700 0.4428 148 102 189
0.8200 0.1900 0.1204 148 102 189
0.8200 0.1900 0.4458 148 102 189
0.8200 0.2100 0.1245 148 102 189
0.8200 0.2100 0.4465 148 102 189
0.8200 0.2176 0.1300 148 102 189
0.8200 0.2300 0.1423 148 102 189
0.8060 0.2300 0.4300 148 102 189
0.8200 0.2300 0.4342 148 102 189
0.8200 0.2357 0.1500 148 102 189
0.8200 0.2455 0.1700 148 102 189
0.8200 0.2500 0.1749 148 102 189
0.8044 0.2500 0.4100 148 102 189
0.8200 0.2500 0.4132 148 102 189
0.8200 0.2344 0.4300 148 102 189
0.8200 0.2700 0.1897 148 102 189
0.8200 0.2652 0.2700 148 102 189
0.8200 0.2700 0.2621 148 102 189
0.8200 0.2578 0.2900 148 102 189
0.8200 0.2595 0.3100 148 102 189
0.8063 0.2700 0.3300 148 102 189
0.8200 0.2700 0.3256 148 102 189
0.8200 0.2660 0.3900 148 102 189
0.8200 0.2700 0.3850 148 102 189
0.8200 0.2527 0.4100 148 102 189
0.8200 0.2703 0.1900 148 102 189
0.8200 0.2786 0.2100 148 102 189
0.8200 0.2795 0.2300 148 102 189
0.8200 0.2764 0.2500 148 102 189
0.8200 0.2734 0.3300 148 102 189
0.8200 0.2844 0.3500 148 102 189
0.8200 0.2825 0.3700 148 102 189
0.8251 0.0700 0.3300 148 102 189
0.8285 0.0700 0.3500 148 102 189
0.8289 0.0700 0.3700 148 102 189
0.8286 0.0700 0.3900 148 102 189
0.8285 0.0700 0.4100 148 102 189
0.8400 0.0900 0.2858 148 102 189
0.8400 0.0879 0.2900 148 102 189
0.8400 0.0825 0.3100 148 102 189
0.8400 0.0790 0.3300 148 102 189
0.8400 0.0783 0.3500 148 102 189
0.8400 0.0778 0.3700 148 102 189
0.8400 0.0780 0.3900 148 102 189
0.8400 0.0774 0.4100 148 102 189
0.8400 0.0841 0.4300 148 102 189
0.8400 0.0900 0.4348 148 102 189
0.8400 0.1100 0.2163 148 102 189
0.8400 0.1032 0.2300 148 102 189
0.8400 0.0999 0.2500 148 102 189
0.8400 0.0967 0.2700 148 102 189
0.8400 0.1100 0.4396 148 102 189
0.8400 0.1300 0.1453 148 102 189
0.8400 0.1258 0.1500 148 102 189
0.8400 0.1204 0.1700 148 102 189
0.8400 0.1190 0.1900 148 102 189
0.8400 0.1135 0.2100 148 102 189
0.8400 0.1300 0.4403 148 102 189
0.8311 0.1500 0.1300 148 102 189
0.8400 0.1500 0.1335 148 102 189
0.8400 0.1500 0.4430 148 102 189
0.8400 0.1700 0.1235 148 102 189
0.8400 0.1564 0.1300 148 102 189
0.8400 0.1675 0.4500 148 102 189
0.8375 0.1700 0.4500 148 102 189
0.8400 0.1700 0.4512 148 102 189
0.8400 0.1900 0.1209 148 102 189
0.8294 0.1900 0.4500 148 102 189
0.8400 0.1900 0.4545 148 102 189
0.8400 0.2100 0.1248 148 102 189
0.8400 0.2061 0.4500 148 102 189
0.8400 0.2100 0.4485 148 102 189
0.8400 0.2173 0.1300 148 102 189
0.8400 0.2300 0.1422 148 102 189
0.8302 0.2300 0.4300 148 102 189
0.8400 0.2261 0.4300 148 102 189
0.8400 0.2300 0.4256 148 102 189
0.8400 0.2359 0.1500 148 102 189
0.8400 0.2444 0.1700 148 102 189
0.8400 0.2500 0.1772 148 102 189
0.8365 0.2500 0.2900 148 102 189
0.8400 0.2481 0.2900 148 102 189
0.8400 0.2500 0.2872 148 102 189
0.8348 0.2500 0.3100 148 102 189
0.8400 0.2463 0.3100 148 102 189
0.8400 0.2500 0.3159 148 102 189
0.8262 0.2500 0.4100 148 102 189
0.8400 0.2439 0.4100 148 102 189
0.8400 0.2500 0.4029 148 102 189
0.8400 0.2624 0.1900 148 102 189
0.8207 0.2700 0.1900 148 102 189
0.8400 0.2700 0.1995 148 102 189
0.8400 0.2611 0.2700 148 102 189
0.8400 0.2700 0.2581 148 102 189
0.8254 0.2700 0.3300 148 102 189
0.8400 0.2599 0.3300 148 102 189
0.8400 0.2700 0.3438 148 102 189
0.8400 0.2601 0.3900 148 102 189
0.8400 0.2700 0.3748 148 102 189
0.8400 0.2763 0.2100 148 102 189
0.8400 0.2791 0.2300 148 102 189
0.8400 0.2753 0.2500 148 102 189
0.8400 0.2742 0.3500 148 102 189
0.8400 0.2735 0.3700 148 102 189
0.8439 0.0900 0.2900 148 102 189
0.8517 0.0900 0.3100 148 102 189
0.8565 0.0900 0.3300 148 102 189
0.8557 0.0900 0.3500 148 102 189
0.8579 0.0900 0.3700 148 102 189
0.8588 0.0900 0.3900 148 102 189
0.8600 0.0900 0.3941 148 102 189
0.8600 0.0870 0.4100 148 102 189
0.8550 0.0900 0.4300 148 102 189
0.8600 0.0900 0.4229 148 102 189
0.8600 0.1100 0.2105 148 102 189
0.8600 0.1023 0.2300 148 102 189
0.8600 0.1002 0.2500 148 102 189
0.8600 0.0991 0.2700 148 102 189
0.8600 0.0977 0.2900 148 102 189
0.8600 0.0964 0.3100 148 102 189
0.8600 0.0933 0.3300 148 102 189
0.8600 0.0942 0.3500 148 102 189
0.8600 0.0918 0.3700 148 102 189
0.8600 0.0909 0.3900 148 102 189
0.8600 0.0928 0.4300 148 102 189
0.8600 0.1100 0.4392 148 102 189
0.8600 0.1300 0.1468 148 102 189
0.8600 0.1269 0.1500 148 102 189
0.8600 0.1206 0.1700 148 102 189
0.8600 0.1182 0.1900 148 102 189
0.8600 0.1102 0.2100 148 102 189
0.8600 0.1300 0.4411 148 102 189
0.8600 0.1500 0.1373 148 102 189
0.8600 0.1500 0.4433 148 102 189
0.8600 0.1700 0.1283 148 102 189
0.8600 0.1665 0.1300 148 102 189
0.8600 0.1682 0.4500 148 102 189
0.8600 0.1700 0.4508 148 102 189
0.8600 0.1900 0.1249 148 102 189
0.8600 0.1900 0.4517 148 102 189
0.8600 0.2100 0.1287 148 102 189
0.8600 0.1935 0.4500 148 102 189
0.8600 0.2100 0.4407 148 102 189
0.8600 0.2120 0.1300 148 102 189
0.8600 0.2300 0.1434 148 102 189
0.8600 0.2205 0.4300 148 102 189
0.8600 0.2300 0.4198 148 102 189
0.8600 0.2353 0.1500 148 102 189
0.8600 0.2429 0.1700 148 102 189
0.8600 0.2500 0.1819 148 102 189
0.8600 0.2409 0.2900 148 102 189
0.8600 0.2500 0.2772 148 102 189
0.8600 0.2349 0.3100 148 102 189
0.8515 0.2500 0.3300 148 102 189
0.8600 0.2436 0.3300 148 102 189
0.8600 0.2500 0.3395 148 102 189
0.8600 0.2387 0.4100 148 102 189
0.8600 0.2500 0.3948 148 102 189
0.8600 0.2561 0.1900 148 102 189
0.8600 0.2700 0.2091 148 102 189
0.8600 0.2558 0.2700 148 102 189
0.8600 0.2700 0.2507 148 102 189
0.8446 0.2700 0.3500 148 102 189
0.8600 0.2570 0.3500 148 102 189
0.8446 0.2700 0.3700 148 102 189
0.8600 0.2604 0.3700 148 102 189
0.8600 0.2535 0.3900 148 102 189
0.8600 0.2706 0.2100 148 102 189
0.8600 0.2748 0.2300 148 102 189
0.8600 0.2705 0.2500 148 102 189
0.8652 0.0900 0.4100 148 102 189
0.8800 0.1100 0.2214 148 102 189
0.8800 0.1058 0.2300 148 102 189
0.8800 0.1011 0.2500 148 102 189
0.8800 0.1003 0.2700 148 102 189
0.8800 0.1027 0.2900 148 102 189
0.8784 0.1100 0.3100 148 102 189
0.8800 0.1100 0.3078 148 102 189
0.8735 0.1100 0.3300 148 102 189
0.8727 0.1100 0.3500 148 102 189
0.8772 0.1100 0.3700 148 102 189
0.8800 0.1100 0.3746 148 102 189
0.8800 0.1022 0.3900 148 102 189
0.8800 0.0977 0.4100 148 102 189
0.8800 0.1020 0.4300 148 102 189
0.8800 0.1100 0.4394 148 102 189
0.8729 0.1300 0.1500 148 102 189
0.8800 0.1300 0.1548 148 102 189
0.8800 0.1250 0.1700 148 102 189
0.8800 0.1229 0.1900 148 102 189
0.8800 0.1159 0.2100 148 102 189
0.8800 0.1112 0.3100 148 102 189
0.8800 0.1177 0.3300 148 102 189
0.8800 0.1194 0.3500 148 102 189
0.8800 0.1136 0.3700 148 102 189
0.8800 0.1300 0.4430 148 102 189
0.8800 0.1500 0.1408 148 102 189
0.8800 0.1327 0.1500 148 102 189
0.8800 0.1500 0.4408 148 102 189
0.8635 0.1700 0.1300 148 102 189
0.8800 0.1700 0.1371 148 102 189
0.8613 0.1700 0.4500 148 102 189
0.8800 0.1700 0.4399 148 102 189
0.8691 0.1900 0.1300 148 102 189
0.8800 0.1900 0.1360 148 102 189
0.8626 0.1900 0.4500 148 102 189
0.8800 0.1900 0.4384 148 102 189
0.8627 0.2100 0.1300 148 102 189
0.8800 0.2100 0.1374 148 102 189
0.8800 0.2100 0.4314 148 102 189
0.8800 0.2300 0.1457 148 102 189
0.8800 0.2118 0.4300 148 102 189
0.8800 0.2300 0.4119 148 102 189
0.8800 0.2340 0.1500 148 102 189
0.8800 0.2408 0.1700 148 102 189
0.8717 0.2500 0.1900 148 102 189
0.8800 0.2463 0.1900 148 102 189
0.8800 0.2500 0.1983 148 102 189
0.8693 0.2500 0.2700 148 102 189
0.8800 0.2436 0.2700 148 102 189
0.8800 0.2500 0.2586 148 102 189
0.8800 0.2370 0.2900 148 102 189
0.8800 0.2317 0.3100 148 102 189
0.8800 0.2359 0.3300 148 102 189
0.8704 0.2500 0.3500 148 102 189
0.8800 0.2440 0.3500 148 102 189
0.8781 0.2500 0.3700 148 102 189
0.8800 0.2487 0.3700 148 102 189
0.8661 0.2500 0.3900 148 102 189
0.8800 0.2417 0.3900 148 102 189
0.8800 0.2315 0.4100 148 102 189
0.8609 0.2700 0.2100 148 102 189
0.8800 0.2560 0.2100 148 102 189
0.8669 0.2700 0.2300 148 102 189
0.8800 0.2592 0.2300 148 102 189
0.8607 0.2700 0.2500 148 102 189
0.8800 0.2552 0.2500 148 102 189
0.8904 0.1100 0.2300 148 102 189
0.9000 0.1100 0.2371 148 102 189
0.9000 0.1035 0.2500 148 102 189
0.9000 0.1009 0.2700 148 102 189
0.9000 0.1036 0.2900 148 102 189
0.9000 0.1100 0.3033 148 102 189
0.9000 0.1100 0.3844 148 102 189
0.9000 0.1066 0.3900 148 102 189
0.9000 0.1013 0.4100 148 102 189
0.9000 0.1036 0.4300 148 102 189
0.9000 0.1100 0.4403 148 102 189
0.8880 0.1300 0.1700 148 102 189
0.8911 0.1300 0.1900 148 102 189
0.9000 0.1300 0.2013 148 102 189
0.9000 0.1252 0.2100 148 102 189
0.9000 0.1142 0.2300 148 102 189
0.9000 0.1148 0.3100 148 102 189
0.8976 0.1300 0.3300 148 102 189
0.9000 0.1300 0.3279 148 102 189
0.8913 0.1300 0.3500 148 102 189
0.8974 0.1300 0.3700 148 102 189
0.9000 0.1300 0.3726 148 102 189
0.9000 0.1300 0.4444 148 102 189
0.9000 0.1500 0.1452 148 102 189
0.9000 0.1440 0.1500 148 102 189
0.9000 0.1380 0.1700 148 102 189
0.9000 0.1370 0.1900 148 102 189
0.8985 0.1500 0.3300 148 102 189
0.9000 0.1500 0.3283 148 102 189
0.8937 0.1500 0.3500 148 102 189
0.9000 0.1500 0.3679 148 102 189
0.9000 0.1436 0.3700 148 102 189
0.9000 0.1500 0.4381 148 102 189
0.9000 0.1700 0.1402 148 102 189
0.9000 0.1687 0.3300 148 102 189
0.9000 0.1700 0.3309 148 102 189
0.8980 0.1700 0.3500 148 102 189
0.9000 0.1700 0.3548 148 102 189
0.8961 0.1700 0.4300 148 102 189
0.9000 0.1656 0.4300 148 102 189
0.9000 0.1700 0.4270 148 102 189
0.9000 0.1900 0.1397 148 102 189
0.9000 0.1739 0.3500 148 102 189
0.8896 0.1900 0.4300 148 102 189
0.9000 0.1900 0.4193 148 102 189
0.9000 0.2100 0.1402 148 102 189
0.8817 0.2100 0.4300 148 102 189
0.9000 0.2100 0.4109 148 102 189
0.9000 0.2300 0.1466 148 102 189
0.8989 0.2300 0.2700 148 102 189
0.9000 0.2291 0.2700 148 102 189
0.9000 0.2300 0.2679 148 102 189
0.9000 0.2300 0.2794 148 102 189
0.8914 0.2300 0.3100 148 102 189
0.9000 0.2284 0.3100 148 102 189
0.9000 0.2300 0.2982 148 102 189
0.8920 0.2300 0.3300 148 102 189
0.9000 0.2242 0.3300 148 102 189
0.9000 0.2300 0.3470 148 102 189
0.8929 0.2300 0.3900 148 102 189
0.9000 0.2210 0.3900 148 102 189
0.9000 0.2300 0.3735 148 102 189
0.8819 0.2300 0.4100 148 102 189
0.9000 0.2110 0.4100 148 102 189
0.9000 0.2334 0.1500 148 102 189
0.9000 0.2405 0.1700 148 102 189
0.9000 0.2431 0.1900 148 102 189
0.8891 0.2500 0.2100 148 102 189
0.9000 0.2441 0.2100 148 102 189
0.8908 0.2500 0.2300 148 102 189
0.9000 0.2430 0.2300 148 102 189
0.8856 0.2500 0.2500 148 102 189
0.9000 0.2372 0.2500 148 102 189
0.9000 0.2309 0.2900 148 102 189
0.9000 0.2308 0.3500 148 102 189
0.9000 0.2316 0.3700 148 102 189
0.9200 0.1100 0.2475 148 102 189
0.9200 0.1085 0.2500 148 102 189
0.9200 0.1052 0.2700 148 102 189
0.9200 0.1074 0.2900 148 102 189
0.9200 0.1100 0.3007 148 102 189
0.9200 0.1100 0.3786 148 102 189
0.9200 0.1070 0.3900 148 102 189
0.9200 0.1040 0.4100 148 102 189
0.9200 0.1061 0.4300 148 102 189
0.9200 0.1100 0.4355 148 102 189
0.9114 0.1300 0.2100 148 102 189
0.9200 0.1300 0.2150 148 102 189
0.9200 0.1199 0.2300 148 102 189
0.9200 0.1146 0.3100 148 102 189
0.9200 0.1290 0.3300 148 102 189
0.9166 0.1300 0.3300 148 102 189
0.9200 0.1300 0.3355 148 102 189
0.9046 0.1300 0.3700 148 102 189
0.9200 0.1300 0.3525 148 102 189
0.9200 0.1161 0.3700 148 102 189
0.9200 0.1300 0.4442 148 102 189
0.9196 0.1500 0.1500 148 102 189
0.9200 0.1500 0.1502 148 102 189
0.9200 0.1419 0.1700 148 102 189
0.9200 0.1404 0.1900 148 102 189
0.9200 0.1335 0.2100 148 102 189
0.9200 0.1308 0.3300 148 102 189
0.9200 0.1500 0.3181 148 102 189
0.9068 0.1500 0.3700 148 102 189
0.9200 0.1457 0.3700 148 102 189
0.9200 0.1500 0.3721 148 102 189
0.9200 0.1500 0.4369 148 102 189
0.9200 0.1700 0.1416 148 102 189
0.9200 0.1502 0.1500 148 102 189
0.9156 0.1700 0.3100 148 102 189
0.9200 0.1609 0.3100 148 102 189
0.9200 0.1700 0.3050 148 102 189
0.9001 0.1700 0.3300 148 102 189
0.9080 0.1700 0.3700 148 102 189
0.9200 0.1700 0.3891 148 102 189
0.9200 0.1580 0.4300 148 102 189
0.9200 0.1700 0.4132 148 102 189
0.9200 0.1900 0.1403 148 102 189
0.9159 0.1900 0.3100 148 102 189
0.9200 0.1900 0.3031 148 102 189
0.9081 0.1900 0.3300 148 102 189
0.9071 0.1900 0.3500 148 102 189
0.9094 0.1900 0.3700 148 102 189
0.9200 0.1708 0.3900 148 102 189
0.9112 0.1900 0.3900 148 102 189
0.9078 0.1900 0.4100 148 102 189
0.9200 0.1729 0.4100 148 102 189
0.9200 0.2100 0.1407 148 102 189
0.9197 0.2100 0.2700 148 102 189
0.9200 0.2097 0.2700 148 102 189
0.9200 0.2100 0.2695 148 102 189
0.9200 0.2100 0.2737 148 102 189
0.9165 0.2100 0.3100 148 102 189
0.9200 0.2100 0.2947 148 102 189
0.9091 0.2100 0.3300 148 102 189
0.9086 0.2100 0.3500 148 102 189
0.9086 0.2100 0.3700 148 102 189
0.9065 0.2100 0.3900 148 102 189
0.9007 0.2100 0.4100 148 102 189
0.9200 0.2300 0.1470 148 102 189
0.9091 0.2300 0.2500 148 102 189
0.9200 0.2205 0.2500 148 102 189
0.9200 0.2300 0.2370 148 102 189
0.9012 0.2300 0.2900 148 102 189
0.9200 0.2113 0.2900 148 102 189
0.9008 0.2300 0.3500 148 102 189
0.9013 0.2300 0.3700 148 102 189
0.9200 0.2331 0.1500 148 102 189
0.9200 0.2412 0.1700 148 102 189
0.9200 0.2441 0.1900 148 102 189
0.9200 0.2407 0.2100 148 102 189
0.9200 0.2341 0.2300 148 102 189
0.9229 0.1100 0.2500 148 102 189
0.9277 0.1100 0.2700 148 102 189
0.9236 0.1100 0.2900 148 102 189
0.9286 0.1100 0.3900 148 102 189
0.9340 0.1100 0.4100 148 102 189
0.9296 0.1100 0.4300 148 102 189
0.9400 0.1300 0.2195 148 102 189
0.9400 0.1234 0.2300 148 102 189
0.9400 0.1176 0.2500 148 102 189
0.9400 0.1186 0.2700 148 102 189
0.9400 0.1283 0.2900 148 102 189
0.9325 0.1300 0.3100 148 102 189
0.9400 0.1300 0.2940 148 102 189
0.9210 0.1300 0.3300 148 102 189
0.9350 0.1300 0.3500 148 102 189
0.9400 0.1300 0.3491 148 102 189
0.9400 0.1296 0.3500 148 102 189
0.9400 0.1189 0.3700 148 102 189
0.9400 0.1141 0.3900 148 102 189
0.9400 0.1131 0.4100 148 102 189
0.9400 0.1167 0.4300 148 102 189
0.9400 0.1300 0.4384 148 102 189
0.9400 0.1500 0.1611 148 102 189
0.9400 0.1441 0.1700 148 102 189
0.9400 0.1401 0.1900 148 102 189
0.9400 0.1357 0.2100 148 102 189
0.9315 0.1500 0.3100 148 102 189
0.9400 0.1500 0.3017 148 102 189
0.9400 0.1500 0.3389 148 102 189
0.9353 0.1500 0.3500 148 102 189
0.9225 0.1500 0.3700 148 102 189
0.9400 0.1500 0.4340 148 102 189
0.9400 0.1700 0.1461 148 102 189
0.9400 0.1633 0.1500 148 102 189
0.9400 0.1700 0.2904 148 102 189
0.9400 0.1540 0.3500 148 102 189
0.9400 0.1627 0.3700 148 102 189
0.9400 0.1694 0.3900 148 102 189
0.9295 0.1700 0.3900 148 102 189
0.9253 0.1700 0.4100 148 102 189
0.9400 0.1645 0.4100 148 102 189
0.9400 0.1541 0.4300 148 102 189
0.9400 0.1900 0.1424 148 102 189
0.9304 0.1900 0.2900 148 102 189
0.9400 0.1706 0.2900 148 102 189
0.9400 0.1900 0.2768 148 102 189
0.9400 0.2100 0.1438 148 102 189
0.9389 0.2100 0.2500 148 102 189
0.9400 0.2094 0.2500 148 102 189
0.9400 0.2100 0.2493 148 102 189
0.9400 0.1945 0.2700 148 102 189
0.9211 0.2100 0.2900 148 102 189
0.9400 0.2262 0.1500 148 102 189
0.9328 0.2300 0.1500 148 102 189
0.9400 0.2300 0.1528 148 102 189
0.9280 0.2300 0.2300 148 102 189
0.9400 0.2235 0.2300 148 102 189
0.9400 0.2300 0.2190 148 102 189
0.9400 0.2387 0.1700 148 102 189
0.9400 0.2403 0.1900 148 102 189
0.9400 0.2349 0.2100 148 102 189
0.9600 0.1300 0.2244 148 102 189
0.9600 0.1269 0.2300 148 102 189
0.9600 0.1214 0.2500 148 102 189
0.9600 0.1214 0.2700 148 102 189
0.9600 0.1245 0.2900 148 102 189
0.9600 0.1284 0.3100 148 102 189
0.9550 0.1300 0.3100 148 102 189
0.9600 0.1300 0.3222 148 102 189
0.9600 0.1300 0.3332 148 102 189
0.9600 0.1252 0.3500 148 102 189
0.9600 0.1194 0.3700 148 102 189
0.9600 0.1170 0.3900 148 102 189
0.9600 0.1226 0.4100 148 102 189
0.9551 0.1300 0.4300 148 102 189
0.9600 0.1300 0.4240 148 102 189
0.9600 0.1500 0.1691 148 102 189
0.9600 0.1492 0.1700 148 102 189
0.9600 0.1413 0.1900 148 102 189
0.9600 0.1370 0.2100 148 102 189
0.9457 0.1500 0.3100 148 102 189
0.9600 0.1320 0.3300 148 102 189
0.9440 0.1500 0.3300 148 102 189
0.9496 0.1500 0.4300 148 102 189
0.9600 0.1500 0.4226 148 102 189
0.9480 0.1700 0.1500 148 102 189
0.9600 0.1700 0.1561 148 102 189
0.9600 0.1640 0.3100 148 102 189
0.9600 0.1700 0.3041 148 102 189
0.9600 0.1631 0.3300 148 102 189
0.9585 0.1700 0.3500 148 102 189
0.9600 0.1700 0.3467 148 102 189
0.9528 0.1700 0.3700 148 102 189
0.9441 0.1700 0.3900 148 102 189
0.9600 0.1700 0.3933 148 102 189
0.9600 0.1585 0.4100 148 102 189
0.9591 0.1900 0.1500 148 102 189
0.9600 0.1900 0.1505 148 102 189
0.9600 0.1830 0.2900 148 102 189
0.9600 0.1900 0.2824 148 102 189
0.9600 0.1709 0.3500 148 102 189
0.9600 0.1731 0.3700 148 102 189
0.9600 0.1719 0.3900 148 102 189
0.9518 0.2100 0.1500 148 102 189
0.9600 0.2100 0.1553 148 102 189
0.9600 0.2095 0.2500 148 102 189
0.9600 0.2100 0.2491 148 102 189
0.9600 0.1976 0.2700 148 102 189
0.9600 0.2300 0.1696 148 102 189
0.9500 0.2300 0.2100 148 102 189
0.9600 0.2252 0.2100 148 102 189
0.9600 0.2300 0.1965 148 102 189
0.9600 0.2189 0.2300 148 102 189
0.9600 0.2303 0.1700 148 102 189
0.9600 0.2325 0.1900 148 102 189
0.9675 0.1300 0.2300 148 102 189
0.9800 0.1300 0.2430 148 102 189
0.9800 0.1273 0.2500 148 102 189
0.9800 0.1247 0.2700 148 102 189
0.9800 0.1240 0.2900 148 102 189
0.9800 0.1238 0.3100 148 102 189
0.9800 0.1252 0.3300 148 102 189
0.9631 0.1300 0.3300 148 102 189
0.9800 0.1227 0.3500 148 102 189
0.9800 0.1217 0.3700 148 102 189
0.9800 0.1280 0.3900 148 102 189
0.9674 0.1300 0.4100 148 102 189
0.9800 0.1300 0.3926 148 102 189
0.9614 0.1500 0.1700 148 102 189
0.9800 0.1500 0.1846 148 102 189
0.9800 0.1465 0.1900 148 102 189
0.9800 0.1404 0.2100 148 102 189
0.9800 0.1349 0.2300 148 102 189
0.9684 0.1500 0.4100 148 102 189
0.9800 0.1500 0.3969 148 102 189
0.9800 0.1700 0.1658 148 102 189
0.9800 0.1640 0.1700 148 102 189
0.9663 0.1700 0.3100 148 102 189
0.9694 0.1700 0.3300 148 102 189
0.9721 0.1700 0.3700 148 102 189
0.9800 0.1674 0.3700 148 102 189
0.9800 0.1700 0.3607 148 102 189
0.9649 0.1700 0.3900 148 102 189
0.9800 0.1595 0.3900 148 102 189
0.9800 0.1900 0.1611 148 102 189
0.9800 0.1848 0.2900 148 102 189
0.9800 0.1900 0.2821 148 102 189
0.9800 0.1771 0.3100 148 102 189
0.9800 0.1748 0.3300 148 102 189
0.9800 0.1724 0.3500 148 102 189
0.9800 0.2100 0.1688 148 102 189
0.9800 0.2046 0.2500 148 102 189
0.9800 0.2100 0.2366 148 102 189
0.9800 0.1970 0.2700 148 102 189
0.9800 0.2114 0.1700 148 102 189
0.9604 0.2300 0.1700 148 102 189
0.9636 0.2300 0.1900 148 102 189
0.9800 0.2181 0.1900 148 102 189
0.9800 0.2164 0.2100 148 102 189
0.9800 0.2128 0.2300 148 102 189
0.9840 0.1300 0.2500 148 102 189
0.9875 0.1300 0.2700 148 102 189
0.9899 0.1300 0.2900 148 102 189
0.9937 0.1300 0.3100 148 102 189
0.9912 0.1300 0.3300 148 102 189
0.9982 0.1300 0.3500 148 102 189
0.9955 0.1300 0.3700 148 102 189
0.9821 0.1300 0.3900 148 102 189
0.9857 0.1500 0.1900 148 102 189
1.0000 0.1500 0.2067 148 102 189
1.0000 0.1481 0.2100 148 102 189
1.0000 0.1443 0.2300 148 102 189
1.0000 0.1429 0.2500 148 102 189
1.0000 0.1422 0.2700 148 102 189
1.0000 0.1400 0.2900 148 102 189
1.0000 0.1357 0.3100 148 102 189
1.0000 0.1378 0.3300 148 102 189
1.0000 0.1333 0.3500 148 102 189
1.0000 0.1500 0.3661 148 102 189
0.9986 0.1500 0.3700 148 102 189
0.9859 0.1500 0.3900 148 102 189
0.9858 0.1700 0.1700 148 102 189
1.0000 0.1700 0.1839 148 102 189
1.0000 0.1635 0.1900 148 102 189
0.9970 0.1700 0.3300 148 102 189
1.0000 0.1674 0.3300 148 102 189
1.0000 0.1700 0.3245 148 102 189
0.9845 0.1700 0.3500 148 102 189
1.0000 0.1568 0.3500 148 102 189
0.9928 0.1900 0.1700 148 102 189
1.0000 0.1900 0.1809 148 102 189
0.9969 0.1900 0.2700 148 102 189
1.0000 0.1875 0.2700 148 102 189
1.0000 0.1900 0.2652 148 102 189
1.0000 0.1761 0.2900 148 102 189
1.0000 0.1726 0.3100 148 102 189
0.9814 0.2100 0.1700 148 102 189
1.0000 0.1960 0.1900 148 102 189
0.9887 0.2100 0.1900 148 102 189
0.9882 0.2100 0.2100 148 102 189
1.0000 0.1989 0.2100 148 102 189
0.9840 0.2100 0.2300 148 102 189
1.0000 0.1980 0.2300 148 102 189
1.0000 0.1946 0.2500 148 102 189
1.0023 0.1500 0.2100 148 102 189
1.0065 0.1500 0.2300 148 102 189
1.0059 0.1500 0.2500 148 102 189
1.0055 0.1500 0.2700 148 102 189
1.0061 0.1500 0.2900 148 102 189
1.0070 0.1500 0.3100 148 102 189
1.0057 0.1500 0.3300 148 102 189
1.0041 0.1500 0.3500 148 102 189
1.0047 0.1700 0.1900 148 102 189
1.0148 0.1700 0.2100 148 102 189
1.0158 0.1700 0.2300 148 102 189
1.0111 0.1700 0.2500 148 102 189
1.0081 0.1700 0.2700 148 102 189
1.0048 0.1700 0.2900 148 102 189
1.0026 0.1700 0.3100 148 102 189
1.0044 0.1900 0.1900 148 102 189
1.0079 0.1900 0.2100 148 102 189
1.0077 0.1900 0.2300 148 102 189
1.0045 0.1900 0.2500 148 102 189
3 0 1 2
3 0 3 4
3 2 3 0
3 3 5 4
3 6 1 0
3 7 1 6
3 4 8 0
3 8 6 0
3 9 4 5
3 9 10 4
3 10 8 4
3 9 11 10
3 6 12 7
3 12 13 14
3 12 6 13
3 6 8 13
3 10 15 8
3 15 13 8
3 16 10 11
3 15 10 16
3 17 18 19
3 19 20 17
3 13 21 14
3 15 21 13
3 22 21 15
3 16 22 15
3 23 18 17
3 24 18 23
3 25 17 20
3 23 17 25
3 26 24 23
3 27 24 26
3 28 23 25
3 28 29 23
3 29 26 23
3 29 30 31
3 28 30 29
3 30 32 31
3 26 33 27
3 29 33 26
3 34 33 29
3 31 34 29
3 35 34 31
3 32 35 31
3 2 36 37
3 1 36 2
3 3 2 38
3 2 37 38
3 5 39 40
3 5 3 39
3 3 38 39
3 39 41 40
3 42 43 44
3 42 44 36
3 42 36 7
3 7 36 1
3 5 40 9
3 40 11 9
3 40 41 11
3 41 45 11
3 46 47 48
3 48 49 46
3 50 51 52
3 43 50 52
3 43 42 50
3 42 53 50
3 7 12 54
3 7 54 42
3 42 54 53
3 12 14 54
3 11 45 16
3 45 55 16
3 56 57 58
3 47 56 58
3 46 56 47
3 46 18 56
3 46 19 18
3 20 59 60
3 19 59 20
3 19 49 59
3 19 46 49
3 59 61 60
3 62 63 64
3 51 62 64
3 51 50 62
3 50 65 62
3 66 53 67
3 66 65 53
3 65 50 53
3 54 67 53
3 68 67 54
3 69 70 68
3 21 69 68
3 21 68 54
3 21 54 14
3 21 22 71
3 69 21 71
3 22 72 71
3 22 16 72
3 16 55 72
3 73 57 56
3 74 57 73
3 18 24 73
3 56 18 73
3 60 75 25
3 20 60 25
3 76 60 61
3 76 77 60
3 77 75 60
3 77 78 79
3 76 78 77
3 79 80 81
3 79 62 80
3 79 78 63
3 62 79 63
3 65 80 62
3 82 80 65
3 66 82 65
3 69 83 70
3 71 83 69
3 84 83 71
3 72 84 71
3 85 74 73
3 86 74 85
3 24 27 85
3 73 24 85
3 25 75 28
3 30 28 75
3 77 30 75
3 32 30 77
3 32 77 87
3 87 77 79
3 88 79 81
3 87 79 88
3 85 89 86
3 90 91 89
3 33 90 89
3 33 89 85
3 33 85 27
3 33 34 92
3 90 33 92
3 34 35 93
3 92 34 93
3 35 94 93
3 32 94 35
3 32 95 94
3 32 87 95
3 88 95 87
3 90 96 91
3 96 97 98
3 96 90 97
3 90 92 97
3 99 93 100
3 99 97 93
3 97 92 93
3 94 100 93
3 97 101 98
3 99 101 97
3 102 103 104
3 102 105 106
3 104 105 102
3 106 107 108
3 105 107 106
3 108 109 110
3 107 109 108
3 109 111 110
3 37 112 113
3 36 112 37
3 103 102 38
3 103 38 113
3 113 38 37
3 39 38 102
3 106 39 102
3 41 39 106
3 41 106 114
3 114 106 108
3 110 115 108
3 115 114 108
3 116 110 111
3 115 110 116
3 44 117 118
3 43 117 44
3 112 36 44
3 118 112 44
3 114 119 45
3 41 114 45
3 115 120 114
3 120 119 114
3 121 115 116
3 120 115 121
3 48 122 123
3 47 122 48
3 123 49 48
3 124 49 123
3 52 125 126
3 51 125 52
3 117 43 52
3 126 117 52
3 119 127 55
3 45 119 55
3 120 128 119
3 128 127 119
3 129 120 121
3 128 120 129
3 58 130 131
3 57 130 58
3 122 47 58
3 131 122 58
3 49 124 132
3 59 49 132
3 132 61 59
3 133 61 132
3 134 135 136
3 134 64 63
3 134 136 64
3 136 137 64
3 125 51 64
3 137 125 64
3 67 138 66
3 67 68 139
3 138 67 139
3 68 70 139
3 127 140 72
3 55 127 72
3 141 128 142
3 141 140 128
3 140 127 128
3 129 142 128
3 57 74 130
3 130 74 143
3 61 133 144
3 76 61 144
3 135 134 78
3 135 78 144
3 144 78 76
3 78 134 63
3 145 81 80
3 80 82 146
3 145 80 146
3 82 66 138
3 82 138 146
3 146 138 147
3 139 148 138
3 148 147 138
3 70 83 149
3 70 149 139
3 139 149 148
3 83 84 150
3 149 83 150
3 84 151 150
3 72 151 84
3 72 152 151
3 72 140 152
3 141 152 140
3 74 86 143
3 143 86 153
3 145 154 88
3 81 145 88
3 146 155 145
3 155 154 145
3 147 156 146
3 156 155 146
3 148 157 147
3 157 156 147
3 149 158 148
3 158 157 148
3 159 150 160
3 159 158 150
3 158 149 150
3 151 160 150
3 86 161 153
3 89 161 86
3 161 89 91
3 162 161 91
3 95 163 94
3 95 164 163
3 88 164 95
3 88 165 164
3 88 154 165
3 155 165 154
3 166 165 155
3 156 166 155
3 167 166 156
3 157 167 156
3 168 167 157
3 158 168 157
3 169 168 158
3 159 169 158
3 91 170 162
3 96 170 91
3 170 96 98
3 171 170 98
3 100 172 99
3 100 94 163
3 100 163 172
3 172 163 173
3 174 163 164
3 173 163 174
3 98 175 171
3 101 175 98
3 99 175 101
3 99 176 175
3 99 172 176
3 177 175 176
3 173 178 172
3 178 176 172
3 179 173 174
3 178 173 179
3 176 180 177
3 178 180 176
3 181 180 178
3 179 181 178
3 182 183 184
3 182 185 186
3 184 185 182
3 185 187 186
3 188 189 190
3 188 104 103
3 188 190 104
3 190 191 104
3 105 104 192
3 104 191 192
3 183 182 107
3 183 107 192
3 192 107 105
3 109 107 182
3 186 109 182
3 186 111 109
3 186 187 111
3 187 193 111
3 113 189 188
3 113 112 189
3 112 194 189
3 103 113 188
3 111 193 116
3 193 195 116
3 118 196 197
3 117 196 118
3 194 112 118
3 197 194 118
3 116 195 121
3 195 198 121
3 123 199 200
3 122 199 123
3 200 124 123
3 201 124 200
3 126 202 203
3 125 202 126
3 196 117 126
3 203 196 126
3 121 198 129
3 198 204 129
3 131 205 206
3 130 205 131
3 199 122 131
3 206 199 131
3 124 201 207
3 132 124 207
3 133 208 209
3 133 132 208
3 132 207 208
3 209 136 135
3 209 208 136
3 208 210 136
3 137 136 211
3 136 210 211
3 202 125 137
3 211 202 137
3 142 212 141
3 142 213 212
3 142 129 213
3 129 204 213
3 130 143 205
3 205 143 214
3 133 209 144
3 135 144 209
3 152 215 216
3 151 152 216
3 212 152 141
3 212 217 152
3 217 215 152
3 213 217 212
3 143 153 214
3 214 153 218
3 160 219 220
3 159 160 220
3 216 160 151
3 219 160 216
3 153 221 218
3 161 221 153
3 221 161 162
3 222 221 162
3 165 223 164
3 224 223 165
3 224 165 225
3 225 165 166
3 167 226 166
3 166 226 225
3 168 227 167
3 167 227 226
3 169 228 168
3 168 228 227
3 220 169 159
3 228 169 220
3 162 229 222
3 170 229 162
3 229 170 171
3 230 229 171
3 223 231 232
3 223 232 164
3 164 232 174
3 224 231 223
3 171 233 230
3 175 233 171
3 233 175 177
3 234 233 177
3 174 232 179
3 232 235 179
3 177 236 234
3 180 236 177
3 181 237 180
3 180 237 236
3 235 181 179
3 237 181 235
3 238 239 240
3 238 184 183
3 238 240 184
3 240 241 184
3 185 184 242
3 184 241 242
3 242 187 185
3 243 187 242
3 190 244 245
3 189 244 190
3 191 190 246
3 190 245 246
3 239 238 192
3 239 192 246
3 246 192 191
3 183 192 238
3 247 248 193
3 247 193 243
3 243 193 187
3 248 249 250
3 247 249 248
3 249 251 250
3 189 194 244
3 244 194 252
3 248 253 195
3 193 248 195
3 250 254 248
3 254 253 248
3 255 250 251
3 254 250 255
3 256 257 258
3 256 197 196
3 256 258 197
3 258 259 197
3 252 194 197
3 259 252 197
3 253 260 198
3 195 253 198
3 254 261 253
3 261 260 253
3 262 254 255
3 261 254 262
3 200 263 264
3 199 263 200
3 264 201 200
3 265 201 264
3 266 267 268
3 257 266 268
3 256 266 257
3 256 202 266
3 256 203 202
3 196 203 256
3 260 269 204
3 198 260 204
3 261 270 260
3 270 269 260
3 271 261 262
3 270 261 271
3 206 272 273
3 205 272 206
3 263 199 206
3 273 263 206
3 201 265 274
3 207 201 274
3 208 207 275
3 207 274 275
3 210 208 276
3 208 275 276
3 267 266 211
3 267 211 276
3 276 211 210
3 202 211 266
3 269 277 213
3 204 269 213
3 278 270 279
3 278 277 270
3 277 269 270
3 271 279 270
3 205 214 272
3 272 214 280
3 281 282 283
3 281 216 215
3 281 215 282
3 282 215 284
3 217 285 215
3 215 285 284
3 277 217 213
3 277 286 217
3 286 285 217
3 278 286 277
3 214 218 280
3 280 218 287
3 288 289 290
3 283 289 288
3 281 283 288
3 281 288 220
3 281 220 219
3 216 281 219
3 218 291 287
3 221 291 218
3 291 221 222
3 292 291 222
3 225 293 224
3 294 293 225
3 294 225 295
3 295 225 226
3 227 296 226
3 226 296 295
3 290 228 288
3 290 296 228
3 296 227 228
3 220 288 228
3 222 297 292
3 229 297 222
3 297 229 230
3 298 297 230
3 231 299 232
3 231 224 293
3 231 293 299
3 299 293 300
3 301 293 294
3 300 293 301
3 230 302 298
3 233 302 230
3 302 233 234
3 303 302 234
3 299 304 235
3 232 299 235
3 300 305 299
3 305 304 299
3 306 300 301
3 305 300 306
3 234 307 303
3 236 307 234
3 308 309 307
3 308 307 237
3 237 307 236
3 237 235 304
3 237 304 308
3 308 304 310
3 311 305 312
3 311 310 305
3 310 304 305
3 306 312 305
3 308 313 309
3 310 313 308
3 314 313 310
3 311 314 310
3 240 239 315
3 316 240 315
3 316 317 240
3 317 241 240
3 242 241 318
3 241 317 318
3 318 243 242
3 319 243 318
3 245 320 321
3 244 320 245
3 246 245 322
3 245 321 322
3 315 239 246
3 315 246 323
3 323 246 322
3 316 315 323
3 243 319 324
3 247 243 324
3 249 247 325
3 247 324 325
3 325 251 249
3 326 251 325
3 244 252 320
3 320 252 327
3 251 326 255
3 326 328 255
3 258 329 330
3 257 329 258
3 259 258 331
3 258 330 331
3 327 252 259
3 331 327 259
3 255 328 262
3 328 332 262
3 264 333 334
3 263 333 264
3 265 335 336
3 265 264 335
3 264 334 335
3 335 337 336
3 268 338 339
3 267 338 268
3 329 257 268
3 339 329 268
3 262 332 271
3 332 340 271
3 273 272 341
3 273 341 342
3 273 342 263
3 263 342 333
3 265 336 274
3 336 337 343
3 336 343 274
3 274 343 275
3 276 275 344
3 275 343 344
3 338 267 276
3 344 338 276
3 279 345 278
3 279 346 345
3 279 271 346
3 271 340 346
3 341 280 347
3 272 280 341
3 348 342 341
3 347 348 341
3 282 349 350
3 283 282 350
3 284 351 282
3 282 351 349
3 285 352 284
3 284 352 351
3 286 353 285
3 285 353 352
3 345 286 278
3 345 354 286
3 354 353 286
3 346 354 345
3 347 287 355
3 280 287 347
3 356 348 347
3 355 356 347
3 289 357 358
3 290 289 358
3 350 289 283
3 357 289 350
3 287 291 355
3 355 291 292
3 355 292 356
3 356 292 359
3 295 360 294
3 361 360 295
3 361 295 362
3 362 295 296
3 358 296 290
3 362 296 358
3 292 363 359
3 297 363 292
3 363 297 298
3 364 363 298
3 360 365 366
3 360 366 294
3 294 366 301
3 361 365 360
3 298 367 364
3 302 367 298
3 303 368 369
3 303 369 302
3 302 369 367
3 369 368 370
3 301 366 306
3 366 371 306
3 303 307 368
3 368 307 309
3 368 309 370
3 370 309 372
3 312 373 311
3 312 374 373
3 312 306 374
3 306 371 374
3 309 375 372
3 313 375 309
3 314 376 313
3 313 376 375
3 373 314 311
3 373 377 314
3 377 376 314
3 374 377 373
3 317 316 378
3 317 379 318
3 378 379 317
3 318 379 319
3 321 320 380
3 381 321 380
3 381 382 321
3 382 322 321
3 323 322 383
3 322 382 383
3 378 316 323
3 378 323 384
3 384 323 383
3 379 378 384
3 385 379 384
3 319 379 385
3 319 385 324
3 324 385 386
3 325 324 387
3 324 386 387
3 326 388 389
3 326 325 388
3 325 387 388
3 388 390 389
3 380 391 392
3 380 320 391
3 320 327 391
3 381 380 392
3 389 393 328
3 326 389 328
3 394 389 390
3 394 395 389
3 395 393 389
3 394 396 395
3 330 397 398
3 329 397 330
3 331 330 399
3 330 398 399
3 391 327 331
3 399 391 331
3 393 400 332
3 328 393 332
3 395 401 393
3 401 400 393
3 402 395 396
3 401 395 402
3 334 333 403
3 404 334 403
3 404 405 334
3 405 335 334
3 337 406 407
3 337 335 406
3 335 405 406
3 407 408 409
3 406 408 407
3 409 339 338
3 409 408 339
3 408 410 339
3 397 329 339
3 410 397 339
3 400 411 340
3 332 400 340
3 401 412 400
3 412 411 400
3 413 401 402
3 412 401 413
3 403 414 415
3 403 333 414
3 333 342 414
3 404 403 415
3 337 407 343
3 344 343 407
3 409 344 407
3 338 344 409
3 411 416 346
3 340 411 346
3 412 417 411
3 417 416 411
3 418 412 413
3 417 412 418
3 342 348 414
3 414 348 419
3 349 420 350
3 349 351 421
3 420 349 421
3 351 352 422
3 421 351 422
3 352 353 423
3 422 352 423
3 353 354 424
3 423 353 424
3 354 346 416
3 354 416 424
3 424 416 425
3 417 426 416
3 426 425 416
3 427 417 418
3 426 417 427
3 348 356 419
3 419 356 428
3 357 429 358
3 357 350 420
3 357 420 429
3 429 420 430
3 421 431 420
3 431 430 420
3 422 432 421
3 432 431 421
3 423 433 422
3 433 432 422
3 424 434 423
3 434 433 423
3 425 435 424
3 435 434 424
3 426 436 425
3 436 435 425
3 437 426 427
3 436 426 437
3 356 359 428
3 428 359 438
3 362 439 361
3 362 358 429
3 362 429 439
3 439 429 440
3 430 441 429
3 441 440 429
3 431 442 430
3 442 441 430
3 432 443 431
3 443 442 431
3 433 444 432
3 444 443 432
3 434 445 433
3 445 444 433
3 435 446 434
3 446 445 434
3 436 447 435
3 447 446 435
3 448 436 437
3 447 436 448
3 359 449 438
3 363 449 359
3 449 363 364
3 450 449 364
3 365 451 366
3 365 361 439
3 365 439 451
3 451 439 452
3 440 453 439
3 453 452 439
3 441 454 440
3 454 453 440
3 442 455 441
3 455 454 441
3 443 456 442
3 456 455 442
3 444 457 443
3 457 456 443
3 445 458 444
3 458 457 444
3 446 459 445
3 459 458 445
3 460 447 461
3 460 459 447
3 459 446 447
3 448 461 447
3 364 462 450
3 367 462 364
3 369 463 367
3 367 463 462
3 463 369 370
3 464 463 370
3 451 465 371
3 366 451 371
3 452 466 451
3 466 465 451
3 453 467 452
3 467 466 452
3 454 468 453
3 468 467 453
3 455 469 454
3 469 468 454
3 456 470 455
3 470 469 455
3 457 471 456
3 471 470 456
3 458 472 457
3 472 471 457
3 473 459 474
3 473 472 459
3 472 458 459
3 460 474 459
3 370 372 464
3 464 372 475
3 465 476 374
3 371 465 374
3 477 466 478
3 477 476 466
3 476 465 466
3 467 478 466
3 479 478 467
3 468 479 467
3 480 479 468
3 469 480 468
3 481 480 469
3 481 482 483
3 481 469 482
3 469 470 482
3 471 484 470
3 484 482 470
3 485 472 486
3 485 484 472
3 484 471 472
3 473 486 472
3 372 487 475
3 375 487 372
3 376 488 375
3 375 488 487
3 377 489 376
3 376 489 488
3 476 377 374
3 476 490 377
3 490 489 377
3 477 490 476
3 482 491 483
3 484 491 482
3 492 491 484
3 485 492 484
3 382 381 493
3 382 494 383
3 493 494 382
3 495 383 494
3 495 496 383
3 496 384 383
3 385 384 497
3 384 496 497
3 386 385 498
3 385 497 498
3 387 386 499
3 386 498 499
3 388 387 500
3 387 499 500
3 500 390 388
3 501 390 500
3 392 391 502
3 392 502 503
3 381 392 503
3 381 503 504
3 381 504 493
3 494 493 504
3 505 494 504
3 495 494 505
3 390 501 506
3 394 390 506
3 506 396 394
3 507 396 506
3 398 508 509
3 397 508 398
3 399 398 510
3 398 509 510
3 502 391 399
3 502 399 511
3 511 399 510
3 503 502 511
3 396 507 402
3 507 512 402
3 405 513 514
3 404 513 405
3 406 405 515
3 405 514 515
3 408 406 516
3 406 515 516
3 410 408 517
3 408 516 517
3 508 397 410
3 517 508 410
3 402 512 413
3 512 518 413
3 415 519 520
3 414 519 415
3 513 404 415
3 520 513 415
3 413 518 418
3 518 521 418
3 414 419 519
3 519 419 522
3 418 521 427
3 521 523 427
3 419 428 522
3 522 428 524
3 427 523 437
3 523 525 437
3 428 438 524
3 524 438 526
3 437 525 448
3 525 527 448
3 438 528 526
3 449 528 438
3 528 449 450
3 529 528 450
3 461 530 460
3 461 531 530
3 461 448 531
3 448 527 531
3 450 532 529
3 462 532 450
3 463 533 462
3 462 533 532
3 533 463 464
3 534 533 464
3 474 535 473
3 474 536 535
3 460 536 474
3 460 537 536
3 460 530 537
3 531 537 530
3 464 475 534
3 534 475 538
3 478 539 540
3 477 478 540
3 479 541 478
3 478 541 539
3 480 542 479
3 479 542 541
3 543 544 542
3 543 542 481
3 481 542 480
3 481 483 543
3 486 545 546
3 485 486 546
3 535 486 473
3 535 547 486
3 547 545 486
3 536 547 535
3 475 548 538
3 487 548 475
3 488 549 487
3 487 549 548
3 489 550 488
3 488 550 549
3 490 551 489
3 489 551 550
3 540 490 477
3 551 490 540
3 543 552 544
3 483 552 543
3 483 491 552
3 491 553 552
3 492 554 491
3 491 554 553
3 546 492 485
3 554 492 546
3 496 495 555
3 496 556 497
3 555 556 496
3 497 557 498
3 556 557 497
3 498 558 499
3 557 558 498
3 499 559 500
3 558 559 499
3 500 559 501
3 504 560 561
3 503 560 504
3 505 504 562
3 504 561 562
3 555 495 505
3 555 505 563
3 563 505 562
3 556 555 563
3 564 556 563
3 557 556 564
3 565 557 564
3 558 557 565
3 566 558 565
3 559 558 566
3 567 559 566
3 501 559 567
3 501 567 506
3 506 567 568
3 568 507 506
3 569 507 568
3 509 570 571
3 508 570 509
3 510 509 572
3 509 571 572
3 511 510 573
3 510 572 573
3 560 503 511
3 573 560 511
3 507 569 512
3 569 574 512
3 514 575 576
3 513 575 514
3 515 514 577
3 514 576 577
3 516 515 578
3 515 577 578
3 517 516 579
3 516 578 579
3 570 508 517
3 579 570 517
3 512 574 518
3 574 580 518
3 520 519 581
3 520 581 582
3 520 582 513
3 513 582 575
3 518 580 521
3 580 583 521
3 581 584 585
3 581 519 584
3 519 522 584
3 582 581 585
3 586 587 523
3 586 523 583
3 583 523 521
3 586 588 587
3 522 524 584
3 584 524 589
3 587 590 525
3 523 587 525
3 591 587 588
3 590 587 591
3 524 526 589
3 589 526 592
3 590 593 594
3 590 594 525
3 525 594 527
3 591 593 590
3 526 595 592
3 528 595 526
3 595 528 529
3 596 595 529
3 597 598 599
3 597 594 598
3 597 531 594
3 531 527 594
3 529 600 596
3 532 600 529
3 533 601 532
3 532 601 600
3 601 533 534
3 602 601 534
3 603 604 605
3 603 606 607
3 604 603 607
3 607 606 608
3 609 610 611
3 599 610 609
3 597 599 609
3 597 609 536
3 597 536 537
3 531 597 537
3 612 538 613
3 612 602 538
3 602 534 538
3 612 613 614
3 539 615 616
3 540 539 616
3 605 541 603
3 605 615 541
3 615 539 541
3 542 603 541
3 606 603 542
3 544 617 618
3 542 544 618
3 542 618 608
3 542 608 606
3 618 617 619
3 545 620 621
3 546 545 621
3 611 547 609
3 611 620 547
3 620 545 547
3 536 609 547
3 538 548 613
3 613 622 614
3 613 548 622
3 548 549 622
3 550 623 549
3 549 623 622
3 551 624 550
3 550 624 623
3 616 551 540
3 624 551 616
3 544 552 617
3 617 625 619
3 617 552 625
3 552 553 625
3 554 626 553
3 553 626 625
3 621 554 546
3 626 554 621
3 561 560 627
3 561 628 562
3 627 628 561
3 562 629 563
3 628 629 562
3 563 630 564
3 629 630 563
3 564 631 565
3 630 631 564
3 565 632 566
3 631 632 565
3 633 566 632
3 633 634 566
3 634 567 566
3 635 634 636
3 635 568 634
3 568 567 634
3 568 635 569
3 571 637 638
3 570 637 571
3 572 571 639
3 571 638 639
3 573 572 640
3 572 639 640
3 627 560 573
3 627 573 641
3 641 573 640
3 628 627 641
3 642 628 641
3 629 628 642
3 643 629 642
3 630 629 643
3 644 630 643
3 631 630 644
3 645 631 644
3 632 631 645
3 646 632 645
3 633 632 646
3 635 636 647
3 647 569 635
3 647 648 569
3 648 574 569
3 576 649 650
3 575 649 576
3 577 576 651
3 576 650 651
3 578 577 652
3 577 651 652
3 579 578 653
3 578 652 653
3 637 570 579
3 653 637 579
3 574 648 580
3 648 654 580
3 575 582 649
3 649 582 655
3 580 654 583
3 654 656 583
3 585 657 658
3 584 657 585
3 655 582 585
3 658 655 585
3 583 656 659
3 586 583 659
3 659 588 586
3 660 588 659
3 584 589 657
3 657 589 661
3 588 660 591
3 660 662 591
3 589 592 661
3 661 592 663
3 593 664 665
3 594 593 665
3 662 593 591
3 664 593 662
3 592 666 663
3 595 666 592
3 666 595 596
3 667 666 596
3 598 668 669
3 599 598 669
3 665 598 594
3 668 598 665
3 596 670 667
3 600 670 596
3 601 671 600
3 600 671 670
3 671 601 602
3 672 671 602
3 604 673 674
3 605 604 674
3 607 675 604
3 604 675 673
3 608 676 677
3 608 677 607
3 607 677 675
3 677 676 678
3 610 679 680
3 611 610 680
3 669 610 599
3 679 610 669
3 602 681 672
3 612 681 602
3 681 612 614
3 682 681 614
3 615 683 684
3 616 615 684
3 674 615 605
3 683 615 674
3 608 618 676
3 619 685 686
3 618 619 686
3 618 686 678
3 618 678 676
3 685 687 688
3 686 685 688
3 687 621 620
3 687 620 688
3 688 620 689
3 680 620 611
3 689 620 680
3 614 690 682
3 622 690 614
3 623 691 622
3 622 691 690
3 624 692 623
3 623 692 691
3 684 624 616
3 692 624 684
3 619 625 685
3 626 685 625
3 687 685 626
3 621 687 626
3 634 633 693
3 634 693 636
3 638 694 695
3 637 694 638
3 639 638 696
3 638 695 696
3 640 639 697
3 639 696 697
3 641 640 698
3 640 697 698
3 699 698 700
3 699 642 698
3 642 641 698
3 642 701 643
3 699 701 642
3 643 702 644
3 701 702 643
3 644 703 645
3 702 703 644
3 704 645 703
3 704 705 645
3 705 646 645
3 693 633 646
3 693 646 706
3 706 646 705
3 636 693 706
3 636 706 647
3 647 706 707
3 707 648 647
3 708 648 707
3 650 649 709
3 710 650 709
3 710 711 650
3 711 651 650
3 652 651 712
3 651 711 712
3 653 652 713
3 652 712 713
3 694 637 653
3 713 694 653
3 699 700 714
3 701 699 714
3 715 701 714
3 702 701 715
3 716 702 715
3 703 702 716
3 717 703 716
3 704 703 717
3 648 708 654
3 708 718 654
3 709 719 720
3 709 649 719
3 649 655 719
3 710 709 720
3 654 718 656
3 718 721 656
3 658 657 722
3 658 722 723
3 658 723 655
3 655 723 719
3 724 659 656
3 724 656 725
3 725 656 721
3 659 724 660
3 722 661 726
3 657 661 722
3 727 723 722
3 726 727 722
3 728 724 725
3 729 728 725
3 660 728 662
3 724 728 660
3 726 663 730
3 661 663 726
3 731 727 726
3 730 731 726
3 664 728 729
3 664 729 665
3 665 729 732
3 662 728 664
3 663 666 730
3 730 666 667
3 730 667 731
3 731 667 733
3 668 734 735
3 669 668 735
3 732 668 665
3 734 668 732
3 667 736 733
3 670 736 667
3 671 737 670
3 670 737 736
3 672 738 739
3 672 739 671
3 671 739 737
3 739 738 740
3 741 742 743
3 741 674 673
3 741 673 742
3 742 673 744
3 675 745 673
3 673 745 744
3 677 746 675
3 675 746 745
3 678 747 748
3 678 748 677
3 677 748 746
3 747 749 750
3 748 747 750
3 749 751 752
3 750 749 752
3 751 680 679
3 751 679 752
3 752 679 753
3 735 679 669
3 753 679 735
3 672 681 738
3 682 754 755
3 681 682 755
3 681 755 740
3 681 740 738
3 754 756 757
3 755 754 757
3 756 758 759
3 757 756 759
3 743 759 758
3 741 743 758
3 741 758 684
3 741 684 683
3 674 741 683
3 678 686 747
3 688 747 686
3 749 747 688
3 689 749 688
3 751 749 689
3 680 751 689
3 682 690 754
3 691 754 690
3 756 754 691
3 692 756 691
3 758 756 692
3 684 758 692
3 695 694 760
3 761 695 760
3 761 762 695
3 762 696 695
3 697 696 763
3 696 762 763
3 698 697 764
3 697 763 764
3 764 700 698
3 765 700 764
3 705 766 767
3 704 766 705
3 706 705 768
3 705 767 768
3 707 706 769
3 706 768 769
3 769 708 707
3 770 708 769
3 711 710 771
3 711 772 712
3 771 772 711
3 773 712 772
3 773 774 712
3 774 713 712
3 760 694 713
3 760 713 775
3 775 713 774
3 761 760 775
3 700 765 776
3 714 700 776
3 777 776 778
3 777 715 776
3 715 714 776
3 715 779 716
3 777 779 715
3 716 780 717
3 779 780 716
3 717 780 781
3 717 781 704
3 704 781 766
3 708 770 718
3 770 782 718
3 720 783 784
3 719 783 720
3 771 710 720
3 771 720 785
3 785 720 784
3 772 771 785
3 786 772 785
3 773 772 786
3 787 777 778
3 788 787 778
3 779 777 789
3 789 777 787
3 790 791 780
3 790 780 789
3 789 780 779
3 781 780 791
3 718 782 721
3 782 792 721
3 719 723 783
3 783 723 793
3 787 788 794
3 794 795 796
3 794 796 787
3 787 796 789
3 797 790 789
3 796 797 789
3 798 799 800
3 798 792 799
3 798 725 792
3 725 721 792
3 723 727 793
3 793 727 801
3 796 795 802
3 797 796 802
3 803 798 800
3 804 803 800
3 725 803 729
3 798 803 725
3 727 731 801
3 801 731 805
3 806 803 804
3 807 806 804
3 729 806 732
3 803 806 729
3 731 733 805
3 805 733 808
3 809 810 811
3 810 809 812
3 813 814 815
3 813 816 817
3 814 813 817
3 817 816 818
3 819 820 821
3 819 822 823
3 820 819 823
3 807 823 822
3 806 807 822
3 806 822 735
3 806 735 734
3 732 806 734
3 733 824 808
3 736 824 733
3 737 825 736
3 736 825 824
3 739 826 737
3 737 826 825
3 740 827 828
3 740 828 739
3 739 828 826
3 827 829 830
3 828 827 830
3 829 831 832
3 830 829 832
3 811 832 831
3 809 811 831
3 809 831 743
3 809 743 742
3 809 833 812
3 809 742 833
3 742 744 833
3 815 745 813
3 815 833 745
3 833 744 745
3 746 813 745
3 816 813 746
3 816 834 818
3 816 746 834
3 746 748 834
3 750 835 748
3 748 835 834
3 821 752 819
3 821 835 752
3 835 750 752
3 753 819 752
3 822 819 753
3 735 822 753
3 740 755 827
3 757 827 755
3 829 827 757
3 759 829 757
3 831 829 759
3 743 831 759
3 762 836 837
3 761 836 762
3 763 762 838
3 762 837 838
3 764 763 839
3 763 838 839
3 839 765 764
3 840 765 839
3 767 841 842
3 766 841 767
3 768 767 843
3 767 842 843
3 769 768 844
3 768 843 844
3 844 770 769
3 845 770 844
3 774 773 846
3 847 774 846
3 847 848 774
3 848 775 774
3 836 761 775
3 848 836 775
3 765 840 849
3 776 765 849
3 778 850 851
3 778 776 850
3 776 849 850
3 850 852 851
3 853 854 855
3 853 855 841
3 853 841 781
3 781 841 766
3 770 845 782
3 845 856 782
3 784 783 857
3 858 784 857
3 858 859 784
3 859 785 784
3 786 785 860
3 785 859 860
3 846 773 786
3 846 786 861
3 861 786 860
3 847 846 861
3 851 862 863
3 851 863 778
3 778 863 788
3 852 862 851
3 854 864 865
3 854 790 864
3 854 853 791
3 790 854 791
3 853 781 791
3 866 865 864
3 782 856 792
3 856 867 792
3 857 868 869
3 857 783 868
3 783 793 868
3 858 857 869
3 870 871 872
3 794 870 873
3 794 863 870
3 794 788 863
3 871 870 863
3 794 873 795
3 864 797 874
3 790 797 864
3 875 866 864
3 874 875 864
3 799 876 877
3 800 799 877
3 867 799 792
3 876 799 867
3 793 801 868
3 868 801 878
3 879 870 872
3 880 879 872
3 873 870 881
3 881 870 879
3 795 882 802
3 795 873 882
3 873 881 882
3 802 874 797
3 802 882 874
3 882 883 874
3 884 875 874
3 884 874 885
3 885 874 883
3 885 886 887
3 884 885 887
3 886 877 887
3 886 804 877
3 804 800 877
3 801 805 878
3 878 805 888
3 889 890 891
3 890 889 892
3 893 879 880
3 894 893 880
3 881 879 895
3 895 879 893
3 882 881 896
3 896 881 895
3 883 882 897
3 897 882 896
3 885 883 898
3 898 883 897
3 886 885 899
3 899 885 898
3 804 899 807
3 886 899 804
3 805 808 888
3 888 808 900
3 901 902 903
3 891 902 901
3 889 891 901
3 889 901 811
3 889 811 810
3 812 904 905
3 810 812 905
3 810 905 892
3 810 892 889
3 894 905 904
3 893 894 904
3 893 904 815
3 893 815 814
3 817 893 814
3 895 893 817
3 818 895 817
3 818 906 895
3 906 896 895
3 897 896 907
3 907 896 906
3 820 907 821
3 820 898 907
3 898 897 907
3 823 898 820
3 899 898 823
3 807 899 823
3 808 908 900
3 824 908 808
3 825 909 824
3 824 909 908
3 826 910 825
3 825 910 909
3 828 911 826
3 826 911 910
3 830 912 828
3 828 912 911
3 903 832 901
3 903 912 832
3 912 830 832
3 811 901 832
3 812 833 904
3 815 904 833
3 818 834 906
3 835 906 834
3 907 906 835
3 821 907 835
3 837 836 913
3 837 914 838
3 913 914 837
3 838 915 839
3 914 915 838
3 839 915 840
3 842 841 916
3 842 917 843
3 916 917 842
3 843 918 844
3 917 918 843
3 844 918 845
3 848 919 920
3 847 919 848
3 913 836 848
3 913 848 921
3 921 848 920
3 914 913 921
3 922 914 921
3 915 914 922
3 923 915 922
3 924 923 925
3 849 923 924
3 849 915 923
3 849 840 915
3 849 926 850
3 924 926 849
3 852 850 926
3 927 928 929
3 927 855 854
3 927 929 855
3 929 930 855
3 916 841 855
3 916 855 931
3 931 855 930
3 917 916 931
3 932 917 931
3 918 917 932
3 933 918 932
3 933 845 918
3 933 934 845
3 934 856 845
3 859 935 936
3 858 935 859
3 860 859 937
3 859 936 937
3 861 860 938
3 860 937 938
3 919 847 861
3 938 919 861
3 939 924 925
3 940 939 925
3 862 939 863
3 862 926 939
3 926 924 939
3 862 852 926
3 941 928 942
3 927 942 928
3 854 865 943
3 854 943 927
3 927 943 942
3 865 866 943
3 856 934 867
3 934 944 867
3 869 945 946
3 868 945 869
3 935 858 869
3 946 935 869
3 871 939 940
3 871 940 872
3 872 940 947
3 863 939 871
3 942 948 941
3 943 948 942
3 949 948 943
3 943 866 875
3 943 875 950
3 943 950 949
3 951 950 875
3 951 952 953
3 950 951 953
3 952 877 876
3 952 876 953
3 953 876 954
3 944 876 867
3 954 876 944
3 868 878 945
3 945 878 955
3 956 957 958
3 956 947 957
3 956 880 947
3 880 872 947
3 875 884 951
3 887 951 884
3 952 951 887
3 877 952 887
3 878 888 955
3 955 888 959
3 960 961 962
3 960 891 890
3 960 890 961
3 961 890 963
3 892 964 956
3 892 956 963
3 892 963 890
3 963 956 958
3 880 964 894
3 956 964 880
3 965 900 966
3 965 959 900
3 959 888 900
3 965 966 967
3 968 969 970
3 962 969 968
3 960 962 968
3 960 968 903
3 960 903 902
3 891 960 902
3 892 905 964
3 894 964 905
3 900 908 966
3 966 971 967
3 966 908 971
3 908 909 971
3 910 972 909
3 909 972 971
3 911 973 910
3 910 973 972
3 970 912 968
3 970 973 912
3 973 911 912
3 903 968 912
3 920 974 975
3 919 974 920
3 921 920 976
3 920 975 976
3 922 921 977
3 921 976 977
3 923 922 978
3 922 977 978
3 925 979 980
3 925 923 979
3 923 978 979
3 979 981 980
3 929 982 983
3 928 982 929
3 930 929 984
3 929 983 984
3 931 930 985
3 930 984 985
3 932 931 986
3 931 985 986
3 987 986 988
3 987 933 986
3 933 932 986
3 933 987 934
3 936 989 990
3 935 989 936
3 937 936 991
3 936 990 991
3 938 937 992
3 937 991 992
3 974 919 938
3 992 974 938
3 980 993 940
3 925 980 940
3 994 980 981
3 994 995 980
3 995 993 980
3 995 994 982
3 995 982 941
3 941 982 928
3 996 987 988
3 997 996 988
3 934 996 944
3 987 996 934
3 946 945 998
3 946 998 999
3 946 999 935
3 935 999 989
3 993 1000 1001
3 993 1001 940
3 940 1001 947
3 995 1000 993
3 1002 1000 995
3 1003 1004 1002
3 948 1003 1002
3 948 1002 995
3 948 995 941
3 948 949 1005
3 1003 948 1005
3 949 950 1006
3 1005 949 1006
3 1007 1006 950
3 1007 950 1008
3 1008 950 953
3 997 954 996
3 997 1008 954
3 1008 953 954
3 944 996 954
3 998 955 1009
3 945 955 998
3 1010 999 998
3 1009 1010 998
3 957 1011 1012
3 958 957 1012
3 1001 957 947
3 1011 957 1001
3 1003 1013 1004
3 1005 1013 1003
3 1014 1013 1005
3 1006 1014 1005
3 1015 1014 1006
3 1007 1015 1006
3 1009 959 1016
3 955 959 1009
3 1017 1010 1009
3 1016 1017 1009
3 961 1018 1019
3 962 961 1019
3 963 1020 961
3 961 1020 1018
3 1012 963 958
3 1020 963 1012
3 959 965 1016
3 1016 965 967
3 1016 967 1017
3 1017 967 1021
3 1022 1023 1024
3 1022 970 969
3 1022 969 1023
3 1023 969 1025
3 1019 969 962
3 1025 969 1019
3 967 1026 1021
3 971 1026 967
3 972 1027 971
3 971 1027 1026
3 1024 973 1022
3 1024 1027 973
3 1027 972 973
3 970 1022 973
3 975 974 1028
3 1029 975 1028
3 1029 1030 975
3 1030 976 975
3 977 976 1031
3 976 1030 1031
3 978 977 1032
3 977 1031 1032
3 979 978 1033
3 978 1032 1033
3 981 1034 1035
3 981 979 1034
3 979 1033 1034
3 1035 983 982
3 1035 1034 983
3 1034 1036 983
3 984 983 1037
3 983 1036 1037
3 985 984 1038
3 984 1037 1038
3 1039 1038 1040
3 1039 986 1038
3 986 985 1038
3 986 1039 988
3 990 989 1041
3 1042 990 1041
3 1042 1043 990
3 1043 991 990
3 992 991 1044
3 991 1043 1044
3 1028 974 992
3 1028 992 1045
3 1045 992 1044
3 1029 1028 1045
3 981 1035 994
3 982 994 1035
3 1046 1039 1040
3 1047 1046 1040
3 988 1046 997
3 1039 1046 988
3 1041 1048 1049
3 1041 989 1048
3 989 999 1048
3 1042 1041 1049
3 1000 1050 1001
3 1000 1002 1051
3 1050 1000 1051
3 1002 1004 1051
3 1052 1053 1054
3 1052 1055 1056
3 1053 1052 1056
3 1047 1056 1055
3 1046 1047 1055
3 1046 1055 1007
3 1046 1007 1008
3 997 1046 1008
3 999 1010 1048
3 1048 1010 1057
3 1011 1058 1059
3 1012 1011 1059
3 1050 1011 1001
3 1050 1060 1011
3 1060 1058 1011
3 1051 1060 1050
3 1061 1060 1051
3 1004 1061 1051
3 1004 1013 1061
3 1013 1062 1061
3 1054 1014 1052
3 1054 1062 1014
3 1062 1013 1014
3 1015 1052 1014
3 1055 1052 1015
3 1007 1055 1015
3 1010 1017 1057
3 1057 1017 1063
3 1018 1064 1065
3 1019 1018 1065
3 1020 1066 1018
3 1018 1066 1064
3 1059 1020 1012
3 1066 1020 1059
3 1067 1021 1068
3 1067 1063 1021
3 1063 1017 1021
3 1068 1069 1070
3 1067 1068 1070
3 1069 1024 1023
3 1069 1023 1070
3 1070 1023 1071
3 1025 1072 1023
3 1023 1072 1071
3 1065 1025 1019
3 1072 1025 1065
3 1021 1026 1068
3 1027 1068 1026
3 1069 1068 1027
3 1024 1069 1027
3 1030 1029 1073
3 1030 1074 1031
3 1073 1074 1030
3 1031 1075 1032
3 1074 1075 1031
3 1032 1076 1033
3 1075 1076 1032
3 1033 1077 1034
3 1076 1077 1033
3 1034 1078 1036
3 1077 1078 1034
3 1036 1079 1037
3 1078 1079 1036
3 1037 1080 1038
3 1079 1080 1037
3 1038 1080 1040
3 1043 1042 1081
3 1082 1043 1081
3 1082 1083 1043
3 1083 1044 1043
3 1045 1044 1084
3 1044 1083 1084
3 1073 1029 1045
3 1073 1045 1085
3 1085 1045 1084
3 1074 1073 1085
3 1086 1074 1085
3 1075 1074 1086
3 1087 1075 1086
3 1076 1075 1087
3 1088 1076 1087
3 1077 1076 1088
3 1089 1077 1088
3 1078 1077 1089
3 1090 1078 1089
3 1090 1091 1092
3 1090 1092 1078
3 1078 1092 1079
3 1080 1079 1093
3 1093 1079 1092
3 1040 1093 1047
3 1080 1093 1040
3 1049 1048 1094
3 1049 1094 1095
3 1042 1049 1095
3 1042 1095 1096
3 1042 1096 1081
3 1082 1081 1096
3 1097 1098 1099
3 1097 1100 1101
3 1098 1097 1101
3 1091 1101 1100
3 1092 1091 1100
3 1092 1100 1054
3 1092 1054 1053
3 1056 1092 1053
3 1093 1092 1056
3 1047 1093 1056
3 1094 1057 1102
3 1048 1057 1094
3 1103 1095 1094
3 1102 1103 1094
3 1104 1105 1106
3 1104 1059 1058
3 1104 1058 1105
3 1105 1058 1107
3 1060 1108 1058
3 1058 1108 1107
3 1099 1061 1097
3 1099 1108 1061
3 1108 1060 1061
3 1062 1097 1061
3 1100 1097 1062
3 1054 1100 1062
3 1102 1063 1109
3 1057 1063 1102
3 1110 1103 1102
3 1110 1102 1111
3 1111 1102 1109
3 1111 1112 1113
3 1110 1111 1113
3 1112 1114 1115
3 1113 1112 1115
3 1114 1065 1064
3 1114 1064 1115
3 1115 1064 1116
3 1106 1066 1104
3 1106 1116 1066
3 1116 1064 1066
3 1059 1104 1066
3 1063 1067 1109
3 1070 1109 1067
3 1111 1109 1070
3 1071 1111 1070
3 1112 1111 1071
3 1072 1112 1071
3 1114 1112 1072
3 1065 1114 1072
3 1083 1082 1117
3 1083 1118 1084
3 1117 1118 1083
3 1084 1119 1085
3 1118 1119 1084
3 1085 1120 1086
3 1119 1120 1085
3 1086 1121 1087
3 1120 1121 1086
3 1087 1122 1088
3 1121 1122 1087
3 1088 1123 1089
3 1122 1123 1088
3 1089 1124 1090
3 1123 1124 1089
3 1090 1124 1091
3 1096 1095 1125
3 1096 1117 1082
3 1096 1125 1117
3 1125 1126 1117
3 1118 1117 1127
3 1127 1117 1126
3 1119 1118 1128
3 1128 1118 1127
3 1120 1119 1129
3 1129 1119 1128
3 1121 1120 1130
3 1130 1120 1129
3 1122 1121 1131
3 1131 1121 1130
3 1098 1131 1099
3 1098 1123 1131
3 1123 1122 1131
3 1101 1123 1098
3 1124 1123 1101
3 1091 1124 1101
3 1125 1103 1132
3 1095 1103 1125
3 1126 1125 1133
3 1133 1125 1132
3 1127 1126 1134
3 1134 1126 1133
3 1128 1127 1135
3 1135 1127 1134
3 1105 1135 1106
3 1105 1129 1135
3 1129 1128 1135
3 1107 1129 1105
3 1130 1129 1107
3 1108 1130 1107
3 1131 1130 1108
3 1099 1131 1108
3 1103 1110 1132
3 1113 1132 1110
3 1133 1132 1113
3 1115 1133 1113
3 1134 1133 1115
3 1116 1134 1115
3 1135 1134 1116
3 1106 1135 1116
